<svg xmlns="http://www.w3.org/2000/svg" xmlns:xlink="http://www.w3.org/1999/xlink" viewBox="0 0 1440 1077.61"><defs><style>.cls-1{fill:none;}.cls-2{fill:url(#linear-gradient);}.cls-3{fill:#fff;opacity:0.05;}.cls-4{clip-path:url(#clip-path);}</style><linearGradient id="linear-gradient" x1="214.65" y1="1142.67" x2="1225.34" y2="131.99" gradientUnits="userSpaceOnUse"><stop offset="0" stop-color="#d23274"/><stop offset="1" stop-color="#f24a37"/></linearGradient><clipPath id="clip-path"><path class="cls-1" d="M1440,346.66V928a1786,1786,0,0,1-174.4,65.52,1788.55,1788.55,0,0,1-266.95,62.67A1814.35,1814.35,0,0,1,720,1077.61q-55.85,0-110.86-3.37-57.74-3.48-114.45-10.58-31.35-3.92-62.36-8.89a1790.68,1790.68,0,0,1-266.69-64Q80.9,963.37,0,928V346.66Z"/></clipPath></defs><title>1_BG(opt)@web</title><g id="Layer_2" data-name="Layer 2"><g id="Layer_1-2" data-name="Layer 1"><path class="cls-2" d="M1440,346.66V928a1786,1786,0,0,1-174.4,65.52,1788.55,1788.55,0,0,1-266.95,62.67A1814.35,1814.35,0,0,1,720,1077.61q-55.85,0-110.86-3.37-57.74-3.48-114.45-10.58-31.35-3.92-62.36-8.89a1790.68,1790.68,0,0,1-266.69-64Q80.9,963.37,0,928V346.66Z"/><path class="cls-3" d="M1080,648.46C1080,849.22,917.25,1012,716.49,1012S353,849.22,353,648.46c0-125.71,63.81-236.52,160.81-301.8H919.19C1016.19,411.94,1080,522.75,1080,648.46Z"/><circle class="cls-3" cx="716.49" cy="648.45" r="262.41"/><g class="cls-4"><path class="cls-3" d="M1221.46,241.61C1102.6,94.26,920.55,0,716.49,0s-386.11,94.26-505,241.61a648.76,648.76,0,0,0-45.89,749.12,1790.68,1790.68,0,0,0,266.69,64q31,5,62.36,8.89,56.7,7.08,114.45,10.58,55,3.36,110.86,3.37a1814.35,1814.35,0,0,0,278.67-21.42,1788.55,1788.55,0,0,0,266.95-62.67,648.74,648.74,0,0,0-44.14-751.91Z"/><path class="cls-3" d="M1212.28,648.45c0,169-84.54,318.23-213.63,407.74A1814.35,1814.35,0,0,1,720,1077.61q-55.85,0-110.86-3.37-57.74-3.48-114.45-10.58-31.35-3.92-62.36-8.89c-128-89.65-211.62-238.21-211.62-406.32,0-168.43,84-317.25,212.38-406.84a496,496,0,0,1,566.84,0C1128.29,331.2,1212.28,480,1212.28,648.45Z"/></g></g></g></svg>