<svg xmlns="http://www.w3.org/2000/svg" xmlns:xlink="http://www.w3.org/1999/xlink" viewBox="0 0 1440.76 730.95"><defs>
<style>.cls-1{fill:url(#linear-gradient);}.cls-2{fill:#fff;opacity:0.05;}.cls-3{fill:none;}</style>
<linearGradient id="linear-gradient" y1="365.48" x2="1440" y2="365.48" gradientUnits="userSpaceOnUse">
<stop offset="0" stop-color="#d23274"/><stop offset="1" stop-color="#f24a37"/></linearGradient></defs>
<title>1_BG@web</title><g id="Layer_2" data-name="Layer 2"><g id="Layer_1-2" data-name="Layer 1">
<path class="cls-1" d="M1440,0V581.34a1786,1786,0,0,1-174.4,65.52,1788.55,1788.55,0,0,1-266.95,62.67A1814.35,1814.35,0,0,1,720,731q-55.85,0-110.86-3.37Q551.39,724.1,494.67,717q-31.35-3.91-62.36-8.89a1790.68,1790.68,0,0,1-266.69-64Q80.9,616.71,0,581.36V0Z"/>
<path class="cls-2" d="M1080.77,301.8c0,200.76-162.75,363.52-363.51,363.52S353.74,502.56,353.74,301.8c0-125.71,63.81-236.52,160.81-301.8H920C1017,65.28,1080.77,176.09,1080.77,301.8Z"/>

<path class="cls-2" d="M1291.34,0H143.15a649.29,649.29,0,0,0,23.23,644.07,1790.68,1790.68,0,0,0,266.69,64q31,5,62.36,8.89,56.7,7.08,114.45,10.58,55,3.36,110.86,3.37a1814.35,1814.35,0,0,0,278.67-21.42,1788.55,1788.55,0,0,0,266.95-62.67A649.27,649.27,0,0,0,1291.34,0Z"/>
<path class="cls-2" d="M1213,301.79c0,169-84.54,318.23-213.63,407.74A1814.35,1814.35,0,0,1,720.74,731q-55.85,0-110.86-3.37Q552.15,724.1,495.43,717q-31.35-3.91-62.36-8.89c-128-89.65-211.62-238.21-211.62-406.32A493.59,493.59,0,0,1,323.86,0h786.78A493.64,493.64,0,0,1,1213,301.79Z"/>
<path class="cls-3" d="M1440.76,0V581.34a1786,1786,0,0,1-174.4,65.52,1788.55,1788.55,0,0,1-266.95,62.67A1814.35,1814.35,0,0,1,720.74,731q-55.85,0-110.86-3.37Q552.15,724.1,495.43,717q-31.35-3.91-62.36-8.89a1790.68,1790.68,0,0,1-266.69-64Q81.66,616.71.76,581.36V0Z"/>
</g></g></svg>