<svg xmlns="http://www.w3.org/2000/svg" xmlns:xlink="http://www.w3.org/1999/xlink" viewBox="0 0 471.23 470"><defs><style>.cls-1{fill:url(#linear-gradient);}.cls-2{fill:none;}</style><linearGradient id="linear-gradient" y1="235.56" x2="463.34" y2="235.56" gradientUnits="userSpaceOnUse"><stop offset="0" stop-color="#d23274"/><stop offset="1" stop-color="#f24a37"/></linearGradient></defs><title>2_Art_Orbit@web</title><g id="Layer_2" data-name="Layer 2"><g id="Layer_1-2" data-name="Layer 1"><path class="cls-1" d="M24.65,467.23c-7.51,0-13.81-1.93-18.32-6.44-20.45-20.45,13.3-79.22,35.23-112.43a3,3,0,0,1,5,3.3C11.48,404.79-2,444,10.57,456.55c12,12,47.24.79,96.72-30.69,51.34-32.67,112.36-83.4,171.82-142.86S389.31,162.52,422,111.17c31.49-49.48,42.67-84.73,30.69-96.71-12.59-12.59-52,1-105.33,36.29a3,3,0,1,1-3.31-5c33.36-22.08,92.38-56,112.89-35.53C475.3,28.61,450.81,77,427,114.4c-32.89,51.7-83.92,113.08-143.68,172.84S162.21,398,110.51,430.92C82.29,448.87,47.78,467.23,24.65,467.23Z"/><rect class="cls-2" x="1.23" width="470" height="470"/></g></g></svg>