<svg xmlns="http://www.w3.org/2000/svg" viewBox="0 0 470 470"><defs><style>.cls-1{fill:#ff6224;}.cls-2{fill:#fff;}.cls-3{fill:none;}</style></defs><title>2_Art_Float_Icon1@web</title><g id="Layer_2" data-name="Layer 2"><g id="Layer_1-2" data-name="Layer 1"><rect class="cls-1" x="175.05" y="44.14" width="65.16" height="50.99" rx="4.94"/><path class="cls-2" d="M194.6,84.43h-.2l-.23,0A10.52,10.52,0,0,1,190.41,83a4.7,4.7,0,0,1-1.8-2.12,7.58,7.58,0,0,1-.49-2.82l.06-3.14a5.45,5.45,0,0,0-.37-2.13,3,3,0,0,0-1.08-1.36,3.17,3.17,0,0,0-1.72-.51h-.17a1.25,1.25,0,0,1-.9-.36,1.32,1.32,0,0,1,0-1.83,1.25,1.25,0,0,1,.9-.36h.2a3.52,3.52,0,0,0,1.72-.52,2.84,2.84,0,0,0,1.06-1.35,5.65,5.65,0,0,0,.36-2.13l-.06-3.14a7.58,7.58,0,0,1,.33-2.31,4.53,4.53,0,0,1,1-1.78,6.22,6.22,0,0,1,1.86-1.31,13.06,13.06,0,0,1,2.83-.92,1.22,1.22,0,0,1,1.2.25,1.37,1.37,0,0,1,.38,1,1,1,0,0,1-.27.68,1.46,1.46,0,0,1-.68.44,8.62,8.62,0,0,0-2.31,1.09,2.79,2.79,0,0,0-1,1.38,6.25,6.25,0,0,0-.26,2l.06,3.18a5.15,5.15,0,0,1-.9,3.14,4.77,4.77,0,0,1-2.5,1.7V69.6a4.82,4.82,0,0,1,2.5,1.7,5.16,5.16,0,0,1,.9,3.15l-.06,3.17a6.18,6.18,0,0,0,.26,1.95,2.77,2.77,0,0,0,1,1.37,8.83,8.83,0,0,0,2.31,1.13,1.22,1.22,0,0,1,.95,1.22,1.11,1.11,0,0,1-.35.8A1.08,1.08,0,0,1,194.6,84.43Z"/><path class="cls-2" d="M200.07,77.82a1.64,1.64,0,0,1-1.26-.46,1.75,1.75,0,0,1-.45-1.28v-.59a1.73,1.73,0,0,1,.45-1.27,1.64,1.64,0,0,1,1.26-.46h.36a1.59,1.59,0,0,1,1.24.46,1.81,1.81,0,0,1,.43,1.27v.59a1.83,1.83,0,0,1-.43,1.28,1.59,1.59,0,0,1-1.24.46Z"/><path class="cls-2" d="M207.47,77.82a1.68,1.68,0,0,1-1.27-.46,1.79,1.79,0,0,1-.44-1.28v-.59a1.77,1.77,0,0,1,.44-1.27,1.68,1.68,0,0,1,1.27-.46h.36a1.59,1.59,0,0,1,1.24.46,1.8,1.8,0,0,1,.42,1.27v.59a1.83,1.83,0,0,1-.42,1.28,1.59,1.59,0,0,1-1.24.46Z"/><path class="cls-2" d="M214.87,77.82a1.68,1.68,0,0,1-1.27-.46,1.79,1.79,0,0,1-.44-1.28v-.59a1.77,1.77,0,0,1,.44-1.27,1.68,1.68,0,0,1,1.27-.46h.35a1.6,1.6,0,0,1,1.25.46,1.8,1.8,0,0,1,.42,1.27v.59a1.83,1.83,0,0,1-.42,1.28,1.6,1.6,0,0,1-1.25.46Z"/><path class="cls-2" d="M220.63,84.43a.92.92,0,0,1-.84-.46,1.67,1.67,0,0,1-.28-.82,1,1,0,0,1,.27-.68,1.45,1.45,0,0,1,.68-.43,8.06,8.06,0,0,0,2.33-1.1,2.75,2.75,0,0,0,1-1.39,6.27,6.27,0,0,0,.27-2L224,74.41a5,5,0,0,1,.92-3.16,4.92,4.92,0,0,1,2.48-1.68v.1A4.88,4.88,0,0,1,224.92,68a5,5,0,0,1-.92-3.16l.07-3.14a6.06,6.06,0,0,0-.27-2,3,3,0,0,0-1-1.38,7.54,7.54,0,0,0-2.31-1.1,1.23,1.23,0,0,1-1-1.24,1.37,1.37,0,0,1,.36-.8,1,1,0,0,1,.79-.34h.21l.22,0a10.35,10.35,0,0,1,3.76,1.37,4.66,4.66,0,0,1,1.8,2.15,7.59,7.59,0,0,1,.49,2.8l-.06,3.17a5.45,5.45,0,0,0,.37,2.13,2.87,2.87,0,0,0,2.8,1.83h.17a1.23,1.23,0,0,1,.9.38,1.26,1.26,0,0,1,.37.93,1.22,1.22,0,0,1-.37.92,1.25,1.25,0,0,1-.9.36h-.2a3.15,3.15,0,0,0-1.72.51,2.86,2.86,0,0,0-1.06,1.34,5.6,5.6,0,0,0-.36,2.14l.06,3.15a7.48,7.48,0,0,1-.28,2.11,4.29,4.29,0,0,1-1,1.72,6.39,6.39,0,0,1-1.84,1.37,14.73,14.73,0,0,1-3,1.12l-.2,0Z"/><rect class="cls-3" width="470" height="470"/></g></g></svg>