<svg xmlns="http://www.w3.org/2000/svg" viewBox="0 0 470 470"><defs><style>.cls-1{fill:#b70f5b;}.cls-2{fill:#fff;}.cls-3{fill:none;}</style></defs><title>2_Art_FloatIcon_2@web</title><g id="Layer_2" data-name="Layer 2"><g id="Layer_1-2" data-name="Layer 1"><rect class="cls-1" x="45.38" y="56.82" width="65.16" height="50.99" rx="4.94"/><path class="cls-2" d="M92.09,79.34h-2a12.54,12.54,0,0,0-1.39-3.15l1.58-1.58a1.55,1.55,0,0,0,0-2.18L88,70.21a1.54,1.54,0,0,0-1.13-.45,1.52,1.52,0,0,0-1.05.45l-1.68,1.68a12.41,12.41,0,0,0-3-1.2V68.17a1.54,1.54,0,0,0-1.54-1.53H76.52A1.54,1.54,0,0,0,75,68.17v2.55a11.87,11.87,0,0,0-2.88,1.15L70.25,70a1.56,1.56,0,0,0-2.18,0l-2.22,2.23a1.53,1.53,0,0,0,0,2.17l1.71,1.71a12.67,12.67,0,0,0-1.35,2.94H63.82a1.54,1.54,0,0,0-1.54,1.54v3.15a1.54,1.54,0,0,0,1.54,1.54h2.1a12.32,12.32,0,0,0,1.18,3.29L65.66,90a1.56,1.56,0,0,0-.43,1.32,1.48,1.48,0,0,0,.43.86l2.23,2.23a1.56,1.56,0,0,0,2.18,0l1.24-1.26a12.43,12.43,0,0,0,3.4,1.54v1.74A1.55,1.55,0,0,0,76.25,98H79.4a1.54,1.54,0,0,0,1.53-1.55V94.83a12.47,12.47,0,0,0,3.54-1.43l1.19,1.2a1.53,1.53,0,0,0,2.18,0l2.23-2.21a1.56,1.56,0,0,0,0-2.18L88.83,89a12.09,12.09,0,0,0,1.35-3.41h1.91A1.54,1.54,0,0,0,93.64,84V80.88A1.54,1.54,0,0,0,92.09,79.34Zm-6.23,5a8,8,0,1,1-5.1-9A7.89,7.89,0,0,1,85.86,84.29Z"/><rect class="cls-3" width="470" height="470"/></g></g></svg>