<svg xmlns="http://www.w3.org/2000/svg" xmlns:xlink="http://www.w3.org/1999/xlink" viewBox="0 0 470 470"><defs><style>.cls-1{isolation:isolate;}.cls-2{fill:url(#linear-gradient);}.cls-3{fill:#fff;}.cls-4{fill:#b70f5b;}.cls-5,.cls-7,.cls-9{fill:#ff6224;}.cls-10,.cls-6{fill:#ff9750;}.cls-7{opacity:0.18;}.cls-8{fill:#ffbc8f;}.cls-10,.cls-20,.cls-9{opacity:0.5;}.cls-11{fill:#ffb583;}.cls-12{fill:#e03c03;}.cls-13{fill:#ffc947;}.cls-14{fill:#f45721;}.cls-15{fill:#382424;}.cls-16{fill:#ffd0c5;}.cls-17{opacity:0.25;}.cls-17,.cls-18,.cls-19,.cls-20{mix-blend-mode:overlay;}.cls-18{opacity:0.15;}.cls-19{opacity:0.75;}.cls-21{fill:none;}</style><linearGradient id="linear-gradient" x1="11.17" y1="235.51" x2="449.63" y2="235.51" gradientUnits="userSpaceOnUse"><stop offset="0" stop-color="#d23274"/><stop offset="1" stop-color="#f24a37"/></linearGradient></defs><title>2_Art_BG@web</title><g class="cls-1"><g id="Layer_2" data-name="Layer 2"><g id="Layer_1-2" data-name="Layer 1"><path class="cls-2" d="M449.63,235.51A221.46,221.46,0,0,1,448,262.68q-.84,6.74-2.07,13.34c-.13.65-.24,1.3-.38,1.94-.63,3.26-1.35,6.49-2.12,9.69a218.46,218.46,0,0,1-15.49,43.12.08.08,0,0,0,0,0,218.15,218.15,0,0,1-15.17,26.47c-.5.75-1,1.5-1.53,2.25s-1.1,1.6-1.68,2.4a217.59,217.59,0,0,1-16.77,20.9c-2.21,2.45-4.49,4.83-6.81,7.17q-6,6.06-12.51,11.66h0a.69.69,0,0,0-.13.11l-2.36,2q-4.87,4.08-10,7.87l-.23.16a218.07,218.07,0,0,1-54.48,29.48q-2.4.87-4.81,1.69a217.3,217.3,0,0,1-25.83,7.1q-6.42,1.35-13,2.3a219.33,219.33,0,0,1-32.21,2.36c-5.63,0-11.22-.21-16.74-.63-2.23-.16-4.45-.37-6.67-.6q-10.52-1.11-20.71-3.21l-1-.2-1.14-.24-.82-.18-2.33-.52a217.81,217.81,0,0,1-43.35-14.93l-1.85-.87q-5.76-2.76-11.32-5.83c-.7-.39-1.39-.79-2.09-1.17a225.67,225.67,0,0,1-19.61-12.54l0,0q-7.35-5.28-14.25-11.14a217.93,217.93,0,0,1-18.27-17.42l-1.72-1.85q-4.17-4.56-8.07-9.35c-1.55-1.9-3.06-3.81-4.55-5.75h0c-1.48-2-2.95-4-4.4-6q-5.28-7.42-9.93-15.31c-.71-1.19-1.4-2.39-2.08-3.59h0c-1.09-1.92-2.14-3.84-3.18-5.8h0l-.9-1.75h0c-1.53-3-3-6-4.39-9s-2.88-6.44-4.19-9.73c0,0,0,0,0,0-1.11-2.74-2.15-5.52-3.15-8.32h0A219.68,219.68,0,0,1,52.18,107.81q6.14-8.57,13.05-16.47c1.77-2,3.56-4,5.4-6q4.91-5.2,10.13-10.08,3-2.82,6.14-5.54,7.92-6.86,16.48-12.94a217.63,217.63,0,0,1,29.25-17.59q6.52-3.25,13.29-6.08l1.94-.79h0c.4-.16.8-.33,1.21-.48,1.74-.7,3.48-1.37,5.25-2,1.6-.59,3.23-1.17,4.86-1.72.63-.23,1.27-.44,1.9-.64,1.71-.58,3.43-1.14,5.18-1.66l2.68-.81q2.94-.86,5.92-1.63l1.21-.31a215.7,215.7,0,0,1,21.72-4.38,221.92,221.92,0,0,1,32.61-2.41A219.27,219.27,0,0,1,427.89,140.2q1.44,3,2.81,6.06c1,2.34,2.06,4.71,3,7.1.12.31.25.61.37.92a0,0,0,0,0,0,0c.57,1.38,1.1,2.77,1.62,4.18,0,0,0,0,0,0a1.08,1.08,0,0,1,.08.19h0c.75,2,1.47,4,2.15,6.07q1.8,5.22,3.32,10.55s0,.06,0,.09c.8,2.77,1.53,5.57,2.21,8.39a219,219,0,0,1,5.69,37.82C449.48,226.21,449.63,230.85,449.63,235.51Z"/><path class="cls-3" d="M108.82,131.43h133a2.06,2.06,0,0,1,2.06,2.06v4.21a0,0,0,0,1,0,0H106.77a0,0,0,0,1,0,0v-4.21a2.06,2.06,0,0,1,2.06-2.06Z"/><path class="cls-4" d="M105.54,136.47H242.68a0,0,0,0,1,0,0v69.29a3.83,3.83,0,0,1-3.83,3.83H109.37a3.83,3.83,0,0,1-3.83-3.83V136.47a0,0,0,0,1,0,0Z"/><path class="cls-5" d="M237.33,134.56a1,1,0,1,1-1.93,0,1,1,0,0,1,1.93,0Z"/><path class="cls-5" d="M230.7,134.56a1,1,0,1,1-1-1A1,1,0,0,1,230.7,134.56Z"/><path class="cls-5" d="M224.07,134.56a1,1,0,1,1-1-1A1,1,0,0,1,224.07,134.56Z"/><path class="cls-6" d="M190,147.58H113.88a1.34,1.34,0,0,1-1.33-1.33h0a1.33,1.33,0,0,1,1.33-1.32H190a1.33,1.33,0,0,1,1.33,1.32h0A1.34,1.34,0,0,1,190,147.58Z"/><path class="cls-6" d="M190,156H113.88a1.33,1.33,0,0,1-1.33-1.32h0a1.33,1.33,0,0,1,1.33-1.33H190a1.33,1.33,0,0,1,1.33,1.33h0A1.33,1.33,0,0,1,190,156Z"/><path class="cls-6" d="M153.7,164.45H113.88a1.34,1.34,0,0,1-1.33-1.33h0a1.33,1.33,0,0,1,1.33-1.32H153.7a1.33,1.33,0,0,1,1.33,1.32h0A1.34,1.34,0,0,1,153.7,164.45Z"/><path class="cls-5" d="M190,181.32H113.88a1.34,1.34,0,0,1-1.33-1.33h0a1.33,1.33,0,0,1,1.33-1.32H190a1.33,1.33,0,0,1,1.33,1.32h0A1.34,1.34,0,0,1,190,181.32Z"/><path class="cls-5" d="M153.7,189.75H113.88a1.33,1.33,0,0,1-1.33-1.32h0a1.33,1.33,0,0,1,1.33-1.33H153.7a1.33,1.33,0,0,1,1.33,1.33h0A1.33,1.33,0,0,1,153.7,189.75Z"/><path class="cls-6" d="M153.7,198.19H113.88a1.34,1.34,0,0,1-1.33-1.33h0a1.33,1.33,0,0,1,1.33-1.32H153.7a1.33,1.33,0,0,1,1.33,1.32h0A1.34,1.34,0,0,1,153.7,198.19Z"/><path class="cls-5" d="M190,164.45H161.41a1.33,1.33,0,0,1-1.32-1.33h0a1.32,1.32,0,0,1,1.32-1.32H190a1.33,1.33,0,0,1,1.33,1.32h0A1.34,1.34,0,0,1,190,164.45Z"/><path class="cls-7" d="M235.31,180.67A18.29,18.29,0,1,1,217,162.38,18.29,18.29,0,0,1,235.31,180.67Z"/><path class="cls-8" d="M208,176.05a15.48,15.48,0,0,1,.59-4.39,9.69,9.69,0,0,1,1.84-3.55,8.85,8.85,0,0,1,3.16-2.41,10.6,10.6,0,0,1,4.52-.88c1.49,0,2.46-.36,2.91-1.07a5.92,5.92,0,0,0,.67-3.1,6.53,6.53,0,0,0-.14-1.23,5.42,5.42,0,0,0-.45-1.34,3,3,0,0,0-.91-1.07,2.51,2.51,0,0,0-1.5-.42H203.24a.47.47,0,0,1-.53-.54v-5.88a.46.46,0,0,1,.53-.53H220.4a7.66,7.66,0,0,1,4,1,9.11,9.11,0,0,1,2.8,2.62,11.1,11.1,0,0,1,1.66,3.64,15.74,15.74,0,0,1,.54,4.06,13.23,13.23,0,0,1-2.22,8.07q-2.22,3-7.25,3a8,8,0,0,0-2.16.24,2.49,2.49,0,0,0-1.26.75,3,3,0,0,0-.59,1.25,9.07,9.07,0,0,0-.16,1.77v2.67a.47.47,0,0,1-.53.54h-6.69a.47.47,0,0,1-.53-.54Z"/><path class="cls-8" d="M208.53,182.48h6.68a.54.54,0,0,1,.54.54v6.2a.53.53,0,0,1-.53.53h-6.68a.53.53,0,0,1-.53-.53V183A.53.53,0,0,1,208.53,182.48Z"/><polygon class="cls-4" points="106.77 203.41 106.77 227.54 128.94 205.37 106.77 203.41"/><path class="cls-9" d="M408.88,162.55H328.7a2.64,2.64,0,0,1-2.65-2.64h0a2.65,2.65,0,0,1,2.65-2.65h80.18a2.65,2.65,0,0,1,2.64,2.65h0A2.64,2.64,0,0,1,408.88,162.55Z"/><path class="cls-10" d="M380.24,174.06H328.7a2.65,2.65,0,0,1-2.65-2.65h0a2.65,2.65,0,0,1,2.65-2.65h51.54a2.65,2.65,0,0,1,2.65,2.65h0A2.65,2.65,0,0,1,380.24,174.06Z"/><path class="cls-10" d="M380.24,186.41H328.7a2.65,2.65,0,0,1-2.65-2.65h0a2.65,2.65,0,0,1,2.65-2.65h51.54a2.65,2.65,0,0,1,2.65,2.65h0A2.65,2.65,0,0,1,380.24,186.41Z"/><path class="cls-10" d="M92.93,178.58H45.25a3,3,0,0,1-3-3h0a3,3,0,0,1,3-3H92.93a3,3,0,0,1,3,3h0A3,3,0,0,1,92.93,178.58Z"/><path class="cls-9" d="M74.93,191.75H45.25a3,3,0,0,1-3-3h0a3,3,0,0,1,3-3H74.93a3,3,0,0,1,3,3h0A3,3,0,0,1,74.93,191.75Z"/><path class="cls-9" d="M74.93,205.89H45.25a3,3,0,0,1-3-3h0a3,3,0,0,1,3-3H74.93a3,3,0,0,1,3,3h0A3,3,0,0,1,74.93,205.89Z"/><polygon class="cls-5" points="46.44 238.4 134.26 238.4 166.02 299.52 78.2 299.52 46.44 238.4"/><path class="cls-11" d="M80,295l-26.3-50.61a1.6,1.6,0,0,1,1.42-2.33h76a1.6,1.6,0,0,1,1.41.86l26.3,50.61a1.6,1.6,0,0,1-1.41,2.33h-76A1.58,1.58,0,0,1,80,295Z"/><rect class="cls-6" x="78.2" y="299.52" width="71.13" height="8.16"/><path class="cls-4" d="M210.43,299.52H140.25a4.08,4.08,0,0,0-4.08,4.08h0a4.07,4.07,0,0,0,4.08,4.08h70.18a4.07,4.07,0,0,0,4.08-4.08h0A4.08,4.08,0,0,0,210.43,299.52Z"/><path class="cls-6" d="M78.2,299.52,46.44,238.4l-1.59,1.2a2.61,2.61,0,0,0-.74,3.31L78.2,307.68Z"/><rect class="cls-6" x="102.34" y="303.33" width="7.83" height="1.36"/><rect class="cls-6" x="112.19" y="303.33" width="7.83" height="1.36"/><rect class="cls-6" x="122.03" y="303.33" width="7.83" height="1.36"/><path class="cls-12" d="M306.21,441.28q-2.4.87-4.81,1.69l-1.1-1.38-7.88-9.79L281,417.64l-1.41-1.75-12.16-15.12-.87-1.07-5.72-7.12-14-17.47,0-.05-3.1-3.83-19.44-24.18-17.48-21.74L203,320.65a2.4,2.4,0,0,1,3.74-3l6.17,7.67,16.22,20.16,17.62,21.92,3.09,3.84,1.31,1.64,12.35,15.34,5.2,6.47,4.53,5.63,10.54,13.1,3.41,4.23,9,11.14,7.88,9.79Z"/><path class="cls-5" d="M290.55,320.65l-3.75,4.66-2.26,2.81-3.38,4.21h0l-16.41,20.39-.85,1.07-14,17.43-3.07,3.83-.11.12-18.13,22.54-1.8,2.26-3.12,3.86-11.1,13.8L201.16,431.8l-2.73,3.38L195.35,439l-2.07,2.57-1.7,2.12-5.3,6.58-1-.2-1.14-.24-.82-.18-2.33-.52,1.82-2.26,1.88-2.34,4.8-6,2.73-3.39,3.09-3.84,2.06-2.56,9-11.14L219.74,401l1.1-1.37,1.18-1.47L236.68,380l7-8.73,3.08-3.84,12-15,.71-.89,20.17-25.09.92-1.13,2.57-3.2,3.6-4.47a2.4,2.4,0,0,1,3.75,3Z"/><path class="cls-5" d="M201.16,438.57l12.5,15.53c-2.23-.16-4.45-.37-6.67-.6l-9.58-11.91L196.12,440l-.77-1-3.09-3.84-2.73-3.38L182.44,423l-4.95-6.16-8-9.95-22.61-28.11-43-53.44-3.75-4.66a2.4,2.4,0,0,1,3.75-3l6.16,7.67,41,51,22.63,28.14,2.24,2.79,7.47,9.3.06,0,.84,1.05,8.95,11.14,2.07,2.56,3.08,3.84,1.42,1.76Z"/><path class="cls-6" d="M135.1,325.31H48.38a6.16,6.16,0,0,1-6.16-6.16h0A6.16,6.16,0,0,1,48.38,313H135.1a6.16,6.16,0,0,1,6.16,6.16h0A6.16,6.16,0,0,1,135.1,325.31Z"/><path class="cls-5" d="M384.6,325.31H136.75a6.16,6.16,0,0,1-6.16-6.16h0a6.16,6.16,0,0,1,6.16-6.16H384.6Z"/><path class="cls-12" d="M202.08,435.18a6.73,6.73,0,1,1-6.73-6.73A6.73,6.73,0,0,1,202.08,435.18Z"/><path class="cls-13" d="M305,435.18a6.73,6.73,0,1,1-6.73-6.73A6.73,6.73,0,0,1,305,435.18Z"/><path class="cls-14" d="M232.93,410.59s-3.5,2.73-9,7.05c-5.71,4.52-13.56,10.75-21.87,17.49l-2.23,1.81c-1.24,1-2.49,2-3.73,3l-2.18,1.79c-.78.63-1.57,1.28-2.36,1.94-2.15,1.77-4.28,3.54-6.37,5.29l-1,.85-.82-.18-2.33-.52a217.81,217.81,0,0,1-43.35-14.93c4.52-6.79,8.09-11.75,9.81-13.34,3-2.79,12.07-8.31,22-14l4.23-2.41c14.32-8.11,28.93-15.85,28.93-15.85l4.85,3.53,8.86,6.44,1.22.87,2.16,1.57,3.9,2.83,6.2,4.51Z"/><path class="cls-15" d="M299.41,192.81c-.68,1.54-1.45,3.14-2.31,4.78-4.67,8.91-1.22,17.84-6.54,20.11a6,6,0,0,1-1.08.34c-6.86,1.52-22.66-7.61-23.35-12.18s4.87-12.39,0-13.34-7.5,7.25-7.5,7.25c-4,.41-5.44-6.3-12-6.3a11.35,11.35,0,0,0-2.73.35,19.54,19.54,0,0,0-7.53,4.15,20.13,20.13,0,0,0-2,1.93,13.06,13.06,0,0,1-5.58-11c.47-11.56,4.73-20,15-21.71,1.13-12.85,11.71-19.71,25.85-20.15,12.39-.38,14.25,10.76,14.54,13.53-.11-2.06-.69-8.86-3.64-13.53,6.21-.27,11.67,4.16,10.25,18.58,1.42-4.29,6.42-7,10.27-3.86-3.56,0-7,6-7,6a24,24,0,0,1,7,7.63C303.46,179.47,302.56,185.52,299.41,192.81Z"/><path class="cls-16" d="M290.56,217.7l-.16,2.12-.55,7.5s-11.41,9.77-17.89,0a2.31,2.31,0,0,0-.14-.19c-2-3-3.82-4-5.47-4.22-3.57-.43-6.46,3.07-9.44-.72-8.53-10.82-11.93-23.35-13-28.37a11.35,11.35,0,0,1,2.73-.35c6.57,0,8,6.71,12,6.3,0,0,2.62-8.19,7.5-7.25s-.69,8.77,0,13.34c.3,2,3.62,5,7.82,7.48,4.89,2.94,11,5.26,14.84,4.81.24,0,.47-.06.69-.11A6,6,0,0,0,290.56,217.7Z"/><path class="cls-17" d="M292.34,231.67c-5.15,3.51-14.57,4.08-14.57,4.08l-7.72-1.13s-3.22-4.68-1.71-7.3a9,9,0,0,1,2-2,54.65,54.65,0,0,1,8.84-5.67c3.56-1.85,7.23-3.31,9.88-3.47C295.57,215.77,297.48,228.14,292.34,231.67Z"/><path class="cls-4" d="M290.81,356.7c-11.47,2.21-35.76-4.55-47.38-9.78-3.43-1.54-5.77-2.95-6.33-3.94-2.23-3.93,0-6.94,5.54-19.41q.95-2.11,2-4.59c3.75-8.83,3.77-27.67,3.75-43.9,0-13.9-.11-25.89,2.1-28,4.79-4.62,28.71-19.74,28.71-19.74L284,252.14s2.7,12.6,5.53,29C294.71,311.46,300.45,354.84,290.81,356.7Z"/><path class="cls-5" d="M298.81,367.75c0,1.14-11.43,27.79-21,31.61a18.8,18.8,0,0,1-4.53.95c-1.66.21-3.62.36-5.79.46l-1.58.05c-11.15.42-27.18-.22-39.13-.84l-5.92-.34-3.26-.2c-4.39-.27-7.14-.47-7.14-.47l-26.95,17.62-1.61,1.05.56,5.33,2.29,21.58.48,4.45.11,1.09-1.14-.24-.82-.18-2.33-.52a217.81,217.81,0,0,1-43.35-14.93l-1.85-.87c-4-20.65-5.41-38.78-.42-45.42,2.17-2.89,6.2-6,11.47-9.18,1.32-.82,2.74-1.62,4.21-2.44,20.7-11.37,54.74-23.21,73.17-29.26,1.8-.57,3.44-1.11,4.9-1.58,5-1.58,7.94-2.49,7.94-2.49a48,48,0,0,0,7.86,3.95c.6.25,1.21.49,1.84.72s1.45.54,2.19.8l1.26.43.87.28c.94.3,1.88.6,2.84.88,1.22.35,2.46.69,3.69,1,.63.17,1.25.33,1.89.48q2.63.66,5.2,1.2l1.56.33c.52.11,1,.22,1.55.31s1.08.22,1.62.32c.83.15,1.65.31,2.45.44l1,.18c.64.12,1.27.22,1.87.32l1.81.29.76.11.76.12,1.46.22c.48.06.94.12,1.4.2l1.32.17c.56.09,1.09.15,1.6.21l2,.24h0c.87.11,1.64.19,2.29.25.45.06.85.1,1.2.13l.32,0,.51,0,.25,0h.36S298.81,366.59,298.81,367.75Z"/><path class="cls-16" d="M243.46,308.08c-3.59,5-10,12.63-15.31,11.86l-.66-.11C217.4,318.05,158,303.16,155.2,302.6s-22.84-.75-21.71-2.85,12.57-8.76,15.62-8.6,15,3.64,27,3.26,43.43,0,43.43,0l1.52-2.63,2.24-3.88C222.72,299.54,236.74,309,243.46,308.08Z"/><path class="cls-18" d="M298.81,367.75c0,1.14-11.43,27.79-21,31.61a18.8,18.8,0,0,1-4.53.95c-1.66.21-3.62.36-5.79.46l-1.58.05c-11.15.42-27.18-.22-39.13-.84l-5.92-.34-3.26-.2c-4.39-.27-7.14-.47-7.14-.47l-26.95,17.62-1.61,1.05.56,5.33,2.29,21.58.48,4.45.11,1.09-1.14-.24-.82-.18c-.17-.91-.34-1.84-.51-2.78-1.91-10.45-4-21.86-5.36-30.08-.72-4.2-1.27-7.58-1.53-9.57-.11-.88-.17-1.49-.17-1.79,0-1.5,13.94-6.38,31.71-13.32,9.18-3.57,19.36-7.69,29.18-12.17,3.41-1.56,6.76-3.15,10-4.78a.46.46,0,0,1,.14-.07q2.21-1.11,4.35-2.24c10-5.31,18.74-10.94,24.24-16.66.42-.42.82-.86,1.19-1.29l.76.11.76.12,1.46.22,1.4.2,1.32.17c.56.09,1.09.15,1.6.21l2,.24h0c.87.11,1.64.19,2.29.25.45.06.85.09,1.2.13l.32,0,.51,0,.25,0h.36S298.81,366.59,298.81,367.75Z"/><path class="cls-19" d="M261.19,299.55c-4.95,7-12.94,15.94-18.55,24q.95-2.11,2-4.59c3.75-8.83,3.77-27.67,3.75-43.9l17.11-11.32S269.19,288.22,261.19,299.55Z"/><path class="cls-4" d="M246.59,305.92c-.74.67-1.49,1.34-2.25,2a3.43,3.43,0,0,1-.88.19c-6.72.95-20.74-8.54-20.12-20.18A17,17,0,0,1,225.2,283c5.74-11.57,23-37.33,26.18-36.14,0,0,11.09,1.71,14.11,16.86C268.31,278,258.13,295.23,246.59,305.92Z"/><path class="cls-20" d="M285.88,356.19c-2.44-.29-5.63-.71-9.27-1.27-9.46-1.47-21.88-4-31.66-8,8.63-.3,27.08-6,29.3-48.22a208.53,208.53,0,0,0,4.65,24.48A333.06,333.06,0,0,1,285.88,356.19Z"/><path class="cls-17" d="M281.32,216.86a28.62,28.62,0,0,0-2.1,2.74,54.65,54.65,0,0,0-8.84,5.67,6.46,6.46,0,0,0-4-2.36l7.6-9.57A41.78,41.78,0,0,0,281.32,216.86Z"/><path class="cls-17" d="M243.46,308.08c-3.59,5-10,12.63-15.31,11.86l-.66-.11c-6.54-9.46-6.78-21.85-6.39-28.05l2.24-3.88C222.72,299.54,236.74,309,243.46,308.08Z"/><path class="cls-17" d="M299.41,192.81c-.68,1.54-1.45,3.14-2.31,4.78-2.3,4.37-2.62,8.73-3,12.34a23.73,23.73,0,0,0-2.34-1.6,41.62,41.62,0,0,0-10.44,8.53h0c-7-2.5-14.7-7.85-15.18-11-.69-4.57,4.87-12.39,0-13.34s-7.5,7.25-7.5,7.25c-4,.41-5.44-6.3-12-6.3a11.35,11.35,0,0,0-2.73.35,19.54,19.54,0,0,0-7.53,4.15s7.41-10.4,19-8.3c0,0-1.7-3.24-9.52-2.86,16.38-5.33,26.85-3.23,31.9,2.67C281.88,194.3,291.55,200.26,299.41,192.81Z"/><path class="cls-5" d="M332.72,417.65H275.57s45.33-13.34,45.33-103.24c0-1.15,0-2.29,0-3.43-.47-60.08-13.31-93.21-29.13-102.65A68.57,68.57,0,0,1,312,200.65a105.17,105.17,0,0,1,12.62-2c39.13-4,70.39,11.35,74.11,28.71S379.56,417.65,332.72,417.65Z"/><path class="cls-6" d="M320.9,314.41c0,89.9-45.33,103.24-45.33,103.24h-93.7l3.9-2.78L210.44,399,260,395.54c2.66-11,9.9-11.41,21-12.57,6.42-.65,7-11.51,5.09-25.85a325,325,0,0,0-7.1-33.94,208.53,208.53,0,0,1-4.65-24.48,215,215,0,0,1-1.78-26.4,223.29,223.29,0,0,1,4.61-46.84c.22-1.13.46-2.22.7-3.27,0,0,0-.08,0-.11a22.66,22.66,0,0,1,3.51-5.21h0a41.62,41.62,0,0,1,10.44-8.53,23.73,23.73,0,0,1,2.34,1.6c14.73,11.22,26.34,44,26.79,101.05C320.9,312.12,320.9,313.26,320.9,314.41Z"/><path class="cls-5" d="M275.57,450.07q-6.42,1.35-13,2.3V417.64h13Z"/><path class="cls-18" d="M275.57,417.65v25a90.75,90.75,0,0,1-12.95,5.45V417.65Z"/><path class="cls-18" d="M293.47,378.79c-3,9.52-22.07,7.82-24.38,14.86-4.9,14.94-7.61,8.37-26.45,10.28-10.77,1.09-18.59,8-23.3,13.72H181.87l3.9-2.78L210.44,399,260,395.54c2.66-11,9.9-11.41,21-12.57,6.42-.65,7-11.51,5.09-25.85a325,325,0,0,0-7.1-33.94,208.53,208.53,0,0,1-4.65-24.48,215,215,0,0,1-1.78-26.4C279.8,310.49,295.73,371.74,293.47,378.79Z"/><path class="cls-18" d="M320.9,314.41c0-1.15,0-2.29,0-3.43-.47-60.08-13.31-93.21-29.13-102.65A68.57,68.57,0,0,1,312,200.65c-2.61,3.77-5.33,9.42-4.05,15.47,2.29,10.69,28.2,51.82,18.29,117.72-7.15,47.55-4.78,72.28,2.69,83.81H275.57S320.9,404.31,320.9,314.41Z"/><path class="cls-5" d="M356,85.27a27.66,27.66,0,0,0-33,43.14l-4.16-.5a.92.92,0,1,0-.21,1.83l6.33.75a.91.91,0,0,0,1-.8l.73-6.13a.92.92,0,1,0-1.82-.22l-.47,3.91a25.83,25.83,0,0,1,30.77-40.34.92.92,0,0,0,.82-1.64Z"/><path class="cls-5" d="M332.12,136.08a27.67,27.67,0,0,0,33-43.15l4.16.5a.92.92,0,1,0,.21-1.82l-6.33-.76a.92.92,0,0,0-.67.19.91.91,0,0,0-.35.62l-.73,6.12a.92.92,0,0,0,1.83.22l.46-3.9a25.83,25.83,0,0,1-30.77,40.34.92.92,0,1,0-.82,1.64Z"/><path class="cls-6" d="M279,43.83h.57V41.88h-.45c-2.67,0-4.74,1.42-4.74,4.8,0,1.17.12,2.19.22,3.31a28.18,28.18,0,0,1,.23,3.2,2.34,2.34,0,0,1-2.56,2.63V57.7a2.38,2.38,0,0,1,2.56,2.68,30.11,30.11,0,0,1-.23,3.23c-.1,1.09-.22,2.22-.22,3.35,0,3.56,2.22,4.81,4.71,4.81h.48v-2H279c-1.69,0-2.25-1.17-2.25-2.85a22.41,22.41,0,0,1,.23-2.9c.07-.94.18-1.88.18-2.82,0-3-1-4-2.6-4.48v-.07c1.62-.45,2.64-1.46,2.6-4.4,0-.91-.11-1.81-.18-2.79a21.22,21.22,0,0,1-.23-2.85C276.74,45,277.37,43.83,279,43.83Z"/><path class="cls-6" d="M308,53.19a30.7,30.7,0,0,1,.22-3.2,32.46,32.46,0,0,0,.22-3.31c0-3.38-2.06-4.8-4.74-4.8h-.45v1.95h.57c1.57.19,2.22,1.13,2.22,2.82,0,1-.11,2-.19,2.85a25.16,25.16,0,0,0-.23,2.79c0,2.94,1,4,2.6,4.4v.07c-1.61.49-2.64,1.51-2.6,4.48a24.36,24.36,0,0,0,.23,2.82c.08.94.19,1.88.19,2.9,0,1.68-.56,2.66-2.25,2.85h-.54v2h.49c2.49,0,4.7-1.25,4.7-4.81a33.45,33.45,0,0,0-.22-3.35c-.11-1.09-.22-2.19-.22-3.23a2.38,2.38,0,0,1,2.56-2.68V55.82A2.34,2.34,0,0,1,308,53.19Z"/><polygon class="cls-8" points="297.66 60.44 297.66 53.2 291.39 49.59 285.13 53.2 285.13 60.44 291.39 64.06 297.66 60.44"/><rect class="cls-21" width="470" height="470"/></g></g></g></svg>