<svg xmlns="http://www.w3.org/2000/svg" xmlns:xlink="http://www.w3.org/1999/xlink" viewBox="0 0 76 76"><defs><style>.cls-1{fill:#fff;}.cls-2{fill:url(#linear-gradient);}.cls-3{fill:url(#linear-gradient-2);}.cls-4{fill:url(#linear-gradient-3);}</style><linearGradient id="linear-gradient" x1="43.76" y1="43" x2="48.24" y2="43" gradientUnits="userSpaceOnUse"><stop offset="0" stop-color="#d23274"/><stop offset="1" stop-color="#f24a37"/></linearGradient><linearGradient id="linear-gradient-2" x1="41.52" y1="49.25" x2="50.48" y2="49.25" xlink:href="#linear-gradient"/><linearGradient id="linear-gradient-3" x1="18" y1="38" x2="58" y2="38" xlink:href="#linear-gradient"/></defs><title>4_Icon_Security@web</title><g id="Layer_2" data-name="Layer 2"><g id="Layer_1-2" data-name="Layer 1"><circle class="cls-1" cx="38" cy="38" r="38"/><circle class="cls-2" cx="46" cy="43" r="2.24"/><path class="cls-3" d="M46,47c-1.46,0-4.38.72-4.48,2.16a5.46,5.46,0,0,0,9,0C50.38,47.72,47.46,47,46,47Z"/><path class="cls-4" d="M48,34.18V24.54L33,18,18,24.54v9.82C18,43.44,24.4,51.94,33,54a18.33,18.33,0,0,0,3.2-1.1A12,12,0,1,0,48,34.18ZM34,46a11.53,11.53,0,0,0,.46,3.24,13.17,13.17,0,0,1-1.46.6A16.42,16.42,0,0,1,22,34.36v-7.2l11-4.8,11,4.8v7A12,12,0,0,0,34,46Zm12,8a8,8,0,1,1,8-8A8,8,0,0,1,46,54Z"/></g></g></svg>