<svg xmlns="http://www.w3.org/2000/svg" xmlns:xlink="http://www.w3.org/1999/xlink" viewBox="0 0 76 76"><defs><style>.cls-1{fill:#fff;}.cls-2{fill:url(#linear-gradient);}</style><linearGradient id="linear-gradient" x1="19.86" y1="38" x2="56.14" y2="38" gradientUnits="userSpaceOnUse"><stop offset="0" stop-color="#d23274"/><stop offset="1" stop-color="#f24a37"/></linearGradient></defs><title>4_Icon_Batch@web</title><g id="Layer_2" data-name="Layer 2"><g id="Layer_1-2" data-name="Layer 1"><circle class="cls-1" cx="38" cy="38" r="38"/><path class="cls-2" d="M37.26,52.13l-14-10.9a1.19,1.19,0,0,0-1.44,0l-1.49,1.15a1.18,1.18,0,0,0,0,1.85l17,13.2a1.17,1.17,0,0,0,1.44,0l17-13.2a1.18,1.18,0,0,0,0-1.85l-1.51-1.17a1.16,1.16,0,0,0-1.44,0l-14,10.92A1.17,1.17,0,0,1,37.26,52.13Zm0-5.33a1.17,1.17,0,0,0,1.44,0L53.44,35.35l2.24-1.74a1.17,1.17,0,0,0,0-1.86l-17-13.19a1.17,1.17,0,0,0-1.44,0l-17,13.2a1.18,1.18,0,0,0,0,1.85l2.23,1.74Zm1.44-22.93,10.13,7.89a1.18,1.18,0,0,1,0,1.85L38.72,41.5a1.17,1.17,0,0,1-1.44,0L27.15,33.61a1.18,1.18,0,0,1,0-1.85l10.13-7.89A1.17,1.17,0,0,1,38.72,23.87Z"/></g></g></svg>