<svg xmlns="http://www.w3.org/2000/svg" xmlns:xlink="http://www.w3.org/1999/xlink" viewBox="0 0 76 76"><defs><style>.cls-1{fill:#fff;}.cls-2{fill:url(#linear-gradient);}.cls-3{fill:url(#linear-gradient-2);}</style><linearGradient id="linear-gradient" x1="20.18" y1="37.42" x2="55.84" y2="37.42" gradientUnits="userSpaceOnUse"><stop offset="0" stop-color="#d23274"/><stop offset="1" stop-color="#f24a37"/></linearGradient><linearGradient id="linear-gradient-2" x1="27.43" y1="29.55" x2="34.17" y2="29.55" xlink:href="#linear-gradient"/></defs><title>4_Icon_Accessibility@web</title><g id="Layer_2" data-name="Layer 2"><g id="Layer_1-2" data-name="Layer 1"><circle class="cls-1" cx="38" cy="38" r="37.99"/><path class="cls-2" d="M54.57,47.16,40.74,33.33A10.64,10.64,0,0,0,23.2,22.11,10.64,10.64,0,0,0,34.58,39.5l7.31,7.31-1,1a3.26,3.26,0,0,0,0,4.6L43.39,55A3.26,3.26,0,0,0,48,55l1.09-1.09a4.36,4.36,0,0,0,2.4.72,4.36,4.36,0,0,0,3.09-7.44Zm-9.2.81a1.66,1.66,0,0,0,0-2.32L36.1,36.39a1.62,1.62,0,0,0-1.16-.48,1.69,1.69,0,0,0-.75.18,7.35,7.35,0,1,1,3.15-3.15,1.65,1.65,0,0,0,.29,1.92L52.18,49.41l.09.09a1,1,0,0,1,.3.74,1.07,1.07,0,0,1-.67,1A1.06,1.06,0,0,1,50.72,51l-.54-.54a1.64,1.64,0,0,0-2.32,0l-1.2,1.2c-.49.5-.82.83-1,1-.15-.13-.51-.49-1.09-1.08l-1.42-1.39Z"/><path class="cls-3" d="M34.17,29.56a3.37,3.37,0,1,1-3.37-3.37A3.37,3.37,0,0,1,34.17,29.56Z"/></g></g></svg>