<svg xmlns="http://www.w3.org/2000/svg" xmlns:xlink="http://www.w3.org/1999/xlink" viewBox="0 0 76 76"><defs><style>.cls-1{fill:#fff;}.cls-2{fill:url(#linear-gradient);}</style><linearGradient id="linear-gradient" x1="20.33" y1="37.83" x2="56.03" y2="37.83" gradientUnits="userSpaceOnUse"><stop offset="0" stop-color="#d23274"/><stop offset="1" stop-color="#f24a37"/></linearGradient></defs><title>4_Icon_Companion@web</title><g id="Layer_2" data-name="Layer 2"><g id="Layer_1-2" data-name="Layer 1"><circle class="cls-1" cx="38" cy="38" r="38"/><path class="cls-2" d="M47.17,24.58l3.75,3.75a.72.72,0,0,1,0,1l-3.23,3.23a.72.72,0,0,1-1,0l-3.23-3.23a.72.72,0,0,1,0-1l3.74-3.75m-15.05-.35v7.13a.73.73,0,0,1-.73.73H25a.73.73,0,0,1-.73-.73V25a.73.73,0,0,1,.73-.73h7.13M51.77,43.88V51a.73.73,0,0,1-.73.73h-6.4a.73.73,0,0,1-.73-.73v-6.4a.73.73,0,0,1,.73-.73h7.13m-19.65,0V51a.73.73,0,0,1-.73.73H25a.73.73,0,0,1-.73-.73v-6.4a.73.73,0,0,1,.73-.73h7.13M46.66,20.2l-8.12,8.11a.72.72,0,0,0,0,1l8.12,8.13a.74.74,0,0,0,1,0l8.12-8.13a.72.72,0,0,0,0-1L47.69,20.2A.74.74,0,0,0,46.66,20.2Zm-11.34.1H21.06a.73.73,0,0,0-.73.73V35.29a.73.73,0,0,0,.73.73H35.32a.73.73,0,0,0,.73-.73V21A.73.73,0,0,0,35.32,20.3ZM55,40H40.71a.73.73,0,0,0-.73.73V54.94a.73.73,0,0,0,.73.73H55a.73.73,0,0,0,.73-.73V40.68A.73.73,0,0,0,55,40ZM35.32,40H21.06a.73.73,0,0,0-.73.73V54.94a.73.73,0,0,0,.73.73H35.32a.73.73,0,0,0,.73-.73V40.68A.73.73,0,0,0,35.32,40Z"/></g></g></svg>