<svg xmlns="http://www.w3.org/2000/svg" xmlns:xlink="http://www.w3.org/1999/xlink" viewBox="0 0 76 76"><defs><style>.cls-1{fill:#fff;}.cls-2{fill:url(#linear-gradient);}</style><linearGradient id="linear-gradient" x1="18.98" y1="38" x2="57.02" y2="38" gradientUnits="userSpaceOnUse"><stop offset="0" stop-color="#d23274"/><stop offset="1" stop-color="#f24a37"/></linearGradient></defs><title>4_Icon_API@web</title><g id="Layer_2" data-name="Layer 2"><g id="Layer_1-2" data-name="Layer 1"><circle class="cls-1" cx="38" cy="38" r="37.99"/><path class="cls-2" d="M38,19a2.36,2.36,0,0,0-1.67.69L29.6,26.4l3.92,3.2L38.16,25l4.67,4.64,3.57-3.2-6.73-6.73A2.36,2.36,0,0,0,38,19ZM49.6,29.6l-4.55,4.55L48.91,38l-3.86,3.85L49.6,46.4l6.73-6.73a2.37,2.37,0,0,0,0-3.34L49.6,29.6Zm-23.2,0-6.73,6.73a2.37,2.37,0,0,0,0,3.34L26.4,46.4,31,41.85,27.09,38,31,34.15,26.4,29.6ZM38,34.36,34.36,38,38,41.64,41.64,38,38,34.36ZM34.15,45.05,29.6,49.6l6.73,6.73a2.37,2.37,0,0,0,3.34,0L46.4,49.6l-4.55-4.55L38,48.91l-3.85-3.86Z"/></g></g></svg>