<svg xmlns="http://www.w3.org/2000/svg" xmlns:xlink="http://www.w3.org/1999/xlink" viewBox="0 0 76 76"><defs><style>.cls-1{fill:#fff;}.cls-2{fill:url(#linear-gradient);}</style><linearGradient id="linear-gradient" x1="18" y1="38" x2="58" y2="38" gradientUnits="userSpaceOnUse"><stop offset="0" stop-color="#d23274"/><stop offset="1" stop-color="#f24a37"/></linearGradient></defs><title>4_Icon_Web UI@web</title><g id="Layer_2" data-name="Layer 2"><g id="Layer_1-2" data-name="Layer 1"><circle class="cls-1" cx="38" cy="38" r="38"/><path class="cls-2" d="M18,25.34V50.66a2.64,2.64,0,0,0,2.64,2.63H55.36A2.64,2.64,0,0,0,58,50.66V25.34a2.64,2.64,0,0,0-2.64-2.63H20.64A2.64,2.64,0,0,0,18,25.34Zm3.81,23.83V26.67h8.87v22.5Zm12.66-.58V40.35h8v8.24Zm19.46,0H46.24V40.35h7.69ZM34.47,36.67v-10H53.93v10Z"/></g></g></svg>