<svg xmlns="http://www.w3.org/2000/svg" xmlns:xlink="http://www.w3.org/1999/xlink" viewBox="0 0 76 76"><defs><style>.cls-1{fill:#fff;}.cls-2{fill:url(#linear-gradient);}</style><linearGradient id="linear-gradient" x1="18" y1="38" x2="58" y2="38" gradientUnits="userSpaceOnUse"><stop offset="0" stop-color="#d23274"/><stop offset="1" stop-color="#f24a37"/></linearGradient></defs><title>4_Icon_ELK@web</title><g id="Layer_2" data-name="Layer 2"><g id="Layer_1-2" data-name="Layer 1"><circle class="cls-1" cx="38" cy="38" r="38"/><path class="cls-2" d="M44.67,31.33H31.33V44.67H44.67Zm-4.45,8.89H35.78V35.78h4.44ZM58,35.78V31.33H53.56V26.89a4.46,4.46,0,0,0-4.45-4.45H44.67V18H40.22v4.44H35.78V18H31.33v4.44H26.89a4.46,4.46,0,0,0-4.45,4.45v4.44H18v4.45h4.44v4.44H18v4.45h4.44v4.44a4.46,4.46,0,0,0,4.45,4.45h4.44V58h4.45V53.56h4.44V58h4.45V53.56h4.44a4.46,4.46,0,0,0,4.45-4.45V44.67H58V40.22H53.56V35.78ZM49.11,49.11H26.89V26.89H49.11Z"/></g></g></svg>