<svg xmlns="http://www.w3.org/2000/svg" xmlns:xlink="http://www.w3.org/1999/xlink" viewBox="0 0 76.01 76.01"><defs><style>.cls-1{fill:#fff;}.cls-2{fill:url(#linear-gradient);}</style><linearGradient id="linear-gradient" x1="22.17" y1="38" x2="53.84" y2="38" gradientUnits="userSpaceOnUse"><stop offset="0" stop-color="#d23274"/><stop offset="1" stop-color="#f24a37"/></linearGradient></defs><title>4_Icon_Mobile@web</title><g id="Layer_2" data-name="Layer 2"><g id="Layer_1-2" data-name="Layer 1"><circle class="cls-1" cx="38" cy="38" r="37.99"/><path class="cls-2" d="M49.67,18H26.34a4.17,4.17,0,0,0-4.17,4.17V53.84A4.17,4.17,0,0,0,26.34,58H49.67a4.17,4.17,0,0,0,4.17-4.16V22.17A4.17,4.17,0,0,0,49.67,18ZM38,56.84a2.5,2.5,0,1,1,2.5-2.5A2.5,2.5,0,0,1,38,56.84Zm12.5-5.5h-25v-30h25Z"/></g></g></svg>