<svg xmlns="http://www.w3.org/2000/svg" xmlns:xlink="http://www.w3.org/1999/xlink" viewBox="0 0 76 76"><defs><style>.cls-1{fill:#fff;}.cls-2{fill:url(#linear-gradient);}.cls-3{fill:url(#linear-gradient-2);}</style><linearGradient id="linear-gradient" x1="18" y1="38" x2="58" y2="38" gradientUnits="userSpaceOnUse"><stop offset="0" stop-color="#d23274"/><stop offset="1" stop-color="#f24a37"/></linearGradient><linearGradient id="linear-gradient-2" x1="33.97" y1="36.88" x2="52.15" y2="36.88" xlink:href="#linear-gradient"/></defs><title>4_Icon_Performance@web</title><g id="Layer_2" data-name="Layer 2"><g id="Layer_1-2" data-name="Layer 1"><circle class="cls-1" cx="38" cy="38" r="38"/><path class="cls-2" d="M54.76,31.09,52.29,34.8A16,16,0,0,1,51.85,50H24.09A16,16,0,0,1,45.14,27.65l3.71-2.47A20,20,0,0,0,20.64,52a4,4,0,0,0,3.45,2H51.83a4,4,0,0,0,3.49-2,20.06,20.06,0,0,0-.54-20.92Z"/><path class="cls-3" d="M35.14,44.79a4,4,0,0,0,5.67,0h0l11.34-17-17,11.34a4,4,0,0,0,0,5.66Z"/></g></g></svg>