<svg xmlns="http://www.w3.org/2000/svg" xmlns:xlink="http://www.w3.org/1999/xlink" viewBox="0 0 76 76"><defs><style>.cls-1{fill:#fff;}.cls-2{fill:url(#linear-gradient);}.cls-3{fill:url(#linear-gradient-2);}.cls-4{fill:url(#linear-gradient-3);}</style><linearGradient id="linear-gradient" x1="26" y1="40" x2="36" y2="40" gradientUnits="userSpaceOnUse"><stop offset="0" stop-color="#d23274"/><stop offset="1" stop-color="#f24a37"/></linearGradient><linearGradient id="linear-gradient-2" x1="40" y1="40" x2="50" y2="40" xlink:href="#linear-gradient"/><linearGradient id="linear-gradient-3" x1="20" y1="38" x2="56" y2="38" xlink:href="#linear-gradient"/></defs><title>4_Icon_Integration@web</title><g id="Layer_2" data-name="Layer 2"><g id="Layer_1-2" data-name="Layer 1"><circle class="cls-1" cx="38" cy="38" r="37.99"/><polygon class="cls-2" points="36 44.34 31.66 40 36 35.66 33.18 32.82 26 40 33.18 47.18 36 44.34"/><polygon class="cls-3" points="42.82 47.18 50 40 42.82 32.82 40 35.66 44.34 40 40 44.34 42.82 47.18"/><path class="cls-4" d="M52,22H43.64a6,6,0,0,0-11.28,0H24a3.5,3.5,0,0,0-.8.08,4,4,0,0,0-2.88,2.38A3.85,3.85,0,0,0,20,26V54a4.1,4.1,0,0,0,.32,1.56,4.24,4.24,0,0,0,.86,1.28,4,4,0,0,0,2,1.1A5.19,5.19,0,0,0,24,58H52a4,4,0,0,0,4-4V26A4,4,0,0,0,52,22Zm-14-.5A1.5,1.5,0,1,1,36.5,23,1.51,1.51,0,0,1,38,21.5ZM52,46v8H24V26H52Z"/></g></g></svg>