<svg xmlns="http://www.w3.org/2000/svg" xmlns:xlink="http://www.w3.org/1999/xlink" viewBox="0 0 76 76"><defs><style>.cls-1{fill:#fff;}.cls-2{fill:url(#linear-gradient);}</style><linearGradient id="linear-gradient" x1="15.5" y1="38" x2="60.5" y2="38" gradientUnits="userSpaceOnUse"><stop offset="0" stop-color="#d23274"/><stop offset="1" stop-color="#f24a37"/></linearGradient></defs><title>4_Icon_Cloud@web</title><g id="Layer_2" data-name="Layer 2"><g id="Layer_1-2" data-name="Layer 1"><circle class="cls-1" cx="38" cy="38" r="38"/><path class="cls-2" d="M51.78,34.32a14.05,14.05,0,0,0-26.25-3.75A11.25,11.25,0,0,0,26.75,53H51.13a9.35,9.35,0,0,0,.65-18.68Zm-.65,14.93H26.75a7.49,7.49,0,0,1-.83-14.94l2-.21.94-1.78a10.29,10.29,0,0,1,19.24,2.74l.56,2.81,2.87.2a5.6,5.6,0,0,1-.41,11.18ZM34.25,42.09l-3.92-3.92-2.64,2.64,6.56,6.57L45.52,36.11l-2.64-2.65Z"/></g></g></svg>