<svg xmlns="http://www.w3.org/2000/svg" xmlns:xlink="http://www.w3.org/1999/xlink" viewBox="0 0 76 76"><defs><style>.cls-1{fill:#fff;}.cls-2{fill:url(#linear-gradient);}</style><linearGradient id="linear-gradient" x1="20.5" y1="38" x2="55.5" y2="38" gradientUnits="userSpaceOnUse"><stop offset="0" stop-color="#d23274"/><stop offset="1" stop-color="#f24a37"/></linearGradient></defs><title>4_Icon_Mainframe@web</title><g id="Layer_2" data-name="Layer 2"><g id="Layer_1-2" data-name="Layer 1"><circle class="cls-1" cx="38" cy="38" r="38"/><path class="cls-2" d="M36.06,32.17h3.88v3.89H36.06Zm-3.89,3.89h3.89v3.88H32.17Zm7.77,0h3.89v3.88H39.94Zm3.89-3.89h3.89v3.89H43.83Zm-15.55,0h3.89v3.89H28.28ZM51.61,20.5H24.39a3.9,3.9,0,0,0-3.89,3.89V51.61a3.9,3.9,0,0,0,3.89,3.89H51.61a3.9,3.9,0,0,0,3.89-3.89V24.39A3.9,3.9,0,0,0,51.61,20.5ZM32.17,49.67H28.28V45.78h3.89Zm7.77,0H36.06V45.78h3.88Zm7.78,0H43.83V45.78h3.89Zm3.89-13.61H47.72v3.88h3.89v3.89H47.72V39.94H43.83v3.89H39.94V39.94H36.06v3.89H32.17V39.94H28.28v3.89H24.39V39.94h3.89V36.06H24.39V24.39H51.61Z"/></g></g></svg>