<svg xmlns="http://www.w3.org/2000/svg" xmlns:xlink="http://www.w3.org/1999/xlink" viewBox="0 0 76.01 76.01"><defs><style>.cls-1{fill:#fff;}.cls-2{fill:url(#linear-gradient);}.cls-3{fill:url(#linear-gradient-2);}</style><linearGradient id="linear-gradient" x1="33.95" y1="33.56" x2="46.52" y2="33.56" gradientUnits="userSpaceOnUse"><stop offset="0" stop-color="#d23274"/><stop offset="1" stop-color="#f24a37"/></linearGradient><linearGradient id="linear-gradient-2" x1="20.23" y1="38" x2="55.78" y2="38" xlink:href="#linear-gradient"/></defs><title>4_Icon_AI@web</title><g id="Layer_2" data-name="Layer 2"><g id="Layer_1-2" data-name="Layer 1"><circle class="cls-1" cx="38" cy="38" r="37.99"/><path class="cls-2" d="M44.78,29.07l-1.61.64a4.91,4.91,0,0,0-1.08-.63l-.25-1.71a.32.32,0,0,0-.32-.27H38.94a.29.29,0,0,0-.31.27l-.24,1.71a4.55,4.55,0,0,0-1.09.63l-1.61-.64a.31.31,0,0,0-.39.14L34,31.44a.32.32,0,0,0,.08.42l1.37,1.07a2.59,2.59,0,0,0-.08.63,4.46,4.46,0,0,0,0,.63l-1.36,1.07a.3.3,0,0,0-.08.4l1.29,2.24a.34.34,0,0,0,.41.15l1.6-.65a4.43,4.43,0,0,0,1.1.63l.22,1.72a.33.33,0,0,0,.33.27h2.58a.32.32,0,0,0,.32-.27L42.09,38a4.49,4.49,0,0,0,1.08-.63l1.6.65a.3.3,0,0,0,.39-.15l1.29-2.24a.3.3,0,0,0-.08-.4L45,34.19a4.46,4.46,0,0,0,0-.63,4,4,0,0,0,0-.63l1.37-1.07a.32.32,0,0,0,.08-.42l-1.29-2.23A.35.35,0,0,0,44.78,29.07Zm-4.55,6.8a2.31,2.31,0,1,1,2.31-2.31A2.3,2.3,0,0,1,40.23,35.87Z"/><path class="cls-3" d="M55.65,31.47A15.69,15.69,0,0,0,41.14,18c-.31,0-.6,0-.91,0A15.54,15.54,0,0,0,24.85,31.34l-4.29,7.73a2.22,2.22,0,0,0,1.89,3.38h2.22v4.44a4.46,4.46,0,0,0,4.44,4.45h2.23V58H46.89V47.6A15.59,15.59,0,0,0,55.65,31.47Zm-11,12.58-2,1v9.09H35.67v-6.9h-6.9V38h-3l3.06-5.36A11.48,11.48,0,1,1,44.62,44.05Z"/></g></g></svg>