<svg xmlns="http://www.w3.org/2000/svg" xmlns:xlink="http://www.w3.org/1999/xlink" viewBox="0 0 76.01 76.01"><defs><style>.cls-1{fill:#fff;}.cls-2{fill:url(#linear-gradient);}.cls-3{fill:url(#linear-gradient-2);}.cls-4{fill:url(#linear-gradient-3);}</style><linearGradient id="linear-gradient" x1="25.46" y1="46.76" x2="35.77" y2="46.76" gradientUnits="userSpaceOnUse"><stop offset="0" stop-color="#d23274"/><stop offset="1" stop-color="#f24a37"/></linearGradient><linearGradient id="linear-gradient-2" x1="40.21" y1="46.76" x2="50.55" y2="46.76" xlink:href="#linear-gradient"/><linearGradient id="linear-gradient-3" x1="31.33" y1="26.89" x2="44.66" y2="26.89" xlink:href="#linear-gradient"/></defs><title>4_Icon_Infrastructure@web</title><g id="Layer_2" data-name="Layer 2"><g id="Layer_1-2" data-name="Layer 1"><circle class="cls-1" cx="38" cy="38" r="37.99"/><path class="cls-2" d="M25.46,53.07,26,58l3.6-3.42,6.16-16.89a8.67,8.67,0,0,1-3.93-2.18Z"/><path class="cls-3" d="M44.15,35.51a8.81,8.81,0,0,1-3.94,2.18l6.16,16.89L50,58l.58-4.93Z"/><path class="cls-4" d="M44.66,29.11a6.69,6.69,0,0,0-4.45-6.26V18H35.77v4.85a6.66,6.66,0,1,0,8.89,6.26ZM38,31.34a2.23,2.23,0,1,1,2.22-2.23A2.23,2.23,0,0,1,38,31.34Z"/></g></g></svg>