<svg xmlns="http://www.w3.org/2000/svg" xmlns:xlink="http://www.w3.org/1999/xlink" viewBox="0 0 120 120"><defs><style>.cls-1{fill:url(#linear-gradient);}.cls-2{fill:#fff;}.cls-3{fill:#ff9750;}.cls-4{fill:#b70f5b;}</style><linearGradient id="linear-gradient" y1="60" x2="120" y2="60" gradientUnits="userSpaceOnUse"><stop offset="0" stop-color="#d23274"/><stop offset="1" stop-color="#f24a37"/></linearGradient></defs><title>5_Elk@web</title><g id="Layer_2" data-name="Layer 2"><g id="Layer_1-2" data-name="Layer 1"><rect class="cls-1" width="120" height="120" rx="5"/><path class="cls-2" d="M46.62,46.62H73.38V73.39H46.62Z"/><path class="cls-3" d="M30.63,62.16a10.63,10.63,0,1,0,0,21.25,1.12,1.12,0,0,1,1.12,1.12,1.09,1.09,0,0,1-.3.79,1.16,1.16,0,0,1-.78.34,11.89,11.89,0,0,1-2.07-.18v2.87a7.66,7.66,0,0,0,15.32,0,1.12,1.12,0,0,1,2.23,0,9.89,9.89,0,0,1-3,7.14,7.72,7.72,0,0,0,12.59-6V78H46.54a4.49,4.49,0,0,1-4.48-4.48V46.55a4.49,4.49,0,0,1,4.48-4.49H55.7V29A6.24,6.24,0,1,0,44,32.08c.34.21.68.43,1,.68a1.12,1.12,0,0,1-1.34,1.8A10.63,10.63,0,0,0,28.18,48.43a1.12,1.12,0,1,1-1.94,1.12c-.14-.22-.26-.46-.38-.69a7.26,7.26,0,0,0-3.13,10.69,7.12,7.12,0,0,0,1.82,1.89,12.79,12.79,0,0,1,6.08-1.53,1.12,1.12,0,0,1,0,2.24ZM49.91,81a1.12,1.12,0,1,1,2.24,0v3.28a1.12,1.12,0,0,1-2.24,0Zm0-45.33a1.12,1.12,0,1,1,2.24,0V39a1.12,1.12,0,0,1-2.24,0ZM35.7,49.91H39a1.12,1.12,0,0,1,0,2.24H35.7a1.12,1.12,0,0,1,0-2.24Zm0,18H39a1.12,1.12,0,0,1,0,2.24H35.7a1.12,1.12,0,1,1,0-2.24Z"/><path class="cls-3" d="M89.38,59.91a12.72,12.72,0,0,1,6.07,1.53,7.27,7.27,0,0,0-1.31-12.58,7.55,7.55,0,0,1-.37.69,1.11,1.11,0,0,1-2,0,1.12,1.12,0,0,1,0-1.13A10.63,10.63,0,0,0,76.32,34.56,1.12,1.12,0,1,1,75,32.76a11.3,11.3,0,0,1,1-.68A6.25,6.25,0,1,0,64.3,29V42.06h9.16A4.49,4.49,0,0,1,78,46.55V73.47A4.49,4.49,0,0,1,73.46,78H64.3V89.53a7.73,7.73,0,0,0,12.59,6,9.86,9.86,0,0,1-3-7.14,1.12,1.12,0,0,1,2.24,0,7.66,7.66,0,1,0,15.31,0V85.48a12.06,12.06,0,0,1-2.07.18,1.11,1.11,0,0,1-.79-.33,1.14,1.14,0,0,1,.82-1.92,10.63,10.63,0,1,0,0-21.25,1.13,1.13,0,0,1,0-2.25ZM70.1,39a1.13,1.13,0,0,1-2.25,0V35.7a1.13,1.13,0,0,1,2.25,0Zm0,45.33a1.13,1.13,0,0,1-2.25,0V81a1.13,1.13,0,0,1,2.25,0ZM84.3,70.1H81a1.12,1.12,0,0,1,0-2.24H84.3a1.12,1.12,0,1,1,0,2.24Zm0-17.95H81a1.12,1.12,0,0,1,0-2.24H84.3a1.12,1.12,0,1,1,0,2.24Z"/><path class="cls-4" d="M85.92,52.15V49.91h-7.5V44.22a2.64,2.64,0,0,0-2.64-2.63H70.1v-7H67.85v7H52.15v-7H49.91v7H44.22a2.64,2.64,0,0,0-2.63,2.63v5.69H33.86v2.24h7.73V67.86H33.86V70.1h7.73v5.69a2.63,2.63,0,0,0,2.63,2.63h5.69v7.4h2.24v-7.4h15.7v7.4H70.1v-7.4h5.68a2.64,2.64,0,0,0,2.64-2.63V70.1h7.5V67.86h-7.5V52.15ZM73.07,72A1.11,1.11,0,0,1,72,73.07H48A1.11,1.11,0,0,1,46.93,72V48A1.11,1.11,0,0,1,48,46.94H72a1.1,1.1,0,0,1,1.1,1.1Z"/><rect class="cls-4" x="52.82" y="53.37" width="5.81" height="5.81"/><rect class="cls-4" x="61.15" y="53.37" width="5.81" height="5.81"/><rect class="cls-4" x="52.82" y="61.22" width="5.81" height="5.81"/><rect class="cls-4" x="61.15" y="61.22" width="5.81" height="5.81"/></g></g></svg>