<svg xmlns="http://www.w3.org/2000/svg" xmlns:xlink="http://www.w3.org/1999/xlink" viewBox="0 0 120 120"><defs><style>.cls-1{fill:url(#linear-gradient);}.cls-2{fill:#b70f5b;}.cls-3{fill:#ff9750;}.cls-4{fill:#fff;}</style><linearGradient id="linear-gradient" y1="60" x2="120" y2="60" gradientUnits="userSpaceOnUse"><stop offset="0" stop-color="#d23274"/><stop offset="1" stop-color="#f24a37"/></linearGradient></defs><title>5_Modular@web</title><g id="Layer_2" data-name="Layer 2"><g id="Layer_1-2" data-name="Layer 1"><rect class="cls-1" width="120" height="120" rx="5"/><path class="cls-2" d="M94.6,61.18H90.2a26.15,26.15,0,0,0-3-6.81L90.63,51a3.34,3.34,0,0,0,0-4.69l-4.8-4.8a3.35,3.35,0,0,0-4.72,0L77.5,45.1a26.68,26.68,0,0,0-6.42-2.6V37.07a3.32,3.32,0,0,0-3.32-3.32H61a3.32,3.32,0,0,0-3.31,3.32v5.5a26.23,26.23,0,0,0-6.23,2.48l-4-4a3.34,3.34,0,0,0-4.69,0L38,45.86a3.34,3.34,0,0,0,0,4.7l3.7,3.69a26,26,0,0,0-2.91,6.34H33.57a3.33,3.33,0,0,0-3.34,3.34v6.79A3.33,3.33,0,0,0,33.57,74H38.1a26.12,26.12,0,0,0,2.55,7.11l-3.11,3.09a3.37,3.37,0,0,0-.93,2.86,3.28,3.28,0,0,0,.93,1.85l4.8,4.8a3.36,3.36,0,0,0,4.72,0L49.74,91a26.37,26.37,0,0,0,7.33,3.31v3.77a3.35,3.35,0,0,0,3.34,3.34H67.2a3.33,3.33,0,0,0,3.31-3.34v-3.5a26.94,26.94,0,0,0,7.62-3.09l2.58,2.6a3.31,3.31,0,0,0,4.71,0l4.8-4.78a3.36,3.36,0,0,0,0-4.72L87.56,82a26.62,26.62,0,0,0,2.91-7.37H94.6a3.33,3.33,0,0,0,3.34-3.32V64.49A3.33,3.33,0,0,0,94.6,61.18Z"/><path class="cls-3" d="M100.59,59.92H95.33a31.65,31.65,0,0,0-3.59-8.15l4.1-4.08a4,4,0,0,0,0-5.61l-5.75-5.75a4,4,0,0,0-5.63,0l-4.32,4.35a31.85,31.85,0,0,0-7.69-3.1V31.07a4,4,0,0,0-4-4H60.36a4,4,0,0,0-4,4v6.59a30.91,30.91,0,0,0-7.44,3l-4.78-4.77a4,4,0,0,0-5.61,0L32.81,41.6a4,4,0,0,0,0,5.61l4.43,4.42a31.4,31.4,0,0,0-3.48,7.58H27.58a4,4,0,0,0-4,4v8.12a4,4,0,0,0,4,4H33a31.25,31.25,0,0,0,3,8.5l-3.72,3.7a4,4,0,0,0-1.11,3.43,3.87,3.87,0,0,0,1.11,2.21l5.74,5.75a4,4,0,0,0,5.64,0l3.21-3.24a31.42,31.42,0,0,0,8.77,4v4.51a4,4,0,0,0,4,4h8.12a4,4,0,0,0,4-4V99.93a32.13,32.13,0,0,0,9.12-3.7L84,99.33a4,4,0,0,0,5.64,0l5.75-5.71a4,4,0,0,0,0-5.64l-3.19-3.19A31.71,31.71,0,0,0,95.65,76h4.94a4,4,0,0,0,4-4V63.88A4,4,0,0,0,100.59,59.92Z"/><path class="cls-3" d="M83.14,72.37A19.11,19.11,0,1,1,60.66,49.88,19.16,19.16,0,0,1,83.14,72.37Z"/><circle class="cls-4" cx="64.65" cy="65.85" r="5.45"/><path class="cls-4" d="M75.15,82.7a15.64,15.64,0,0,1-2.09,1.63c-2,1.35-4.56,1.76-7.11,2.09h-.11q-.33,0-.66.06c-.46,0-.94.06-1.41.06h-.16c-.27,0-.55,0-.82,0a16.43,16.43,0,0,1-6.35-1.7,15.15,15.15,0,0,1-2.19-1.32v-.14A10.41,10.41,0,0,1,64.65,73C70,73,74.58,77.49,75.15,82.7Z"/><path class="cls-4" d="M15.18,65.92h-3A53.53,53.53,0,0,1,54.49,13.73l.62,2.93A50.53,50.53,0,0,0,15.18,65.92Z"/><polygon class="cls-4" points="53.58 23.11 65.51 14.09 51.73 8.26 53.58 23.11"/><path class="cls-2" d="M93.69,61.37H89.42a25.75,25.75,0,0,0-2.92-6.61l3.33-3.3a3.23,3.23,0,0,0,0-4.55l-4.66-4.66a3.23,3.23,0,0,0-2.36-1,3.27,3.27,0,0,0-2.21,1l-3.5,3.52a25.4,25.4,0,0,0-6.24-2.51V38a3.22,3.22,0,0,0-3.21-3.22H61.06A3.23,3.23,0,0,0,57.84,38v5.33a25.56,25.56,0,0,0-6,2.4l-3.87-3.87a3.25,3.25,0,0,0-4.55,0l-4.66,4.66a3.26,3.26,0,0,0,0,4.56l3.59,3.58a26.14,26.14,0,0,0-2.83,6.14h-5A3.24,3.24,0,0,0,31.25,64v6.58a3.23,3.23,0,0,0,3.23,3.22h4.4a25.25,25.25,0,0,0,2.48,6.88l-3,3a3.24,3.24,0,0,0-.9,2.78,3.17,3.17,0,0,0,.9,1.79L43,93a3.25,3.25,0,0,0,4.57,0l2.6-2.63a25.5,25.5,0,0,0,7.11,3.21V97.2a3.25,3.25,0,0,0,3.24,3.24h6.59a3.22,3.22,0,0,0,3.2-3.24V93.81a26.09,26.09,0,0,0,7.4-3l2.49,2.52a3.22,3.22,0,0,0,4.57,0l4.67-4.64a3.27,3.27,0,0,0,0-4.57l-2.59-2.58a25.61,25.61,0,0,0,2.83-7.15h4a3.22,3.22,0,0,0,3.22-3.22V64.59A3.21,3.21,0,0,0,93.69,61.37ZM64.08,87A17.74,17.74,0,1,1,81.82,69.26,17.73,17.73,0,0,1,64.08,87Z"/></g></g></svg>