<svg xmlns="http://www.w3.org/2000/svg" xmlns:xlink="http://www.w3.org/1999/xlink" viewBox="0 0 292.5 252.79"><defs><style>.cls-1{fill:#fff;}.cls-2,.cls-60{fill:#a80045;}.cls-3{fill:url(#linear-gradient);}.cls-4{fill:#ff9750;}.cls-5{fill:url(#linear-gradient-2);}.cls-6{fill:url(#linear-gradient-3);}.cls-7{fill:url(#linear-gradient-4);}.cls-20,.cls-32,.cls-8{opacity:0.1;}.cls-8{fill:url(#linear-gradient-5);}.cls-21,.cls-33,.cls-9{opacity:0.2;}.cls-9{fill:url(#linear-gradient-6);}.cls-10,.cls-22,.cls-34{opacity:0.3;}.cls-10{fill:url(#linear-gradient-7);}.cls-11,.cls-23,.cls-35{opacity:0.4;}.cls-11{fill:url(#linear-gradient-8);}.cls-12,.cls-24,.cls-36,.cls-60{opacity:0.5;}.cls-12{fill:url(#linear-gradient-9);}.cls-13,.cls-25,.cls-37{opacity:0.6;}.cls-13{fill:url(#linear-gradient-10);}.cls-14,.cls-26,.cls-38{opacity:0.7;}.cls-14{fill:url(#linear-gradient-11);}.cls-15,.cls-27,.cls-39{opacity:0.8;}.cls-15{fill:url(#linear-gradient-12);}.cls-16,.cls-28,.cls-40{opacity:0.9;}.cls-16{fill:url(#linear-gradient-13);}.cls-17{fill:url(#linear-gradient-14);}.cls-18{fill:url(#linear-gradient-15);}.cls-19{fill:url(#linear-gradient-16);}.cls-20{fill:url(#linear-gradient-17);}.cls-21{fill:url(#linear-gradient-18);}.cls-22{fill:url(#linear-gradient-19);}.cls-23{fill:url(#linear-gradient-20);}.cls-24{fill:url(#linear-gradient-21);}.cls-25{fill:url(#linear-gradient-22);}.cls-26{fill:url(#linear-gradient-23);}.cls-27{fill:url(#linear-gradient-24);}.cls-28{fill:url(#linear-gradient-25);}.cls-29{fill:url(#linear-gradient-26);}.cls-30{fill:url(#linear-gradient-27);}.cls-31{fill:url(#linear-gradient-28);}.cls-32{fill:url(#linear-gradient-29);}.cls-33{fill:url(#linear-gradient-30);}.cls-34{fill:url(#linear-gradient-31);}.cls-35{fill:url(#linear-gradient-32);}.cls-36{fill:url(#linear-gradient-33);}.cls-37{fill:url(#linear-gradient-34);}.cls-38{fill:url(#linear-gradient-35);}.cls-39{fill:url(#linear-gradient-36);}.cls-40{fill:url(#linear-gradient-37);}.cls-41{fill:url(#linear-gradient-38);}.cls-42{fill:url(#linear-gradient-39);}.cls-43{fill:url(#linear-gradient-40);}.cls-44{fill:url(#linear-gradient-41);}.cls-45{fill:url(#linear-gradient-43);}.cls-46{fill:url(#linear-gradient-44);}.cls-47{fill:url(#linear-gradient-45);}.cls-48{fill:url(#linear-gradient-46);}.cls-49{fill:url(#linear-gradient-48);}.cls-50{fill:url(#linear-gradient-49);}.cls-51{fill:url(#linear-gradient-50);}.cls-52{fill:url(#linear-gradient-51);}.cls-53{fill:url(#linear-gradient-52);}.cls-54{fill:#333;}.cls-55{fill:#163560;}.cls-56{fill:#1c468a;}.cls-57{fill:#ffd0c5;}.cls-58{fill:#e58638;}.cls-59{fill:url(#linear-gradient-53);}.cls-61{fill:url(#linear-gradient-54);}.cls-62{fill:#f7baad;}</style><linearGradient id="linear-gradient" x1="78.63" y1="178.93" x2="212.78" y2="178.93" gradientUnits="userSpaceOnUse"><stop offset="0" stop-color="#d23274"/><stop offset="1" stop-color="#f24a37"/></linearGradient><linearGradient id="linear-gradient-2" x1="145.45" y1="235.39" x2="145.45" y2="222.59" xlink:href="#linear-gradient"/><linearGradient id="linear-gradient-3" x1="33.19" y1="197.68" x2="124.08" y2="197.68" xlink:href="#linear-gradient"/><linearGradient id="linear-gradient-4" x1="207.98" y1="191.28" x2="246.78" y2="191.28" xlink:href="#linear-gradient"/><linearGradient id="linear-gradient-5" x1="132.27" y1="119.51" x2="132.27" y2="117.8" gradientUnits="userSpaceOnUse"><stop offset="0" stop-color="#d23274"/><stop offset="1" stop-color="#ff8f49"/></linearGradient><linearGradient id="linear-gradient-6" x1="132.27" y1="116.82" x2="132.27" y2="115.11" xlink:href="#linear-gradient-5"/><linearGradient id="linear-gradient-7" x1="132.27" y1="114.12" x2="132.27" y2="112.42" xlink:href="#linear-gradient-5"/><linearGradient id="linear-gradient-8" x1="132.27" y1="111.43" x2="132.27" y2="109.73" xlink:href="#linear-gradient-5"/><linearGradient id="linear-gradient-9" x1="132.27" y1="108.74" x2="132.27" y2="107.03" xlink:href="#linear-gradient-5"/><linearGradient id="linear-gradient-10" x1="132.27" y1="106.05" x2="132.27" y2="104.34" xlink:href="#linear-gradient-5"/><linearGradient id="linear-gradient-11" x1="132.27" y1="103.35" x2="132.27" y2="101.65" xlink:href="#linear-gradient-5"/><linearGradient id="linear-gradient-12" x1="132.27" y1="100.66" x2="132.27" y2="98.96" xlink:href="#linear-gradient-5"/><linearGradient id="linear-gradient-13" x1="132.27" y1="97.97" x2="132.27" y2="96.26" xlink:href="#linear-gradient-5"/><linearGradient id="linear-gradient-14" x1="132.27" y1="95.28" x2="132.27" y2="93.57" xlink:href="#linear-gradient-5"/><linearGradient id="linear-gradient-15" x1="132.27" y1="92.58" x2="132.27" y2="90.88" xlink:href="#linear-gradient-5"/><linearGradient id="linear-gradient-16" x1="132.27" y1="89.85" x2="132.27" y2="79.47" xlink:href="#linear-gradient-5"/><linearGradient id="linear-gradient-17" x1="255.47" y1="166.09" x2="255.47" y2="167.8" gradientTransform="translate(-20.87 -56.5)" xlink:href="#linear-gradient-5"/><linearGradient id="linear-gradient-18" x1="255.47" y1="163.4" x2="255.47" y2="165.1" gradientTransform="translate(-20.87 -51.12)" xlink:href="#linear-gradient-5"/><linearGradient id="linear-gradient-19" x1="255.47" y1="160.71" x2="255.47" y2="162.41" gradientTransform="translate(-20.87 -45.73)" xlink:href="#linear-gradient-5"/><linearGradient id="linear-gradient-20" x1="255.47" y1="158.02" x2="255.47" y2="159.72" gradientTransform="translate(-20.87 -40.35)" xlink:href="#linear-gradient-5"/><linearGradient id="linear-gradient-21" x1="255.47" y1="155.32" x2="255.47" y2="157.03" gradientTransform="translate(-20.87 -34.96)" xlink:href="#linear-gradient-5"/><linearGradient id="linear-gradient-22" x1="255.47" y1="152.63" x2="255.47" y2="154.33" gradientTransform="translate(-20.87 -29.58)" xlink:href="#linear-gradient-5"/><linearGradient id="linear-gradient-23" x1="255.47" y1="149.94" x2="255.47" y2="151.64" gradientTransform="translate(-20.87 -24.19)" xlink:href="#linear-gradient-5"/><linearGradient id="linear-gradient-24" x1="255.47" y1="147.25" x2="255.47" y2="148.95" gradientTransform="translate(-20.87 -18.81)" xlink:href="#linear-gradient-5"/><linearGradient id="linear-gradient-25" x1="255.47" y1="144.55" x2="255.47" y2="146.26" gradientTransform="translate(-20.87 -13.42)" xlink:href="#linear-gradient-5"/><linearGradient id="linear-gradient-26" x1="255.47" y1="141.86" x2="255.47" y2="143.56" gradientTransform="translate(-20.87 -8.04)" xlink:href="#linear-gradient-5"/><linearGradient id="linear-gradient-27" x1="255.47" y1="139.17" x2="255.47" y2="140.87" gradientTransform="translate(-20.87 -2.65)" xlink:href="#linear-gradient-5"/><linearGradient id="linear-gradient-28" x1="255.47" y1="127.75" x2="255.47" y2="138.13" gradientTransform="translate(490.07 277.39) rotate(180)" xlink:href="#linear-gradient-5"/><linearGradient id="linear-gradient-29" x1="38.8" y1="148.78" x2="38.8" y2="147.08" xlink:href="#linear-gradient-5"/><linearGradient id="linear-gradient-30" x1="38.8" y1="146.09" x2="38.8" y2="144.38" xlink:href="#linear-gradient-5"/><linearGradient id="linear-gradient-31" x1="38.8" y1="143.4" x2="38.8" y2="141.69" xlink:href="#linear-gradient-5"/><linearGradient id="linear-gradient-32" x1="38.8" y1="140.7" x2="38.8" y2="139" xlink:href="#linear-gradient-5"/><linearGradient id="linear-gradient-33" x1="38.8" y1="138.01" x2="38.8" y2="136.31" xlink:href="#linear-gradient-5"/><linearGradient id="linear-gradient-34" x1="38.8" y1="135.32" x2="38.8" y2="133.61" xlink:href="#linear-gradient-5"/><linearGradient id="linear-gradient-35" x1="38.8" y1="132.63" x2="38.8" y2="130.92" xlink:href="#linear-gradient-5"/><linearGradient id="linear-gradient-36" x1="38.8" y1="129.93" x2="38.8" y2="128.23" xlink:href="#linear-gradient-5"/><linearGradient id="linear-gradient-37" x1="38.8" y1="127.24" x2="38.8" y2="125.54" xlink:href="#linear-gradient-5"/><linearGradient id="linear-gradient-38" x1="38.8" y1="124.55" x2="38.8" y2="122.84" xlink:href="#linear-gradient-5"/><linearGradient id="linear-gradient-39" x1="38.8" y1="121.86" x2="38.8" y2="120.15" xlink:href="#linear-gradient-5"/><linearGradient id="linear-gradient-40" x1="38.8" y1="119.12" x2="38.8" y2="108.74" xlink:href="#linear-gradient-5"/><linearGradient id="linear-gradient-41" x1="66.78" y1="195.44" x2="90.49" y2="195.44" xlink:href="#linear-gradient"/><linearGradient id="linear-gradient-43" x1="63.2" y1="195.44" x2="94.07" y2="195.44" xlink:href="#linear-gradient"/><linearGradient id="linear-gradient-44" x1="72.09" y1="195.44" x2="85.18" y2="195.44" xlink:href="#linear-gradient"/><linearGradient id="linear-gradient-45" x1="75.24" y1="195.44" x2="82.03" y2="195.44" xlink:href="#linear-gradient"/><linearGradient id="linear-gradient-46" x1="219.6" y1="189.04" x2="235.16" y2="189.04" xlink:href="#linear-gradient"/><linearGradient id="linear-gradient-48" x1="217.25" y1="189.04" x2="237.51" y2="189.04" xlink:href="#linear-gradient"/><linearGradient id="linear-gradient-49" x1="223.09" y1="189.04" x2="231.67" y2="189.04" xlink:href="#linear-gradient"/><linearGradient id="linear-gradient-50" x1="225.15" y1="189.04" x2="229.61" y2="189.04" xlink:href="#linear-gradient"/><linearGradient id="linear-gradient-51" x1="188.52" y1="83.38" x2="274.82" y2="83.38" gradientUnits="userSpaceOnUse"><stop offset="0" stop-color="#ff6224"/><stop offset="1" stop-color="#ff9750"/></linearGradient><linearGradient id="linear-gradient-52" x1="26.77" y1="54.54" x2="140.57" y2="54.54" xlink:href="#linear-gradient-51"/><linearGradient id="linear-gradient-53" x1="11.62" y1="177.38" x2="25.91" y2="177.38" xlink:href="#linear-gradient"/><linearGradient id="linear-gradient-54" x1="19.94" y1="179.2" x2="26.73" y2="167.44" xlink:href="#linear-gradient"/></defs><title>6_Cloud@web</title><g id="Layer_2" data-name="Layer 2"><g id="Layer_1-2" data-name="Layer 1"><rect class="cls-1" width="292.5" height="252.79"/><path class="cls-2" d="M218.82,136.14v86.45H72.6V136.14A4.41,4.41,0,0,1,77,131.73h137.4A4.41,4.41,0,0,1,218.82,136.14Z"/><path class="cls-3" d="M83,140H208.37a4.41,4.41,0,0,1,4.41,4.41v69.38a4.08,4.08,0,0,1-4.08,4.08h-126a4.08,4.08,0,0,1-4.08-4.08V144.41A4.41,4.41,0,0,1,83,140Z"/><rect class="cls-4" y="229.69" width="292.5" height="23.11"/><rect class="cls-5" x="61.9" y="222.59" width="167.1" height="12.79" rx="6.4"/><rect class="cls-6" x="33.19" y="166.37" width="90.89" height="62.62" rx="2.11"/><rect class="cls-1" x="38.8" y="171.6" width="79.66" height="47.67" rx="2.11"/><circle class="cls-1" cx="78.63" cy="223.64" r="2.13"/><rect class="cls-7" x="207.98" y="159.97" width="38.81" height="62.62" rx="2.11"/><rect class="cls-1" x="212.76" y="165.2" width="29.24" height="47.67" rx="2.11"/><circle class="cls-1" cx="227.38" cy="217.24" r="2.13"/><path class="cls-1" d="M134.67,163.5a11.82,11.82,0,0,1,3.53.63,25.24,25.24,0,0,1,4.29,1.91,43.72,43.72,0,0,1,9.4,7.25,46.64,46.64,0,0,1,5.31,6.31,30.71,30.71,0,0,1,3.35,6,13.39,13.39,0,0,1,1.13,4.89,3.93,3.93,0,0,1-1,2.88,4,4,0,0,1-2.89,1,11.87,11.87,0,0,1-3.53-.64,23.75,23.75,0,0,1-4.29-1.91,43.4,43.4,0,0,1-9.4-7.25,46.64,46.64,0,0,1-5.31-6.31,30.65,30.65,0,0,1-3.35-6,13.44,13.44,0,0,1-1.13-4.9,3.41,3.41,0,0,1,3.85-3.84h0m0-1.21a5.09,5.09,0,0,0-3.74,1.32c-3.59,3.59.37,13.35,8.83,21.81,6.34,6.35,13.41,10.15,18.07,10.15a5.09,5.09,0,0,0,3.74-1.32c3.59-3.58-.37-13.35-8.83-21.81-6.34-6.34-13.41-10.15-18.07-10.15Z"/><path class="cls-1" d="M157.83,162.29v1.21a3.41,3.41,0,0,1,3.85,3.84,13.44,13.44,0,0,1-1.13,4.9,30.65,30.65,0,0,1-3.35,6,46.64,46.64,0,0,1-5.31,6.31,43.4,43.4,0,0,1-9.4,7.25,24.47,24.47,0,0,1-4.29,1.91,11.87,11.87,0,0,1-3.53.64,4,4,0,0,1-2.89-1,3.93,3.93,0,0,1-1-2.88,13.39,13.39,0,0,1,1.13-4.89,30.71,30.71,0,0,1,3.35-6,46.64,46.64,0,0,1,5.31-6.31A43.72,43.72,0,0,1,150,166a25.24,25.24,0,0,1,4.29-1.91,11.82,11.82,0,0,1,3.53-.63v-1.21m0,0c-4.66,0-11.73,3.81-18.07,10.15-8.46,8.46-12.42,18.23-8.83,21.81a5.09,5.09,0,0,0,3.74,1.32c4.66,0,11.73-3.8,18.07-10.15,8.46-8.46,12.42-18.22,8.83-21.81a5.09,5.09,0,0,0-3.74-1.32Z"/><path class="cls-1" d="M146.25,171a47.38,47.38,0,0,1,8.22.7,31.38,31.38,0,0,1,6.63,1.89,13.57,13.57,0,0,1,4.26,2.66,3.42,3.42,0,0,1,0,5.44,13.57,13.57,0,0,1-4.26,2.66,30.79,30.79,0,0,1-6.63,1.89,47.94,47.94,0,0,1-16.44,0,30.79,30.79,0,0,1-6.63-1.89,13.57,13.57,0,0,1-4.26-2.66,3.42,3.42,0,0,1,0-5.44,13.57,13.57,0,0,1,4.26-2.66,31.38,31.38,0,0,1,6.63-1.89,47.38,47.38,0,0,1,8.22-.7m0-1.21c-12,0-21.67,4.11-21.67,9.18s9.7,9.18,21.67,9.18,21.67-4.11,21.67-9.18-9.7-9.18-21.67-9.18Z"/><path class="cls-1" d="M146.25,158.48a3.94,3.94,0,0,1,2.72,1.34,13.57,13.57,0,0,1,2.66,4.26,31.38,31.38,0,0,1,1.89,6.63,48.61,48.61,0,0,1,0,16.44,31.38,31.38,0,0,1-1.89,6.63A13.57,13.57,0,0,1,149,198a3.42,3.42,0,0,1-5.44,0,13.57,13.57,0,0,1-2.66-4.26,31.38,31.38,0,0,1-1.89-6.63,48.61,48.61,0,0,1,0-16.44,31.38,31.38,0,0,1,1.89-6.63,13.57,13.57,0,0,1,2.66-4.26,3.94,3.94,0,0,1,2.72-1.34m0-1.21c-5.07,0-9.18,9.7-9.18,21.66s4.11,21.67,9.18,21.67,9.18-9.7,9.18-21.67-4.11-21.66-9.18-21.66Z"/><path class="cls-1" d="M146.25,173.51c-2.29,0-4.77.57-4.77,1.81v7.22c0,1.25,2.48,1.81,4.76,1.81h.06a13.36,13.36,0,0,0,2-.15c1.72-.28,2.72-.89,2.72-1.66v-7.22C151,174.08,148.54,173.51,146.25,173.51Zm3.47,9a3,3,0,0,1-1.66.6,11,11,0,0,1-1.81.13c-2.17,0-3.31-.51-3.47-.73v-1.1a11.84,11.84,0,0,0,6.94,0Zm-6.94-5.9a11.84,11.84,0,0,0,6.94,0v1.09c-.16.21-1.29.73-3.47.73s-3.31-.52-3.47-.73Zm0,3.49V179a11.84,11.84,0,0,0,6.94,0v1.09c-.16.21-1.3.73-3.47.73S142.94,180.32,142.78,180.11Zm3.48-5.5c2.12,0,3.28.49,3.44.71-.16.23-1.32.72-3.44.72s-3.29-.49-3.45-.72C143,175.1,144.13,174.61,146.26,174.61Z"/><rect class="cls-8" x="127.91" y="117.8" width="8.73" height="1.7"/><rect class="cls-9" x="127.91" y="115.11" width="8.73" height="1.7"/><rect class="cls-10" x="127.91" y="112.42" width="8.73" height="1.7"/><rect class="cls-11" x="127.91" y="109.73" width="8.73" height="1.7"/><rect class="cls-12" x="127.91" y="107.03" width="8.73" height="1.7"/><rect class="cls-13" x="127.91" y="104.34" width="8.73" height="1.7"/><rect class="cls-14" x="127.91" y="101.65" width="8.73" height="1.7"/><rect class="cls-15" x="127.91" y="98.96" width="8.73" height="1.7"/><rect class="cls-16" x="127.91" y="96.26" width="8.73" height="1.7"/><rect class="cls-17" x="127.91" y="93.57" width="8.73" height="1.7"/><rect class="cls-18" x="127.91" y="90.88" width="8.73" height="1.7"/><polygon class="cls-19" points="142.15 89.84 122.4 89.84 132.27 79.47 142.15 89.84"/><rect class="cls-20" x="230.23" y="109.59" width="8.73" height="1.7" transform="translate(469.2 220.88) rotate(180)"/><rect class="cls-21" x="230.23" y="112.28" width="8.73" height="1.7" transform="translate(469.2 226.27) rotate(180)"/><rect class="cls-22" x="230.23" y="114.98" width="8.73" height="1.7" transform="translate(469.2 231.65) rotate(180)"/><rect class="cls-23" x="230.23" y="117.67" width="8.73" height="1.7" transform="translate(469.2 237.04) rotate(180)"/><rect class="cls-24" x="230.23" y="120.36" width="8.73" height="1.7" transform="translate(469.2 242.42) rotate(180)"/><rect class="cls-25" x="230.23" y="123.05" width="8.73" height="1.7" transform="translate(469.2 247.81) rotate(180)"/><rect class="cls-26" x="230.23" y="125.74" width="8.73" height="1.7" transform="translate(469.2 253.19) rotate(180)"/><rect class="cls-27" x="230.23" y="128.44" width="8.73" height="1.7" transform="translate(469.2 258.58) rotate(180)"/><rect class="cls-28" x="230.23" y="131.13" width="8.73" height="1.7" transform="translate(469.2 263.96) rotate(180)"/><rect class="cls-29" x="230.23" y="133.82" width="8.73" height="1.7" transform="translate(469.2 269.35) rotate(180)"/><rect class="cls-30" x="230.23" y="136.51" width="8.73" height="1.7" transform="translate(469.2 274.73) rotate(180)"/><polygon class="cls-31" points="224.73 139.25 244.47 139.25 234.6 149.63 224.73 139.25"/><rect class="cls-32" x="34.44" y="147.08" width="8.73" height="1.7"/><rect class="cls-33" x="34.44" y="144.38" width="8.73" height="1.7"/><rect class="cls-34" x="34.44" y="141.69" width="8.73" height="1.7"/><rect class="cls-35" x="34.44" y="139" width="8.73" height="1.7"/><rect class="cls-36" x="34.44" y="136.31" width="8.73" height="1.7"/><rect class="cls-37" x="34.44" y="133.61" width="8.73" height="1.7"/><rect class="cls-38" x="34.44" y="130.92" width="8.73" height="1.7"/><rect class="cls-39" x="34.44" y="128.23" width="8.73" height="1.7"/><rect class="cls-40" x="34.44" y="125.54" width="8.73" height="1.7"/><rect class="cls-41" x="34.44" y="122.84" width="8.73" height="1.7"/><rect class="cls-42" x="34.44" y="120.15" width="8.73" height="1.7"/><polygon class="cls-43" points="48.68 119.12 28.93 119.12 38.8 108.74 48.68 119.12"/><path class="cls-44" d="M70.38,184.44a8.4,8.4,0,0,1,2.52.45,17.62,17.62,0,0,1,3,1.36,30.86,30.86,0,0,1,6.7,5.17,33.38,33.38,0,0,1,3.79,4.5,21.91,21.91,0,0,1,2.38,4.29,9.64,9.64,0,0,1,.81,3.48,2.76,2.76,0,0,1-.69,2.05,2.8,2.8,0,0,1-2.06.69,8.39,8.39,0,0,1-2.51-.45,17.7,17.7,0,0,1-3.06-1.36,31.06,31.06,0,0,1-6.69-5.17A33.31,33.31,0,0,1,70.83,195a22.53,22.53,0,0,1-2.39-4.29,9.87,9.87,0,0,1-.8-3.49,2.43,2.43,0,0,1,2.74-2.74h0m0-.86a3.64,3.64,0,0,0-2.66.94C65.17,187.08,68,194,74,200.06c4.52,4.52,9.56,7.23,12.87,7.23a3.65,3.65,0,0,0,2.67-.94c2.55-2.55-.26-9.51-6.29-15.54-4.52-4.52-9.56-7.23-12.88-7.23Z"/><path class="cls-44" d="M86.88,183.58v.86a2.43,2.43,0,0,1,2.75,2.74,9.69,9.69,0,0,1-.81,3.49A21.91,21.91,0,0,1,86.44,195a33.31,33.31,0,0,1-3.79,4.49,30.86,30.86,0,0,1-6.7,5.17,17.62,17.62,0,0,1-3,1.36,8.4,8.4,0,0,1-2.52.45,2.79,2.79,0,0,1-2-.69,2.76,2.76,0,0,1-.69-2.05,9.82,9.82,0,0,1,.8-3.48,22.53,22.53,0,0,1,2.39-4.29,33.38,33.38,0,0,1,3.79-4.5,31.06,31.06,0,0,1,6.69-5.17,17.7,17.7,0,0,1,3.06-1.36,8.39,8.39,0,0,1,2.51-.45v-.86m0,0c-3.31,0-8.35,2.71-12.87,7.23-6,6-8.84,13-6.29,15.54a3.64,3.64,0,0,0,2.66.94c3.32,0,8.36-2.71,12.88-7.23,6-6,8.84-13,6.29-15.54a3.65,3.65,0,0,0-2.67-.94Z"/><path class="cls-45" d="M78.63,189.76a33.47,33.47,0,0,1,5.86.5,22.6,22.6,0,0,1,4.72,1.34,9.69,9.69,0,0,1,3,1.9,2.44,2.44,0,0,1,0,3.88,9.69,9.69,0,0,1-3,1.89,22,22,0,0,1-4.72,1.35,34.53,34.53,0,0,1-11.71,0,21.83,21.83,0,0,1-4.72-1.35,9.69,9.69,0,0,1-3-1.89,2.44,2.44,0,0,1,0-3.88,9.69,9.69,0,0,1,3-1.9,22.42,22.42,0,0,1,4.72-1.34,33.44,33.44,0,0,1,5.85-.5m0-.86c-8.52,0-15.43,2.92-15.43,6.54S70.11,202,78.63,202s15.44-2.93,15.44-6.54-6.91-6.54-15.44-6.54Z"/><path class="cls-46" d="M78.63,180.86a2.83,2.83,0,0,1,1.94,1,9.69,9.69,0,0,1,1.9,3,22.18,22.18,0,0,1,1.34,4.72,34.53,34.53,0,0,1,0,11.71A22.11,22.11,0,0,1,82.47,206a9.75,9.75,0,0,1-1.9,3,2.43,2.43,0,0,1-3.87,0,9.75,9.75,0,0,1-1.9-3,22.68,22.68,0,0,1-1.35-4.73,34.53,34.53,0,0,1,0-11.71,22.76,22.76,0,0,1,1.35-4.72,9.69,9.69,0,0,1,1.9-3,2.83,2.83,0,0,1,1.93-1m0-.86c-3.61,0-6.54,6.91-6.54,15.44s2.93,15.43,6.54,15.43,6.55-6.91,6.55-15.43S82.25,180,78.63,180Z"/><path class="cls-47" d="M78.63,191.57c-1.63,0-3.39.41-3.39,1.3V198c0,.88,1.76,1.29,3.39,1.29h0a9.73,9.73,0,0,0,1.43-.11C81.32,199,82,198.56,82,198v-5.14C82,192,80.26,191.57,78.63,191.57ZM81.11,198a2.14,2.14,0,0,1-1.18.43,8,8,0,0,1-1.3.09,4.17,4.17,0,0,1-2.47-.51v-.79a8.46,8.46,0,0,0,5,0Zm-5-4.2a8.46,8.46,0,0,0,5,0v.77a4.06,4.06,0,0,1-2.48.53,4,4,0,0,1-2.47-.53Zm0,2.48v-.77a8.46,8.46,0,0,0,5,0v.77a4.09,4.09,0,0,1-2.48.52A4,4,0,0,1,76.16,196.27Zm2.48-3.91a4.15,4.15,0,0,1,2.46.51,4.15,4.15,0,0,1-2.46.51,4.15,4.15,0,0,1-2.46-.51A4.15,4.15,0,0,1,78.64,192.36Z"/><path class="cls-48" d="M222,181.82a5.36,5.36,0,0,1,1.65.3,11.08,11.08,0,0,1,2,.89,20.3,20.3,0,0,1,4.4,3.39,22.3,22.3,0,0,1,2.48,2.95,14.15,14.15,0,0,1,1.57,2.82,6.32,6.32,0,0,1,.53,2.29,1.82,1.82,0,0,1-.45,1.34,1.85,1.85,0,0,1-1.35.46,5.41,5.41,0,0,1-1.65-.3,11.08,11.08,0,0,1-2-.89,20.62,20.62,0,0,1-4.4-3.39,21.75,21.75,0,0,1-2.48-3,14.09,14.09,0,0,1-1.57-2.81,6.32,6.32,0,0,1-.53-2.29,1.6,1.6,0,0,1,1.8-1.8h0m0-.57a2.38,2.38,0,0,0-1.74.62c-1.68,1.68.17,6.25,4.12,10.21,3,3,6.28,4.74,8.46,4.74a2.4,2.4,0,0,0,1.75-.62c1.67-1.67-.18-6.24-4.13-10.2-3-3-6.28-4.75-8.46-4.75Z"/><path class="cls-48" d="M232.8,181.25v.57a1.59,1.59,0,0,1,1.8,1.8,6.32,6.32,0,0,1-.53,2.29,14.09,14.09,0,0,1-1.57,2.81,21.75,21.75,0,0,1-2.48,3,20.62,20.62,0,0,1-4.4,3.39,11.08,11.08,0,0,1-2,.89,5.36,5.36,0,0,1-1.65.3,1.83,1.83,0,0,1-1.34-.46,1.79,1.79,0,0,1-.46-1.34,6.32,6.32,0,0,1,.53-2.29,14.15,14.15,0,0,1,1.57-2.82,22.3,22.3,0,0,1,2.48-2.95,20.3,20.3,0,0,1,4.4-3.39,11.08,11.08,0,0,1,2-.89,5.41,5.41,0,0,1,1.65-.3v-.57m0,0c-2.18,0-5.49,1.79-8.46,4.75-4,4-5.8,8.53-4.12,10.2a2.38,2.38,0,0,0,1.74.62c2.18,0,5.49-1.78,8.46-4.74,4-4,5.8-8.53,4.13-10.21a2.4,2.4,0,0,0-1.75-.62Z"/><path class="cls-49" d="M227.38,185.31a21.73,21.73,0,0,1,3.85.33,14.77,14.77,0,0,1,3.1.88,6.19,6.19,0,0,1,2,1.25,1.6,1.6,0,0,1,0,2.54,6.36,6.36,0,0,1-2,1.24,14.76,14.76,0,0,1-3.1.89,22.57,22.57,0,0,1-7.69,0,14.41,14.41,0,0,1-3.1-.89,6.42,6.42,0,0,1-2-1.24,1.88,1.88,0,0,1-.63-1.27,1.86,1.86,0,0,1,.63-1.27,6.25,6.25,0,0,1,2-1.25,14.43,14.43,0,0,1,3.1-.88,21.61,21.61,0,0,1,3.84-.33m0-.57c-5.6,0-10.13,1.93-10.13,4.3s4.53,4.29,10.13,4.29,10.13-1.92,10.13-4.29-4.53-4.3-10.13-4.3Z"/><path class="cls-50" d="M227.38,179.47a1.82,1.82,0,0,1,1.27.63,6.19,6.19,0,0,1,1.25,2,15.4,15.4,0,0,1,.88,3.1,22.57,22.57,0,0,1,0,7.69,15,15,0,0,1-.88,3.1,6.37,6.37,0,0,1-1.25,2,1.86,1.86,0,0,1-1.27.63,1.88,1.88,0,0,1-1.27-.63,6.75,6.75,0,0,1-1.25-2,15,15,0,0,1-.88-3.1,22.57,22.57,0,0,1,0-7.69,15.4,15.4,0,0,1,.88-3.1,6.56,6.56,0,0,1,1.25-2,1.84,1.84,0,0,1,1.27-.63m0-.56c-2.37,0-4.29,4.53-4.29,10.13s1.92,10.13,4.29,10.13,4.29-4.54,4.29-10.13-1.92-10.13-4.29-10.13Z"/><path class="cls-51" d="M227.38,186.5c-1.07,0-2.23.27-2.23.85v3.37c0,.59,1.16.85,2.23.85h0a5.86,5.86,0,0,0,.94-.07c.81-.13,1.27-.41,1.27-.78v-3.37C229.61,186.77,228.45,186.5,227.38,186.5Zm1.63,4.22a1.6,1.6,0,0,1-.78.28,6.07,6.07,0,0,1-.85.06,2.69,2.69,0,0,1-1.62-.34v-.52a4.8,4.8,0,0,0,1.62.24,4.9,4.9,0,0,0,1.63-.24ZM225.76,188a5.06,5.06,0,0,0,1.62.24A5.17,5.17,0,0,0,229,188v.51a2.74,2.74,0,0,1-1.63.34,2.67,2.67,0,0,1-1.62-.34Zm0,1.63v-.51a4.8,4.8,0,0,0,1.62.24,4.9,4.9,0,0,0,1.63-.24v.51a2.74,2.74,0,0,1-1.63.34A2.67,2.67,0,0,1,225.76,189.59Zm1.62-2.57a2.79,2.79,0,0,1,1.62.33,4,4,0,0,1-3.23,0A2.77,2.77,0,0,1,227.38,187Z"/><path class="cls-52" d="M274.82,94.31a13.28,13.28,0,0,1-13.27,13.28v.15H204.5a16,16,0,1,1,8.44-29.57,23.48,23.48,0,0,1,46.53,3,14.13,14.13,0,0,1,2.08-.16A13.28,13.28,0,0,1,274.82,94.31Z"/><path class="cls-53" d="M140.57,70a7.28,7.28,0,0,1-7.27,7.27H45A18.22,18.22,0,1,1,63,56.66a13.07,13.07,0,0,1,10.74-5.6c.42,0,.83,0,1.24.06a22,22,0,0,1,43.88,2.7c0,.56,0,1.13-.06,1.69a11.14,11.14,0,0,1,1.74-.14A10.89,10.89,0,0,1,131,63.11a7.27,7.27,0,0,1,9.56,6.9Z"/><path class="cls-2" d="M16.38,163.87s-5.84,6-6.12,8.32S13,178,13,178Z"/><path class="cls-54" d="M18.88,226.49s.2,3.21.82,3.25h3.15l3.91,0a1.27,1.27,0,0,0-1.16-1.15,5.29,5.29,0,0,1-3.76-2.51C21.11,224.48,18.88,226.49,18.88,226.49Z"/><path class="cls-54" d="M10.17,226.49s.19,3.21.81,3.25h7.08a1.3,1.3,0,0,0-1.18-1.16,5.26,5.26,0,0,1-3.75-2.51C12.4,224.48,10.17,226.49,10.17,226.49Z"/><path class="cls-55" d="M23.22,192.08a130.39,130.39,0,0,1-4.84,18.17C14.56,221.87,14,226.9,14,226.9a17,17,0,0,1-2.13.15,13.63,13.63,0,0,1-2-.26s0-12.7,1.72-18.55.38-21.07.38-21.07Z"/><path class="cls-56" d="M25.21,187.53a158.1,158.1,0,0,1-1.56,22c-1.71,12.12-1.13,17.26-1.13,17.26s-1.4.25-1.9.27-2.19-.14-2.19-.14S16,214.79,16.69,208.72s-3.35-20.8-3.35-20.8Z"/><path class="cls-57" d="M17.3,164.44l1.92,1.43,2.79-.58c0-.26-.22-1.31-.39-2.26l0-.17c-.14-.81-.27-1.51-.27-1.51l-2.6-1.3-1-.48s.08.9.09,1A8.32,8.32,0,0,1,17.3,164.44Z"/><path class="cls-58" d="M21.82,163.72a27.39,27.39,0,0,0-4.2-1c-.4.14-.64.92-.64.92l6.1,1.38A3,3,0,0,0,21.82,163.72Z"/><path class="cls-59" d="M11.77,188.75c.64,2.88,11.16,3.23,13.87.61.31-.3.32-1.69.21-3.56-.23-3.66-1-9.16-1-12a21.78,21.78,0,0,0-.45-4A33.24,33.24,0,0,0,23.08,165s-5.14-1.66-6.1-1.38C12.34,165,11.14,185.87,11.77,188.75Z"/><path class="cls-60" d="M25.85,185.8c-.23-3.66-1-9.16-1-12a21.78,21.78,0,0,0-.45-4l-3.09-.54S18.3,181.62,25.85,185.8Z"/><path class="cls-57" d="M24.17,180.7a.73.73,0,0,0,.23.84,1.41,1.41,0,0,1,.63,1.29c-.1.4-1.07,1-1.41.95s-1-.63-.94-.85-.46-1.85.36-2.48S24.17,180.7,24.17,180.7Z"/><path class="cls-61" d="M20.72,164.29a9.34,9.34,0,0,1,5.41,4.1c2.41,3.54,4,6.18,3.54,7.45s-4.47,5.7-5.17,5.7a1.86,1.86,0,0,1-1.88-1.64s2.84-4.26,2.28-4.89c-.24-.28-3.69-3.08-4.18-1.81C19.91,175.29,20.72,164.29,20.72,164.29Z"/><path class="cls-62" d="M18,160.64c.57,1.09,2.7,2,3.59,2.39l0-.17c-.14-.81-.27-1.51-.27-1.51l-2.6-1.3C18.15,160,17.8,160.19,18,160.64Z"/><path class="cls-57" d="M22.16,161.41s-3.85,1.2-4.56-1.21-1.69-3.88.74-4.75,3.18-.09,3.62.66S23.15,161,22.16,161.41Z"/><path class="cls-54" d="M21.8,155.87s-.24,2.81-.82,2.69-1.11-.21-1,.63.89,1.82-.9,2-4.36-4.46-3.87-5.33C16.61,153.31,23.85,152.8,21.8,155.87Z"/></g></g></svg>