<svg xmlns="http://www.w3.org/2000/svg" xmlns:xlink="http://www.w3.org/1999/xlink" viewBox="0 0 292.5 252.79"><defs><style>.cls-1{fill:#384857;}.cls-13,.cls-2{fill:#fff;}.cls-3{fill:#a80045;}.cls-4{fill:url(#linear-gradient);}.cls-5,.cls-8{fill:#ff9750;}.cls-6{fill:url(#linear-gradient-2);}.cls-7{fill:url(#linear-gradient-3);}.cls-10,.cls-8,.cls-9{fill-rule:evenodd;}.cls-9{fill:url(#linear-gradient-4);}.cls-10{fill:url(#linear-gradient-5);}.cls-11{fill:url(#linear-gradient-6);}.cls-12{fill:url(#linear-gradient-7);}.cls-13{opacity:0.15;}.cls-14{fill:url(#linear-gradient-8);}.cls-15{fill:url(#linear-gradient-9);}.cls-16{fill:url(#linear-gradient-10);}.cls-17{fill:#1c468a;}.cls-18{fill:#333;}.cls-19{fill:#ffd0c5;}.cls-20{fill:url(#linear-gradient-11);}.cls-21{fill:url(#linear-gradient-12);}.cls-22{fill:#ff8e4b;}.cls-23{fill:#003b72;}.cls-24{fill:#163560;}.cls-25{fill:#0c3563;}.cls-26{fill:#0d458d;}.cls-27{fill:url(#linear-gradient-13);}.cls-28{fill:#ffb079;}.cls-29{fill:url(#linear-gradient-14);}.cls-30{fill:#f7baad;}</style><linearGradient id="linear-gradient" x1="78.64" y1="178.93" x2="212.78" y2="178.93" gradientUnits="userSpaceOnUse"><stop offset="0" stop-color="#d23274"/><stop offset="1" stop-color="#f24a37"/></linearGradient><linearGradient id="linear-gradient-2" x1="145.45" y1="235.39" x2="145.45" y2="222.59" xlink:href="#linear-gradient"/><linearGradient id="linear-gradient-3" x1="2.67" y1="190.31" x2="95.52" y2="190.31" gradientTransform="translate(-12.96 3.96) rotate(-4.1)" gradientUnits="userSpaceOnUse"><stop offset="0" stop-color="#ff6224"/><stop offset="1" stop-color="#ff9750"/></linearGradient><linearGradient id="linear-gradient-4" x1="19.58" y1="57.63" x2="64.61" y2="57.63" xlink:href="#linear-gradient"/><linearGradient id="linear-gradient-5" x1="59.6" y1="30.02" x2="85.09" y2="30.02" xlink:href="#linear-gradient"/><linearGradient id="linear-gradient-6" x1="215.65" y1="63.68" x2="232.72" y2="63.68" gradientTransform="matrix(-1, 0, 0, 1, 447.62, 0)" xlink:href="#linear-gradient"/><linearGradient id="linear-gradient-7" x1="111.47" y1="157.48" x2="166.8" y2="157.48" gradientTransform="matrix(0.5, -0.86, 0.86, 0.5, -18.73, 167.14)" xlink:href="#linear-gradient-3"/><linearGradient id="linear-gradient-8" x1="165.97" y1="166.8" x2="171.55" y2="166.8" gradientTransform="translate(319 -105.96) rotate(72.61)" xlink:href="#linear-gradient-3"/><linearGradient id="linear-gradient-9" x1="168.35" y1="173.7" x2="213.25" y2="173.7" gradientTransform="matrix(0.3, 0.95, -0.95, 0.3, 336.03, -144.64)" xlink:href="#linear-gradient-3"/><linearGradient id="linear-gradient-10" x1="226" y1="81.73" x2="245.21" y2="81.73" gradientTransform="translate(454.98 -36.86) rotate(132.47)" xlink:href="#linear-gradient"/><linearGradient id="linear-gradient-11" x1="37.69" y1="179.52" x2="49.96" y2="179.52" xlink:href="#linear-gradient"/><linearGradient id="linear-gradient-12" x1="37.16" y1="187.1" x2="48.91" y2="175.34" gradientUnits="userSpaceOnUse"><stop offset="0" stop-color="#d23274"/><stop offset="1" stop-color="#e94348"/></linearGradient><linearGradient id="linear-gradient-13" x1="252.68" y1="182.42" x2="270.87" y2="182.42" xlink:href="#linear-gradient"/><linearGradient id="linear-gradient-14" x1="244.89" y1="181.61" x2="269.94" y2="181.61" xlink:href="#linear-gradient"/></defs><title>6_Fixing@web</title><g id="Layer_2" data-name="Layer 2"><g id="Layer_1-2" data-name="Layer 1"><rect class="cls-1" x="220.36" y="229.68" width="72.14" height="5.7"/><rect class="cls-2" width="292.5" height="252.79"/><path class="cls-3" d="M218.82,136.14v86.45H72.6V136.14A4.41,4.41,0,0,1,77,131.73h137.4A4.41,4.41,0,0,1,218.82,136.14Z"/><path class="cls-4" d="M83,140H208.38a4.41,4.41,0,0,1,4.41,4.41v69.38a4.08,4.08,0,0,1-4.08,4.08h-126a4.08,4.08,0,0,1-4.08-4.08V144.41A4.41,4.41,0,0,1,83,140Z"/><rect class="cls-5" y="229.68" width="292.5" height="23.11"/><rect class="cls-6" x="61.9" y="222.59" width="167.1" height="12.79" rx="6.4"/><polygon class="cls-7" points="20.58 191.44 3.55 196.87 7.7 185.57 22.92 180.71 33.83 190.65 62.97 181.35 66.11 166.93 81.34 162.07 91 168.98 74.23 174.32 72.33 183.06 78.94 189.09 95.7 183.74 91.83 194.95 76.6 199.81 66.7 190.79 36.26 200.5 33.4 213.58 18.19 218.44 8.26 211.63 25.29 206.2 27.19 197.46 20.58 191.44"/><path class="cls-8" d="M44.17,66.1a8.72,8.72,0,1,0-10.54-6.39A8.73,8.73,0,0,0,44.17,66.1Zm-6.34-7.42a4.39,4.39,0,1,1,5.31,3.21A4.4,4.4,0,0,1,37.83,58.68Z"/><path class="cls-9" d="M55.66,54.3A14,14,0,1,1,38.77,44.07,14,14,0,0,1,55.66,54.3ZM35.53,41.78a17.35,17.35,0,0,0-3.3,1.81l-4.85-3.46a23.25,23.25,0,0,0-2.15,2.06l3.26,5a17.1,17.1,0,0,0-2,3.22l-5.93-.57a21.76,21.76,0,0,0-.83,2.86l5.31,2.7A17.52,17.52,0,0,0,25,59.15l-5.42,2.47a22.3,22.3,0,0,0,.71,2.9l5.95-.33a17.05,17.05,0,0,0,1.81,3.3l-3.46,4.85a23.41,23.41,0,0,0,2.07,2.16l5-3.26a17.06,17.06,0,0,0,3.22,2l-.58,5.93a23.61,23.61,0,0,0,2.87.84l2.69-5.32a17,17,0,0,0,3.77.08l2.46,5.43a24.08,24.08,0,0,0,2.9-.72l-.32-6A16.81,16.81,0,0,0,52,71.67l4.85,3.47A24.75,24.75,0,0,0,59,73.07l-3.26-5a17.1,17.1,0,0,0,2-3.22l5.93.58a24.09,24.09,0,0,0,.83-2.87l-5.31-2.69a17.61,17.61,0,0,0,.08-3.77l5.42-2.47a21.77,21.77,0,0,0-.71-2.89L58,51.07a16.86,16.86,0,0,0-1.82-3.3l3.47-4.85a22.11,22.11,0,0,0-2.07-2.15l-5,3.25a17.59,17.59,0,0,0-3.22-2l.58-5.93A22.36,22.36,0,0,0,47,35.31l-2.69,5.31a17.6,17.6,0,0,0-3.77-.08l-2.46-5.42a22.3,22.3,0,0,0-2.9.71Z"/><path class="cls-10" d="M79.34,27.8A7.34,7.34,0,1,1,70.12,23,7.34,7.34,0,0,1,79.34,27.8ZM68.06,21.35a9.58,9.58,0,0,0-1.79,1.15l-2.86-1.77A13.3,13.3,0,0,0,62.28,22l2,2.69a9.6,9.6,0,0,0-1,1.88L60,26.44a15.48,15.48,0,0,0-.36,1.64l3.09,1.32a10,10,0,0,0,.1,2.12l-3,1.59a14.2,14.2,0,0,0,.51,1.6l3.34-.4c.31.63-.61,2.47-.17,3L63.05,39a12.24,12.24,0,0,0,1.25,1.14l2.68-2a9.37,9.37,0,0,0,1.89,1l-.1,3.36a11.13,11.13,0,0,0,1.64.36l1.31-3.09a10,10,0,0,0,2.12-.09l1.6,3A11.44,11.44,0,0,0,77,42l-.41-3.33a10.07,10.07,0,0,0,1.79-1.14l2.86,1.76a13.3,13.3,0,0,0,1.13-1.24l-2-2.69a9.6,9.6,0,0,0,1-1.88l3.36.1A15.48,15.48,0,0,0,85.09,32L82,30.64a10,10,0,0,0-.1-2.12l3-1.59a14.2,14.2,0,0,0-.51-1.6l-3.34.4a9.67,9.67,0,0,0-1.14-1.79l1.77-2.85A12.24,12.24,0,0,0,80.39,20l-2.68,2a9.37,9.37,0,0,0-1.89-1l.1-3.36a11.13,11.13,0,0,0-1.64-.36L73,20.37a9.4,9.4,0,0,0-2.12.1l-1.6-3a11.44,11.44,0,0,0-1.6.51Z"/><path class="cls-5" d="M71.31,26.77a3.41,3.41,0,1,1-2.22,4.28A3.41,3.41,0,0,1,71.31,26.77Z"/><path class="cls-3" d="M229.42,104.09c1-.31,2.05-.45,3-.85a10.9,10.9,0,0,0,6.05-5.91,15.74,15.74,0,0,0,1-10.32c-1.16-4.73-4.43-7.19-9.05-8.08a15.29,15.29,0,0,0-3.23-.35c-.58,0-.78-.22-.8-.8,0-2.07-.07-2.07-2.15-2.07-1,0-1.93,0-2.89,0-.69,0-1,.17-1.06,1-.14,2.44-.06,4.88-.12,7.31,0,.7.26.9.93.77a25.86,25.86,0,0,1,4.21-.49c3.17-.06,4.75,1.11,5.36,4.26a7.09,7.09,0,0,1-.81,5.73c-1.6,2.28-6.63,3.49-9.1,0-.4-.57-.73-1.18-1.12-1.76a5.41,5.41,0,0,0-4.5-2.59c-.76,0-1.31.23-1.44,1a1.43,1.43,0,0,0,1.2,1.56c.2,0,.42,0,.62.08a1.15,1.15,0,0,1,1.07,1.22,13.29,13.29,0,0,0,1,4.65,8.86,8.86,0,0,0,6.49,5.36c.29.07.57.17.86.25Z"/><path class="cls-11" d="M214.9,54.93c0,2.89,0,5.79,0,8.69a1.93,1.93,0,0,0,.12.71c1.05,2.74,2.09,5.47,3.12,8.21a.71.71,0,0,0,.79.54c.52,0,1,0,1.56,0q3.78,0,7.56,0a.71.71,0,0,0,.79-.54c1-2.69,2-5.37,3-8.05a2.51,2.51,0,0,0,.14-.81c0-2.93,0-5.86,0-8.79,0-.48-.16-.61-.62-.61H215.54C215,54.27,214.9,54.44,214.9,54.93Zm6.88,5.72a1.59,1.59,0,0,1,1.6-1.62,1.63,1.63,0,1,1,0,3.26A1.6,1.6,0,0,1,221.78,60.65Z"/><path class="cls-3" d="M216.59,46.16v8.12c0,.66,0,.67.67.67.49,0,1,0,1.47,0s.54-.13.53-.53v-.13c0-1.64,0-3.26,0-4.9s0-41.78,0-49.39h-2.68C216.6,7.7,216.59,45.6,216.59,46.16Z"/><path class="cls-3" d="M226.81,49.4c0,1.63,0,3.26,0,4.89v.09c0,.45.15.6.59.58s1,0,1.56,0c.32,0,.47-.09.47-.44v-.23c0-4.6,0-45.7,0-54.28H226.8C226.81,7.94,226.81,47.85,226.81,49.4Z"/><path class="cls-3" d="M223.42,73.09c-1,0-1.95,0-2.92,0-.39,0-.52.14-.51.52,0,.53,0,1.07,0,1.61,0,.33.1.5.47.5,2,0,4,0,5.95,0,.32,0,.48-.08.47-.43,0-.59,0-1.17,0-1.76,0-.32-.13-.43-.44-.42Z"/><path class="cls-2" d="M137.68,163.5a11.77,11.77,0,0,1,3.53.63A25.24,25.24,0,0,1,145.5,166a43.72,43.72,0,0,1,9.4,7.25,46.74,46.74,0,0,1,5.32,6.31,31.78,31.78,0,0,1,3.35,6,13.6,13.6,0,0,1,1.13,4.89,3.42,3.42,0,0,1-3.86,3.85,11.75,11.75,0,0,1-3.52-.64,24.55,24.55,0,0,1-4.3-1.91,43.4,43.4,0,0,1-9.4-7.25,47.39,47.39,0,0,1-5.31-6.31,31.18,31.18,0,0,1-3.35-6,13.69,13.69,0,0,1-1.13-4.9,3.42,3.42,0,0,1,3.85-3.84h0m0-1.21a5.11,5.11,0,0,0-3.74,1.32c-3.58,3.59.37,13.35,8.83,21.81,6.34,6.35,13.42,10.15,18.07,10.15a5.09,5.09,0,0,0,3.74-1.32c3.59-3.58-.37-13.35-8.83-21.81-6.34-6.34-13.41-10.15-18.07-10.15Z"/><path class="cls-2" d="M160.84,162.29v1.21a3.42,3.42,0,0,1,3.86,3.84,13.69,13.69,0,0,1-1.13,4.9,31.72,31.72,0,0,1-3.35,6,46.74,46.74,0,0,1-5.32,6.31,43.4,43.4,0,0,1-9.4,7.25,24.47,24.47,0,0,1-4.29,1.91,11.81,11.81,0,0,1-3.53.64,3.42,3.42,0,0,1-3.85-3.85,13.6,13.6,0,0,1,1.13-4.89,31.24,31.24,0,0,1,3.35-6,47.39,47.39,0,0,1,5.31-6.31A43.72,43.72,0,0,1,153,166a25.31,25.31,0,0,1,4.3-1.91,11.71,11.71,0,0,1,3.52-.63v-1.21m0,0c-4.65,0-11.73,3.81-18.07,10.15-8.46,8.46-12.41,18.23-8.83,21.81a5.11,5.11,0,0,0,3.74,1.32c4.66,0,11.73-3.81,18.07-10.15,8.46-8.46,12.42-18.22,8.83-21.81a5.09,5.09,0,0,0-3.74-1.32Z"/><path class="cls-2" d="M149.26,171a46.34,46.34,0,0,1,8.22.7,31.38,31.38,0,0,1,6.63,1.89,13.57,13.57,0,0,1,4.26,2.66,3.42,3.42,0,0,1,0,5.44,13.57,13.57,0,0,1-4.26,2.66,30.79,30.79,0,0,1-6.63,1.89,48.61,48.61,0,0,1-16.44,0,30.79,30.79,0,0,1-6.63-1.89,13.57,13.57,0,0,1-4.26-2.66,3.42,3.42,0,0,1,0-5.44,13.57,13.57,0,0,1,4.26-2.66,31.38,31.38,0,0,1,6.63-1.89,46.42,46.42,0,0,1,8.22-.7m0-1.21c-12,0-21.66,4.11-21.66,9.18s9.7,9.18,21.66,9.18,21.67-4.11,21.67-9.18-9.7-9.18-21.67-9.18Z"/><path class="cls-2" d="M149.26,158.47a3.93,3.93,0,0,1,2.72,1.35,13.57,13.57,0,0,1,2.66,4.26,30.79,30.79,0,0,1,1.89,6.63,47.94,47.94,0,0,1,0,16.44,30.79,30.79,0,0,1-1.89,6.63A13.57,13.57,0,0,1,152,198a3.42,3.42,0,0,1-5.44,0,13.57,13.57,0,0,1-2.66-4.26,31.38,31.38,0,0,1-1.89-6.63,48.61,48.61,0,0,1,0-16.44,31.38,31.38,0,0,1,1.89-6.63,13.57,13.57,0,0,1,2.66-4.26,4,4,0,0,1,2.72-1.35m0-1.2c-5.07,0-9.18,9.7-9.18,21.66s4.11,21.67,9.18,21.67,9.18-9.7,9.18-21.67-4.11-21.66-9.18-21.66Z"/><path class="cls-2" d="M149.26,173.51c-2.29,0-4.76.57-4.76,1.81v7.22c0,1.24,2.47,1.81,4.75,1.81h.06a13.27,13.27,0,0,0,2-.15c1.72-.29,2.72-.89,2.72-1.66v-7.22C154,174.08,151.55,173.51,149.26,173.51Zm3.48,9a3,3,0,0,1-1.66.59,10.08,10.08,0,0,1-1.82.14c-2.17,0-3.31-.51-3.47-.73v-1.1a11.87,11.87,0,0,0,7,0Zm-7-5.9a11.87,11.87,0,0,0,7,0v1.09c-.17.21-1.3.73-3.48.73s-3.31-.52-3.47-.73Zm0,3.49V179a11.87,11.87,0,0,0,7,0v1.09c-.17.21-1.31.73-3.48.73S146,180.32,145.79,180.11Zm3.48-5.5c2.12,0,3.28.49,3.45.71-.17.23-1.33.72-3.45.72s-3.29-.49-3.45-.72C146,175.1,147.15,174.61,149.27,174.61Z"/><path class="cls-12" d="M199.86,107.2a25.06,25.06,0,1,0,7.48,7.68l3.78-3.47-7.23-7.9Zm1.43,6.94a20.7,20.7,0,1,1-29.24-1.3A20.69,20.69,0,0,1,201.29,114.14Z"/><path class="cls-3" d="M172.05,112.84a20.7,20.7,0,1,0,29.24,1.3A20.7,20.7,0,0,0,172.05,112.84Zm27.74,2.67a18.66,18.66,0,1,1-26.37-1.16A18.68,18.68,0,0,1,199.79,115.51Z"/><path class="cls-13" d="M199.79,115.51a18.66,18.66,0,1,1-26.37-1.16A18.68,18.68,0,0,1,199.79,115.51Z"/><path class="cls-1" d="M178.36,118.45a12.31,12.31,0,0,1,15.71.32l1.55-1.42a9.32,9.32,0,0,0-.76-.65,14.43,14.43,0,0,0-17.35-.24Z"/><path class="cls-2" d="M177.51,116.46a14.43,14.43,0,0,1,17.35.24,9.32,9.32,0,0,1,.76.65l-1.55,1.42a12.31,12.31,0,0,0-15.71-.32Z"/><rect class="cls-14" x="204.9" y="103.7" width="10.71" height="2.49" transform="translate(274.82 330.89) rotate(-132.47)"/><rect class="cls-15" x="221.93" y="67.5" width="10.71" height="43.7" transform="translate(314.86 317.33) rotate(-132.47)"/><rect class="cls-3" x="202.68" y="105.38" width="11.47" height="2.49" transform="translate(270.51 332.35) rotate(-132.47)"/><rect class="cls-16" x="229.18" y="74.6" width="12.86" height="14.27" transform="translate(334.41 310.71) rotate(-132.47)"/><path class="cls-17" d="M36.26,200.51l7.56-2.42-1,11.16a4,4,0,0,1-.54,1.57L31.54,227.33l-4.38-1,8.76-17.51Z"/><path class="cls-17" d="M43.5,198.19,51,195.82l6.1,8.75a13.43,13.43,0,0,1,0,6.34c-.82,3.7-2.71,16.42-2.71,16.42h-4l.85-17A5.82,5.82,0,0,0,50,206.38Z"/><path class="cls-18" d="M49.73,227.64v2.71h8.33s.43-1-1.36-2.1-2.32-.92-2.32-.92Z"/><path class="cls-18" d="M26,229.92l.68-3.58,4.87,1s2.28,1.36,2.53,2.28,0,.74,0,.74Z"/><polygon class="cls-3" points="49.52 177.08 53.46 184.39 49.33 185.71 49.52 177.08"/><path class="cls-19" d="M40.61,190.62s-.13,1-.17,2,1.05,2.3,2.24,1.91,1.55-2.26,1.44-2.65-.08-1,.27-.66.84.87.86.29a1.29,1.29,0,0,0-1.52-1.25C42.64,190.31,40.61,190.62,40.61,190.62Z"/><path class="cls-20" d="M43.32,171.28l1.32-1.65,3.86.82,1,1.52s0,1.53.45,5.81a41.91,41.91,0,0,1-.57,7.93l-11.64,3.71a56.73,56.73,0,0,1,.9-6.47c.54-2.1,3.79-9.54,3.79-9.54Z"/><polygon class="cls-19" points="45.62 169.84 45.95 168.31 48.19 169.63 47.7 170.6 45.62 169.84"/><path class="cls-19" d="M44.88,166.2a4,4,0,0,0,1.5,2.44c1.25.89,3.39,1.71,4.09.37a4.75,4.75,0,0,1,1.25-1.72c.23-.25.49-4.07,0-4.59S43.89,161.22,44.88,166.2Z"/><path class="cls-18" d="M46.13,168.23s-2.52-2.32-2.62-4.54a3.68,3.68,0,0,1,3.25-3.76c1.54-.19,2.65.37,2.15-.93s3-.43,3.43.93,1.59,3.64-2,4.13-4.54-.92-4.51.12.37,1.7-.06,1.7-.88,0-.72.69A5,5,0,0,0,46.13,168.23Z"/><path class="cls-3" d="M40.21,188.42s.23-9.9,1.5-11.6,2.22-3.28,2.11-.38-.57,10.89-.57,10.89Z"/><path class="cls-19" d="M61,192.44s-.8-.57.6-1.68,2.09-1.93,3.16-1.11,1.44,2.41-.1,2.92S62,193.15,61,192.44Z"/><path class="cls-21" d="M43.32,171.28c-.61.07-2.71,3.08-2.71,3.08s-4.13,4.56-4,5.3,3.91,10.79,3.91,10.79h3.12l-1.48-12.08s3.33-1.17,3.58-3.27C45.73,175.1,47,170.84,43.32,171.28Z"/><path class="cls-22" d="M245.31,187l-.78.63a2,2,0,0,0-2.63,1.78s-.13,1.08.56,1.08.4-.11,1.38-.09a1.76,1.76,0,0,0,1.92-1.27l.46-.67Z"/><path class="cls-23" d="M245.4,188.39a1.59,1.59,0,0,1-.58-1.13s7.23-5.92,8-6.4a88.13,88.13,0,0,0,8.31-7.93c1.24-1.42,2.77-.87,4.52-.37l1.44.41a2.41,2.41,0,0,1,.76,4.12c-4,3.33-10.7,7.07-12,7.86a68.9,68.9,0,0,1-9.18,4.27A3.74,3.74,0,0,1,245.4,188.39Z"/><path class="cls-18" d="M237.15,224.75a5.47,5.47,0,0,1-4.44.62s-2.17-.5-2.65.58c0,0,3.33,1.69,4.17,2.16a9.63,9.63,0,0,1,1.76,1.32.87.87,0,0,0,1.26-.1c.15-.18.32-.39.5-.64.51-.7,1.71-2.94,1.71-2.94Z"/><path class="cls-24" d="M236.12,224.08s1.07,2.46,3.53,2a68.42,68.42,0,0,0,8.48-8.47,19.13,19.13,0,0,0,2.64-4.12c2.29-5.3,8.47-13.2,12.39-17.21l-9.82-3.55s-3.15,6.33-7.34,14.11C243,212.45,239.43,218.8,236.12,224.08Z"/><path class="cls-3" d="M235.69,178.29a.67.67,0,0,1-.25.66L233,180.81a.67.67,0,0,0-.16.9l1.55,2.45a.68.68,0,0,0,.86.24l2.11-1a.66.66,0,0,1,.81.17,11.71,11.71,0,0,0,3.61,2.92.67.67,0,0,1,.34.76l-.46,1.91a.66.66,0,0,0,.42.79l2.71,1a.68.68,0,0,0,.85-.36l1.11-2.37a.67.67,0,0,1,.6-.39,10.69,10.69,0,0,0,1.12-.07,11.51,11.51,0,0,0,2-.4.69.69,0,0,1,.74.24l1.68,2.22a.68.68,0,0,0,.89.16l2.44-1.55a.69.69,0,0,0,.25-.88l-1.16-2.36a.69.69,0,0,1,.13-.78,11.53,11.53,0,0,0,2.15-2.94.69.69,0,0,1,.76-.34l2.27.56a.69.69,0,0,0,.81-.43l1-2.73a.67.67,0,0,0-.35-.82l-2.78-1.29a.7.7,0,0,1-.4-.61c0-.32,0-.65-.07-1a11.77,11.77,0,0,0-.33-1.79.66.66,0,0,1,.24-.7l2.54-1.93a.67.67,0,0,0,.16-.9L259.92,167a.67.67,0,0,0-.86-.24l-2.61,1.28a.68.68,0,0,1-.79-.13,11.58,11.58,0,0,0-2.1-1.73.67.67,0,0,1-.28-.72l.58-2.39a.68.68,0,0,0-.43-.81l-2.7-1a.69.69,0,0,0-.85.36L248.79,164a.65.65,0,0,1-.64.37,11.68,11.68,0,0,0-2.21,0,12.34,12.34,0,0,0-1.63.3l-1.72-2.26a.66.66,0,0,0-.89-.16l-2.45,1.55a.67.67,0,0,0-.25.86l.8,1.61a.69.69,0,0,1-.17.81,11.73,11.73,0,0,0-2.43,2.83.65.65,0,0,1-.72.3l-2.87-.7a.65.65,0,0,0-.76.41l-1,2.75a.67.67,0,0,0,.35.83l2.9,1.34a.69.69,0,0,1,.39.65,11,11,0,0,0,.06,1.81C235.58,177.65,235.63,178,235.69,178.29Zm6.3,1.45a6.42,6.42,0,0,1,7.77-9.55,6.16,6.16,0,0,1,2.62,2.12,6.41,6.41,0,0,1-7.65,9.63A6.23,6.23,0,0,1,242,179.74Z"/><path class="cls-25" d="M246,206.85l2.13,10.77a19.13,19.13,0,0,0,2.64-4.12c2.29-5.3,8.47-13.2,12.39-17.21l-9.82-3.55S250.19,199.07,246,206.85Z"/><path class="cls-18" d="M254,226.18a2.22,2.22,0,0,1-2.27,2.22s-1.44,0-1.44,1.28h7a5.37,5.37,0,0,0,.25-1.58,12.69,12.69,0,0,0-.81-3Z"/><path class="cls-26" d="M256.56,192.74a39.29,39.29,0,0,0-7.16,13.47c-1.51,4.72,2.77,16.57,3.61,20.69a13.32,13.32,0,0,0,4.84-.51,95.26,95.26,0,0,0-1-15.07c-.65-3.67,5.76-7.84,8.56-14.47,1.9-4.52-.41-4.44-3.26-4.55Z"/><path class="cls-19" d="M261.61,171.28c2.44,1.38,7.42.11,7.42.11a7,7,0,0,1-1.1-6l-1.91,1-2.06,1a17.41,17.41,0,0,0-.22,1.84q0,.45-.06,1A6.51,6.51,0,0,0,261.61,171.28Z"/><path class="cls-27" d="M252.68,192.49c0,.43.5.63.6.65a46.67,46.67,0,0,0,6.2,1.5,19.91,19.91,0,0,0,6.13-.42c.28-.06.94-.23,1-.5s8.18-16.57,1.86-23.56a7.43,7.43,0,0,0-2.53.4,4.72,4.72,0,0,1-2.88-.23l-1.07.56c-1.32.73-3.8,3.33-4.09,5.37-.15,1-.74,1.81-.91,2.72-.07.34-.13.67-.2,1-.13.63-.26,1.23-.4,1.8-.37,1.54-.76,2.87-1.15,4s-.81,2.23-1.17,3.08c-.47,1.1-.86,1.92-1.1,2.55A3,3,0,0,0,252.68,192.49Z"/><path class="cls-3" d="M253,191.42a31.94,31.94,0,0,0,15.44-15.78s-9.32,3.43-11.62,4.33c-.13.63-.26,1.23-.4,1.8-.37,1.54-.76,2.87-1.15,4s-.81,2.23-1.17,3.08C253.59,190,253.2,190.79,253,191.42Z"/><path class="cls-28" d="M246.24,188.29l-1,.36a2.12,2.12,0,0,0-3.22.88s-.45,1,.26,1.21.45,0,1.45.35a1.9,1.9,0,0,0,2.35-.62l.67-.5Z"/><path class="cls-29" d="M245.43,189.69l-.54-1.39s7.49-6.11,8.26-6.63a57.15,57.15,0,0,0,8.22-7.24,5.28,5.28,0,0,1,5.14-1.78l1.57.33a2.34,2.34,0,0,1,1,4.06c-4.15,3.56-11.14,7.68-12.45,8.54a87,87,0,0,1-10.4,5.11A1.84,1.84,0,0,1,245.43,189.69Z"/><path class="cls-30" d="M263.74,169.2a5.15,5.15,0,0,0,3.95-1.84,19.32,19.32,0,0,1-1.67-1l-2.06,1A17.41,17.41,0,0,0,263.74,169.2Z"/><path class="cls-19" d="M262.72,166.74s3.63,2.61,5.21.32,3.13-3.49.88-5.25-3.31-1.2-4-.57S261.81,166,262.72,166.74Z"/><path class="cls-18" d="M264.4,159.18a5.94,5.94,0,0,1,.42-1.5s.23.95,1.95.82,4.46.17,5.37,2.13c.06.13.11.26.16.39a4.76,4.76,0,0,0,.2-1.09,3.32,3.32,0,0,1,0,1.9h0s0,.06,0,.1a3.83,3.83,0,0,1,.7,1.32,1.21,1.21,0,0,0-.64-.58c0,1.53-.61,3-1.7,3.47-1.59.65-1.58.16-3.18,1.22,0,0-.43-.54-.14-.89s1.4-.88.78-1.4-.84.06-1.07-.29.91-1.4-.55-2.38S264.27,160.06,264.4,159.18Z"/></g></g></svg>