<svg xmlns="http://www.w3.org/2000/svg" xmlns:xlink="http://www.w3.org/1999/xlink" viewBox="0 0 292.5 252.79"><defs><style>.cls-1{fill:#fff;}.cls-12,.cls-2{fill:#a80045;}.cls-3{fill:url(#linear-gradient);}.cls-4{fill:#ff9750;}.cls-5{fill:url(#linear-gradient-2);}.cls-6{fill:#ffd0c5;}.cls-7{fill:url(#linear-gradient-3);}.cls-8{fill:#163560;}.cls-9{fill:#1c468a;}.cls-10{fill:url(#linear-gradient-4);}.cls-11{fill:url(#linear-gradient-5);}.cls-12{opacity:0.5;}.cls-13{fill:#f7baad;}.cls-14{fill:#4a75cb;}.cls-15{fill:url(#linear-gradient-6);}.cls-16{fill:#ffb27d;}.cls-17{fill:#333;}.cls-18{fill:#e37970;}.cls-19{fill:#e7f1fd;}.cls-20{fill:#5f9aa8;}.cls-21{fill:url(#linear-gradient-7);}.cls-22{fill:#0a3575;}.cls-23{fill:url(#linear-gradient-8);}.cls-24{fill:url(#linear-gradient-9);}.cls-25{fill:url(#linear-gradient-10);}.cls-26{fill:#f3f9ff;}.cls-27{fill:#dd3a60;}.cls-28{fill:url(#linear-gradient-11);}.cls-29{fill:url(#linear-gradient-12);}.cls-30{fill:url(#linear-gradient-13);}.cls-31{fill:url(#linear-gradient-14);}</style><linearGradient id="linear-gradient" x1="78.63" y1="178.93" x2="212.78" y2="178.93" gradientUnits="userSpaceOnUse"><stop offset="0" stop-color="#d23274"/><stop offset="1" stop-color="#f24a37"/></linearGradient><linearGradient id="linear-gradient-2" x1="145.45" y1="235.39" x2="145.45" y2="222.59" xlink:href="#linear-gradient"/><linearGradient id="linear-gradient-3" x1="239.69" y1="180.87" x2="256.12" y2="180.87" xlink:href="#linear-gradient"/><linearGradient id="linear-gradient-4" x1="242.47" y1="206.53" x2="266.54" y2="206.53" gradientUnits="userSpaceOnUse"><stop offset="0" stop-color="#ff6224"/><stop offset="1" stop-color="#ff9750"/></linearGradient><linearGradient id="linear-gradient-5" x1="244.68" y1="183.68" x2="258.26" y2="183.68" xlink:href="#linear-gradient"/><linearGradient id="linear-gradient-6" x1="240.63" y1="182.44" x2="255.25" y2="182.44" xlink:href="#linear-gradient"/><linearGradient id="linear-gradient-7" x1="39.78" y1="183.23" x2="57.15" y2="183.23" xlink:href="#linear-gradient"/><linearGradient id="linear-gradient-8" x1="28.45" y1="183.79" x2="39.03" y2="183.79" xlink:href="#linear-gradient"/><linearGradient id="linear-gradient-9" x1="30.25" y1="177.35" x2="36.6" y2="177.35" xlink:href="#linear-gradient"/><linearGradient id="linear-gradient-10" x1="149.13" y1="144.19" x2="203.38" y2="144.19" xlink:href="#linear-gradient-4"/><linearGradient id="linear-gradient-11" x1="88.03" y1="137.05" x2="141.47" y2="137.05" xlink:href="#linear-gradient-4"/><linearGradient id="linear-gradient-12" x1="149.13" y1="199.16" x2="203.38" y2="199.16" xlink:href="#linear-gradient-4"/><linearGradient id="linear-gradient-13" x1="88.03" y1="199.16" x2="141.47" y2="199.16" gradientUnits="userSpaceOnUse"><stop offset="0" stop-color="#ff9750"/><stop offset="1" stop-color="#ff6224"/></linearGradient><linearGradient id="linear-gradient-14" x1="88.03" y1="76.89" x2="141.47" y2="76.89" xlink:href="#linear-gradient-4"/></defs><title>6_Reports@web</title><g id="Layer_2" data-name="Layer 2"><g id="Layer_1-2" data-name="Layer 1"><rect class="cls-1" width="292.5" height="252.79"/><path class="cls-2" d="M218.82,136.14v86.45H72.6V136.14A4.41,4.41,0,0,1,77,131.73h137.4A4.41,4.41,0,0,1,218.82,136.14Z"/><path class="cls-3" d="M83,140H208.37a4.41,4.41,0,0,1,4.41,4.41v69.38a4.08,4.08,0,0,1-4.08,4.08h-126a4.08,4.08,0,0,1-4.08-4.08V144.41A4.41,4.41,0,0,1,83,140Z"/><rect class="cls-4" y="229.69" width="292.5" height="23.11"/><rect class="cls-5" x="61.9" y="222.59" width="167.1" height="12.79" rx="6.4"/><path class="cls-6" d="M241,188.35a6.74,6.74,0,0,1-2.86.12,4.4,4.4,0,0,0-3.33.62c-.31.4-.2.57.35.71s2.5,1,3.78.49a9.89,9.89,0,0,1,2.95-.5Z"/><path class="cls-7" d="M256.12,173.16s-2,14-5.22,15.22a72.67,72.67,0,0,1-10.8,2.15s-.51-.41-.39-2.11c0,0,7.43-2.73,8.49-4.21,1.57-2.21-1-9,1-11.1S254.49,170.14,256.12,173.16Z"/><path class="cls-2" d="M255.87,227v-3h4.79a.24.24,0,0,0,.24-.24v-.49a.23.23,0,0,0-.24-.23h-4.79V205.63a.89.89,0,0,0-.89-.88H254a.89.89,0,0,0-.88.88V223h-4.79a.23.23,0,0,0-.24.23v.49a.24.24,0,0,0,.24.24h4.79v3c-3.47.26-6.25,1.51-7,3.13h16.77C262.11,228.48,259.34,227.23,255.87,227Z"/><path class="cls-8" d="M255.46,202.58a24.91,24.91,0,0,1-1.92,2.75c-2.12,2.67-4.41,4.86-4.82,6.94a7.66,7.66,0,0,1-.37,1.33,14.8,14.8,0,0,1-.61,1.5,48.27,48.27,0,0,1-3.57,6.11c-2.32,3.42-4.49,6.28-4.49,6.28l-4-.17c.16-.4,1.9-5.13,4.23-10.91.94-2.35,2-4.85,2.92-7.26l.38-1c.3-.73.59-1.46.88-2.16,2.18-5.44,3.92-9.76,3.92-9.76s8.74-3.31,9.64-1.16C258.41,196.87,257.8,198.61,255.46,202.58Z"/><path class="cls-8" d="M239.55,226.77s-.2,3.29-.84,3.34h-3.23l-4,0a1.29,1.29,0,0,1,1.2-1.17,5.47,5.47,0,0,0,3.85-2.58C237.26,224.71,239.55,226.77,239.55,226.77Z"/><path class="cls-8" d="M248.79,217.37s2.78,1.78,2.51,2.36l-1.57,2.82-2,3.49a1.29,1.29,0,0,1-.44-1.61,5.45,5.45,0,0,0-.38-4.62C245.87,218.36,248.79,217.37,248.79,217.37Z"/><path class="cls-9" d="M245,194.7s-11,6.83-12.19,11.42,14.58,14.38,14.58,14.38a8,8,0,0,0,2-2.65s-7.14-8.56-8.69-10.48c-.95-1.18,14.07-4.08,15.91-6.94a7,7,0,0,0,1.18-5.26Z"/><rect class="cls-10" x="242.47" y="203.47" width="24.07" height="6.12" rx="0.82"/><path class="cls-6" d="M250.11,170.77a6,6,0,0,0-1.67,1.51c2.62.68,7-1.76,7-1.76a6.43,6.43,0,0,1-2.32-3.63l-.09-.38a8.24,8.24,0,0,1-.14-1.37l-1.21,1.08-2,1.8a15.76,15.76,0,0,0,.3,2Q250,170.38,250.11,170.77Z"/><path class="cls-11" d="M258.19,183.16c-.38,5.06.25,12.75-.17,14.08-.37,1.15-4.71.47-6.38.09-.62-.14-1.37-.35-2.15-.59-2.16-.67-4.52-1.62-4.77-2.33l0-.09a.57.57,0,0,1,0-.29,5.12,5.12,0,0,0,.44-1.65c.05-1,0-2.18.08-3.45a3.24,3.24,0,0,1,0-.44v-.13c0-1.42.11-2.9.2-4.38.05-.92.11-1.84.19-2.72a36,36,0,0,1,.78-5.55,9,9,0,0,1,2.86-4.43l.8-.68a4.67,4.67,0,0,0,2.9-.39c1-.49,1.39-.84,1.57-.71C256.92,171.34,258.63,177,258.19,183.16Z"/><path class="cls-12" d="M249.5,196.75c-2.16-.67-4.52-1.62-4.77-2.33a.29.29,0,0,1,0-.09V194a5.25,5.25,0,0,0,.45-1.65c0-1,0-2.18.07-3.45,0-.14,0-.3,0-.44v-.13l8.18-3.71A19,19,0,0,1,249.5,196.75Z"/><path class="cls-13" d="M249.66,168a15.76,15.76,0,0,0,.3,2,5.37,5.37,0,0,0,3.14-3.16c.08-.21.12-.34.12-.34l-.21,0-1.35-.29Z"/><path class="cls-6" d="M248.87,168s4.3.48,4.56-2.2,1-4.43-1.74-4.86-3.38.55-3.68,1.43S247.75,167.8,248.87,168Z"/><path class="cls-8" d="M253.41,166a4.42,4.42,0,0,0-4.19-3.93c-2.68-.25-1.19-2.56-.9-2.93,0,0,2.06.28,4.16.63C256.91,160.48,253.85,165.43,253.41,166Z"/><rect class="cls-14" x="230.59" y="181.8" width="0.4" height="10.37" transform="translate(-46.49 80.47) rotate(-18)"/><rect class="cls-14" x="232.19" y="191.21" width="10.89" height="0.65" transform="translate(-4.04 5.12) rotate(-1.22)"/><path class="cls-6" d="M241.9,190.5a6.7,6.7,0,0,1-2.83.43,4.48,4.48,0,0,0-3.25,1c-.26.43-.13.58.44.66s2.59.69,3.8.07a10.17,10.17,0,0,1,2.88-.82Z"/><path class="cls-15" d="M255.25,173.73s-.41,14.1-3.51,15.7a71.68,71.68,0,0,1-10.49,3.34s-.56-.36-.62-2.06c0,0,7.08-3.53,8-5.13,1.32-2.36-2-8.86-.23-11.14S253.3,170.91,255.25,173.73Z"/><polygon class="cls-16" points="34.23 221.43 35.33 226.09 36.99 226.09 37.05 221.43 34.23 221.43"/><polygon class="cls-16" points="48.18 221.63 51.33 226.09 52.56 224.52 50.66 221.01 48.18 221.63"/><path class="cls-17" d="M40,160.14a3.26,3.26,0,0,0-1.74-.34.87.87,0,0,1,.37-.17,2.84,2.84,0,0,0-1,.25c-4.14-1.59-4.79,4.5-4.7,5.92s-1.39,1.88-3.55,3c-4.11,2.13-4.47,5-4.47,5l.1.07c.21-.35.63-1,1-1.09,0,0-.42.89-.57,1.38,1.21.93,3.48,3,5.06,4.42a2.56,2.56,0,0,1,.11-.9l.2,1.18,1.43,1.32c-.11-1.14,5.17-7.18,7.93-9a7.76,7.76,0,0,0,.92-2.87,7.39,7.39,0,0,1-.56,2.59C42.86,168.74,41.51,161,40,160.14Z"/><path class="cls-6" d="M40,171.25a3.89,3.89,0,0,1-2.34.43,3.07,3.07,0,0,1-1.56-1.5c.41-.08.52-.63.51-3l.19,0,3.06.61s-.07,1-.07,1.87C39.78,170.44,39.83,171.17,40,171.25Z"/><path class="cls-18" d="M36.54,161.13a2.46,2.46,0,0,1,3.41-.08A13.38,13.38,0,0,0,36.54,161.13Z"/><path class="cls-13" d="M39.86,167.81s-.07,1-.07,1.87c-1.72-.05-2.62-1.61-3-2.48Z"/><path class="cls-17" d="M36.46,166.69a8.88,8.88,0,0,1-1.11-2.64c-.16-.86.28-4.07,3.51-3.61a4.37,4.37,0,0,1,1.82.69c.7.47,1.71,1.49.58,4.29l-.3,1Z"/><path class="cls-9" d="M52.06,223.29l-1.62.05-1.76.06a34.62,34.62,0,0,1-6.33-11.76c-.06-.17-.11-.34-.17-.51-1.25-3.63-3.83-8.19-5.19-12.32-.22-.66-.41-1.27-.58-1.86-.06-.19-.11-.37-.17-.55a44.21,44.21,0,0,1-1.56-8.22l9.83.08A182.58,182.58,0,0,0,52.06,223.29Z"/><path class="cls-19" d="M32.18,185.35a11.24,11.24,0,0,0,1.18-3.91,14.35,14.35,0,0,0,.12-3.92,31.1,31.1,0,0,0-1.21-6.15A32.2,32.2,0,0,0,36.36,170a3.11,3.11,0,0,0,2.16.79c1,0,1.3-.44,1.27-.91,1.06.59,1.9,1.15,1.9,1.15.9,1.57,2.73,3.09,2.87,5.49,0,.59-1.43,6-1.43,6.09a22.2,22.2,0,0,0,.69,6.69,13.25,13.25,0,0,1-9.21.56l-3.64-1"/><path class="cls-20" d="M34.68,183.13c-.43.61-1.25,4.31-3.3,4.77,1.06-2.63,1.86-3.79,2-4.6a19.3,19.3,0,0,0,.12-4.55c.69-1.2,1.2-2,1.2-2,.06-.2,1.09-3.4,1.42-.54A13.13,13.13,0,0,1,34.68,183.13Z"/><path class="cls-6" d="M40.43,168.67s-4,.07-4.06-2.46-.52-4.21,2.06-4.36,3.1.81,3.3,1.65S41.48,168.59,40.43,168.67Z"/><path class="cls-17" d="M41.61,162.1c-.62-.76-1.1-.59-1.36-.37-.88-1.31-3.65.59-3.65.59A4.84,4.84,0,0,1,35,165.17a3.36,3.36,0,0,0,2.44,0c1.34-.34,2.31-2.25,2.66-3a3.22,3.22,0,0,1,.91,1.19c.2.64.29,2,.67,1.92C41.71,165.25,42.55,163.24,41.61,162.1Z"/><path class="cls-16" d="M35.28,225.83a4.61,4.61,0,0,1-.21,1.92S34.8,229,36,229s1.52-.1,1.38-.85-.4-2.07-.4-2.07Z"/><path class="cls-17" d="M37.51,229.61H35a6.37,6.37,0,0,1,.09-1.86c1.38,1.32,2.24,0,2.24,0A7.27,7.27,0,0,1,37.51,229.61Z"/><path class="cls-16" d="M55.5,228.34a32.37,32.37,0,0,1-2.94-3.82l-1.67.85,3.73,3.51.88-.11Z"/><path class="cls-17" d="M56.87,229.61H53.76a5,5,0,0,1-.86-1.4,1.49,1.49,0,0,0-1-.69v2.09h-.64l-.6-2.23a2.09,2.09,0,0,1,.18-2c.33,0,1.27.23,2.93,2.14a2.18,2.18,0,0,0,1.75.83h0A2.28,2.28,0,0,1,56.87,229.61Z"/><path class="cls-21" d="M56.72,172.86s-2.66,1.49-3.61,1.92c-.34.15-1,.43-1.57.73l-1.1.51a1.37,1.37,0,0,1-1.62-.35c-1.44-1.68-5.17-5.33-9-5.79h0l0,0c.21.54,2.32,5.81,2.39,6.93s.27,19.17.27,19.17-.13.83,1.45.48a5.16,5.16,0,0,0,2-.69s-1.52-11.1-1.1-15a8.61,8.61,0,0,0-.16-2.49,19.67,19.67,0,0,0,5.11,2A23.39,23.39,0,0,0,52.4,179a17.42,17.42,0,0,0,2.22-1.79,32.38,32.38,0,0,0,2.53-2.91Z"/><path class="cls-22" d="M50.44,223.34l-1.76.06a34.62,34.62,0,0,1-6.33-11.76c-.06-.17-.11-.34-.17-.51-1.25-3.63-3.83-8.19-5.19-12.32-.22-.66-.41-1.27-.58-1.86-.06-.19-.11-.37-.17-.55l1.45-1.1s4.34,7,5.69,13.65C44.55,214.7,49.23,221.62,50.44,223.34Z"/><path class="cls-9" d="M37.84,209.57c0,3.22-.14,10.62-.56,13.68H34.44c-1-5.33-1.8-9.73-2.35-13.53-.44-3.12-.84-5.79-1.15-8.09s-.52-4.26-.59-5.89l0-.76v-.71l8.49-.83C38.7,199.07,37.83,207.7,37.84,209.57Z"/><path class="cls-22" d="M35.73,223.25H34.44c-1-5.33-1.8-9.73-2.35-13.53-.44-3.12-.84-5.79-1.15-8.09s-.52-4.26-.59-5.89l3.11,1.83s-2,.7-1.23,6S34.67,222.5,35.73,223.25Z"/><path class="cls-23" d="M36.13,195.67a2.54,2.54,0,0,1-2.67,1.89,25.12,25.12,0,0,1-5-1.52s.89-2.79,2-6.46c1.34-4.45,3-10.17,3.76-13.79a20.72,20.72,0,0,0,.42-2.46L36.36,170s2.53,5.74,2.67,7.19S36.13,195.67,36.13,195.67Z"/><path class="cls-6" d="M43.52,178.81a1.53,1.53,0,0,0-1.5,1.37,3.08,3.08,0,0,1-.44,1l-5.33.3-.17,2.61A30.13,30.13,0,0,0,42,182.72a1.54,1.54,0,0,0,.68-.37,7.39,7.39,0,0,0,2.24-3.41C44.94,178.66,44.51,178.68,43.52,178.81Z"/><path class="cls-12" d="M36,180.23c-.1,2.34-.65,6.89-5.57,9.33l0,0c1.34-4.45,3-10.17,3.76-13.79C35.09,177.14,36.09,178.93,36,180.23Z"/><path class="cls-24" d="M36.36,170s-4.2.3-5.22,2.55-1.33,9.75,0,11.95a11.63,11.63,0,0,0,4.91-.08l.11,0s1-2.45.1-2.93c0,0-2.64.14-2.36-.74S36.36,170,36.36,170Z"/><path class="cls-6" d="M59.58,171.09a2.53,2.53,0,0,0-2.84,1.77l.42,1.41a1.77,1.77,0,0,0,1.87-.89c.57-.8.72-.49,1.08-1.09C60.59,171.48,59.83,171.17,59.58,171.09Z"/><path class="cls-6" d="M53.11,174.78c-.34.15-1,.43-1.57.73A8.07,8.07,0,0,1,52.4,179a15.11,15.11,0,0,0,2.29-1.85,30.88,30.88,0,0,0,2.46-2.85l-.43-1.41S54.06,174.35,53.11,174.78Z"/><rect class="cls-25" x="149.13" y="111.03" width="54.25" height="66.32"/><rect class="cls-26" x="152.65" y="115.89" width="45.93" height="30.29"/><rect class="cls-26" x="172.65" y="153.96" width="24.06" height="16.17"/><path class="cls-27" d="M154.5,131.35s7.78-1,12.54,3.35,13.6.38,17.17,0c6.2-.66,11.06,1.33,12.5,3.53v6.58H154.5Z"/><rect class="cls-2" x="160.44" y="120.76" width="0.32" height="10.28"/><rect class="cls-2" x="173.02" y="125.17" width="0.32" height="10.28"/><rect class="cls-2" x="186.01" y="122.84" width="0.32" height="10.28"/><path class="cls-2" d="M164.34,122.33h-2.46a.27.27,0,0,1-.27-.26h0a.27.27,0,0,1,.27-.27h2.46a.27.27,0,0,1,.26.27h0A.26.26,0,0,1,164.34,122.33Z"/><path class="cls-2" d="M164.34,123.3h-2.46a.27.27,0,0,1-.27-.27h0a.27.27,0,0,1,.27-.27h2.46a.27.27,0,0,1,.26.27h0A.27.27,0,0,1,164.34,123.3Z"/><path class="cls-2" d="M176.74,127.57h-2.46a.27.27,0,0,1-.27-.27h0a.27.27,0,0,1,.27-.26h2.46a.26.26,0,0,1,.26.26h0A.27.27,0,0,1,176.74,127.57Z"/><path class="cls-2" d="M176.74,128.51h-2.46a.27.27,0,0,1-.27-.26h0a.27.27,0,0,1,.27-.27h2.46a.27.27,0,0,1,.26.27h0A.26.26,0,0,1,176.74,128.51Z"/><path class="cls-2" d="M189.94,123.7h-2.46a.27.27,0,0,1-.27-.27h0a.27.27,0,0,1,.27-.27h2.46a.27.27,0,0,1,.27.27h0A.27.27,0,0,1,189.94,123.7Z"/><path class="cls-2" d="M189.94,124.64h-2.46a.27.27,0,0,1-.27-.27h0a.27.27,0,0,1,.27-.27h2.46a.27.27,0,0,1,.27.27h0A.27.27,0,0,1,189.94,124.64Z"/><polygon class="cls-2" points="195.67 169 173.59 169 173.59 155.96 173.86 155.96 173.86 168.73 195.67 168.73 195.67 169"/><path class="cls-27" d="M180.49,164.29c-2.7-2.16-5.58,0-5.58,0V168h20.22v-9.51C189.63,158.59,183.2,166.44,180.49,164.29Z"/><path class="cls-2" d="M175.15,157h9.41a.23.23,0,1,0,0-.46h-9.41a.23.23,0,1,0,0,.46Z"/><path class="cls-2" d="M175.15,158.08h9.41a.23.23,0,1,0,0-.46h-9.41a.23.23,0,1,0,0,.46Z"/><rect class="cls-2" x="174.91" y="158.69" width="6.61" height="0.46" rx="0.19"/><rect class="cls-28" x="88.03" y="96.76" width="53.44" height="80.59"/><rect class="cls-26" x="93.2" y="101.27" width="43.02" height="47.96"/><circle class="cls-26" cx="101.85" cy="164.54" r="7.74" transform="translate(-88.84 197.52) rotate(-68.06)"/><path class="cls-2" d="M108.39,164.54a6.54,6.54,0,1,0-6.54,6.55,6.44,6.44,0,0,0,4-1.35l-4-5.2,6.11,2.34A6.48,6.48,0,0,0,108.39,164.54Z"/><circle class="cls-26" cx="128.21" cy="164.54" r="7.74" transform="translate(-61.39 251.52) rotate(-76.72)"/><path class="cls-27" d="M128.21,158a6.54,6.54,0,0,0-4.66,11.13l4.66-4.59,6.11,2.34a6.55,6.55,0,0,0-6.11-8.88Z"/><path class="cls-26" d="M127.26,161.22h-2.79a.2.2,0,0,0-.2.2h0a.2.2,0,0,0,.2.2h2.79a.2.2,0,0,0,.19-.2h0A.2.2,0,0,0,127.26,161.22Z"/><path class="cls-26" d="M127.26,161.85h-2.79a.2.2,0,0,0,0,.4h2.79a.2.2,0,0,0,0-.4Z"/><path class="cls-26" d="M125.62,162.48h-1.15a.2.2,0,0,0,0,.4h1.15a.2.2,0,0,0,0-.4Z"/><path class="cls-26" d="M100.84,161.22H98.05a.2.2,0,0,0-.2.2h0a.2.2,0,0,0,.2.2h2.79a.2.2,0,0,0,.2-.2h0A.2.2,0,0,0,100.84,161.22Z"/><path class="cls-26" d="M100.84,161.85H98.05a.2.2,0,0,0,0,.4h2.79a.2.2,0,0,0,0-.4Z"/><path class="cls-26" d="M99.2,162.48H98.05a.2.2,0,0,0,0,.4H99.2a.2.2,0,0,0,0-.4Z"/><rect class="cls-27" x="97.03" y="118.4" width="4.54" height="28.28"/><rect class="cls-27" x="104.46" y="110.52" width="4.54" height="36.17"/><rect class="cls-27" x="112.58" y="125.24" width="4.54" height="21.44"/><rect class="cls-27" x="120.48" y="115.35" width="4.54" height="31.34"/><rect class="cls-27" x="128.42" y="129.44" width="4.54" height="17.25"/><path class="cls-27" d="M124.8,111.27H121a.4.4,0,0,0,0,.8h3.84a.4.4,0,0,0,0-.8Z"/><path class="cls-27" d="M121.83,112.72H121a.4.4,0,0,0,0,.8h.87a.4.4,0,1,0,0-.8Z"/><path class="cls-27" d="M109,105.11h-3.85a.4.4,0,0,0,0,.8H109a.4.4,0,1,0,0-.8Z"/><path class="cls-27" d="M106,106.56h-.88a.4.4,0,0,0-.39.4h0a.4.4,0,0,0,.39.4H106a.4.4,0,0,0,.4-.4h0A.4.4,0,0,0,106,106.56Z"/><path class="cls-27" d="M116.77,121h-3.84a.4.4,0,0,0,0,.8h3.84a.4.4,0,0,0,0-.8Z"/><path class="cls-27" d="M113.8,122.47h-.87a.4.4,0,0,0-.4.4h0a.4.4,0,0,0,.4.4h.87a.4.4,0,0,0,.4-.4h0A.4.4,0,0,0,113.8,122.47Z"/><path class="cls-27" d="M132.61,125.24h-3.85a.4.4,0,0,0,0,.8h3.85a.4.4,0,0,0,0-.8Z"/><path class="cls-27" d="M129.64,126.69h-.88a.4.4,0,0,0,0,.8h.88a.4.4,0,0,0,0-.8Z"/><rect class="cls-29" x="149.13" y="184.59" width="54.25" height="29.14"/><circle class="cls-26" cx="165.78" cy="198.5" r="9.36" transform="matrix(0.33, -0.94, 0.94, 0.33, -76.45, 289.12)"/><path class="cls-26" d="M197.56,193.27h-15.5a1,1,0,0,0-1,1h0a1,1,0,0,0,1,1h15.5a1,1,0,0,0,1-1h0A1,1,0,0,0,197.56,193.27Z"/><path class="cls-26" d="M197.56,197.48h-15.5a1,1,0,0,0-1,1h0a1,1,0,0,0,1,1h15.5a1,1,0,0,0,1-1h0A1,1,0,0,0,197.56,197.48Z"/><path class="cls-26" d="M197.56,201.68h-15.5a1,1,0,0,0,0,2h15.5a1,1,0,0,0,0-2Z"/><path class="cls-2" d="M157.21,198.36h8.57V189.8A8.57,8.57,0,0,0,157.21,198.36Z"/><path class="cls-27" d="M174.35,198.64H157.21a8.57,8.57,0,0,0,8.57,8.57h0A8.57,8.57,0,0,0,174.35,198.64Z"/><path class="cls-26" d="M164.3,194h-4.65a.48.48,0,0,0,0,1h4.65a.48.48,0,0,0,0-1Z"/><path class="cls-26" d="M160.71,195.71h-1.06a.48.48,0,0,0-.48.48.47.47,0,0,0,.48.48h1.06a.48.48,0,0,0,.48-.48A.49.49,0,0,0,160.71,195.71Z"/><path class="cls-26" d="M171.2,200.73h-4.65a.49.49,0,0,0,0,1h4.65a.49.49,0,0,0,0-1Z"/><path class="cls-26" d="M167.61,202.48h-1.06a.49.49,0,0,0-.48.49h0a.49.49,0,0,0,.48.48h1.06a.48.48,0,0,0,.48-.48h0A.48.48,0,0,0,167.61,202.48Z"/><rect class="cls-30" x="88.03" y="185.66" width="53.44" height="27"/><circle class="cls-26" cx="103.87" cy="199.56" r="9.36"/><path class="cls-27" d="M103.87,191a8.56,8.56,0,0,0-4.11,16.08c1.37-2.54,4.11-7.51,4.11-7.51l4.06,7.54A8.57,8.57,0,0,0,103.87,191Z"/><rect class="cls-26" x="119.13" y="194.33" width="17.55" height="2.04" rx="1.02"/><path class="cls-26" d="M135.65,198.53h-15.5a1,1,0,0,0,0,2.05h15.5a1,1,0,0,0,0-2.05Z"/><path class="cls-26" d="M135.65,202.74h-15.5a1,1,0,1,0,0,2h15.5a1,1,0,1,0,0-2Z"/><path class="cls-26" d="M104.18,195.46H99.53a.49.49,0,0,0,0,1h4.65a.49.49,0,1,0,0-1Z"/><path class="cls-26" d="M100.59,197.21H99.53a.49.49,0,0,0-.48.48h0a.49.49,0,0,0,.48.49h1.06a.48.48,0,0,0,.48-.49h0A.48.48,0,0,0,100.59,197.21Z"/><rect class="cls-31" x="88.03" y="63.39" width="53.44" height="27"/><circle class="cls-26" cx="103.87" cy="77.29" r="9.36"/><path class="cls-2" d="M103.87,68.72A8.56,8.56,0,0,0,99.76,84.8c1.37-2.54,4.11-7.51,4.11-7.51l4.06,7.54a8.57,8.57,0,0,0-4.06-16.11Z"/><rect class="cls-26" x="119.13" y="72.06" width="17.55" height="2.04" rx="1.02"/><path class="cls-26" d="M135.65,76.27h-15.5a1,1,0,0,0,0,2h15.5a1,1,0,1,0,0-2Z"/><path class="cls-26" d="M135.65,80.47h-15.5a1,1,0,1,0,0,2h15.5a1,1,0,0,0,0-2Z"/><path class="cls-4" d="M104.18,73.19H99.53a.49.49,0,0,0,0,1h4.65a.49.49,0,1,0,0-1Z"/><path class="cls-4" d="M100.59,75H99.53a.48.48,0,0,0-.48.48h0a.49.49,0,0,0,.48.48h1.06a.48.48,0,0,0,.48-.48h0A.47.47,0,0,0,100.59,75Z"/></g></g></svg>