<svg xmlns="http://www.w3.org/2000/svg" xmlns:xlink="http://www.w3.org/1999/xlink" viewBox="0 0 120 120"><defs><style>.cls-1{fill:url(#linear-gradient);}.cls-2{fill:#fff;}</style><linearGradient id="linear-gradient" y1="60" x2="120" y2="60" gradientUnits="userSpaceOnUse"><stop offset="0" stop-color="#d23274"/><stop offset="1" stop-color="#f24a37"/></linearGradient></defs><title>7_Agile@web</title><g id="Layer_2" data-name="Layer 2"><g id="Layer_1-2" data-name="Layer 1"><path class="cls-1" d="M41,0H78.63A41.37,41.37,0,0,1,120,41.37V79a41,41,0,0,1-41,41H41.37A41.37,41.37,0,0,1,0,78.63V41A41,41,0,0,1,41,0Z"/><path class="cls-2" d="M76.6,70.37h-6a19.59,19.59,0,0,1-6,5.93h12v2.25a1,1,0,0,0,1.69.8l6.33-5.22a1,1,0,0,0,0-1.59l-6.33-5.23a1,1,0,0,0-1.69.8Z"/><path class="cls-2" d="M54.48,76.29a16.3,16.3,0,0,0,1.37-32.53V41.45a1,1,0,0,0-1.7-.8l-6.24,5.21a1,1,0,0,0,0,1.59l6.24,5.2a1,1,0,0,0,1.7-.79V49.77a10.35,10.35,0,0,1,8.89,10.3,10.46,10.46,0,0,1-10.5,10.3H35V76.3H54.48Z"/><path class="cls-2" d="M47.13,67.4a10.3,10.3,0,0,1,1.16-15.78l-4.66-3.88A16.27,16.27,0,0,0,38.06,60,16.09,16.09,0,0,0,39.9,67.4Z"/></g></g></svg>