<svg xmlns="http://www.w3.org/2000/svg" xmlns:xlink="http://www.w3.org/1999/xlink" viewBox="0 0 120 120"><defs><style>.cls-1{fill:url(#linear-gradient);}.cls-2{fill:#fff;}</style><linearGradient id="linear-gradient" y1="60" x2="120" y2="60" gradientUnits="userSpaceOnUse"><stop offset="0" stop-color="#d23274"/><stop offset="1" stop-color="#f24a37"/></linearGradient></defs><title>7_Autonomous@web</title><g id="Layer_2" data-name="Layer 2"><g id="Layer_1-2" data-name="Layer 1"><path class="cls-1" d="M41,0H78.63A41.37,41.37,0,0,1,120,41.37V79a41,41,0,0,1-41,41H41.37A41.37,41.37,0,0,1,0,78.63V41A41,41,0,0,1,41,0Z"/><path class="cls-2" d="M85.37,56.73V49.1A2.33,2.33,0,0,0,83,46.77H69.93l5.26-10.08a.93.93,0,0,0-.4-1.26l-1.45-.76a.94.94,0,0,0-1.27.4L66,46.77H54l-6.1-11.7a.94.94,0,0,0-1.27-.4l-1.45.76a.93.93,0,0,0-.4,1.26l5.26,10.08H37a2.33,2.33,0,0,0-2.33,2.33v7.63H31.88A1.88,1.88,0,0,0,30,58.6v15a1.88,1.88,0,0,0,1.88,1.88h2.75v7.63A2.33,2.33,0,0,0,37,85.44H83a2.33,2.33,0,0,0,2.33-2.33V75.48h2.75A1.88,1.88,0,0,0,90,73.6v-15a1.88,1.88,0,0,0-1.88-1.87Zm-39.95,3a3.52,3.52,0,1,1,2.76,2.76A3.52,3.52,0,0,1,45.42,59.76ZM71.13,76.65H48.87v-7H71.13Zm.69-14.13a3.52,3.52,0,1,1,2.76-2.76A3.52,3.52,0,0,1,71.82,62.52Z"/></g></g></svg>