<svg xmlns="http://www.w3.org/2000/svg" xmlns:xlink="http://www.w3.org/1999/xlink" viewBox="0 0 120 120"><defs><style>.cls-1{fill:url(#linear-gradient);}.cls-2{fill:#fff;}</style><linearGradient id="linear-gradient" y1="60" x2="120" y2="60" gradientUnits="userSpaceOnUse"><stop offset="0" stop-color="#d23274"/><stop offset="1" stop-color="#f24a37"/></linearGradient></defs><title>7_Ease@web</title><g id="Layer_2" data-name="Layer 2"><g id="Layer_1-2" data-name="Layer 1"><path class="cls-1" d="M41,0H78.63A41.37,41.37,0,0,1,120,41.37V79a41,41,0,0,1-41,41H41.37A41.37,41.37,0,0,1,0,78.63V41A41,41,0,0,1,41,0Z"/><path class="cls-2" d="M82,53.19H81.9a3.16,3.16,0,0,0-3,3.29v2.46a.84.84,0,1,1-1.67,0V54.39a3,3,0,1,0-6,0v4.82a.84.84,0,1,1-1.68,0V53.06a3.13,3.13,0,0,0-3-3.22h-.09a3,3,0,0,0-3,3.09v6.92a.84.84,0,0,1-1.68,0V37.18a3,3,0,1,0-6,0V63.25a.84.84,0,0,1-1.49.53L51.14,60a4.78,4.78,0,0,0-3.38-1.79,4.66,4.66,0,0,0-3.52,1.26l0,0-.64.53L54.37,80.78a9.59,9.59,0,0,0,8.45,5.32H75.3c5.33,0,9.68-4.67,9.69-10.42,0-3,0-5.24,0-7.07,0-4.9,0-6.74,0-12.15A3.15,3.15,0,0,0,82,53.19Z"/><path class="cls-2" d="M66.94,41.47H79.63L77.2,43.9a.84.84,0,0,0,1.19,1.18l3.84-3.84a.84.84,0,0,0,0-1.19l-3.84-3.84a.84.84,0,0,0-1.19,0,.86.86,0,0,0,0,1.19l2.4,2.39H66.94a.84.84,0,1,0,0,1.68Z"/><path class="cls-2" d="M37.85,41.47H50.43a.84.84,0,0,0,0-1.68H37.87l2.4-2.39a.84.84,0,0,0,0-1.19.83.83,0,0,0-1.18,0l-3.84,3.84a.84.84,0,0,0,0,1.19l3.84,3.84a.83.83,0,0,0,1.18-1.18Z"/></g></g></svg>