<svg xmlns="http://www.w3.org/2000/svg" xmlns:xlink="http://www.w3.org/1999/xlink" viewBox="0 0 120 120"><defs><style>.cls-1{fill:url(#linear-gradient);}.cls-2{fill:#fff;}</style><linearGradient id="linear-gradient" y1="60" x2="120" y2="60" gradientUnits="userSpaceOnUse"><stop offset="0" stop-color="#d23274"/><stop offset="1" stop-color="#f24a37"/></linearGradient></defs><title>7_End_to_End@web</title><g id="Layer_2" data-name="Layer 2"><g id="Layer_1-2" data-name="Layer 1"><path class="cls-1" d="M41,0H78.63A41.37,41.37,0,0,1,120,41.37V79a41,41,0,0,1-41,41H41.37A41.37,41.37,0,0,1,0,78.63V41A41,41,0,0,1,41,0Z"/><path class="cls-2" d="M41,62.31a19.06,19.06,0,0,1,31.83-16.4l-1.69,1.72a1.5,1.5,0,0,0-.38,1.46,1.55,1.55,0,0,0,1.11,1c.3.06,10,3.18,9.37,3A1.48,1.48,0,0,0,83,51.42c-.06-.3-2.21-11.06-2.08-10.44a1.45,1.45,0,0,0-2.46-.74L77,41.65A25,25,0,0,0,35,60v.06c0,.82,0,1.46.08,1.95a1.48,1.48,0,0,0,1.17,1.31l3,.6A1.48,1.48,0,0,0,41,62.31Z"/><path class="cls-2" d="M83.75,56.68l-3-.61A1.47,1.47,0,0,0,79,57.68,21.1,21.1,0,0,1,79.14,60a19,19,0,0,1-32,14.06l1.69-1.69a1.5,1.5,0,0,0,.38-1.46,1.55,1.55,0,0,0-1.11-1c-.3-.06-10-3.18-9.37-3a1.41,1.41,0,0,0-1.32.41A1.45,1.45,0,0,0,37,68.58c.06.3,2.21,11,2.08,10.35a1.49,1.49,0,0,0,1,1.11,1.4,1.4,0,0,0,1.43-.38L43,78.25A25,25,0,0,0,85,60v-.09c0-.65,0-1.28-.08-1.92A1.46,1.46,0,0,0,83.75,56.68Z"/></g></g></svg>