<svg xmlns="http://www.w3.org/2000/svg" xmlns:xlink="http://www.w3.org/1999/xlink" viewBox="0 0 120 120"><defs><style>.cls-1{fill:url(#linear-gradient);}.cls-2{fill:#fff;}</style><linearGradient id="linear-gradient" y1="60" x2="120" y2="60" gradientUnits="userSpaceOnUse"><stop offset="0" stop-color="#d23274"/><stop offset="1" stop-color="#f24a37"/></linearGradient></defs><title>7_Flexible@web</title><g id="Layer_2" data-name="Layer 2"><g id="Layer_1-2" data-name="Layer 1"><path class="cls-1" d="M41,0H78.63A41.37,41.37,0,0,1,120,41.37V79a41,41,0,0,1-41,41H41.37A41.37,41.37,0,0,1,0,78.63V41A41,41,0,0,1,41,0Z"/><path class="cls-2" d="M53,37A15.94,15.94,0,0,1,68.79,53a15.64,15.64,0,0,1-3.52,9.82l5,5A22.69,22.69,0,0,0,75.82,53,22.73,22.73,0,0,0,38.11,35.63l5,5A15.8,15.8,0,0,1,53,37Z"/><path class="cls-2" d="M67,83A15.94,15.94,0,0,1,51.21,67a15.64,15.64,0,0,1,3.52-9.82l-5-5A22.69,22.69,0,0,0,44.18,67,22.73,22.73,0,0,0,81.89,84.37l-5-5A15.8,15.8,0,0,1,67,83Z"/><path class="cls-2" d="M52.18,49.69l5,5a15.8,15.8,0,0,1,7.9-3.35,12.17,12.17,0,0,0-3-6.6,22.76,22.76,0,0,0-9.9,4.91Z"/><path class="cls-2" d="M78.74,47.43a26.64,26.64,0,0,1,.6,5.54A26.1,26.1,0,0,1,79,56.83a15.14,15.14,0,0,1,.31,20l5,5a22.58,22.58,0,0,0-5.63-34.46Z"/><path class="cls-2" d="M57.92,75.22a22.76,22.76,0,0,0,9.9-4.91l-5-5a15.8,15.8,0,0,1-7.9,3.35,12.17,12.17,0,0,0,3,6.6Z"/><path class="cls-2" d="M41.26,72.57a26.64,26.64,0,0,1-.6-5.54A26.1,26.1,0,0,1,41,63.17a15.14,15.14,0,0,1-.31-20l-5-5a22.58,22.58,0,0,0,5.63,34.46Z"/></g></g></svg>