<svg xmlns="http://www.w3.org/2000/svg" xmlns:xlink="http://www.w3.org/1999/xlink" viewBox="0 0 120 120"><defs><style>.cls-1{fill:url(#linear-gradient);}.cls-2{fill:#fff;}.cls-10,.cls-11,.cls-12,.cls-3,.cls-4,.cls-5,.cls-6,.cls-7,.cls-8,.cls-9{fill-rule:evenodd;}.cls-3{fill:url(#linear-gradient-2);}.cls-4{fill:url(#linear-gradient-3);}.cls-5{fill:url(#linear-gradient-4);}.cls-6{fill:url(#linear-gradient-5);}.cls-7{fill:url(#linear-gradient-6);}.cls-8{fill:url(#linear-gradient-7);}.cls-9{fill:url(#linear-gradient-8);}.cls-10{fill:url(#linear-gradient-9);}.cls-11{fill:url(#linear-gradient-10);}.cls-12{fill:url(#linear-gradient-11);}</style><linearGradient id="linear-gradient" y1="60" x2="120" y2="60" gradientUnits="userSpaceOnUse"><stop offset="0" stop-color="#d23274"/><stop offset="1" stop-color="#f24a37"/></linearGradient><linearGradient id="linear-gradient-2" x1="53.29" y1="45.85" x2="56.09" y2="45.85" xlink:href="#linear-gradient"/><linearGradient id="linear-gradient-3" x1="46.41" y1="55.13" x2="49.26" y2="55.13" xlink:href="#linear-gradient"/><linearGradient id="linear-gradient-4" x1="71.84" y1="45.85" x2="74.65" y2="45.85" xlink:href="#linear-gradient"/><linearGradient id="linear-gradient-5" x1="71.84" y1="55.13" x2="74.65" y2="55.13" xlink:href="#linear-gradient"/><linearGradient id="linear-gradient-6" x1="65.95" y1="45.85" x2="68.79" y2="45.85" xlink:href="#linear-gradient"/><linearGradient id="linear-gradient-7" x1="59.1" y1="55.13" x2="61.95" y2="55.13" xlink:href="#linear-gradient"/><linearGradient id="linear-gradient-8" x1="45.35" y1="45.81" x2="50.23" y2="45.81" xlink:href="#linear-gradient"/><linearGradient id="linear-gradient-9" x1="58.05" y1="45.81" x2="62.93" y2="45.81" xlink:href="#linear-gradient"/><linearGradient id="linear-gradient-10" x1="64.88" y1="55.08" x2="69.77" y2="55.08" xlink:href="#linear-gradient"/><linearGradient id="linear-gradient-11" x1="51.21" y1="55.08" x2="57.07" y2="55.08" xlink:href="#linear-gradient"/></defs><title>7_Full stack@web</title><g id="Layer_2" data-name="Layer 2"><g id="Layer_1-2" data-name="Layer 1"><path class="cls-1" d="M41,0H78.63A41.37,41.37,0,0,1,120,41.37V79a41,41,0,0,1-41,41H41.37A41.37,41.37,0,0,1,0,78.63V41A41,41,0,0,1,41,0Z"/><path class="cls-2" d="M71,82.07H67.74V78.52H52.26v3.55H49A1.47,1.47,0,1,0,49,85H71a1.47,1.47,0,1,0,0-2.93Z"/><path class="cls-2" d="M36.67,69.31A4.43,4.43,0,0,1,35,69v2a4.6,4.6,0,0,0,4.6,4.61H80.4A4.6,4.6,0,0,0,85,71V69a4.43,4.43,0,0,1-1.67.32Z"/><path class="cls-2" d="M80.4,35H39.6A4.6,4.6,0,0,0,35,39.6V64.71a1.67,1.67,0,0,0,1.67,1.67H83.33A1.67,1.67,0,0,0,85,64.71V39.6A4.6,4.6,0,0,0,80.4,35Z"/><path class="cls-3" d="M55.12,49.71a1,1,0,0,1-1-.85v-4.4c-.16-.14-.49-.14-.49-.29a.73.73,0,0,1,0-1.27l.82-.57a.9.9,0,0,1,1-.29,1,1,0,0,1,.65.86v6a1,1,0,0,1-1,.85Z"/><path class="cls-4" d="M48.22,59.48a1.08,1.08,0,0,1-1-1v-5c-.17-.16-.34-.16-.52-.32a1.14,1.14,0,0,1,0-1.44l.86-.64a1.12,1.12,0,0,1,1.21-.32,1,1,0,0,1,.52,1v6.71a1,1,0,0,1-1,1Z"/><path class="cls-5" d="M73.67,49.71a1,1,0,0,1-1-.85v-4.4c-.17-.14-.33-.14-.49-.29a.73.73,0,0,1,0-1.27l.81-.71A1.2,1.2,0,0,1,74,42a.8.8,0,0,1,.65.86v6a1,1,0,0,1-1,.85Z"/><path class="cls-6" d="M73.67,59.48a1,1,0,0,1-1-1v-5c-.17-.16-.33-.16-.49-.32a.89.89,0,0,1,0-1.44l.81-.64c.33-.32.65-.48,1-.32a.88.88,0,0,1,.65,1v6.71a1,1,0,0,1-1,1Z"/><path class="cls-7" d="M67.76,49.71a1,1,0,0,1-1-.85v-4.4c-.17-.14-.34-.14-.52-.29a.92.92,0,0,1,0-1.27l.87-.57a1.29,1.29,0,0,1,1.2-.29.84.84,0,0,1,.52.86v6a.91.91,0,0,1-1,.85Z"/><path class="cls-8" d="M61,59.48a.93.93,0,0,1-1-1v-5c-.33-.16-.49-.16-.65-.32a1.17,1.17,0,0,1,0-1.44l.81-.64a1.1,1.1,0,0,1,1.14-.32,1.07,1.07,0,0,1,.65,1v6.71a1,1,0,0,1-1,1Z"/><path class="cls-9" d="M47.79,49.71c-2.44,0-2.44-2.84-2.44-3.83,0-1.14,0-4,2.44-4s2.44,2.84,2.44,4c0,1,0,3.83-2.44,3.83Zm0-6.1c-.28,0-.72,0-.72,2.27s.44,2.13.72,2.13.72,0,.72-2.13-.57-2.27-.72-2.27Z"/><path class="cls-10" d="M60.49,49.71c-2.44,0-2.44-2.84-2.44-3.83,0-1.14,0-4,2.44-4s2.44,2.84,2.44,4c0,1,0,3.83-2.44,3.83Zm0-6.1c-.29,0-.72,0-.72,2.27S60.2,48,60.49,48s.72,0,.72-2.13-.43-2.27-.72-2.27Z"/><path class="cls-11" d="M67.32,59.48c-2.44,0-2.44-3.2-2.44-4.32s0-4.47,2.44-4.47,2.45,3.2,2.45,4.47,0,4.32-2.45,4.32Zm0-6.87c-.28,0-.71,0-.71,2.55s.43,2.4.71,2.4.72,0,.72-2.4-.43-2.55-.72-2.55Z"/><path class="cls-12" d="M54.14,59.48c-2.93,0-2.93-3.2-2.93-4.32s0-4.47,2.93-4.47,2.93,3.2,2.93,4.47,0,4.32-2.93,4.32Zm0-6.87c-.17,0-.86,0-.86,2.55s.69,2.4.86,2.4c.35,0,.86,0,.86-2.4s-.51-2.55-.86-2.55Z"/></g></g></svg>