<svg xmlns="http://www.w3.org/2000/svg" xmlns:xlink="http://www.w3.org/1999/xlink" viewBox="0 0 120 120"><defs><style>.cls-1{fill:url(#linear-gradient);}.cls-2{fill:#fff;}</style><linearGradient id="linear-gradient" y1="60" x2="120" y2="60" gradientUnits="userSpaceOnUse"><stop offset="0" stop-color="#d23274"/><stop offset="1" stop-color="#f24a37"/></linearGradient></defs><title>7_High_Productivity@web</title><g id="Layer_2" data-name="Layer 2"><g id="Layer_1-2" data-name="Layer 1"><path class="cls-1" d="M41,0H78.63A41.37,41.37,0,0,1,120,41.37V79a41,41,0,0,1-41,41H41.37A41.37,41.37,0,0,1,0,78.63V41A41,41,0,0,1,41,0Z"/><path class="cls-2" d="M58.52,54.54v9.19a4.82,4.82,0,1,0,2.93,0V54.54Z"/><path class="cls-2" d="M52.93,76.43H67v2.94H52.93Z"/><path class="cls-2" d="M58.53,40.64a24.85,24.85,0,0,0-9.76,2.61l4,6.94a16.82,16.82,0,0,1,5.75-1.53Z"/><path class="cls-2" d="M61.47,40.63v8a16.77,16.77,0,0,1,5.74,1.54l4-7a25.11,25.11,0,0,0-9.77-2.6Z"/><path class="cls-2" d="M73.78,44.7l-4,7a17.27,17.27,0,0,1,4.2,4.2l7-4A25.14,25.14,0,0,0,73.78,44.7Z"/><path class="cls-2" d="M77,64.17h8a24.89,24.89,0,0,0-2.6-9.78l-7,4A17.07,17.07,0,0,1,77,64.17Z"/><path class="cls-2" d="M39.08,51.86l7,4a17.36,17.36,0,0,1,4.21-4.21l-4-6.94a25.07,25.07,0,0,0-7.15,7.14Z"/><path class="cls-2" d="M44.56,58.41l-7-4A24.9,24.9,0,0,0,35,64.17h8a17.18,17.18,0,0,1,1.54-5.76Z"/><path class="cls-2" d="M77,67.1a16.87,16.87,0,0,1-1.76,6.21A4,4,0,1,0,82.35,77,24.94,24.94,0,0,0,85,67.1Z"/><path class="cls-2" d="M43,67.1H35A24.83,24.83,0,0,0,37.66,77a4,4,0,0,0,7.13-3.64A16.93,16.93,0,0,1,43,67.1Z"/></g></g></svg>