<svg xmlns="http://www.w3.org/2000/svg" xmlns:xlink="http://www.w3.org/1999/xlink" viewBox="0 0 120 120"><defs><style>.cls-1{fill:url(#linear-gradient);}.cls-2{fill:#fff;}</style><linearGradient id="linear-gradient" y1="60" x2="120" y2="60" gradientUnits="userSpaceOnUse"><stop offset="0" stop-color="#d23274"/><stop offset="1" stop-color="#f24a37"/></linearGradient></defs><title>7_Improved@web</title><g id="Layer_2" data-name="Layer 2"><g id="Layer_1-2" data-name="Layer 1"><path class="cls-1" d="M41,0H78.63A41.37,41.37,0,0,1,120,41.37V79a41,41,0,0,1-41,41H41.37A41.37,41.37,0,0,1,0,78.63V41A41,41,0,0,1,41,0Z"/><path class="cls-2" d="M84.44,71.3l-9.38-7.81a1.56,1.56,0,0,0-2.56,1.2v4.68H69.88a6.24,6.24,0,0,1-5.3-2.93L54.47,50.25a12.43,12.43,0,0,0-10.6-5.88H35v6.25h8.87a6.23,6.23,0,0,1,5.3,2.94L59.28,69.75a12.43,12.43,0,0,0,10.6,5.87H72.5v4.69a1.57,1.57,0,0,0,.9,1.42,1.7,1.7,0,0,0,.66.14,1.54,1.54,0,0,0,1-.36l9.38-7.81a1.57,1.57,0,0,0,0-2.4Z"/><path class="cls-2" d="M84.44,46.3l-9.38-7.81a1.56,1.56,0,0,0-2.56,1.2v4.68H69.88a12.43,12.43,0,0,0-10.6,5.88l-.56.91,3.68,5.89,2.18-3.49a6.23,6.23,0,0,1,5.3-2.94H72.5v4.69a1.57,1.57,0,0,0,.9,1.42,1.7,1.7,0,0,0,.66.14,1.54,1.54,0,0,0,1-.36l9.38-7.81a1.57,1.57,0,0,0,0-2.4Z"/><path class="cls-2" d="M51.35,63l-2.18,3.49a6.24,6.24,0,0,1-5.3,2.93H35v6.25h8.87a12.43,12.43,0,0,0,10.6-5.87l.56-.91Z"/></g></g></svg>