<svg xmlns="http://www.w3.org/2000/svg" xmlns:xlink="http://www.w3.org/1999/xlink" viewBox="0 0 120 120"><defs><style>.cls-1{fill:url(#linear-gradient);}.cls-2{fill:#fff;}</style><linearGradient id="linear-gradient" y1="60" x2="120" y2="60" gradientUnits="userSpaceOnUse"><stop offset="0" stop-color="#d23274"/><stop offset="1" stop-color="#f24a37"/></linearGradient></defs><title>7_modular@web</title><g id="Layer_2" data-name="Layer 2"><g id="Layer_1-2" data-name="Layer 1"><path class="cls-1" d="M41,0H78.63A41.37,41.37,0,0,1,120,41.37V79a41,41,0,0,1-41,41H41.37A41.37,41.37,0,0,1,0,78.63V41A41,41,0,0,1,41,0Z"/><path class="cls-2" d="M55.53,40.5,44,34.74,32.47,40.5,44,46.26Z"/><path class="cls-2" d="M74,67.74l-12,6V85.26l12-6Z"/><path class="cls-2" d="M64.47,40.5,76,46.26,87.53,40.5,76,34.74Z"/><path class="cls-2" d="M78,61.26l12-6V43.74l-12,6Z"/><path class="cls-2" d="M58,43.74l-12,6V61.26l12-6Z"/><path class="cls-2" d="M74,49.74l-12-6V55.26l12,6Z"/><path class="cls-2" d="M71.53,64.5,60,58.74,48.47,64.5,60,70.26Z"/><path class="cls-2" d="M46,79.26l12,6V73.74l-12-6Z"/><path class="cls-2" d="M30,55.26l12,6V49.74l-12-6Z"/></g></g></svg>