<svg xmlns="http://www.w3.org/2000/svg" xmlns:xlink="http://www.w3.org/1999/xlink" viewBox="0 0 120 120"><defs><style>.cls-1{fill:url(#linear-gradient);}.cls-2{fill:#fff;}</style><linearGradient id="linear-gradient" y1="60" x2="120" y2="60" gradientUnits="userSpaceOnUse"><stop offset="0" stop-color="#d23274"/><stop offset="1" stop-color="#f24a37"/></linearGradient></defs><title>7_OS@web</title><g id="Layer_2" data-name="Layer 2"><g id="Layer_1-2" data-name="Layer 1"><path class="cls-1" d="M41,0H78.63A41.37,41.37,0,0,1,120,41.37V79a41,41,0,0,1-41,41H41.37A41.37,41.37,0,0,1,0,78.63V41A41,41,0,0,1,41,0Z"/><path class="cls-2" d="M61.77,76.05V69.72c-.58,0-1.17.08-1.76.08s-1.18,0-1.76-.08v6.34A8.74,8.74,0,0,1,60,75.88a9.16,9.16,0,0,1,1.74.17Z"/><path class="cls-2" d="M60.34,49.6a4,4,0,1,0-.67,0h.67Z"/><path class="cls-2" d="M48.53,62.26a18.08,18.08,0,0,0,22.94,0,11.79,11.79,0,0,0-11-9.15l-.41,0-.41,0a11.8,11.8,0,0,0-11.07,9.14Z"/><path class="cls-2" d="M54.43,50.65a7.53,7.53,0,1,1,11.15,0,15.33,15.33,0,0,1,8.69,8.76,18.15,18.15,0,1,0-28.54,0,15.41,15.41,0,0,1,8.7-8.75Z"/><path class="cls-2" d="M51.46,82.87H43.92a9.2,9.2,0,0,1,0,3.52h7.54a8.69,8.69,0,0,1,0-3.52Z"/><path class="cls-2" d="M76.08,82.87H68.6a9.2,9.2,0,0,1,0,3.52h7.48a9.2,9.2,0,0,1,0-3.52Z"/><ellipse class="cls-2" cx="35.35" cy="84.63" rx="5.35" ry="5.36"/><ellipse class="cls-2" cx="60.03" cy="84.63" rx="5.35" ry="5.36"/><ellipse class="cls-2" cx="84.65" cy="84.63" rx="5.35" ry="5.36"/></g></g></svg>