<svg xmlns="http://www.w3.org/2000/svg" xmlns:xlink="http://www.w3.org/1999/xlink" viewBox="0 0 120 120"><defs><style>.cls-1{fill:url(#linear-gradient);}.cls-2{fill:#fff;}</style><linearGradient id="linear-gradient" y1="60" x2="120" y2="60" gradientUnits="userSpaceOnUse"><stop offset="0" stop-color="#d23274"/><stop offset="1" stop-color="#f24a37"/></linearGradient></defs><title>7_Performance@web</title><g id="Layer_2" data-name="Layer 2"><g id="Layer_1-2" data-name="Layer 1"><path class="cls-1" d="M41,0H78.63A41.37,41.37,0,0,1,120,41.37V79a41,41,0,0,1-41,41H41.37A41.37,41.37,0,0,1,0,78.63V41A41,41,0,0,1,41,0Z"/><path class="cls-2" d="M46.79,66.16l2.49,2.49,4.25-4.29a17.24,17.24,0,0,1-3.06-16.75l5.66,5.66A10.62,10.62,0,0,0,75.38,59.5L69,53.07,64.5,57.53,50.16,42.43l-2.22,2.29-.65.57a1.15,1.15,0,0,1-1.92-.81l-.29-7.28A1.16,1.16,0,0,1,46.23,36h7.5a1.16,1.16,0,0,1,.88,1.91l-.86,1-1.76,2L64.5,53.42,69,49l7.83,7.83A10.62,10.62,0,0,0,60.16,45l-4.7-4.7a17.24,17.24,0,1,1,.11,26.15l-4.24,4.29,2.5,2.5L43,84l-7-7Z"/><path class="cls-2" d="M60.71,75.28H84v2.91H60.71Z"/><path class="cls-2" d="M52,81.09H69.42V84H52Z"/></g></g></svg>