<svg xmlns="http://www.w3.org/2000/svg" xmlns:xlink="http://www.w3.org/1999/xlink" viewBox="0 0 120 120"><defs><style>.cls-1{fill:url(#linear-gradient);}.cls-2{fill:#fff;}</style><linearGradient id="linear-gradient" y1="60" x2="120" y2="60" gradientUnits="userSpaceOnUse"><stop offset="0" stop-color="#d23274"/><stop offset="1" stop-color="#f24a37"/></linearGradient></defs><title>7_Powerful Logging@web</title><g id="Layer_2" data-name="Layer 2"><g id="Layer_1-2" data-name="Layer 1"><path class="cls-1" d="M41,0H78.63A41.37,41.37,0,0,1,120,41.37V79a41,41,0,0,1-41,41H41.37A41.37,41.37,0,0,1,0,78.63V41A41,41,0,0,1,41,0Z"/><path class="cls-2" d="M54.89,65.74a1,1,0,0,1,.21-.58L74.9,45.3V38.5a3.8,3.8,0,0,0-3.63-4H39.38c-2.13,0-4.48,1.87-4.48,4V81.86c0,2.14,2.35,3.64,4.48,3.64H71.27a3.48,3.48,0,0,0,3.63-3.64V64.68L64.78,74.92a1.22,1.22,0,0,1-.51.33L53.6,78.09a1.22,1.22,0,0,1-1.22-.34A1.24,1.24,0,0,1,52,76.51Zm-2-13.24h-13v-3h13Zm9-5h-22v-3h22Zm-22-7h22v3h-22Zm0,16v-3h13v3Z"/><path class="cls-2" d="M83.41,46.16a3.88,3.88,0,0,0-5.47,0l-.72.72,6,6L84,52.2a3.88,3.88,0,0,0,0-5.48Z"/><path class="cls-2" d="M58,66.08l6,6.09L81.43,54.74l-6-6.05Z"/><path class="cls-2" d="M61.51,73.33l-4.7-4.74L55.11,75Z"/></g></g></svg>