<svg xmlns="http://www.w3.org/2000/svg" xmlns:xlink="http://www.w3.org/1999/xlink" viewBox="0 0 120 120"><defs><style>.cls-1{fill:url(#linear-gradient);}.cls-2{fill:#fff;}</style><linearGradient id="linear-gradient" y1="60" x2="120" y2="60" gradientUnits="userSpaceOnUse"><stop offset="0" stop-color="#d23274"/><stop offset="1" stop-color="#f24a37"/></linearGradient></defs><title>7_Reporting@web</title><g id="Layer_2" data-name="Layer 2"><g id="Layer_1-2" data-name="Layer 1"><path class="cls-1" d="M41,0H78.63A41.37,41.37,0,0,1,120,41.37V79a41,41,0,0,1-41,41H41.37A41.37,41.37,0,0,1,0,78.63V41A41,41,0,0,1,41,0Z"/><rect class="cls-2" x="61.53" y="51.64" width="13.42" height="9.99"/><path class="cls-2" d="M36.92,81.71H83.08A1.92,1.92,0,0,0,85,79.79V40.21a1.92,1.92,0,0,0-1.92-1.92H36.92A1.92,1.92,0,0,0,35,40.21V79.79A1.92,1.92,0,0,0,36.92,81.71ZM58.47,50.1A1.53,1.53,0,0,1,60,48.57H76.49A1.54,1.54,0,0,1,78,50.1V63.17a1.54,1.54,0,0,1-1.53,1.53H60a1.53,1.53,0,0,1-1.53-1.53V50.1Zm-15-1.53h9.9a1.54,1.54,0,0,1,0,3.07h-9.9a1.54,1.54,0,0,1,0-3.07Zm0,6.6h9.9a1.54,1.54,0,0,1,0,3.07h-9.9a1.54,1.54,0,0,1,0-3.07Zm0,6.59h9.9a1.54,1.54,0,0,1,0,3.07h-9.9a1.54,1.54,0,0,1,0-3.07Zm0,9.9h33a1.54,1.54,0,0,1,0,3.07h-33a1.54,1.54,0,0,1,0-3.07Z"/></g></g></svg>