<svg xmlns="http://www.w3.org/2000/svg" xmlns:xlink="http://www.w3.org/1999/xlink" viewBox="0 0 120 120"><defs><style>.cls-1{fill:url(#linear-gradient);}.cls-2{fill:#fff;}</style><linearGradient id="linear-gradient" y1="60" x2="120" y2="60" gradientUnits="userSpaceOnUse"><stop offset="0" stop-color="#d23274"/><stop offset="1" stop-color="#f24a37"/></linearGradient></defs><title>7_Schedule@web</title><g id="Layer_2" data-name="Layer 2"><g id="Layer_1-2" data-name="Layer 1"><path class="cls-1" d="M41,0H78.63A41.37,41.37,0,0,1,120,41.37V79a41,41,0,0,1-41,41H41.37A41.37,41.37,0,0,1,0,78.63V41A41,41,0,0,1,41,0Z"/><path class="cls-2" d="M85,51.5V45.74a4.4,4.4,0,0,0-4.39-4.39H80v5.37a1.47,1.47,0,0,1-2.93,0V38.91a1.47,1.47,0,1,0-2.93,0v2.44H64.39v5.37a1.47,1.47,0,0,1-2.93,0V38.91a1.46,1.46,0,1,0-2.92,0v2.44H48.77v5.37a1.47,1.47,0,0,1-2.93,0V38.91a1.47,1.47,0,1,0-2.93,0v2.44H39.39A4.4,4.4,0,0,0,35,45.74V51.5Z"/><path class="cls-2" d="M35,54.43V78.16a4.4,4.4,0,0,0,4.39,4.4H80.61A4.4,4.4,0,0,0,85,78.16V54.43ZM49.06,74.75H45.94a1.47,1.47,0,1,1,0-2.93h3.12a1.47,1.47,0,1,1,0,2.93Zm0-6.25H45.94a1.47,1.47,0,1,1,0-2.93h3.12a1.47,1.47,0,1,1,0,2.93Zm0-6.25H45.94a1.47,1.47,0,1,1,0-2.93h3.12a1.47,1.47,0,1,1,0,2.93Zm12.5,12.5H58.44a1.47,1.47,0,1,1,0-2.93h3.12a1.47,1.47,0,1,1,0,2.93Zm0-6.25H58.44a1.47,1.47,0,1,1,0-2.93h3.12a1.47,1.47,0,1,1,0,2.93Zm0-6.25H58.44a1.47,1.47,0,1,1,0-2.93h3.12a1.47,1.47,0,1,1,0,2.93Zm12.5,12.5H70.94a1.47,1.47,0,1,1,0-2.93h3.12a1.47,1.47,0,1,1,0,2.93Zm0-6.25H70.94a1.47,1.47,0,1,1,0-2.93h3.12a1.47,1.47,0,1,1,0,2.93Zm0-6.25H70.94a1.47,1.47,0,1,1,0-2.93h3.12a1.47,1.47,0,1,1,0,2.93Z"/></g></g></svg>