<svg xmlns="http://www.w3.org/2000/svg" xmlns:xlink="http://www.w3.org/1999/xlink" viewBox="0 0 120 120"><defs><style>.cls-1{fill:url(#linear-gradient);}.cls-2{fill:#fff;}</style><linearGradient id="linear-gradient" y1="60" x2="120" y2="60" gradientUnits="userSpaceOnUse"><stop offset="0" stop-color="#d23274"/><stop offset="1" stop-color="#f24a37"/></linearGradient></defs><title>7_Shiftleft@web</title><g id="Layer_2" data-name="Layer 2"><g id="Layer_1-2" data-name="Layer 1"><path class="cls-1" d="M41,0H78.63A41.37,41.37,0,0,1,120,41.37V79a41,41,0,0,1-41,41H41.37A41.37,41.37,0,0,1,0,78.63V41A41,41,0,0,1,41,0Z"/><path class="cls-2" d="M57.35,74.15A1.57,1.57,0,0,0,60,73V66.25H72a2.61,2.61,0,0,0,2.6-2.6v-7.3a2.61,2.61,0,0,0-2.6-2.6H60V47a1.57,1.57,0,0,0-2.65-1.13l-13.54,13a1.57,1.57,0,0,0,0,2.26Z"/><path class="cls-2" d="M60,35A25,25,0,1,1,35,60,25,25,0,0,1,60,35Zm0,45.83A20.83,20.83,0,1,0,39.17,60,20.85,20.85,0,0,0,60,80.83Z"/></g></g></svg>