<svg xmlns="http://www.w3.org/2000/svg" xmlns:xlink="http://www.w3.org/1999/xlink" viewBox="0 0 120 120"><defs><style>.cls-1{fill:url(#linear-gradient);}.cls-2{fill:#fff;}</style><linearGradient id="linear-gradient" y1="60" x2="120" y2="60" gradientUnits="userSpaceOnUse"><stop offset="0" stop-color="#d23274"/><stop offset="1" stop-color="#f24a37"/></linearGradient></defs><title>7_Smoth_Operator@web</title><g id="Layer_2" data-name="Layer 2"><g id="Layer_1-2" data-name="Layer 1"><path class="cls-1" d="M41,0H78.63A41.37,41.37,0,0,1,120,41.37V79a41,41,0,0,1-41,41H41.37A41.37,41.37,0,0,1,0,78.63V41A41,41,0,0,1,41,0Z"/><path class="cls-2" d="M85,84.28c-.55-10.34-9.84-14.62-9.84-14.62-2.22-1-6.25-3.07-8.89-4.41,3.39-3.7,4.38-9.73,4.54-10.59A40.53,40.53,0,0,0,71.16,46c-.64-9.35-10.08-9.5-11.07-9.49h-.17c-.89,0-10.43.08-11.08,9.49a40.53,40.53,0,0,0,.35,8.69c0,.25.16.94.39,1.89a12,12,0,0,0,6.78,4,1.56,1.56,0,0,1,1.09-.44h4.11a1.58,1.58,0,0,1,0,3.15H57.45A1.58,1.58,0,0,1,56,62.34,15.72,15.72,0,0,1,50.65,60a16.67,16.67,0,0,0,3.08,5.26c-2.64,1.34-6.67,3.37-8.89,4.41,0,0-9.29,4.28-9.84,14.62,0,0-.16,1.72,3.1,2.37A109.89,109.89,0,0,0,60,88.93a109.89,109.89,0,0,0,21.9-2.28C85.16,86,85,84.28,85,84.28Z"/><path class="cls-2" d="M45.64,58h1V44.55a10,10,0,0,1,2.82-7.39c3.86-3.8,10.46-3.74,10.57-3.73s6.62-.1,10.5,3.7a10,10,0,0,1,2.83,7.42V58h1a4.42,4.42,0,0,0,4.42-4.42V49.34a4.43,4.43,0,0,0-3.06-4.2v-.59a12.23,12.23,0,0,0-3.54-9.11C67.6,31,60.28,31.07,60,31.07s-7.63-.09-12.21,4.4a12.21,12.21,0,0,0-3.53,9.08v.59a4.42,4.42,0,0,0-3.06,4.2v4.25A4.42,4.42,0,0,0,45.64,58Z"/></g></g></svg>