<svg xmlns="http://www.w3.org/2000/svg" xmlns:xlink="http://www.w3.org/1999/xlink" viewBox="0 0 120 120"><defs><style>.cls-1{fill:url(#linear-gradient);}.cls-2{fill:#fff;}</style><linearGradient id="linear-gradient" y1="60" x2="120" y2="60" gradientUnits="userSpaceOnUse"><stop offset="0" stop-color="#d23274"/><stop offset="1" stop-color="#f24a37"/></linearGradient></defs><title>7_Support@web</title><g id="Layer_2" data-name="Layer 2"><g id="Layer_1-2" data-name="Layer 1"><path class="cls-1" d="M41,0H78.63A41.37,41.37,0,0,1,120,41.37V79a41,41,0,0,1-41,41H41.37A41.37,41.37,0,0,1,0,78.63V41A41,41,0,0,1,41,0Z"/><path class="cls-2" d="M46.67,54.89a5,5,0,0,0-5,5V73.44a5,5,0,0,0,10,0V59.89A5,5,0,0,0,46.67,54.89Z"/><path class="cls-2" d="M38.33,59.89a8,8,0,0,1,.15-1.4A5,5,0,0,0,35,63.22v6.89a5,5,0,0,0,3.48,4.74,8.12,8.12,0,0,1-.15-1.41Z"/><path class="cls-2" d="M73.33,54.89a5,5,0,0,0-5,5V73.44a5,5,0,0,0,5,5,4.93,4.93,0,0,0,1.44-.23A5,5,0,0,1,70,81.78H64.69a5,5,0,1,0,0,3.33H70a8.34,8.34,0,0,0,8.33-8.33V59.89A5,5,0,0,0,73.33,54.89Z"/><path class="cls-2" d="M81.52,58.49a8,8,0,0,1,.15,1.4V73.44a8.12,8.12,0,0,1-.15,1.41A5,5,0,0,0,85,70.11V63.22A5,5,0,0,0,81.52,58.49Z"/><path class="cls-2" d="M60,31.56a25,25,0,0,0-25,25v0a8.3,8.3,0,0,1,3.41-1.55,21.64,21.64,0,0,1,43.18,0A8.3,8.3,0,0,1,85,56.6v0A25,25,0,0,0,60,31.56Z"/></g></g></svg>