<svg xmlns="http://www.w3.org/2000/svg" xmlns:xlink="http://www.w3.org/1999/xlink" viewBox="0 0 470 470"><defs><style>.cls-1{fill:none;}.cls-2{fill:url(#linear-gradient);}.cls-3{fill:url(#linear-gradient-2);}.cls-4{fill:#ff9750;}.cls-5{fill:url(#linear-gradient-3);}.cls-6{fill:url(#linear-gradient-4);}.cls-7{fill:url(#linear-gradient-5);}.cls-8{fill:url(#linear-gradient-6);}.cls-9{fill:#ff6224;}.cls-10{fill:url(#linear-gradient-7);}.cls-11{fill:url(#linear-gradient-8);}.cls-12{fill:url(#linear-gradient-9);}.cls-13{fill:#b70f5b;}.cls-14{fill:#382424;}.cls-15{fill:#fc9e8b;}.cls-16{fill:#ffd0c5;}.cls-17{fill:url(#linear-gradient-10);}.cls-18{fill:#840243;}.cls-19{fill:url(#linear-gradient-11);}.cls-20{fill:url(#linear-gradient-12);}</style><linearGradient id="linear-gradient" x1="75.9" y1="394.1" x2="394.1" y2="75.9" gradientUnits="userSpaceOnUse"><stop offset="0" stop-color="#d22674"/><stop offset="1" stop-color="#f25437"/></linearGradient><linearGradient id="linear-gradient-2" x1="36.59" y1="383.44" x2="208.62" y2="383.44" gradientUnits="userSpaceOnUse"><stop offset="0" stop-color="#ff9750"/><stop offset="1" stop-color="#ff6224"/></linearGradient><linearGradient id="linear-gradient-3" x1="83.66" y1="356.45" x2="227.77" y2="356.45" xlink:href="#linear-gradient-2"/><linearGradient id="linear-gradient-4" x1="132.81" y1="342.26" x2="265.73" y2="342.26" xlink:href="#linear-gradient-2"/><linearGradient id="linear-gradient-5" x1="474.91" y1="293.99" x2="312.44" y2="293.99" gradientTransform="translate(-37.09 87.85) rotate(-4.03)" xlink:href="#linear-gradient-2"/><linearGradient id="linear-gradient-6" x1="419.5" y1="277.99" x2="269.65" y2="277.99" gradientTransform="translate(-37.09 87.85) rotate(-4.03)" xlink:href="#linear-gradient-2"/><linearGradient id="linear-gradient-7" x1="335.99" y1="321.68" x2="335.99" y2="430.87" xlink:href="#linear-gradient-2"/><linearGradient id="linear-gradient-8" x1="226.11" y1="372.52" x2="196.4" y2="335.21" gradientUnits="userSpaceOnUse"><stop offset="0" stop-color="#fa775e"/><stop offset="1" stop-color="#ffd0c5"/></linearGradient><linearGradient id="linear-gradient-9" x1="200.05" y1="275.49" x2="215.8" y2="275.49" xlink:href="#linear-gradient-2"/><linearGradient id="linear-gradient-10" x1="210.35" y1="299.05" x2="240.47" y2="299.05" xlink:href="#linear-gradient-2"/><linearGradient id="linear-gradient-11" x1="13890.98" y1="-19619.17" x2="13866.17" y2="-19831.28" gradientTransform="translate(-11449.37 1069.86) rotate(51.67) scale(0.49)" gradientUnits="userSpaceOnUse"><stop offset="0" stop-color="#d23274"/><stop offset="1" stop-color="#f24a37"/></linearGradient><linearGradient id="linear-gradient-12" x1="106.56" y1="182.63" x2="106.56" y2="134.55" xlink:href="#linear-gradient-2"/></defs><title>8_Art@web</title><g id="Layer_2" data-name="Layer 2"><g id="Isolation_Mode" data-name="Isolation Mode"><rect class="cls-1" width="470" height="470"/><path class="cls-2" d="M460,235a227,227,0,0,1-1.71,27.88q-.87,6.92-2.13,13.69c-.13.67-.24,1.34-.39,2q-1,5-2.17,9.95a224.74,224.74,0,0,1-15.9,44.25.08.08,0,0,0,0,0A223.41,223.41,0,0,1,422.12,360c-.51.77-1,1.54-1.57,2.31s-1.13,1.64-1.73,2.46q-5.52,7.83-11.69,15.14a.41.41,0,0,1-.09.1.13.13,0,0,1-.05.06c-.81,1-1.64,1.94-2.5,2.91l-.24.28c-.86,1-1.74,2-2.64,3-2.27,2.52-4.61,5-7,7.36s-4.55,4.5-6.9,6.66c-2,1.81-3.92,3.58-5.94,5.31h0a.69.69,0,0,0-.13.11c-.8.69-1.61,1.37-2.42,2.05q-5,4.2-10.26,8.08l-.24.16c-.43.32-.87.65-1.31,1-1.9,1.41-3.84,2.77-5.79,4.08-1.17.82-2.35,1.61-3.53,2.38q-2.07,1.36-4.18,2.67c-.94.6-1.9,1.18-2.85,1.76l-1.13.68c-1.39.82-2.77,1.63-4.17,2.41-1,.58-2,1.15-3.05,1.7a221.22,221.22,0,0,1-29.9,13.62c-1.65.6-3.29,1.17-4.94,1.74a224.39,224.39,0,0,1-26.51,7.28c-2,.42-4,.82-6.07,1.18-1.19.22-2.39.42-3.59.62s-2.42.39-3.64.56c-1.94.29-3.9.56-5.86.78l-3.32.38A224.15,224.15,0,0,1,235,460q-7.09,0-14.08-.44c-1-.05-2.07-.12-3.1-.2l-.79-.06q-2.76-.23-5.5-.51l-.56,0-2.7-.3c-6.27-.74-12.44-1.74-18.55-3l-1-.21-1.17-.24-.84-.19-2.39-.53A223.91,223.91,0,0,1,139.84,439l-1.9-.9q-5.91-2.83-11.62-6c-.72-.4-1.42-.81-2.14-1.2q-4.11-2.34-8.12-4.85-6.15-3.82-12-8l0,0q-7.55-5.43-14.62-11.44a223,223,0,0,1-18.75-17.87l-1.77-1.9c-2.85-3.12-5.61-6.33-8.28-9.6-1.59-2-3.14-3.91-4.67-5.9h0q-2.28-3-4.52-6.16Q46,357.47,41.2,349.38q-1.1-1.83-2.13-3.69h0c-1.12-2-2.2-3.94-3.27-5.95h0c-.31-.59-.61-1.2-.92-1.8h0c-1.57-3.05-3.08-6.13-4.51-9.27s-2.95-6.61-4.3-10c0,0,0,0,0,0-1.14-2.81-2.2-5.67-3.23-8.54h0A225.46,225.46,0,0,1,52.09,103.94q6.3-8.79,13.39-16.9C67.3,85,69.14,82.93,71,80.92q5-5.34,10.4-10.34c2-1.93,4.16-3.83,6.3-5.69q8.13-7,16.92-13.28a223,223,0,0,1,30-18q6.69-3.35,13.64-6.24c.65-.28,1.32-.54,2-.81h0c.41-.17.82-.34,1.24-.49,1.79-.72,3.57-1.41,5.39-2.09,1.64-.6,3.31-1.2,5-1.76.64-.24,1.3-.45,2-.66q2.63-.9,5.31-1.7l.62-.19,2.13-.65c2-.58,4-1.13,6.08-1.67l1.24-.32c1.69-.43,3.4-.85,5.1-1.24,2.57-.59,5.15-1.14,7.76-1.64,3.12-.61,6.26-1.14,9.43-1.61A228,228,0,0,1,235,10,225,225,0,0,1,437.69,137.19c1,2.05,1.95,4.12,2.88,6.22,1.07,2.4,2.12,4.83,3.1,7.28.12.32.26.63.38.95a0,0,0,0,0,0,0c.59,1.41,1.13,2.84,1.66,4.29,0,0,0,0,0,0a1.11,1.11,0,0,1,.09.19h0q1.15,3.09,2.2,6.23,1.85,5.35,3.41,10.83s0,.06,0,.09c.82,2.85,1.57,5.72,2.27,8.61a224.64,224.64,0,0,1,5.84,38.82Q460,227.82,460,235Z"/><path class="cls-3" d="M169.5,400.41s-43.61-45-132.91-59.53c0,0,27.69,62.26,88.26,85.12h83.77Z"/><path class="cls-4" d="M167.77,427.87a1,1,0,0,1-.65-.23C131.94,399.06,58.28,357.43,57.54,357a1,1,0,0,1-.39-1.41,1,1,0,0,1,1.41-.4c.74.42,74.56,42.14,109.87,70.83a1,1,0,0,1,.15,1.46A1.06,1.06,0,0,1,167.77,427.87Z"/><path class="cls-5" d="M227.77,426S164.66,312.49,83.66,284.11c0,0,23.54,103.15,116.3,144.68Z"/><path class="cls-4" d="M208.62,426.58a1,1,0,0,1-.83-.4c-.62-.82-62.36-81.52-103.33-115.66a1,1,0,1,1,1.33-1.59c41.15,34.29,103,115.17,103.65,116a1,1,0,0,1-.19,1.45A1.06,1.06,0,0,1,208.62,426.58Z"/><path class="cls-6" d="M132.81,258.5S150.12,363.72,238,426l27.69,0S224.19,298.65,132.81,258.5Z"/><path class="cls-4" d="M249.81,427.06a1,1,0,0,1-.9-.52C201,343.81,153.26,285.35,152.78,284.77a1,1,0,1,1,1.6-1.32c.48.59,48.38,59.18,96.32,142.05a1,1,0,0,1-.38,1.42A1,1,0,0,1,249.81,427.06Z"/><path class="cls-7" d="M300.74,437.41s62-132.68,150.83-171c0,0-18.31,117.87-119.34,171.93Z"/><path class="cls-4" d="M322.32,436.53a1.19,1.19,0,0,0,.9-.53c.63-1,63.68-96.61,107-138.25a1.17,1.17,0,1,0-1.62-1.69c-43.56,41.82-106.76,137.69-107.39,138.65a1.17,1.17,0,0,0,.33,1.63A1.29,1.29,0,0,0,322.32,436.53Z"/><path class="cls-8" d="M394.26,241.48S383.13,361.2,289.18,438.2L258,440.42S294.67,293.88,394.26,241.48Z"/><path class="cls-4" d="M276,440.33a1.17,1.17,0,0,0,1-.66c47.28-96.83,96.4-166.37,96.89-167.06a1.17,1.17,0,0,0-1.91-1.35c-.49.69-49.72,70.38-97.08,167.38a1.17,1.17,0,0,0,.54,1.57A1.23,1.23,0,0,0,276,440.33Z"/><path class="cls-9" d="M367.41,416.89c-1.9,1.41-3.84,2.77-5.79,4.08-1.17.82-2.35,1.61-3.53,2.38q-2.07,1.36-4.18,2.67c-.94.6-1.9,1.18-2.85,1.76l-1.13.68c-1.39.82-2.77,1.63-4.17,2.41H305.19s-10.39-78.75,5.53-108.6c0,0,6.54-.48,15.61-.57h.16c19.73-.19,51.31,1.57,54.16,14.34C384.17,351.91,369.71,388.76,367.41,416.89Z"/><path class="cls-10" d="M361.62,421c-1.17.82-2.35,1.61-3.53,2.38q-2.07,1.36-4.18,2.67c-.94.6-1.9,1.18-2.85,1.76l-1.13.68c-1.39.82-2.77,1.63-4.17,2.41H299.65s-10.39-78.75,5.54-108.6c0,0,9.31-.69,21.14-.57h.16c19.6.22,46,2.71,48.61,14.34C378.81,352.69,362.72,392.43,361.62,421Z"/><path class="cls-11" d="M231.81,305.58s-10.39-4.16-18.7,7.61S202,343,195.81,352,191,402.49,191,402.49s11.08-1.39,17.31-13.85S220,370,220,370L227,327.72Z"/><path class="cls-12" d="M211,278.57s-.62-3.23,3.46-4.84-2.77-10.39-2.77-10.39-17.08,1.28-9.92,17.6S211,278.57,211,278.57Z"/><path class="cls-13" d="M227,305.57s1.38,1.39-2.77,22.85S212.42,361,222.11,372s17.31,31.84,13.85,56.76H328s-2.77-24.92-10.38-37.38l-15.23-86.53c-4.49-5.15-12.41-7-20.08-6.92C282.34,298,261.57,314.57,227,305.57Z"/><path class="cls-14" d="M249.8,229.42s.7-13.15,11.08-13.84S282.34,235,277.49,246s-16.61,3.46-16.61,3.46Z"/><path class="cls-4" d="M245,230.81a7.65,7.65,0,0,1,4.84-2.08c.7,0,9.7,3.46,14.54,14.54s-2.07,10.38-2.07,10.38Z"/><path class="cls-14" d="M214.53,273.82s-14.44-24.53-.88-38.7c9-9.37,22.8-10.68,33.9-5.58A29.82,29.82,0,0,1,264.18,249c4.85,18-2.08,27.69-2.77,40.84Z"/><path class="cls-15" d="M256,273s4.16,18.69,11.08,22.15S282.34,298,282.34,298,265,318.72,250.5,318.72s-19.39-13.15-19.39-13.15,7.62.69,11.77-2.77,0-6.92,0-6.92Z"/><path class="cls-16" d="M213.11,273s17.31,26.3,27,27S256,286.19,256,273c0,0,5.54-8.31,1.39-13.85s-6.92,3.46-4.85,10.38c0,0-6.23-1.38-9.69-9.69,0,0-14.54,3.46-24.92-4.15C218,255.73,220.73,268.88,213.11,273Z"/><path class="cls-17" d="M210.35,293.8s11.76,16.62,19.38,15.93,13.15-5.54,9.69-11.08-11.09-11-13.5-9a8,8,0,0,0-2.42,5.52s-6.92-3.46-8.31-6.23S210.35,293.8,210.35,293.8Z"/><path class="cls-16" d="M203.42,307s-3.46,25.61-2.77,48.45-1.38,44.31-9.69,47.77-12.46-3.46-16.61-8.31-2.77-18,1.38-38.07,15.23-46.38,18-56.07c0,0,1.39-13.85,7.62-19.39s9-4.84,11.07-2.77,6.93,9,6.23,11.08-3.46-.69-4.84,1.38S208.27,308.34,203.42,307Z"/><path class="cls-16" d="M317.65,391.41c-1.83,5.26-12.66,10.68-26.33,15.56-27.71,9.91-67.13,17.67-67.13,17.67-3.46,2.77-21.46.69-22.84-.69s-13.16,2.77-16.62,0,7.62-9.69,14.54-9.69h22.15c18.54-5.06,42-18.32,57.44-27.93,9.95-6.17,16.63-10.84,16.63-10.84,3.46-22.15-4.84-26.31-10.38-51.23-3.8-17.1,5.54-28.38,15.92-20.76S325,370.31,317.65,391.41Z"/><path class="cls-16" d="M317.65,391.41c-1.83,5.26-12.66,10.68-26.33,15.56-6.38-4.69-10.49-14.73-12.46-20.64,9.95-6.17,16.63-10.84,16.63-10.84,3.46-22.15-4.84-26.31-10.38-51.23-3.8-17.1,5.54-28.38,15.92-20.76S325,370.31,317.65,391.41Z"/><path class="cls-13" d="M135.06,399.72h0a2.42,2.42,0,0,1-2.42-2.42v-6.23a2.42,2.42,0,0,1,2.42-2.43h0a2.43,2.43,0,0,1,2.43,2.43v6.23A2.43,2.43,0,0,1,135.06,399.72Z"/><path class="cls-13" d="M159.29,399.72h0a2.42,2.42,0,0,1-2.42-2.42v-6.23a2.42,2.42,0,0,1,2.42-2.43h0a2.42,2.42,0,0,1,2.42,2.43v6.23A2.42,2.42,0,0,1,159.29,399.72Z"/><path class="cls-13" d="M128.49,394.87h31.15c9.69,0,11.07,9,19.38,10.39s10.39,8.65,12.12,20.59h-46Z"/><path class="cls-18" d="M118.1,427.41s4.16-32.54,10.39-32.54c5.71,0,8.3,11.08,19.38,12.46S162.06,426,162.06,426Z"/><path class="cls-4" d="M168.24,402.9c5.15,3.65,7.84,8.7,6,11.29s-7.49,1.72-12.64-1.93-7.83-8.7-6-11.28S163.1,399.25,168.24,402.9Z"/><path class="cls-9" d="M353.91,426c-.94.6-1.9,1.18-2.85,1.76l-1.13.68c-2.38,1.41-4.79,2.79-7.22,4.11a221.22,221.22,0,0,1-29.9,13.62c-1.65.6-3.29,1.17-4.94,1.74a224.39,224.39,0,0,1-26.51,7.28c-2,.42-4,.82-6.07,1.18-1.19.22-2.39.42-3.59.62s-2.42.39-3.64.56c-1.94.29-3.9.56-5.86.78l-3.32.38A224.15,224.15,0,0,1,235,460q-7.09,0-14.08-.44c-1-.05-2.07-.12-3.1-.2l-.79-.06q-2.76-.23-5.5-.51l-.56,0-2.7-.3c-6.27-.74-12.44-1.74-18.55-3l-1-.21-1.17-.24-.84-.19-2.39-.53A223.91,223.91,0,0,1,139.84,439l-1.9-.9q-5.91-2.83-11.62-6c-.72-.4-1.42-.81-2.14-1.2q-4.11-2.34-8.12-4.85Z"/><circle class="cls-19" cx="407.43" cy="407.42" r="52.57"/><rect class="cls-1" width="470" height="470"/><circle class="cls-4" cx="367.25" cy="162.15" r="25.72" transform="translate(148.36 498.68) rotate(-80.78)"/><path class="cls-13" d="M373.22,155s-4,1.48-4.94-1.49,4-10.38,6.43-9.89,5.93,7.26,5.93,10.39c0,3.46-5.44,19.78-12.36,24.23s-15.34,2.47-14.35-2,4.45-9.89,5.94-9.39,5.44,5.44,5.44,5.44S374.21,163.88,373.22,155Z"/><rect class="cls-1" width="470" height="470"/><path class="cls-20" d="M144,138.56v40.07a4,4,0,0,1-4,4H73.17a4,4,0,0,1-4-4V138.56a4,4,0,0,1,4-4H140a4,4,0,0,1,3.6,2.25A3.86,3.86,0,0,1,144,138.56Z"/><path class="cls-13" d="M143.55,136.8l-37,25.35L69.61,136.7a4,4,0,0,1,3.56-2.15H140A4,4,0,0,1,143.55,136.8Z"/><rect class="cls-1" width="470" height="470"/><rect class="cls-9" x="204.51" y="94.33" width="116.96" height="5.36" rx="2.08"/><rect class="cls-4" x="204.51" y="109.65" width="58.48" height="5.36" rx="2.08"/><rect class="cls-4" x="204.51" y="123.29" width="58.48" height="5.36" rx="2.08"/></g></g></svg>