<svg xmlns="http://www.w3.org/2000/svg" viewBox="0 0 124.46 31.88"><defs><style>.cls-1{fill:#fff;}.cls-2{fill:#1c3aa9;}.cls-3{fill:#4285f3;}</style></defs><title>8_Recaptcha@web</title><g id="Layer_2" data-name="Layer 2"><g id="Layer_1-2" data-name="Layer 1"><path class="cls-1" d="M8.14,16h5.44a.55.55,0,0,1-.2.26c-1.23,1.23-2.45,2.46-3.69,3.69-.14.14-.17.24,0,.41a7.85,7.85,0,0,0,5.45,3.31,7,7,0,0,0,4-.55,8,8,0,0,0,3.56-3.22c.12-.22.19-.21.35-.05l5.31,5.38c.43.44.39.3,0,.74A15.76,15.76,0,0,1,21.12,31a15.48,15.48,0,0,1-4.05.8A15.83,15.83,0,0,1,8.38,30c-.59-.31-1.14-.69-1.7-1.06a14,14,0,0,1-3-2.76c-.12-.14-.16,0-.23,0L1.74,27.89.06,29.56c0-.15,0-.25,0-.34,0-3.74,0-7.47,0-11.21,0-.68-.09-1.35,0-2Z"/><path class="cls-2" d="M16,0a15.75,15.75,0,0,1,9.81,3.31,14.21,14.21,0,0,1,2.47,2.37c.14.16.2.17.35,0l3.15-3.16a2.33,2.33,0,0,0,.19-.23.58.58,0,0,1,0,.35q0,6.06,0,12.13c0,.29,0,.59,0,.89s-.05.25-.25.25c-1.32,0-2.65,0-4,0l-9.09,0h-.27a.52.52,0,0,1,.2-.25l3.72-3.73a.24.24,0,0,0,0-.39,7.71,7.71,0,0,0-5.56-3.32,3,3,0,0,0-.9-.09C15.9,5.42,15.88,2.71,16,0Z"/><path class="cls-3" d="M16,0c-.07,2.71,0,5.42,0,8.14.05,1.8,0,3.61,0,5.43-.14,0-.19-.11-.26-.18L12,9.68a.27.27,0,0,0-.43,0,7.69,7.69,0,0,0-3.3,5.57,4.08,4.08,0,0,0-.11.77H0A15.89,15.89,0,0,1,5.65,3.8c.19-.16.22-.24,0-.43-1-1-2.06-2.06-3.09-3.09L2.36.06c.1-.09.21,0,.3,0H16Z"/><path class="cls-1" d="M113,16c0,2,0,3.91,0,5.87,0,.38-.09.49-.48.49-1.16,0-1.16,0-1.16-1.17,0-1.44,0-2.87,0-4.31,0-.33-.09-.45-.43-.45-1.41,0-2.82,0-4.22,0-.38,0-.51.11-.5.49,0,1.65,0,3.3,0,4.95,0,.39-.11.49-.49.49-1.09,0-1.09,0-1.09-1.09,0-3.7,0-7.4,0-11.11,0-.46.14-.56.57-.55,1,0,1,0,1,1,0,1.34,0,2.69,0,4,0,.31.08.42.4.42q2.16,0,4.32,0c.36,0,.43-.12.43-.45,0-1.52,0-3,0-4.56,0-.37.11-.46.47-.46,1.18,0,1.18,0,1.18,1.15Z"/><path class="cls-1" d="M75.41,15.9c0-2,0-3.91,0-5.87,0-.34.07-.48.45-.47,1.29,0,2.59,0,3.88,0a3.48,3.48,0,0,1,3.54,3.54,4.83,4.83,0,0,1-.49,2.54,3.54,3.54,0,0,1-3.24,1.67q-1,0-2,0c-.36,0-.48.09-.47.46,0,1.35,0,2.69,0,4,0,.37-.08.5-.48.5-1.16,0-1.16,0-1.16-1.16Zm1.64-2.51c0,.71,0,1.42,0,2.13,0,.25,0,.4.34.39.83,0,1.65,0,2.47,0a1.74,1.74,0,0,0,1.51-1,3.23,3.23,0,0,0,.23-2.18,2,2,0,0,0-2.21-1.79c-.62,0-1.23,0-1.85,0-.36,0-.51.07-.49.48C77.07,12.07,77.05,12.73,77.05,13.39Z"/><path class="cls-1" d="M123.69,22.3a2.54,2.54,0,0,0-.39,0c-.35.06-.48-.12-.57-.43-.23-.84-.49-1.67-.73-2.51a.44.44,0,0,0-.5-.38c-1.18,0-2.37,0-3.55,0-.33,0-.43.13-.51.42-.24.86-.52,1.7-.75,2.56a.39.39,0,0,1-.43.34c-1.36.06-1.36.06-.94-1.23q1.77-5.49,3.52-11c.13-.41.31-.61.74-.54a.86.86,0,0,0,.39,0c.4-.07.52.16.62.49.88,2.77,1.78,5.54,2.67,8.3.37,1.14.73,2.28,1.1,3.41.17.54.17.54-.38.54Zm-4-10.48c-.58,1.92-1.12,3.71-1.65,5.49-.07.22.06.25.23.25h2.86c.22,0,.28-.07.2-.29-.12-.37-.21-.74-.32-1.11C120.61,14.76,120.19,13.36,119.72,11.82Z"/><path class="cls-1" d="M72.84,22.3c-.93,0-.75.17-1-.76-.22-.73-.45-1.45-.66-2.18a.43.43,0,0,0-.5-.38c-1.18,0-2.37,0-3.55,0a.43.43,0,0,0-.5.38c-.25.88-.52,1.76-.78,2.64,0,.13,0,.29-.21.29a9.4,9.4,0,0,1-1.3,0c-.29,0-.12-.27-.08-.42l1.17-3.64c.88-2.72,1.76-5.44,2.62-8.16.12-.37.26-.52.67-.5.89,0,.89,0,1.17.86L73.5,21.71c.19.59.2.59-.42.59ZM68.92,12h-.1q-.76,2.56-1.54,5.14a.89.89,0,0,1,0,.14c-.11.24,0,.3.23.3h2.76c.3,0,.35-.09.26-.37-.23-.71-.42-1.43-.63-2.13C69.56,14,69.24,13,68.92,12Z"/><path class="cls-1" d="M94.17,15.92A12.15,12.15,0,0,1,94.35,13a4.12,4.12,0,0,1,3.1-3.53,3.85,3.85,0,0,1,5,3.91c0,.17,0,.25-.19.24h-.1a3.14,3.14,0,0,1-1.15,0c-.39-.17-.22-.69-.31-1-.31-1.19-.8-1.68-1.91-1.82a2.42,2.42,0,0,0-2.45,1.31,4.48,4.48,0,0,0-.51,2,28.2,28.2,0,0,0,.08,4.31A3.17,3.17,0,0,0,97,20.64a2.55,2.55,0,0,0,2.58.25,2.1,2.1,0,0,0,1.2-1.91c.12-.75.1-.75.83-.75h.05c.93,0,.92,0,.74.92a3.61,3.61,0,0,1-2.92,3.22,4.1,4.1,0,0,1-5.1-3.51A13.75,13.75,0,0,1,94.17,15.92Z"/><path class="cls-1" d="M56.29,16a11.86,11.86,0,0,0,.2,3.09,2.46,2.46,0,0,0,3.18,2,2.13,2.13,0,0,0,1.55-2.2c0-.52.23-.66.68-.59a1.93,1.93,0,0,0,.34,0c.71,0,.75,0,.63.74-.29,1.59-1,2.88-2.69,3.33A4.06,4.06,0,0,1,54.85,19a16.3,16.3,0,0,1,0-6.07,3.93,3.93,0,0,1,3.31-3.43c2.75-.45,4.54,1.07,4.73,3.84,0,.27-.06.36-.35.37-1.18.05-1.18.06-1.39-1a2,2,0,0,0-1.82-1.85A2.45,2.45,0,0,0,56.84,12a4.51,4.51,0,0,0-.54,2.09C56.27,14.71,56.29,15.34,56.29,16Z"/><path class="cls-1" d="M50.19,18c-.76,0-1.52,0-2.28,0-.27,0-.38.08-.35.36a3.43,3.43,0,0,0,.55,2,2.45,2.45,0,0,0,3.48.07c.14-.13.24-.5.56-.19.62.61.68.78.32,1.13a3.94,3.94,0,0,1-4.19.83,3.19,3.19,0,0,1-2.18-3,10.51,10.51,0,0,1,.1-3.75,3.22,3.22,0,0,1,2.33-2.71c2.27-.54,4,.4,4.25,3.08a12.6,12.6,0,0,1,.1,1.74c0,.31-.08.42-.41.41C51.71,18,51,18,50.19,18Zm-.79-1.35h.68c1.35,0,1.35,0,1.06-1.34A1.56,1.56,0,0,0,49.62,14,1.68,1.68,0,0,0,47.89,15a5.83,5.83,0,0,0-.31,1.36c0,.27.12.29.32.29Z"/><path class="cls-1" d="M87.85,16.59c0-1.73,0-3.46,0-5.19,0-.36-.08-.48-.45-.47-.81,0-1.62,0-2.43,0-.32,0-.45-.06-.45-.42,0-.95,0-.95.94-.95,2.28,0,4.56,0,6.84,0,.41,0,.52.11.51.52,0,.86,0,.86-.88.86-.63,0-1.26,0-1.89,0-.44,0-.58.09-.57.55,0,3.4,0,6.79,0,10.19,0,.63,0,.63-.62.63-1,0-1,0-1-1Z"/><path class="cls-1" d="M42.69,13.55a1.88,1.88,0,0,1,1.8-.88c.32,0,.49.13.44.47v.1c0,.3.09.68,0,.9s-.56.06-.86.09a1.62,1.62,0,0,0-1.43,1.57c0,2,0,4,0,6,0,.38-.09.5-.48.5-1.08,0-1.08,0-1.08-1.1,0-2.63,0-5.27,0-7.9,0-.41.11-.56.51-.51a5.52,5.52,0,0,1,.82,0C42.69,12.92,42.39,13.35,42.69,13.55Z"/></g></g></svg>