<svg xmlns="http://www.w3.org/2000/svg" xmlns:xlink="http://www.w3.org/1999/xlink" viewBox="0 0 36 35.99"><defs><style>.cls-1{fill:url(#linear-gradient);}.cls-2{fill:url(#linear-gradient-2);}</style><linearGradient id="linear-gradient" y1="17.99" x2="36" y2="17.99" gradientUnits="userSpaceOnUse"><stop offset="0" stop-color="#d23274"/><stop offset="1" stop-color="#f24a37"/></linearGradient><linearGradient id="linear-gradient-2" x1="9.19" y1="18" x2="26.81" y2="18" xlink:href="#linear-gradient"/></defs><title>Asset 41@web</title><g id="Layer_2" data-name="Layer 2"><g id="Isolation_Mode" data-name="Isolation Mode"><path class="cls-1" d="M35.84,15.61A18,18,0,0,0,.16,20.39,18,18,0,0,0,18,36,18,18,0,0,0,35.84,15.61ZM30.15,27.28A15.29,15.29,0,1,1,5.85,8.72,15.12,15.12,0,0,1,16,2.85,14.36,14.36,0,0,1,18,2.71,15.29,15.29,0,0,1,33.15,16,15.15,15.15,0,0,1,30.15,27.28Z"/><path class="cls-2" d="M26.35,24.2a1.52,1.52,0,0,1,.46,1.08,1.47,1.47,0,0,1-.46,1.08,1.56,1.56,0,0,1-2.16,0L18,20.16l-6.2,6.2a1.52,1.52,0,0,1-1.09.45,1.57,1.57,0,0,1-1.08-.45,1.53,1.53,0,0,1,0-2.16l6.2-6.2-6.2-6.2A1.53,1.53,0,1,1,11.8,9.64L18,15.83l6.19-6.19a1.55,1.55,0,0,1,1.08-.45h0a1.56,1.56,0,0,1,1.08.45,1.51,1.51,0,0,1,.45,1.08,1.48,1.48,0,0,1-.46,1.08L20.16,18Z"/></g></g></svg>