<svg xmlns="http://www.w3.org/2000/svg" viewBox="0 0 42 42"><defs><style>.cls-1{fill:#fff;}</style></defs><title>0_Logo_White@web</title><g id="Layer_2" data-name="Layer 2"><g id="Layer_1-2" data-name="Layer 1"><path class="cls-1" d="M9.78,6a11.34,11.34,0,0,1,3.41.62,23.08,23.08,0,0,1,4.16,1.85,41.78,41.78,0,0,1,9.11,7,45.32,45.32,0,0,1,5.16,6.11,30,30,0,0,1,3.24,5.84A13.21,13.21,0,0,1,36,32.23,3.81,3.81,0,0,1,35,35a3.82,3.82,0,0,1-2.8.94,11.34,11.34,0,0,1-3.41-.62,23.08,23.08,0,0,1-4.16-1.85,41.78,41.78,0,0,1-9.11-7,45.32,45.32,0,0,1-5.16-6.11,30,30,0,0,1-3.24-5.84A13.21,13.21,0,0,1,6,9.77,3.81,3.81,0,0,1,7,7,3.82,3.82,0,0,1,9.78,6h0m0-1.17A5,5,0,0,0,6.15,6.15c-3.47,3.48.36,12.94,8.56,21.14,6.14,6.15,13,9.84,17.51,9.84a5,5,0,0,0,3.63-1.28c3.47-3.48-.36-12.94-8.56-21.14-6.14-6.15-13-9.84-17.51-9.84Z"/><path class="cls-1" d="M32.23,4.87V6A3.81,3.81,0,0,1,35,7,3.81,3.81,0,0,1,36,9.77a13.21,13.21,0,0,1-1.1,4.74,30,30,0,0,1-3.24,5.84,45.32,45.32,0,0,1-5.16,6.11,41.78,41.78,0,0,1-9.11,7,23.08,23.08,0,0,1-4.16,1.85A11.34,11.34,0,0,1,9.78,36,3.82,3.82,0,0,1,7,35,3.81,3.81,0,0,1,6,32.23a13.21,13.21,0,0,1,1.1-4.74,30,30,0,0,1,3.24-5.84,45.32,45.32,0,0,1,5.16-6.11,41.78,41.78,0,0,1,9.11-7,23.08,23.08,0,0,1,4.16-1.85A11.34,11.34,0,0,1,32.22,6V4.87m0,0c-4.51,0-11.37,3.69-17.51,9.84-8.2,8.2-12,17.66-8.56,21.14a5,5,0,0,0,3.63,1.28c4.51,0,11.37-3.69,17.51-9.84,8.2-8.2,12-17.66,8.56-21.14a5,5,0,0,0-3.63-1.28Z"/><path class="cls-1" d="M21,13.27A45.48,45.48,0,0,1,29,14a30.31,30.31,0,0,1,6.42,1.84,13,13,0,0,1,4.13,2.57A3.81,3.81,0,0,1,40.83,21a3.81,3.81,0,0,1-1.31,2.64,13,13,0,0,1-4.13,2.57A30.31,30.31,0,0,1,29,28.05a45.48,45.48,0,0,1-8,.68,45.48,45.48,0,0,1-8-.68,30.31,30.31,0,0,1-6.42-1.84,13,13,0,0,1-4.13-2.57A3.81,3.81,0,0,1,1.17,21a3.81,3.81,0,0,1,1.31-2.64,13,13,0,0,1,4.13-2.57A30.31,30.31,0,0,1,13,14a45.48,45.48,0,0,1,8-.68m0-1.17c-11.6,0-21,4-21,8.9s9.4,8.9,21,8.9,21-4,21-8.9-9.4-8.9-21-8.9Z"/><path class="cls-1" d="M21,1.17a3.81,3.81,0,0,1,2.64,1.31,13,13,0,0,1,2.57,4.13A30.31,30.31,0,0,1,28.05,13a45.48,45.48,0,0,1,.68,8,45.48,45.48,0,0,1-.68,8,30.31,30.31,0,0,1-1.84,6.42,13,13,0,0,1-2.57,4.13A3.81,3.81,0,0,1,21,40.83a3.81,3.81,0,0,1-2.64-1.31,13,13,0,0,1-2.57-4.13A30.31,30.31,0,0,1,14,29a45.48,45.48,0,0,1-.68-8A45.48,45.48,0,0,1,14,13a30.31,30.31,0,0,1,1.84-6.42,13,13,0,0,1,2.57-4.13A3.81,3.81,0,0,1,21,1.17M21,0c-4.92,0-8.9,9.4-8.9,21s4,21,8.9,21,8.9-9.4,8.9-21S25.92,0,21,0Z"/><path class="cls-1" d="M21,15.74c-2.22,0-4.62.55-4.62,1.76v7c0,1.21,2.4,1.77,4.61,1.77h.06A14,14,0,0,0,23,26.1c1.67-.27,2.63-.86,2.63-1.61v-7C25.62,16.29,23.22,15.74,21,15.74Zm3.37,8.74a3,3,0,0,1-1.61.57,10.36,10.36,0,0,1-1.76.14c-2.1,0-3.21-.5-3.37-.71V23.41a10.38,10.38,0,0,0,3.37.5,10.38,10.38,0,0,0,3.37-.5Zm-6.74-5.72a10.37,10.37,0,0,0,3.37.51,10.37,10.37,0,0,0,3.37-.51v1c-.16.21-1.26.71-3.37.71s-3.21-.5-3.37-.71Zm0,3.38V21.08a10.11,10.11,0,0,0,3.37.51,10.11,10.11,0,0,0,3.37-.51v1.06c-.16.21-1.26.71-3.37.71S17.79,22.35,17.63,22.14ZM21,16.81c2.06,0,3.19.48,3.35.69-.16.22-1.29.7-3.35.7s-3.18-.48-3.34-.7C17.82,17.29,19,16.81,21,16.81Z"/><circle class="cls-1" cx="9.37" cy="32.42" r="1.17"/><circle class="cls-1" cx="32.63" cy="32.42" r="1.17"/><circle class="cls-1" cx="9.37" cy="9.58" r="1.17"/><circle class="cls-1" cx="32.63" cy="9.58" r="1.17"/></g></g></svg>