<svg width="488" height="470" viewBox="0 0 488 470" fill="none" xmlns="http://www.w3.org/2000/svg">
   <style>
      .float {
      animation: floatAnim2 4s ease-in-out infinite;
      }
      .bluranim{
      	animation: blur22 3s ease infinite;
      }
      @keyframes blur22 {
      0% {
      opacity: 1;
      }
      50% {
      opacity:0.3;
      }
      100% {
      opacity: 1;
      }
      }
      .floatInverse {
      animation: floatAnim1 1s ease-in-out infinite;
      }
      .floatHorz{
      animation: floatAnim3 2s ease-in-out infinite;
      }
      .floatHorzInverse {
      animation: floatAnim4 3s ease-in-out infinite;
      }
      @keyframes floatAnim2 {
      0% {
      transform: translate(0vh,0vh);
      }
      50% {
      transform: translate(0vh,1.2vh);
      }
      100% {
      transform: translate(0vh,0vh);
      }
      }
      @keyframes floatAnim3 {
      0% {
      transform: translate(0vh,0vh);
      }
      50% {
      transform: translate(2.3vw,0vw);
      }
      100% {
      transform: translate(0vh,0vh);
      }
      }
      @keyframes floatAnim4 {
      0% {
      transform: translate(0vh,0vh);
      }
      50% {
      transform: translate(-3.4vw,0vw);
      }
      100% {
      transform: translate(0vh,0vh);
      }
      }
      @keyframes floatAnim1 {
      0% {
      transform: translate(0vh,0vh);
      }
      50% {
      transform: translate(0vh,-1.6vh);
      }
      100% {
      transform: translate(0vh,0vh);
      }
      }
      .translate-from-right
      {
      animation: transFromRight 1.2s ease-in-out ;
      opacity: 1;
      }
      .translate-from-left
      {
      animation: transFromLeft 1.2s ease-in-out ;
      opacity: 1;
      }  
      .translate-from-bottom
      {
      animation: transFromBottom 1.2s ease-in-out ;
      opacity: 1;
      }  
      .translate-from-top
      {
      animation: transFromTop 1.2s ease-in-out ;
      opacity: 1;
      }  
      .translate-from-top-Float
      {
      animation: transFromTop 1.2s ease-in-out ,  floatAnim1 4s ease-in-out infinite 1.2s;
      opacity: 1;
      }  
      .translate-from-top-FloatInverse
      {
      animation: transFromTop 1.2s ease-in-out ,  floatAnim2 3s ease-in-out infinite 1.2s;
      opacity: 1;
      } 
      @keyframes transFromBottom {
      0% {
      transform: translate(0vh,16vh);
      opacity: 0;
      }
      100% {
      transform: translate(0vh,0vh);
      opacity: 1;
      }
      }
      @keyframes transFromTop {
      0% {
      transform: translate(0vh,-16vh);
      opacity: 0;
      }
      100% {
      transform: translate(0vh,0vh);
      opacity: 1;
      }
      }
      @keyframes transFromRight {
      0% {
      transform: translate(16vh,0vh);
      opacity: 0;
      }
      100% {
      transform: translate(0vh,0vh);
      opacity: 1;
      }
      }
      @keyframes transFromLeft {
      0% {
      transform: translate(-16vh,0vh);
      opacity: 0;
      }
      100% {
      transform: translate(0vh,0vh);
      opacity: 1;
      }
      }
      }
   </style>
   <g id="Layer 1 (1) 1" clip-path="url(#clip0)">
      <path id="Vector" d="M459.63 235.51C459.633 244.593 459.072 253.667 457.95 262.68C457.397 267.173 456.71 271.62 455.89 276.02C455.76 276.67 455.64 277.32 455.51 277.96C454.843 281.22 454.137 284.45 453.39 287.65C449.754 302.528 444.558 316.981 437.89 330.77C433.462 339.95 428.397 348.808 422.73 357.28C422.22 358.03 421.73 358.78 421.2 359.53C420.67 360.28 420.09 361.13 419.52 361.93C414.358 369.235 408.751 376.215 402.73 382.83C400.51 385.28 398.24 387.66 395.92 390C391.92 394.04 387.747 397.927 383.4 401.66L383.28 401.77L380.92 403.77C377.67 406.49 374.32 409.12 370.92 411.64L370.69 411.8C354.025 424.169 335.68 434.096 316.21 441.28C314.61 441.86 313.007 442.423 311.4 442.97C302.941 445.867 294.311 448.238 285.56 450.07C281.293 450.97 276.977 451.737 272.61 452.37C261.946 453.947 251.18 454.736 240.4 454.73C234.773 454.73 229.19 454.52 223.65 454.1C221.43 453.94 219.2 453.73 216.99 453.5C209.983 452.76 203.08 451.69 196.28 450.29L195.28 450.09L194.14 449.85L193.32 449.67L190.99 449.15C176.086 445.706 161.586 440.702 147.73 434.22L145.88 433.35C142.04 431.51 138.267 429.567 134.56 427.52C133.86 427.13 133.17 426.73 132.47 426.35C125.722 422.51 119.177 418.325 112.86 413.81C107.96 410.29 103.21 406.577 98.61 402.67C92.1876 397.219 86.0842 391.402 80.33 385.25L78.62 383.4C75.84 380.36 73.1467 377.243 70.54 374.05C69 372.15 67.48 370.24 66 368.3C64.52 366.3 63 364.3 61.6 362.3C58.08 357.353 54.77 352.25 51.67 346.99C50.96 345.8 50.27 344.6 49.59 343.4C48.5 341.48 47.44 339.56 46.41 337.6L45.5 335.85C43.98 332.85 42.5 329.85 41.11 326.85C39.72 323.85 38.13 320.3 36.81 317C35.71 314.26 34.66 311.48 33.67 308.68C21.9178 275.373 18.3729 239.724 23.3361 204.755C28.2993 169.786 41.6241 136.531 62.18 107.81C66.2667 102.097 70.6 96.6067 75.18 91.34C76.94 89.34 78.74 87.34 80.58 85.34C83.8867 81.9 87.27 78.5533 90.73 75.3C92.73 73.42 94.78 71.5733 96.88 69.76C102.147 65.1867 107.637 60.8733 113.35 56.82C122.627 50.2043 132.407 44.3231 142.6 39.23C146.96 37.0633 151.39 35.0367 155.89 33.15L157.84 32.36C158.23 32.2 158.64 32.03 159.05 31.88C160.78 31.18 162.53 30.51 164.29 29.88C165.9 29.29 167.53 28.71 169.16 28.16C169.79 27.93 170.42 27.72 171.05 27.52C172.77 26.94 174.49 26.38 176.23 25.86L178.92 25.05C180.87 24.48 182.85 23.94 184.83 23.42L186.04 23.11C193.201 21.2808 200.45 19.8189 207.76 18.73C218.559 17.1262 229.462 16.3207 240.38 16.32C281.619 16.304 322.026 27.9193 356.961 49.8321C391.896 71.7449 419.943 103.066 437.88 140.2C438.853 142.2 439.79 144.22 440.69 146.26C441.737 148.6 442.737 150.967 443.69 153.36L444.07 154.28C444.63 155.66 445.17 157.05 445.69 158.46C445.719 158.521 445.743 158.585 445.76 158.65C446.52 160.65 447.24 162.65 447.92 164.72C449.12 168.2 450.227 171.717 451.24 175.27C451.24 175.27 451.24 175.33 451.24 175.36C452.033 178.133 452.767 180.93 453.44 183.75C456.439 196.166 458.347 208.821 459.14 221.57C459.48 226.21 459.63 230.85 459.63 235.51Z" fill="url(#paint0_linear)"/>
      <path id="Vector_2" d="M247.32 134.56C247.32 134.758 247.261 134.951 247.151 135.116C247.042 135.28 246.885 135.408 246.703 135.484C246.52 135.56 246.319 135.579 246.125 135.541C245.931 135.502 245.753 135.407 245.613 135.267C245.473 135.127 245.378 134.949 245.339 134.755C245.301 134.561 245.32 134.36 245.396 134.177C245.472 133.995 245.6 133.838 245.764 133.729C245.929 133.619 246.122 133.56 246.32 133.56C246.585 133.56 246.84 133.665 247.027 133.853C247.215 134.04 247.32 134.295 247.32 134.56Z" fill="#FF6224"/>
      <path id="Vector_3" d="M240.73 134.56C240.77 134.708 240.776 134.864 240.746 135.015C240.717 135.166 240.653 135.308 240.559 135.43C240.466 135.552 240.346 135.651 240.208 135.719C240.07 135.787 239.919 135.822 239.765 135.822C239.611 135.822 239.46 135.787 239.322 135.719C239.184 135.651 239.064 135.552 238.971 135.43C238.877 135.308 238.813 135.166 238.784 135.015C238.754 134.864 238.76 134.708 238.8 134.56C238.858 134.348 238.983 134.161 239.158 134.028C239.332 133.894 239.545 133.822 239.765 133.822C239.985 133.822 240.198 133.894 240.372 134.028C240.547 134.161 240.672 134.348 240.73 134.56Z" fill="#FF6224"/>
      <path id="Vector_4" d="M234.07 134.56C234.07 134.758 234.011 134.951 233.901 135.116C233.792 135.28 233.635 135.408 233.453 135.484C233.27 135.56 233.069 135.579 232.875 135.541C232.681 135.502 232.503 135.407 232.363 135.267C232.223 135.127 232.128 134.949 232.089 134.755C232.051 134.561 232.07 134.36 232.146 134.177C232.222 133.995 232.35 133.838 232.514 133.729C232.679 133.619 232.872 133.56 233.07 133.56C233.335 133.56 233.59 133.665 233.777 133.853C233.965 134.04 234.07 134.295 234.07 134.56Z" fill="#FF6224"/>
      <path id="Vector_5" d="M200.03 164.45H171.41C171.058 164.447 170.721 164.306 170.472 164.058C170.224 163.809 170.083 163.472 170.08 163.12C170.083 162.769 170.224 162.433 170.473 162.186C170.722 161.939 171.059 161.8 171.41 161.8H200.03C200.38 161.8 200.716 161.939 200.963 162.187C201.211 162.434 201.35 162.77 201.35 163.12C201.35 163.471 201.211 163.808 200.964 164.057C200.717 164.306 200.381 164.447 200.03 164.45Z" fill="#FF6224"/>
      <g class="translate-from-top-Float " id="FloatIcon-3">
         <path id="Vector_6"  d="M118.82 131.43H251.82C252.366 131.43 252.89 131.647 253.277 132.033C253.663 132.42 253.88 132.944 253.88 133.49V137.7H116.73V133.49C116.73 132.944 116.947 132.42 117.333 132.033C117.72 131.647 118.244 131.43 118.79 131.43H118.82Z" fill="white"/>
         <path id="Vector_7" d="M115.54 136.47H252.68V205.76C252.68 206.776 252.276 207.75 251.558 208.468C250.84 209.186 249.866 209.59 248.85 209.59H119.36C118.344 209.59 117.37 209.186 116.652 208.468C115.934 207.75 115.53 206.776 115.53 205.76V136.47H115.54Z" fill="#B70F5B"/>
         <path id="Vector_8" class="bluranim" d="M200.03 147.58H123.87C123.519 147.577 123.183 147.436 122.936 147.187C122.689 146.938 122.55 146.601 122.55 146.25C122.55 145.9 122.689 145.564 122.937 145.317C123.184 145.069 123.52 144.93 123.87 144.93H200.03C200.38 144.93 200.716 145.069 200.963 145.317C201.211 145.564 201.35 145.9 201.35 146.25C201.35 146.601 201.211 146.938 200.964 147.187C200.717 147.436 200.381 147.577 200.03 147.58Z" fill="#FF9750"/>
         <path id="Vector_9" class="bluranim" d="M200.03 156H123.87C123.52 156 123.184 155.861 122.937 155.613C122.689 155.366 122.55 155.03 122.55 154.68C122.549 154.506 122.582 154.333 122.648 154.172C122.713 154.01 122.81 153.864 122.933 153.74C123.056 153.617 123.202 153.518 123.363 153.451C123.523 153.384 123.696 153.35 123.87 153.35H200.03C200.204 153.35 200.377 153.384 200.537 153.451C200.698 153.518 200.844 153.617 200.967 153.74C201.09 153.864 201.187 154.01 201.252 154.172C201.318 154.333 201.351 154.506 201.35 154.68C201.35 155.03 201.211 155.366 200.963 155.613C200.716 155.861 200.38 156 200.03 156Z" fill="#FF9750"/>
         <path id="Vector_10" class="bluranim" d="M163.73 164.45H123.87C123.519 164.447 123.183 164.306 122.936 164.057C122.689 163.808 122.55 163.471 122.55 163.12C122.55 162.77 122.689 162.434 122.937 162.187C123.184 161.939 123.52 161.8 123.87 161.8H163.73C164.08 161.8 164.416 161.939 164.663 162.187C164.911 162.434 165.05 162.77 165.05 163.12C165.05 163.471 164.911 163.808 164.664 164.057C164.417 164.306 164.081 164.447 163.73 164.45Z" fill="#FF9750"/>
         <path id="Vector_11" class="bluranim" d="M200.03 181.32H123.87C123.519 181.317 123.183 181.176 122.936 180.927C122.689 180.678 122.55 180.341 122.55 179.99C122.55 179.64 122.689 179.304 122.937 179.057C123.184 178.809 123.52 178.67 123.87 178.67H200.03C200.38 178.67 200.716 178.809 200.963 179.057C201.211 179.304 201.35 179.64 201.35 179.99C201.35 180.341 201.211 180.678 200.964 180.927C200.717 181.176 200.381 181.317 200.03 181.32Z" fill="#FF6224"/>
         <path id="Vector_12" class="bluranim" d="M163.73 189.75H123.87C123.52 189.75 123.184 189.611 122.937 189.363C122.689 189.116 122.55 188.78 122.55 188.43C122.549 188.256 122.582 188.083 122.648 187.922C122.713 187.76 122.81 187.614 122.933 187.49C123.056 187.367 123.202 187.268 123.363 187.201C123.523 187.134 123.696 187.1 123.87 187.1H163.73C163.904 187.1 164.077 187.134 164.237 187.201C164.398 187.268 164.544 187.367 164.667 187.49C164.79 187.614 164.887 187.76 164.952 187.922C165.018 188.083 165.051 188.256 165.05 188.43C165.05 188.78 164.911 189.116 164.663 189.363C164.416 189.611 164.08 189.75 163.73 189.75Z" fill="#FF6224"/>
         <path id="Vector_13" class="bluranim" d="M163.73 198.19H123.87C123.519 198.187 123.183 198.046 122.936 197.797C122.689 197.548 122.55 197.211 122.55 196.86C122.55 196.51 122.689 196.174 122.937 195.927C123.184 195.679 123.52 195.54 123.87 195.54H163.73C164.08 195.54 164.416 195.679 164.663 195.927C164.911 196.174 165.05 196.51 165.05 196.86C165.05 197.211 164.911 197.548 164.664 197.797C164.417 198.046 164.081 198.187 163.73 198.19Z" fill="#FF9750"/>
         <path id="Vector_14" class="bluranim" opacity="0.18" d="M245.3 180.67C245.3 184.288 244.227 187.824 242.217 190.832C240.207 193.84 237.35 196.185 234.007 197.569C230.664 198.953 226.986 199.314 223.438 198.608C219.89 197.901 216.631 196.158 214.073 193.599C211.516 191.041 209.775 187.781 209.07 184.232C208.366 180.684 208.729 177.006 210.115 173.664C211.501 170.322 213.847 167.466 216.856 165.458C219.865 163.449 223.402 162.378 227.02 162.38C229.421 162.38 231.799 162.853 234.018 163.772C236.236 164.692 238.252 166.039 239.949 167.738C241.647 169.436 242.993 171.452 243.911 173.671C244.829 175.89 245.301 178.269 245.3 180.67Z" fill="#FF6224"/>
         <path id="Vector_15" class="bluranim" d="M218 176.05C217.987 174.567 218.182 173.089 218.58 171.66C218.947 170.363 219.577 169.154 220.43 168.11C221.285 167.08 222.362 166.256 223.58 165.7C225.004 165.08 226.547 164.78 228.1 164.82C229.6 164.82 230.57 164.46 231.02 163.75C231.517 162.796 231.745 161.724 231.68 160.65C231.676 160.237 231.633 159.825 231.55 159.42C231.459 158.956 231.308 158.505 231.1 158.08C230.882 157.659 230.571 157.293 230.19 157.01C229.747 156.716 229.222 156.569 228.69 156.59H213.24C213.167 156.6 213.092 156.593 213.022 156.569C212.952 156.545 212.889 156.506 212.836 156.454C212.784 156.401 212.745 156.338 212.721 156.268C212.697 156.198 212.69 156.123 212.7 156.05V150.17C212.69 150.097 212.697 150.023 212.72 149.953C212.744 149.883 212.784 149.82 212.836 149.769C212.889 149.717 212.953 149.679 213.023 149.656C213.093 149.634 213.167 149.628 213.24 149.64H230.4C231.8 149.599 233.184 149.945 234.4 150.64C235.512 151.304 236.47 152.197 237.21 153.26C237.975 154.365 238.537 155.598 238.87 156.9C239.218 158.225 239.396 159.59 239.4 160.96C239.553 163.819 238.774 166.651 237.18 169.03C235.7 171.03 233.287 172.03 229.94 172.03C229.209 172.011 228.479 172.092 227.77 172.27C227.287 172.388 226.851 172.649 226.52 173.02C226.224 173.382 226.021 173.811 225.93 174.27C225.814 174.853 225.76 175.446 225.77 176.04V178.71C225.78 178.783 225.773 178.858 225.749 178.928C225.725 178.998 225.686 179.061 225.634 179.114C225.581 179.166 225.518 179.205 225.448 179.229C225.378 179.253 225.303 179.26 225.23 179.25H218.53C218.457 179.26 218.383 179.253 218.313 179.23C218.243 179.206 218.18 179.166 218.129 179.114C218.077 179.061 218.039 178.997 218.016 178.927C217.994 178.857 217.988 178.783 218 178.71V176.05Z" fill="#FFBC8F"/>
         <path id="Vector_16" class="bluranim" d="M218.53 182.48H225.21C225.353 182.48 225.491 182.537 225.592 182.638C225.693 182.739 225.75 182.877 225.75 183.02V189.22C225.75 189.361 225.694 189.495 225.595 189.595C225.495 189.694 225.361 189.75 225.22 189.75H218.53C218.389 189.75 218.255 189.694 218.155 189.595C218.056 189.495 218 189.361 218 189.22V183C218.003 182.861 218.06 182.729 218.159 182.632C218.258 182.534 218.391 182.48 218.53 182.48Z" fill="#FFBC8F"/>
         <path id="Vector_17" class="bluranim" d="M116.76 203.41V227.54L138.94 205.37L116.76 203.41Z" fill="#B70F5B"/>
      </g>
      <path id="Vector_18" opacity="0.5" d="M418.87 162.55H338.73C338.03 162.55 337.358 162.272 336.863 161.777C336.368 161.282 336.09 160.61 336.09 159.91C336.09 159.209 336.368 158.536 336.863 158.04C337.357 157.543 338.029 157.263 338.73 157.26H418.91C419.613 157.26 420.287 157.539 420.784 158.036C421.281 158.533 421.56 159.207 421.56 159.91C421.559 160.261 421.488 160.607 421.352 160.93C421.215 161.253 421.016 161.546 420.766 161.792C420.516 162.037 420.22 162.231 419.894 162.361C419.569 162.491 419.221 162.555 418.87 162.55Z" fill="#FF6224"/>
      <g  class="floatHorz" id="FloatIcon-4">
         <path id="Vector_19" opacity="0.5" d="M390.24 174.06H338.73C338.029 174.057 337.357 173.777 336.863 173.28C336.368 172.784 336.09 172.111 336.09 171.41C336.09 170.709 336.368 170.036 336.863 169.54C337.357 169.043 338.029 168.763 338.73 168.76H390.28C390.983 168.76 391.657 169.039 392.154 169.536C392.651 170.033 392.93 170.707 392.93 171.41C392.93 171.761 392.86 172.109 392.725 172.433C392.589 172.758 392.39 173.052 392.14 173.298C391.889 173.545 391.593 173.739 391.266 173.87C390.94 174.001 390.591 174.065 390.24 174.06Z" fill="#FF9750"/>
         <path id="Vector_20" opacity="0.5" d="M390.24 186.41H338.73C338.029 186.407 337.357 186.127 336.863 185.63C336.368 185.134 336.09 184.461 336.09 183.76C336.09 183.059 336.368 182.386 336.863 181.89C337.357 181.393 338.029 181.113 338.73 181.11H390.28C390.983 181.11 391.657 181.389 392.154 181.886C392.651 182.383 392.93 183.057 392.93 183.76C392.93 184.111 392.86 184.459 392.725 184.783C392.589 185.108 392.39 185.402 392.14 185.648C391.889 185.895 391.593 186.089 391.266 186.22C390.94 186.351 390.591 186.415 390.24 186.41Z" fill="#FF9750"/>
      </g>
      <g class="floatHorzInverse" id="FloatIcon-5">
         <path id="Vector_21" opacity="0.5" d="M102.92 178.58H55.25C54.4544 178.58 53.6913 178.264 53.1287 177.701C52.5661 177.139 52.25 176.376 52.25 175.58C52.25 174.784 52.5661 174.021 53.1287 173.459C53.6913 172.896 54.4544 172.58 55.25 172.58H102.92C103.716 172.58 104.479 172.896 105.041 173.459C105.604 174.021 105.92 174.784 105.92 175.58C105.92 176.376 105.604 177.139 105.041 177.701C104.479 178.264 103.716 178.58 102.92 178.58Z" fill="#FF9750"/>
         <path id="Vector_22" opacity="0.5" d="M84.92 191.75H55.25C54.4544 191.75 53.6913 191.434 53.1287 190.871C52.5661 190.309 52.25 189.546 52.25 188.75C52.25 187.954 52.5661 187.191 53.1287 186.629C53.6913 186.066 54.4544 185.75 55.25 185.75H84.92C85.7157 185.75 86.4787 186.066 87.0413 186.629C87.6039 187.191 87.92 187.954 87.92 188.75C87.92 189.546 87.6039 190.309 87.0413 190.871C86.4787 191.434 85.7157 191.75 84.92 191.75Z" fill="#FF6224"/>
         <path id="Vector_23" opacity="0.5" d="M84.92 205.89H55.25C54.4544 205.89 53.6913 205.574 53.1287 205.011C52.5661 204.449 52.25 203.686 52.25 202.89C52.25 202.094 52.5661 201.331 53.1287 200.769C53.6913 200.206 54.4544 199.89 55.25 199.89H84.92C85.7157 199.89 86.4787 200.206 87.0413 200.769C87.6039 201.331 87.92 202.094 87.92 202.89C87.92 203.686 87.6039 204.449 87.0413 205.011C86.4787 205.574 85.7157 205.89 84.92 205.89Z" fill="#FF6224"/>
      </g>
      <g class="translate-from-bottom" id="ComputerTable">
         <path id="Vector_24" d="M59.22 237H147.04L178.8 298.12H90.98L59.22 237Z" fill="#FF6224"/>
         <path id="Vector_25" d="M223.21 298.12H153.02C151.938 298.12 150.9 298.55 150.135 299.315C149.37 300.08 148.94 301.118 148.94 302.2C148.94 303.282 149.37 304.32 150.135 305.085C150.9 305.85 151.938 306.28 153.02 306.28H223.21C224.292 306.28 225.33 305.85 226.095 305.085C226.86 304.32 227.29 303.282 227.29 302.2C227.29 301.118 226.86 300.08 226.095 299.315C225.33 298.55 224.292 298.12 223.21 298.12Z" fill="#B70F5B"/>
         <path id="Vector_26" d="M122.95 301.93H115.12V303.29H122.95V301.93Z" fill="#FF9750"/>
         <path id="Vector_27" d="M132.79 301.93H124.96V303.29H132.79V301.93Z" fill="#FF9750"/>
         <path id="Vector_28" d="M142.64 301.93H134.81V303.29H142.64V301.93Z" fill="#FF9750"/>
         <path id="Vector_29" d="M318.99 439.88C317.39 440.46 315.787 441.023 314.18 441.57L313.07 440.19L305.19 430.4L293.82 416.24L292.41 414.49L280.25 399.37L279.38 398.3L273.65 391.18L259.65 373.71V373.66L256.51 369.83L237.07 345.65L219.59 323.91L215.84 319.25C215.477 318.751 215.321 318.132 215.403 317.521C215.485 316.909 215.799 316.353 216.28 315.967C216.761 315.581 217.372 315.395 217.987 315.448C218.601 315.501 219.172 315.788 219.58 316.25L225.74 323.92L241.97 344.08L259.59 366L262.67 369.84L263.99 371.48L276.34 386.82L281.54 393.29L286.06 398.92L296.61 412.02L300.01 416.25L308.96 427.39L316.84 437.18L318.99 439.88Z" fill="#E03C03"/>
         <path id="Vector_30" d="M303.32 319.25L299.57 323.91L297.32 326.72L293.93 330.93L277.51 351.33L276.65 352.4L262.65 369.83L259.58 373.66L259.48 373.78L241.35 396.32L239.51 398.6L236.4 402.46L225.29 416.26L213.94 430.4L211.21 433.78L208.13 437.6L206.06 440.17L204.36 442.29L199.06 448.87L198.06 448.67L196.92 448.43L196.1 448.25L193.77 447.73L195.58 445.47L197.46 443.13L202.27 437.13L205 433.74L208.09 429.9L210.15 427.34L219.1 416.2L232.51 399.6L233.62 398.23L234.8 396.76L249.51 378.6L256.51 369.87L259.59 366.03L271.64 351.03L272.35 350.14L292.51 325.04L293.43 323.91L296 320.71L299.59 316.24C299.789 315.994 300.034 315.789 300.312 315.638C300.59 315.486 300.896 315.391 301.21 315.358C301.525 315.324 301.844 315.353 302.147 315.443C302.451 315.532 302.734 315.681 302.98 315.88C303.224 316.079 303.427 316.323 303.576 316.6C303.725 316.877 303.818 317.181 303.85 317.494C303.882 317.807 303.851 318.124 303.76 318.425C303.669 318.726 303.52 319.007 303.32 319.25Z" fill="#FF6224"/>
         <path id="Vector_31" d="M92.75 293.6L66.51 242.99C66.3855 242.747 66.3251 242.476 66.3347 242.204C66.3443 241.931 66.4235 241.665 66.5649 241.432C66.7062 241.198 66.9049 241.005 67.1421 240.87C67.3793 240.734 67.6471 240.662 67.92 240.66H143.92C144.211 240.662 144.496 240.742 144.745 240.894C144.993 241.046 145.195 241.262 145.33 241.52L171.63 292.13C171.755 292.374 171.815 292.645 171.805 292.919C171.795 293.192 171.715 293.459 171.572 293.693C171.43 293.926 171.23 294.12 170.991 294.254C170.753 294.388 170.484 294.459 170.21 294.46H94.21C93.9105 294.468 93.6149 294.391 93.3568 294.239C93.0987 294.087 92.8884 293.866 92.75 293.6Z" fill="#FFB583"/>
         <path id="Vector_32" d="M162.11 298.12H90.98V306.28H162.11V298.12Z" fill="#FF9750"/>
         <path id="Vector_33" d="M90.98 298.12L59.22 237L57.63 238.2C57.1309 238.572 56.7811 239.11 56.6435 239.716C56.506 240.323 56.5899 240.959 56.88 241.51L90.98 306.28V298.12Z" fill="#FF9750"/>
         <path id="Vector_34" d="M213.94 437.17L226.43 452.7C224.21 452.54 221.98 452.33 219.77 452.1L210.19 440.19L208.89 438.58L208.13 437.58L205.04 433.74L202.31 430.36L195.22 421.6L190.22 415.44L182.22 405.49L159.61 377.38L116.61 323.94L112.86 319.28C112.462 318.783 112.278 318.148 112.349 317.515C112.419 316.882 112.738 316.303 113.235 315.905C113.732 315.507 114.367 315.323 115 315.394C115.633 315.464 116.212 315.783 116.61 316.28L122.78 323.95L163.78 374.95L186.51 403.05L188.76 405.84L196.23 415.14H196.28L197.13 416.19L206.13 427.33L208.2 429.89L211.28 433.73L212.69 435.49L213.94 437.17Z" fill="#FF6224"/>
         <path id="Vector_35" d="M147.87 323.91H61.16C59.5263 323.91 57.9594 323.261 56.8042 322.106C55.649 320.951 55 319.384 55 317.75C55.0027 316.118 55.6528 314.554 56.8078 313.401C57.9627 312.248 59.528 311.6 61.16 311.6H147.87C149.504 311.6 151.071 312.249 152.226 313.404C153.381 314.559 154.03 316.126 154.03 317.76C154.027 319.392 153.377 320.956 152.222 322.109C151.067 323.262 149.502 323.91 147.87 323.91Z" fill="#FF9750"/>
         <path id="Vector_36" d="M397.37 323.91H149.51C147.876 323.91 146.309 323.261 145.154 322.106C143.999 320.951 143.35 319.384 143.35 317.75C143.353 316.118 144.003 314.554 145.158 313.401C146.313 312.248 147.878 311.6 149.51 311.6H397.37V323.91Z" fill="#FF6224"/>
      </g>
      <path id="Vector_37" d="M212.08 435.18C212.08 436.511 211.685 437.812 210.946 438.919C210.206 440.026 209.155 440.888 207.925 441.398C206.696 441.907 205.343 442.04 204.037 441.781C202.732 441.521 201.532 440.88 200.591 439.939C199.65 438.998 199.009 437.798 198.749 436.493C198.49 435.187 198.623 433.834 199.132 432.605C199.642 431.375 200.504 430.324 201.611 429.584C202.718 428.845 204.019 428.45 205.35 428.45C207.135 428.45 208.847 429.159 210.109 430.421C211.371 431.683 212.08 433.395 212.08 435.18Z" fill="#E03C03"/>
      <path id="Vector_38" d="M314.95 435.18C314.95 436.511 314.555 437.812 313.816 438.919C313.076 440.026 312.025 440.888 310.795 441.398C309.566 441.907 308.213 442.04 306.907 441.781C305.602 441.521 304.402 440.88 303.461 439.939C302.52 438.998 301.879 437.798 301.619 436.493C301.36 435.187 301.493 433.834 302.002 432.605C302.512 431.375 303.374 430.324 304.481 429.584C305.588 428.845 306.889 428.45 308.22 428.45C310.005 428.45 311.717 429.159 312.979 430.421C314.241 431.683 314.95 433.395 314.95 435.18Z" fill="#FFC947"/>
      <g id="Group" style="mix-blend-mode:overlay" opacity="0.25">
         <g id="Vector_39" style="mix-blend-mode:overlay" opacity="0.25">
            <path d="M302.33 231.67C297.19 235.18 287.76 235.75 287.76 235.75L280.05 234.62C280.05 234.62 276.83 229.94 278.34 227.32C278.896 226.551 279.571 225.876 280.34 225.32C283.101 223.151 286.065 221.252 289.19 219.65C292.75 217.8 296.42 216.34 299.06 216.18C305.57 215.77 307.48 228.14 302.33 231.67Z" fill="black"/>
         </g>
      </g>
      <g id="Group_2" style="mix-blend-mode:overlay" opacity="0.15">
         <g id="Vector_40" style="mix-blend-mode:overlay" opacity="0.15">
            <path d="M308.81 367.75C308.81 368.89 297.38 395.54 287.81 399.36C286.342 399.863 284.817 400.182 283.27 400.31C281.61 400.52 279.66 400.67 277.49 400.77L275.91 400.82C264.73 401.24 248.73 400.6 236.73 400L230.82 399.66L227.56 399.46C223.16 399.19 220.42 398.99 220.42 398.99L193.42 416.61L191.81 417.66L192.38 422.99L194.73 444.55L195.22 449L195.33 450.09L194.19 449.85L193.37 449.67C193.2 448.76 193.03 447.83 192.85 446.89C190.94 436.44 188.85 425.03 187.49 416.81C186.77 412.61 186.23 409.23 185.97 407.24C185.878 406.647 185.817 406.05 185.79 405.45C185.79 403.95 199.74 399.07 217.51 392.13C226.68 388.56 236.87 384.44 246.69 379.96C250.09 378.4 253.45 376.81 256.69 375.18L256.82 375.11C258.3 374.37 259.753 373.623 261.18 372.87C271.18 367.56 279.91 361.93 285.42 356.21C285.84 355.79 286.23 355.35 286.61 354.92L287.37 355.03C287.62 355.03 287.87 355.12 288.12 355.15L289.59 355.37L290.99 355.57L292.3 355.74C292.87 355.83 293.4 355.89 293.91 355.95L295.86 356.19C296.73 356.3 297.51 356.38 298.15 356.44C298.6 356.5 299.01 356.53 299.35 356.57H299.68H300.19H300.44H300.8C300.8 356.57 308.81 366.59 308.81 367.75Z" fill="black"/>
         </g>
      </g>
      <g id="Group_3" style="mix-blend-mode:overlay" opacity="0.75">
         <g id="Vector_41" style="mix-blend-mode:overlay" opacity="0.75">
            <path d="M271.19 299.55C266.19 306.55 258.25 315.49 252.64 323.55C253.26 322.143 253.927 320.613 254.64 318.96C258.39 310.13 258.4 291.29 258.39 275.06L275.49 263.74C275.49 263.74 279.18 288.22 271.19 299.55Z" fill="black"/>
         </g>
      </g>
      <g id="Group_4" style="mix-blend-mode:overlay" opacity="0.5">
         <g id="Vector_42" style="mix-blend-mode:overlay" opacity="0.5">
            <path d="M295.87 356.19C293.44 355.9 290.25 355.48 286.61 354.92C277.15 353.45 264.73 350.92 254.95 346.92C263.57 346.62 282.02 340.92 284.25 298.7C285.306 306.946 286.859 315.121 288.9 323.18C291.78 334.058 294.106 345.076 295.87 356.19Z" fill="black"/>
         </g>
      </g>
      <g id="Group_5" style="mix-blend-mode:overlay" opacity="0.25">
         <g id="Vector_43" style="mix-blend-mode:overlay" opacity="0.25">
            <path d="M291.32 216.86C290.566 217.73 289.864 218.645 289.22 219.6C286.095 221.202 283.132 223.101 280.37 225.27C279.378 224.012 277.951 223.17 276.37 222.91L283.97 213.34C286.298 214.752 288.76 215.931 291.32 216.86Z" fill="black"/>
         </g>
      </g>
      <g id="Group_6" style="mix-blend-mode:overlay" opacity="0.25">
         <g id="Vector_44" style="mix-blend-mode:overlay" opacity="0.25">
            <path d="M253.46 308.08C249.87 313.08 243.46 320.71 238.15 319.94L237.49 319.83C230.95 310.37 230.71 297.98 231.1 291.78L233.34 287.9C232.73 299.54 246.73 309 253.46 308.08Z" fill="black"/>
         </g>
      </g>
      <g id="Group_7" style="mix-blend-mode:overlay" opacity="0.25">
         <g id="Vector_45" style="mix-blend-mode:overlay" opacity="0.25">
            <path d="M309.4 192.81C308.73 194.35 307.96 195.95 307.09 197.59C304.8 201.96 304.48 206.32 304.09 209.93C303.343 209.351 302.561 208.816 301.75 208.33C297.828 210.584 294.301 213.466 291.31 216.86C284.31 214.36 276.61 209.01 276.13 205.86C275.44 201.29 281.01 193.47 276.13 192.52C271.25 191.57 268.63 199.77 268.63 199.77C264.63 200.18 263.2 193.47 256.63 193.47C255.712 193.476 254.799 193.593 253.91 193.82C251.123 194.627 248.551 196.045 246.38 197.97C246.38 197.97 253.78 187.57 265.38 189.67C265.38 189.67 263.68 186.43 255.86 186.81C272.24 181.48 282.71 183.58 287.76 189.48C291.88 194.3 301.55 200.26 309.4 192.81Z" fill="black"/>
         </g>
      </g>
      <path id="Vector_46" d="M285.56 450.07C281.293 450.97 276.977 451.737 272.61 452.37V417.64H285.56V450.07Z" fill="#FF6224"/>
      <g id="Group_8" style="mix-blend-mode:overlay" opacity="0.15">
         <g id="Vector_47" style="mix-blend-mode:overlay" opacity="0.15">
            <path d="M285.56 417.65V442.65C281.391 444.8 277.062 446.623 272.61 448.1V417.65H285.56Z" fill="black"/>
         </g>
      </g>
      <g class="translate-from-right" id="Person">
         <path id="Vector_48" d="M309.4 192.81C308.73 194.35 307.96 195.95 307.09 197.59C302.43 206.5 305.88 215.43 300.55 217.7C300.205 217.847 299.847 217.961 299.48 218.04C292.62 219.56 276.81 210.43 276.12 205.86C275.43 201.29 281 193.47 276.12 192.52C271.24 191.57 268.62 199.77 268.62 199.77C264.62 200.18 263.19 193.47 256.62 193.47C255.702 193.476 254.789 193.593 253.9 193.82C251.113 194.627 248.541 196.045 246.37 197.97C245.657 198.563 244.988 199.208 244.37 199.9C242.602 198.672 241.166 197.024 240.192 195.104C239.218 193.184 238.737 191.052 238.79 188.9C239.25 177.34 243.52 168.9 253.79 167.19C254.93 154.34 265.51 147.48 279.65 147.04C292.04 146.66 293.9 157.8 294.19 160.57C294.07 158.51 293.5 151.71 290.55 147.04C296.75 146.77 302.22 151.2 300.79 165.62C302.22 161.33 307.22 158.62 311.07 161.76C307.51 161.76 304.07 167.76 304.07 167.76C306.929 169.766 309.318 172.369 311.07 175.39C313.46 179.47 312.56 185.52 309.4 192.81Z" fill="#382424"/>
         <path id="Vector_49" d="M300.55 217.7L300.39 219.82L299.85 227.32C299.85 227.32 288.43 237.09 281.96 227.32C281.916 227.252 281.866 227.188 281.81 227.13C279.81 224.13 278 223.13 276.35 222.91C272.77 222.48 269.89 225.98 266.91 222.19C258.38 211.37 254.98 198.84 253.91 193.82C254.799 193.593 255.712 193.476 256.63 193.47C263.21 193.47 264.63 200.18 268.63 199.77C268.63 199.77 271.26 191.58 276.13 192.52C281 193.46 275.44 201.29 276.13 205.86C276.44 207.86 279.76 210.86 283.96 213.34C288.85 216.28 294.96 218.6 298.8 218.15C299.04 218.15 299.26 218.09 299.49 218.04C299.853 217.961 300.208 217.847 300.55 217.7Z" fill="#FFD0C5"/>
         <path id="Vector_50" d="M300.81 356.7C289.33 358.91 265.05 352.15 253.42 346.92C249.99 345.38 247.65 343.97 247.09 342.98C244.86 339.05 247.09 336.04 252.64 323.57C253.26 322.163 253.927 320.633 254.64 318.98C258.39 310.15 258.4 291.31 258.39 275.08C258.34 261.18 258.28 249.19 260.49 247.08C265.28 242.46 289.2 227.34 289.2 227.34L293.96 252.16C293.96 252.16 296.65 264.76 299.49 281.16C304.73 311.46 310.44 354.84 300.81 356.7Z" fill="#B70F5B"/>
         <path id="Vector_51" d="M308.81 367.75C308.81 368.89 297.38 395.54 287.81 399.36C286.342 399.863 284.817 400.182 283.27 400.31C281.61 400.52 279.66 400.67 277.49 400.77L275.91 400.82C264.73 401.24 248.73 400.6 236.73 400L230.82 399.66L227.56 399.46C223.16 399.19 220.42 398.99 220.42 398.99L193.42 416.61L191.81 417.66L192.38 422.99L194.73 444.55L195.22 449L195.33 450.09L194.19 449.85L193.37 449.67L191.04 449.15C176.119 445.71 161.602 440.705 147.73 434.22L145.88 433.35C141.88 412.7 140.47 394.57 145.45 387.93C147.63 385.04 151.66 381.93 156.92 378.75C158.25 377.93 159.66 377.13 161.13 376.31C181.84 364.94 215.88 353.1 234.31 347.05L239.21 345.47C244.16 343.89 247.15 342.98 247.15 342.98C249.64 344.534 252.268 345.857 255 346.93C255.61 347.18 256.21 347.42 256.84 347.65C257.47 347.88 258.29 348.19 259.04 348.45C259.45 348.6 259.87 348.73 260.3 348.88L261.17 349.16C262.11 349.46 263.05 349.76 264.01 350.04C265.23 350.39 266.46 350.73 267.7 351.04C268.32 351.213 268.95 351.373 269.59 351.52C271.33 351.96 273.07 352.36 274.79 352.72L276.35 353.05C276.87 353.16 277.35 353.27 277.89 353.36C278.43 353.45 278.98 353.58 279.51 353.68C280.35 353.83 281.16 353.99 281.97 354.12L282.97 354.3C283.61 354.42 284.23 354.52 284.84 354.62L286.65 354.91L287.41 355.02C287.66 355.02 287.91 355.11 288.16 355.14L289.63 355.36C290.11 355.42 290.57 355.48 291.03 355.56L292.34 355.73C292.91 355.82 293.44 355.88 293.95 355.94L295.9 356.18C296.77 356.29 297.55 356.37 298.19 356.43C298.64 356.49 299.05 356.53 299.39 356.56H299.72H300.23H300.48H300.84C300.84 356.56 308.81 366.59 308.81 367.75Z" fill="#FF6224"/>
         <path id="Vector_52" d="M253.46 308.08C249.87 313.08 243.46 320.71 238.15 319.94L237.49 319.83C227.39 318.05 168 303.16 165.2 302.6C162.4 302.04 142.35 301.85 143.49 299.75C144.63 297.65 156.06 290.99 159.1 291.15C162.14 291.31 174.16 294.79 186.1 294.41C198.04 294.03 229.52 294.41 229.52 294.41L231.05 291.78L233.29 287.9C232.73 299.54 246.73 309 253.46 308.08Z" fill="#FFD0C5"/>
         <path id="Vector_53" d="M256.58 305.92C255.85 306.59 255.09 307.26 254.34 307.92C254.056 308.022 253.76 308.086 253.46 308.11C246.73 309 232.73 299.54 233.34 287.9C233.707 286.194 234.334 284.555 235.2 283.04C240.94 271.47 258.2 245.71 261.38 246.9C261.38 246.9 272.47 248.61 275.48 263.76C278.3 278 268.12 295.23 256.58 305.92Z" fill="#B70F5B"/>
         <path id="Vector_54" d="M342.73 417.65H285.56C285.56 417.65 330.9 404.31 330.9 314.41C330.9 313.26 330.9 312.12 330.9 310.98C330.44 250.9 317.6 217.77 301.78 208.33C308.077 204.714 314.909 202.122 322.02 200.65C326.182 199.727 330.397 199.059 334.64 198.65C373.77 194.65 405.02 210 408.74 227.36C412.46 244.72 389.55 417.65 342.73 417.65Z" fill="#FF6224"/>
         <path id="Vector_55" d="M330.9 314.41C330.9 404.31 285.56 417.65 285.56 417.65H191.87L195.76 414.87L220.44 399L269.95 395.57C272.61 384.57 279.86 384.16 290.9 383C297.33 382.35 297.96 371.49 296 357.15C294.234 345.719 291.864 334.39 288.9 323.21C286.859 315.151 285.306 306.976 284.25 298.73C283.115 289.975 282.521 281.158 282.47 272.33C282.355 256.598 283.896 240.899 287.07 225.49C287.3 224.36 287.54 223.27 287.78 222.22C287.78 222.22 287.78 222.14 287.78 222.11C288.711 220.224 289.892 218.471 291.29 216.9C294.278 213.491 297.805 210.596 301.73 208.33C302.541 208.816 303.323 209.351 304.07 209.93C318.8 221.15 330.4 253.93 330.85 310.98C330.9 312.12 330.9 313.26 330.9 314.41Z" fill="#FF9750"/>
         <g id="Group_9" style="mix-blend-mode:overlay" opacity="0.15">
            <g id="Vector_56" style="mix-blend-mode:overlay" opacity="0.15">
               <path d="M303.47 378.79C300.42 388.31 281.4 386.61 279.09 393.65C274.19 408.59 271.47 402.02 252.64 403.93C241.87 405.02 234.04 411.93 229.33 417.65H191.87L195.76 414.87L220.44 399L269.95 395.57C272.61 384.57 279.86 384.16 290.9 383C297.33 382.35 297.96 371.49 296 357.15C294.234 345.719 291.864 334.39 288.9 323.21C286.859 315.151 285.306 306.976 284.25 298.73C283.115 289.975 282.521 281.158 282.47 272.33C289.8 310.49 305.73 371.74 303.47 378.79Z" fill="black"/>
            </g>
         </g>
         <path id="Vector_57" d="M242.93 410.59C242.93 410.59 239.43 413.32 233.93 417.64C228.23 422.16 220.37 428.39 212.07 435.13L209.83 436.94L206.1 439.94L203.93 441.73C203.15 442.36 202.35 443.01 201.57 443.67C199.42 445.44 197.28 447.21 195.2 448.96L194.2 449.81L193.38 449.63L191.05 449.11C176.127 445.683 161.606 440.692 147.73 434.22C152.24 427.43 155.82 422.47 157.54 420.88C160.54 418.09 169.61 412.57 179.54 406.88L183.77 404.47C198.1 396.36 212.7 388.62 212.7 388.62L217.56 392.15L226.42 398.59L227.64 399.46L229.73 401L233.64 403.83L239.84 408.34L242.93 410.59Z" fill="#F45721"/>
      </g>
      <g id="Group_10" style="mix-blend-mode:overlay" opacity="0.15">
         <g id="Vector_58" style="mix-blend-mode:overlay" opacity="0.15">
            <path d="M330.9 314.41C330.9 313.26 330.9 312.12 330.9 310.98C330.44 250.9 317.6 217.77 301.78 208.33C308.077 204.714 314.909 202.122 322.02 200.65C319.41 204.42 316.68 210.07 318.02 216.12C320.31 226.81 346.21 267.94 336.31 333.84C329.16 381.39 331.53 406.12 339 417.65H285.56C285.56 417.65 330.9 404.31 330.9 314.41Z" fill="black"/>
         </g>
      </g>
      <path id="Vector_59" d="M365.96 85.27C360.209 82.4059 353.64 81.6333 347.381 83.0847C341.122 84.5361 335.564 88.1211 331.66 93.2242C327.757 98.3273 325.751 104.63 325.989 111.051C326.226 117.471 328.691 123.609 332.96 128.41L328.8 127.91C328.557 127.881 328.313 127.949 328.121 128.1C327.929 128.251 327.804 128.472 327.775 128.715C327.746 128.958 327.814 129.202 327.965 129.394C328.116 129.586 328.337 129.711 328.58 129.74L334.92 130.49C335.039 130.506 335.159 130.497 335.275 130.464C335.39 130.431 335.497 130.376 335.59 130.3C335.687 130.227 335.768 130.136 335.828 130.031C335.888 129.926 335.926 129.81 335.94 129.69L336.67 123.56C336.699 123.317 336.631 123.073 336.48 122.881C336.329 122.689 336.108 122.564 335.865 122.535C335.622 122.506 335.378 122.574 335.186 122.725C334.994 122.876 334.869 123.097 334.84 123.34L334.38 127.25C330.376 122.773 328.057 117.04 327.822 111.039C327.588 105.037 329.452 99.1406 333.095 94.3648C336.738 89.5891 341.931 86.2321 347.782 84.8715C353.632 83.5109 359.774 84.2318 365.15 86.91C365.259 86.9762 365.38 87.0192 365.506 87.0362C365.632 87.0531 365.761 87.0437 365.883 87.0085C366.005 86.9734 366.119 86.9132 366.217 86.8318C366.315 86.7504 366.395 86.6497 366.452 86.5358C366.509 86.4219 366.541 86.2975 366.548 86.1704C366.554 86.0433 366.534 85.9162 366.489 85.7972C366.443 85.6783 366.374 85.57 366.285 85.4792C366.195 85.3885 366.088 85.3172 365.97 85.27H365.96Z" fill="#FF6224"/>
      <path id="Vector_60" d="M342.12 136.08C347.872 138.936 354.438 139.702 360.693 138.247C366.948 136.792 372.502 133.207 376.404 128.105C380.305 123.004 382.31 116.705 382.076 110.287C381.842 103.87 379.383 97.7332 375.12 92.93L379.27 93.43C379.5 93.438 379.725 93.3593 379.9 93.2095C380.075 93.0597 380.188 92.8497 380.215 92.621C380.243 92.3923 380.184 92.1615 380.049 91.9743C379.915 91.7871 379.716 91.6571 379.49 91.61L373.16 90.85C372.918 90.8285 372.676 90.8961 372.48 91.04C372.29 91.1945 372.168 91.417 372.14 91.66L371.41 97.78C371.402 98.0102 371.481 98.2351 371.631 98.4101C371.78 98.5851 371.99 98.6975 372.219 98.7252C372.448 98.7528 372.678 98.6937 372.866 98.5594C373.053 98.4251 373.183 98.2255 373.23 98L373.7 94.1C377.704 98.577 380.023 104.31 380.258 110.311C380.492 116.313 378.628 122.209 374.985 126.985C371.342 131.761 366.149 135.118 360.298 136.478C354.448 137.839 348.306 137.118 342.93 134.44C342.716 134.354 342.477 134.352 342.262 134.434C342.046 134.517 341.869 134.677 341.766 134.883C341.663 135.089 341.641 135.327 341.705 135.549C341.768 135.77 341.913 135.96 342.11 136.08H342.12Z" fill="#FF6224"/>
      <path id="Vector_61" class="float" d="M288.95 43.83H289.51V41.88H289.06C286.4 41.88 284.33 43.3 284.33 46.68C284.33 47.85 284.45 48.87 284.55 49.99C284.682 51.0519 284.759 52.1201 284.78 53.19C284.826 53.5401 284.791 53.896 284.68 54.231C284.569 54.566 284.383 54.8715 284.136 55.1245C283.89 55.3775 283.59 55.5715 283.258 55.6919C282.926 55.8124 282.571 55.8562 282.22 55.82V57.7C282.574 57.6701 282.931 57.72 283.263 57.8459C283.596 57.9718 283.896 58.1706 284.141 58.4276C284.387 58.6847 284.571 58.9935 284.682 59.3313C284.793 59.6692 284.826 60.0275 284.78 60.38C284.78 61.38 284.66 62.52 284.55 63.61C284.44 64.7 284.33 65.83 284.33 66.96C284.33 70.52 286.55 71.77 289.03 71.77H289.51V69.77H288.99C287.3 69.77 286.73 68.6 286.73 66.92C286.749 65.9496 286.826 64.9812 286.96 64.02C287.04 63.08 287.15 62.14 287.15 61.2C287.15 58.2 286.15 57.2 284.55 56.72V56.65C286.17 56.2 287.18 55.19 287.15 52.25C287.15 51.34 287.04 50.44 286.96 49.46C286.824 48.5157 286.747 47.5639 286.73 46.61C286.73 45 287.37 43.83 288.95 43.83Z" fill="#FF9750"/>
      <path id="Vector_62" class="float" d="M318 53.19C318 52.1 318.12 51.05 318.22 49.99C318.358 48.8918 318.435 47.7868 318.45 46.68C318.45 43.3 316.38 41.88 313.71 41.88H313.26V43.83H313.82C315.4 44.02 316.05 44.96 316.05 46.65C316.05 47.65 315.93 48.65 315.86 49.5C315.732 50.425 315.655 51.3565 315.63 52.29C315.63 55.23 316.63 56.29 318.22 56.69V56.76C316.61 57.25 315.59 58.27 315.63 61.24C315.652 62.1837 315.729 63.1253 315.86 64.06C315.93 65 316.05 65.94 316.05 66.96C316.05 68.64 315.48 69.62 313.79 69.81H313.26V71.81H313.73C316.22 71.81 318.43 70.56 318.43 67C318.415 65.88 318.338 64.7616 318.2 63.65C318.1 62.56 317.98 61.46 317.98 60.42C317.934 60.0675 317.967 59.7092 318.078 59.3713C318.189 59.0335 318.373 58.7247 318.619 58.4676C318.864 58.2106 319.164 58.0118 319.497 57.8859C319.829 57.76 320.186 57.7101 320.54 57.74V55.82C320.19 55.8529 319.838 55.8067 319.508 55.6848C319.179 55.5629 318.881 55.3685 318.637 55.1159C318.394 54.8633 318.21 54.559 318.099 54.2256C317.989 53.8922 317.955 53.5383 318 53.19Z" fill="#FF9750"/>
      <path id="Vector_63" class="float" d="M307.65 60.44V53.2L301.39 49.59L295.12 53.2V60.44L301.39 64.06L307.65 60.44Z" fill="#FFBC8F"/>
      <g class="translate-from-top-FloatInverse" id="FloatIcon-1">
          <path id="Vector_56" d="M235.37 44.14H180.09C177.362 44.14 175.15 46.3517 175.15 49.08V90.19C175.15 92.9183 177.362 95.13 180.09 95.13H235.37C238.098 95.13 240.31 92.9183 240.31 90.19V49.08C240.31 46.3517 238.098 44.14 235.37 44.14Z" fill="#FF6224"/>
         <path id="Vector_57" d="M195.29 56.64H195.85V54.64H195.4C192.74 54.64 190.67 56.06 190.67 59.44C190.67 60.61 190.79 61.63 190.89 62.76C191.027 63.8181 191.104 64.8831 191.12 65.95C191.167 66.3009 191.134 66.6579 191.024 66.9942C190.913 67.3305 190.727 67.6373 190.481 67.8914C190.234 68.1456 189.933 68.3405 189.601 68.4615C189.268 68.5825 188.912 68.6265 188.56 68.59V70.47C188.913 70.4404 189.269 70.4901 189.6 70.6154C189.932 70.7408 190.231 70.9386 190.477 71.1945C190.722 71.4504 190.907 71.7579 191.018 72.0945C191.13 72.4311 191.164 72.7883 191.12 73.14C191.102 74.22 191.025 75.2983 190.89 76.37C190.79 77.47 190.67 78.59 190.67 79.72C190.67 83.28 192.89 84.53 195.37 84.53H195.85V82.53H195.33C193.64 82.53 193.07 81.36 193.07 79.68C193.089 78.7096 193.166 77.7412 193.3 76.78C193.38 75.84 193.49 74.9 193.49 73.96C193.49 70.96 192.49 69.96 190.89 69.49V69.5C192.51 69.05 193.52 68.04 193.49 65.1C193.49 64.2 193.38 63.3 193.3 62.31C193.163 61.3658 193.087 60.4139 193.07 59.46C193.07 57.77 193.71 56.64 195.29 56.64Z" fill="#FF9750"/>
         <path id="Vector_58" d="M224.34 66C224.34 64.92 224.46 63.86 224.56 62.81C224.698 61.7084 224.774 60.6001 224.79 59.49C224.79 56.11 222.72 54.69 220.05 54.69H219.6V56.69H220.16C221.74 56.88 222.39 57.82 222.39 59.51C222.39 60.51 222.27 61.51 222.2 62.36C222.084 63.2691 222.017 64.1837 222 65.1C222 68.04 223 69.1 224.59 69.5V69.58C222.98 70.07 221.96 71.08 222 74.05C222.022 74.9937 222.099 75.9353 222.23 76.87C222.3 77.81 222.42 78.75 222.42 79.77C222.42 81.45 221.86 82.44 220.16 82.62H219.63V84.62H220.12C222.61 84.62 224.82 83.37 224.82 79.81C224.804 78.69 224.727 77.5717 224.59 76.46C224.49 75.37 224.37 74.28 224.37 73.23C224.326 72.8783 224.36 72.5211 224.472 72.1845C224.583 71.8479 224.768 71.5404 225.013 71.2845C225.259 71.0286 225.558 70.8308 225.89 70.7054C226.221 70.5801 226.577 70.5304 226.93 70.56V68.64C226.575 68.6814 226.216 68.6412 225.88 68.5223C225.543 68.4035 225.238 68.2093 224.988 67.9545C224.738 67.6998 224.55 67.3912 224.438 67.0524C224.325 66.7136 224.292 66.3537 224.34 66Z" fill="#FF9750"/>
         <path id="Vector_59" d="M200.33 79.26C201.435 79.26 202.33 78.3646 202.33 77.26C202.33 76.1554 201.435 75.26 200.33 75.26C199.225 75.26 198.33 76.1554 198.33 77.26C198.33 78.3646 199.225 79.26 200.33 79.26Z" fill="#FFBC8F"/>
         <path id="Vector_60" d="M207.73 79.26C208.835 79.26 209.73 78.3646 209.73 77.26C209.73 76.1554 208.835 75.26 207.73 75.26C206.625 75.26 205.73 76.1554 205.73 77.26C205.73 78.3646 206.625 79.26 207.73 79.26Z" fill="#FFBC8F"/>
         <path id="Vector_61" d="M215.13 79.26C216.235 79.26 217.13 78.3646 217.13 77.26C217.13 76.1554 216.235 75.26 215.13 75.26C214.025 75.26 213.13 76.1554 213.13 77.26C213.13 78.3646 214.025 79.26 215.13 79.26Z" fill="#FFBC8F"/>
      </g>

     <g id="icon_2_thivin">
     <path id="Vector_560" d="M235.37 44.14H180.09C177.362 44.14 175.15 46.3517 175.15 49.08V90.19C175.15 92.9183 177.362 95.13 180.09 95.13H235.37C238.098 95.13 240.31 92.9183 240.31 90.19V49.08C240.31 46.3517 238.098 44.14 235.37 44.14Z" fill="#FF6224"/>
     <path id="Vector_57" d="M195.29 56.64H195.85V54.64H195.4C192.74 54.64 190.67 56.06 190.67 59.44C190.67 60.61 190.79 61.63 190.89 62.76C191.027 63.8181 191.104 64.8831 191.12 65.95C191.167 66.3009 191.134 66.6579 191.024 66.9942C190.913 67.3305 190.727 67.6373 190.481 67.8914C190.234 68.1456 189.933 68.3405 189.601 68.4615C189.268 68.5825 188.912 68.6265 188.56 68.59V70.47C188.913 70.4404 189.269 70.4901 189.6 70.6154C189.932 70.7408 190.231 70.9386 190.477 71.1945C190.722 71.4504 190.907 71.7579 191.018 72.0945C191.13 72.4311 191.164 72.7883 191.12 73.14C191.102 74.22 191.025 75.2983 190.89 76.37C190.79 77.47 190.67 78.59 190.67 79.72C190.67 83.28 192.89 84.53 195.37 84.53H195.85V82.53H195.33C193.64 82.53 193.07 81.36 193.07 79.68C193.089 78.7096 193.166 77.7412 193.3 76.78C193.38 75.84 193.49 74.9 193.49 73.96C193.49 70.96 192.49 69.96 190.89 69.49V69.5C192.51 69.05 193.52 68.04 193.49 65.1C193.49 64.2 193.38 63.3 193.3 62.31C193.163 61.3658 193.087 60.4139 193.07 59.46C193.07 57.77 193.71 56.64 195.29 56.64Z" fill="#FF9750"/>
     <path id="Vector_580" d="M224.34 66C224.34 64.92 224.46 63.86 224.56 62.81C224.698 61.7084 224.774 60.6001 224.79 59.49C224.79 56.11 222.72 54.69 220.05 54.69H219.6V56.69H220.16C221.74 56.88 222.39 57.82 222.39 59.51C222.39 60.51 222.27 61.51 222.2 62.36C222.084 63.2691 222.017 64.1837 222 65.1C222 68.04 223 69.1 224.59 69.5V69.58C222.98 70.07 221.96 71.08 222 74.05C222.022 74.9937 222.099 75.9353 222.23 76.87C222.3 77.81 222.42 78.75 222.42 79.77C222.42 81.45 221.86 82.44 220.16 82.62H219.63V84.62H220.12C222.61 84.62 224.82 83.37 224.82 79.81C224.804 78.69 224.727 77.5717 224.59 76.46C224.49 75.37 224.37 74.28 224.37 73.23C224.326 72.8783 224.36 72.5211 224.472 72.1845C224.583 71.8479 224.768 71.5404 225.013 71.2845C225.259 71.0286 225.558 70.8308 225.89 70.7054C226.221 70.5801 226.577 70.5304 226.93 70.56V68.64C226.575 68.6814 226.216 68.6412 225.88 68.5223C225.543 68.4035 225.238 68.2093 224.988 67.9545C224.738 67.6998 224.55 67.3912 224.438 67.0524C224.325 66.7136 224.292 66.3537 224.34 66Z" fill="#FF9750"/>
     <path id="Vector_590" d="M200.33 79.26C201.435 79.26 202.33 78.3646 202.33 77.26C202.33 76.1554 201.435 75.26 200.33 75.26C199.225 75.26 198.33 76.1554 198.33 77.26C198.33 78.3646 199.225 79.26 200.33 79.26Z" fill="#FFBC8F"/>
     <path id="Vector_600" d="M207.73 79.26C208.835 79.26 209.73 78.3646 209.73 77.26C209.73 76.1554 208.835 75.26 207.73 75.26C206.625 75.26 205.73 76.1554 205.73 77.26C205.73 78.3646 206.625 79.26 207.73 79.26Z" fill="#FFBC8F"/>
     <path id="Vector_610" d="M215.13 79.26C216.235 79.26 217.13 78.3646 217.13 77.26C217.13 76.1554 216.235 75.26 215.13 75.26C214.025 75.26 213.13 76.1554 213.13 77.26C213.13 78.3646 214.025 79.26 215.13 79.26Z" fill="#FFBC8F"/>
  </g>


      <g class="translate-from-top-FloatInverse" id="FloatIcon-2">
         <path id="Vector_66" d="M245.27 44.14H189.99C187.262 44.14 185.05 46.3517 185.05 49.08V90.19C185.05 92.9183 187.262 95.13 189.99 95.13H245.27C247.998 95.13 250.21 92.9183 250.21 90.19V49.08C250.21 46.3517 247.998 44.14 245.27 44.14Z" fill="#FF6224"/>
         <path id="Vector_67" d="M204.6 84.43H204.4H204.17C202.836 84.2013 201.559 83.7157 200.41 83C199.604 82.4946 198.973 81.7548 198.6 80.88C198.264 79.9783 198.098 79.0222 198.11 78.06L198.18 74.92C198.197 74.1917 198.068 73.4674 197.8 72.79C197.581 72.2487 197.209 71.783 196.73 71.45C196.218 71.1169 195.621 70.9397 195.01 70.94H194.85C194.684 70.9429 194.518 70.9126 194.364 70.8508C194.209 70.789 194.068 70.6969 193.95 70.58C193.829 70.4601 193.734 70.3176 193.668 70.1605C193.603 70.0035 193.569 69.8351 193.569 69.665C193.569 69.4949 193.603 69.3265 193.668 69.1695C193.734 69.0125 193.829 68.8699 193.95 68.75C194.068 68.6331 194.209 68.541 194.364 68.4792C194.518 68.4174 194.684 68.3871 194.85 68.39H195.05C195.655 68.368 196.245 68.1888 196.76 67.87C197.247 67.5407 197.621 67.0693 197.83 66.52C198.086 65.8398 198.208 65.1165 198.19 64.39L198.12 61.25C198.11 60.4676 198.221 59.6884 198.45 58.94C198.648 58.28 198.989 57.6721 199.45 57.16C199.986 56.6103 200.62 56.1659 201.32 55.85C202.225 55.435 203.174 55.1263 204.15 54.93C204.354 54.8631 204.573 54.851 204.783 54.8949C204.994 54.9387 205.189 55.0371 205.35 55.18C205.476 55.3132 205.574 55.4704 205.637 55.6422C205.701 55.8141 205.729 55.997 205.72 56.18C205.715 56.4301 205.623 56.6707 205.46 56.86C205.275 57.0678 205.036 57.2201 204.77 57.3C203.952 57.5509 203.174 57.918 202.46 58.39C201.994 58.7372 201.645 59.2188 201.46 59.77C201.271 60.4192 201.183 61.0939 201.2 61.77L201.27 64.95C201.319 66.0666 201.003 67.1687 200.37 68.09C199.741 68.9156 198.86 69.5127 197.86 69.79V69.6C198.858 69.8813 199.738 70.4776 200.37 71.3C201.004 72.2244 201.32 73.3301 201.27 74.45L201.2 77.62C201.187 78.2794 201.275 78.937 201.46 79.57C201.645 80.1182 201.994 80.5963 202.46 80.94C203.173 81.4233 203.951 81.8037 204.77 82.07C205.046 82.1305 205.292 82.2857 205.465 82.5085C205.639 82.7313 205.729 83.0077 205.72 83.29C205.715 83.5907 205.593 83.8777 205.38 84.0904C205.168 84.3031 204.881 84.4249 204.58 84.43H204.6Z" fill="white"/>
         <path id="Vector_68" d="M210.06 77.82C209.83 77.8346 209.599 77.8012 209.382 77.7221C209.165 77.6429 208.967 77.5196 208.8 77.36C208.491 77.0074 208.333 76.5478 208.36 76.08V75.49C208.334 75.0253 208.492 74.569 208.8 74.22C208.967 74.0604 209.165 73.9371 209.382 73.8579C209.599 73.7788 209.83 73.7454 210.06 73.76H210.42C210.649 73.7437 210.879 73.7763 211.094 73.8556C211.31 73.9349 211.506 74.0591 211.67 74.22C211.968 74.5737 212.118 75.0284 212.09 75.49V76.08C212.118 76.5446 211.968 77.0023 211.67 77.36C211.506 77.5209 211.31 77.6451 211.094 77.7244C210.879 77.8037 210.649 77.8363 210.42 77.82H210.06Z" fill="white"/>
         <path id="Vector_69" d="M217.46 77.82C217.23 77.8346 216.999 77.8012 216.782 77.7221C216.565 77.6429 216.367 77.5196 216.2 77.36C215.891 77.0074 215.733 76.5478 215.76 76.08V75.49C215.734 75.0253 215.892 74.569 216.2 74.22C216.367 74.0604 216.565 73.9371 216.782 73.8579C216.999 73.7788 217.23 73.7454 217.46 73.76H217.82C218.049 73.7437 218.279 73.7763 218.494 73.8556C218.71 73.9349 218.906 74.0591 219.07 74.22C219.368 74.5737 219.518 75.0284 219.49 75.49V76.08C219.518 76.5446 219.368 77.0023 219.07 77.36C218.906 77.5209 218.71 77.6451 218.494 77.7244C218.279 77.8037 218.049 77.8363 217.82 77.82H217.46Z" fill="white"/>
         <path id="Vector_70" d="M224.86 77.82C224.63 77.8346 224.399 77.8012 224.182 77.7221C223.965 77.6429 223.767 77.5196 223.6 77.36C223.291 77.0074 223.133 76.5478 223.16 76.08V75.49C223.134 75.0253 223.292 74.569 223.6 74.22C223.767 74.0604 223.965 73.9371 224.182 73.8579C224.399 73.7788 224.63 73.7454 224.86 73.76H225.22C225.448 73.7425 225.676 73.7746 225.89 73.854C226.105 73.9334 226.299 74.0583 226.46 74.22C226.765 74.57 226.92 75.0265 226.89 75.49V76.08C226.919 76.5464 226.765 77.0058 226.46 77.36C226.299 77.5217 226.105 77.6466 225.89 77.726C225.676 77.8054 225.448 77.8375 225.22 77.82H224.86Z" fill="white"/>
         <path id="Vector_71" d="M230.62 84.43C230.452 84.4394 230.285 84.4013 230.139 84.3199C229.992 84.2385 229.871 84.1172 229.79 83.97C229.622 83.7284 229.525 83.4442 229.51 83.15C229.508 82.8987 229.601 82.656 229.77 82.47C229.957 82.2671 230.195 82.1185 230.46 82.04C231.288 81.8006 232.071 81.4292 232.78 80.94C233.252 80.5939 233.602 80.1073 233.78 79.55C233.969 78.9006 234.056 78.2261 234.04 77.55L233.98 74.37C233.924 73.2448 234.244 72.133 234.89 71.21C235.524 70.4036 236.395 69.8161 237.38 69.53V69.63C236.407 69.3566 235.544 68.7869 234.91 68C234.264 67.077 233.944 65.9652 234 64.84L234.06 61.7C234.08 61.0238 233.992 60.3486 233.8 59.7C233.607 59.153 233.26 58.6737 232.8 58.32C232.097 57.8264 231.316 57.4546 230.49 57.22C230.212 57.1571 229.964 56.9985 229.791 56.772C229.617 56.5454 229.528 56.2652 229.54 55.98C229.559 55.6786 229.687 55.3944 229.9 55.18C229.998 55.0681 230.12 54.9796 230.257 54.9207C230.393 54.8619 230.541 54.8343 230.69 54.84H230.9H231.11C232.444 55.048 233.724 55.5133 234.88 56.21C235.686 56.7249 236.315 57.4755 236.68 58.36C237.013 59.2554 237.18 60.2045 237.17 61.16L237.1 64.33C237.083 65.0583 237.212 65.7826 237.48 66.46C237.697 67.0194 238.084 67.4968 238.586 67.8251C239.088 68.1533 239.681 68.3159 240.28 68.29H240.44C240.608 68.2885 240.775 68.3215 240.929 68.3868C241.084 68.4522 241.224 68.5486 241.34 68.67C241.463 68.791 241.561 68.9359 241.626 69.0958C241.691 69.2557 241.723 69.4273 241.72 69.6C241.724 69.7714 241.693 69.9417 241.627 70.1002C241.562 70.2586 241.464 70.4016 241.34 70.52C241.222 70.6369 241.081 70.729 240.926 70.7908C240.772 70.8526 240.606 70.8829 240.44 70.88H240.25C239.639 70.8797 239.042 71.0569 238.53 71.39C238.046 71.7177 237.672 72.1851 237.46 72.73C237.202 73.413 237.079 74.14 237.1 74.87L237.17 78.02C237.178 78.7331 237.083 79.4436 236.89 80.13C236.707 80.7675 236.382 81.3554 235.94 81.85C235.41 82.4139 234.784 82.878 234.09 83.22C233.134 83.703 232.128 84.0786 231.09 84.34H230.9L230.62 84.43Z" fill="white"/>
      </g>
      <path id="Vector_72" d="M414.43 455.08C443.464 455.08 467 431.544 467 402.51C467 373.476 443.464 349.94 414.43 349.94C385.396 349.94 361.86 373.476 361.86 402.51C361.86 431.544 385.396 455.08 414.43 455.08Z" fill="url(#paint1_linear)"/>
      <g id="Orbit">
         <path id="Vector_73" d="M41.7436 325.953C21.6334 359.768 -6.91567 418.959 7.24211 435.286C26.1533 457.095 95.5696 423.17 109.448 414.199C343.399 262.988 508.796 87.5248 469.919 16.0991C463.979 5.18692 439.094 -5.68289 388.513 16.2815L344.895 44.1897" stroke="#E03C58" stroke-width="4">
         </path>
      </g>
      <g id="orbitBall">
         <path id="Vector_74" d="M466.1 60.2C478.306 60.2 488.2 50.3055 488.2 38.1C488.2 25.8945 478.306 16 466.1 16C453.895 16 444 25.8945 444 38.1C444 50.3055 453.895 60.2 466.1 60.2Z" fill="url(#paint2_linear)">
         	         <animateMotion dur="5s" repeatCount="indefinite"
      path="m -424.2564 289.953 c -20.1102 33.815 -48.6593 93.006 -34.5015 109.333 c 18.9112 21.809 88.3275 -12.116 102.2059 -21.087 c 233.951 -151.211 399.348 -326.6742 360.471 -398.0999 c -5.94 -10.9122 -30.825 -21.782 -81.406 0.1824 l -43.618 27.9082" />
         </path>
      </g>
   </g>
   <defs>
      <linearGradient id="paint0_linear" x1="21.16" y1="235.51" x2="459.63" y2="235.51" gradientUnits="userSpaceOnUse">
         <stop stop-color="#D23274"/>
         <stop offset="1" stop-color="#F24A37"/>
      </linearGradient>
      <linearGradient id="paint1_linear" x1="965472" y1="101917" x2="972296" y2="110547" gradientUnits="userSpaceOnUse">
         <stop stop-color="#D23274"/>
         <stop offset="1" stop-color="#F24A37"/>
      </linearGradient>
      <linearGradient id="paint2_linear" x1="685706" y1="70775.4" x2="686916" y2="72306.4" gradientUnits="userSpaceOnUse">
         <stop stop-color="#D23274"/>
         <stop offset="1" stop-color="#F24A37"/>
      </linearGradient>
      <clipPath id="clip0">
         <rect width="488" height="470" fill="white"/>
      </clipPath>
   </defs>
</svg>