<svg width="471" height="470" viewBox="0 0 471 470" fill="none" xmlns="http://www.w3.org/2000/svg">
     <style>
      .float {
      animation: floatAnim2 4s ease-in-out infinite;
      }
      .bluranim{
         animation: blur22 3s ease infinite;
      }
      @keyframes blur22 {
      0% {
      opacity: 1;
      }
      50% {
      opacity:0.3;
      }
      100% {
      opacity: 1;
      }
      }
      .floatInverse {
      animation: floatAnim1 1s ease-in-out infinite;
      }
      .floatHorz{
      animation: floatAnim3 2s ease-in-out infinite;
      }
      .floatHorzInverse {
      animation: floatAnim4 3s ease-in-out infinite;
      }
      @keyframes floatAnim2 {
      0% {
      transform: translate(0vh,0vh);
      }
      50% {
      transform: translate(0vh,1.9vh);
      }
      100% {
      transform: translate(0vh,0vh);
      }
      }
      @keyframes floatAnim3 {
      0% {
      transform: translate(0vh,0vh);
      }
      50% {
      transform: translate(2.3vw,0vw);
      }
      100% {
      transform: translate(0vh,0vh);
      }
      }
      @keyframes floatAnim4 {
      0% {
      transform: translate(0vh,0vh);
      }
      50% {
      transform: translate(-3.4vw,0vw);
      }
      100% {
      transform: translate(0vh,0vh);
      }
      }
      @keyframes floatAnim1 {
      0% {
      transform: translate(0vh,0vh);
      }
      50% {
      transform: translate(0vh,-1.9vh);
      }
      100% {
      transform: translate(0vh,0vh);
      }
      }
      .glow{
         animation: glower 4s ease-in-out forwards infinite;
         animation-delay:1.2s;
         stroke-width: 0px;
         stroke-opacity: 0;
      }
      @keyframes glower {
      0% {
          fill: #F8BB8F;

      }
      40% {
         fill : #ffffff;
         stroke-width: 0.8px;
         stroke: #ffffff;
         stroke-opacity: 0.5;
      }
      70% {
         fill : #ffffff;
         stroke-width: 1px;
         stroke: #ffffff;
         stroke-opacity: 0.5;
      }
      100% {
         fill: #F8BB8F;
         stroke-opacity: 0;
      }
      }
      .translate-from-right
      {
      animation: transFromRight 1.2s ease-in-out ;
      opacity: 1;
      }
      .translate-from-left
      {
      animation: transFromLeft 1.2s ease-in-out ;
      opacity: 1;
      }  
      .translate-from-bottom
      {
      animation: transFromBottom 1.2s ease-in-out ;
      opacity: 1;
      }  
      .translate-from-top
      {
      animation: transFromTop 1.2s ease-in-out ;
      opacity: 1;
      }  
      .translate-from-top-Float
      {
      animation: transFromTop 1.2s ease-in-out ,  floatAnim1 4s ease-in-out infinite 1.2s;
      opacity: 1;
      }  
      .translate-from-top-FloatInverse
      {
      animation: transFromTop 1.2s ease-in-out ,  floatAnim2 4s ease-in-out infinite 1.2s;
      opacity: 1;
      } 
      @keyframes transFromBottom {
      0% {
      transform: translate(0vh,16vh);
      opacity: 0;
      }
      100% {
      transform: translate(0vh,0vh);
      opacity: 1;
      }
      }
      @keyframes transFromTop {
      0% {
      transform: translate(0vh,-16vh);
      opacity: 0;
      }
      100% {
      transform: translate(0vh,0vh);
      opacity: 1;
      }
      }
      @keyframes transFromRight {
      0% {
      transform: translate(16vh,0vh);
      opacity: 0;
      }
      100% {
      transform: translate(0vh,0vh);
      opacity: 1;
      }
      }
      @keyframes transFromLeft {
      0% {
      transform: translate(-16vh,0vh);
      opacity: 0;
      }
      100% {
      transform: translate(0vh,0vh);
      opacity: 1;
      }
      }
      }
   </style>
   <g id="2_Art 1">
      <g id="2 Art">
         <g id="Art BG">
                  <path id="Vector" d="M459.63 235.51C459.633 244.593 459.072 253.667 457.95 262.68C457.397 267.173 456.71 271.62 455.89 276.02C455.76 276.67 455.64 277.32 455.51 277.96C454.843 281.22 454.137 284.45 453.39 287.65C449.754 302.528 444.558 316.981 437.89 330.77C433.462 339.95 428.397 348.808 422.73 357.28C422.22 358.03 421.73 358.78 421.2 359.53C420.67 360.28 420.09 361.13 419.52 361.93C414.358 369.235 408.751 376.215 402.73 382.83C400.51 385.28 398.24 387.66 395.92 390C391.92 394.04 387.747 397.927 383.4 401.66L383.28 401.77L380.92 403.77C377.67 406.49 374.32 409.12 370.92 411.64L370.69 411.8C354.025 424.169 335.68 434.096 316.21 441.28C314.61 441.86 313.007 442.423 311.4 442.97C302.941 445.867 294.311 448.238 285.56 450.07C281.293 450.97 276.977 451.737 272.61 452.37C261.946 453.947 251.18 454.736 240.4 454.73C234.773 454.73 229.19 454.52 223.65 454.1C221.43 453.94 219.2 453.73 216.99 453.5C209.983 452.76 203.08 451.69 196.28 450.29L195.28 450.09L194.14 449.85L193.32 449.67L190.99 449.15C176.086 445.706 161.586 440.702 147.73 434.22L145.88 433.35C142.04 431.51 138.267 429.567 134.56 427.52C133.86 427.13 133.17 426.73 132.47 426.35C125.722 422.51 119.177 418.325 112.86 413.81C107.96 410.29 103.21 406.577 98.61 402.67C92.1876 397.219 86.0842 391.402 80.33 385.25L78.62 383.4C75.84 380.36 73.1467 377.243 70.54 374.05C69 372.15 67.48 370.24 66 368.3C64.52 366.3 63 364.3 61.6 362.3C58.08 357.353 54.77 352.25 51.67 346.99C50.96 345.8 50.27 344.6 49.59 343.4C48.5 341.48 47.44 339.56 46.41 337.6L45.5 335.85C43.98 332.85 42.5 329.85 41.11 326.85C39.72 323.85 38.13 320.3 36.81 317C35.71 314.26 34.66 311.48 33.67 308.68C21.9178 275.373 18.3729 239.724 23.3361 204.755C28.2993 169.786 41.6241 136.531 62.18 107.81C66.2667 102.097 70.6 96.6067 75.18 91.34C76.94 89.34 78.74 87.34 80.58 85.34C83.8867 81.9 87.27 78.5533 90.73 75.3C92.73 73.42 94.78 71.5733 96.88 69.76C102.147 65.1867 107.637 60.8733 113.35 56.82C122.627 50.2043 132.407 44.3231 142.6 39.23C146.96 37.0633 151.39 35.0367 155.89 33.15L157.84 32.36C158.23 32.2 158.64 32.03 159.05 31.88C160.78 31.18 162.53 30.51 164.29 29.88C165.9 29.29 167.53 28.71 169.16 28.16C169.79 27.93 170.42 27.72 171.05 27.52C172.77 26.94 174.49 26.38 176.23 25.86L178.92 25.05C180.87 24.48 182.85 23.94 184.83 23.42L186.04 23.11C193.201 21.2808 200.45 19.8189 207.76 18.73C218.559 17.1262 229.462 16.3207 240.38 16.32C281.619 16.304 322.026 27.9193 356.961 49.8321C391.896 71.7449 419.943 103.066 437.88 140.2C438.853 142.2 439.79 144.22 440.69 146.26C441.737 148.6 442.737 150.967 443.69 153.36L444.07 154.28C444.63 155.66 445.17 157.05 445.69 158.46C445.719 158.521 445.743 158.585 445.76 158.65C446.52 160.65 447.24 162.65 447.92 164.72C449.12 168.2 450.227 171.717 451.24 175.27C451.24 175.27 451.24 175.33 451.24 175.36C452.033 178.133 452.767 180.93 453.44 183.75C456.439 196.166 458.347 208.821 459.14 221.57C459.48 226.21 459.63 230.85 459.63 235.51Z" fill="url(#paint20_linear)"/>
            <path id="Vector" d="M46.55 238.4H134.37L166.12 299.52H78.3L46.55 238.4Z" fill="#FF6224"/>
            <path id="Vector 2" d="M80.08 295L53.79 244.39C53.6625 244.147 53.5998 243.876 53.608 243.602C53.6163 243.328 53.6951 243.061 53.837 242.827C53.9788 242.592 54.1789 242.399 54.4177 242.264C54.6565 242.13 54.926 242.06 55.2 242.06H131.2C131.492 242.062 131.779 242.143 132.029 242.294C132.279 242.446 132.483 242.662 132.62 242.92L158.91 293.53C159.035 293.773 159.095 294.044 159.085 294.316C159.076 294.589 158.996 294.855 158.855 295.088C158.714 295.322 158.515 295.515 158.278 295.65C158.041 295.786 157.773 295.858 157.5 295.86H81.5C81.2068 295.863 80.9187 295.783 80.6679 295.632C80.4172 295.48 80.2136 295.261 80.08 295Z" fill="#FFB583"/>
            <path id="Vector 3" d="M149.43 299.52H78.3V307.68H149.43V299.52Z" fill="#FF9750"/>
            <path id="Vector 4" d="M210.54 299.52H140.35C139.268 299.52 138.23 299.95 137.465 300.715C136.7 301.48 136.27 302.518 136.27 303.6C136.27 304.682 136.7 305.72 137.465 306.485C138.23 307.25 139.268 307.68 140.35 307.68H210.54C211.075 307.68 211.605 307.574 212.1 307.369C212.594 307.164 213.043 306.863 213.421 306.484C213.8 306.105 214.099 305.656 214.303 305.161C214.507 304.666 214.611 304.135 214.61 303.6C214.61 302.52 214.182 301.483 213.419 300.719C212.656 299.954 211.62 299.523 210.54 299.52Z" fill="#B70F5B"/>
            <path id="Vector 5" d="M78.3 299.52L46.55 238.4L45 239.6C44.5042 239.974 44.1577 240.513 44.0221 241.119C43.8866 241.725 43.9709 242.36 44.26 242.91L78.3 307.68V299.52Z" fill="#FF9750"/>
            <path id="Vector 6" d="M110.28 303.33H102.45V304.69H110.28V303.33Z" fill="#FF9750"/>
            <path id="Vector 7" d="M120.12 303.33H112.29V304.69H120.12V303.33Z" fill="#FF9750"/>
            <path id="Vector 8" d="M129.96 303.33H122.13V304.69H129.96V303.33Z" fill="#FF9750"/>
            <path id="Vector 9" opacity="0.5" d="M409 162.55H328.8C328.099 162.55 327.426 162.272 326.93 161.777C326.433 161.283 326.153 160.611 326.15 159.91C326.15 159.207 326.429 158.533 326.926 158.036C327.423 157.539 328.097 157.26 328.8 157.26H409C409.701 157.263 410.373 157.543 410.867 158.04C411.362 158.536 411.64 159.209 411.64 159.91C411.64 160.61 411.362 161.282 410.867 161.777C410.372 162.272 409.7 162.55 409 162.55Z" fill="#FF6224"/>
            <path id="Vector 10" opacity="0.5" d="M380.35 174.06H328.8C328.097 174.06 327.423 173.781 326.926 173.284C326.429 172.787 326.15 172.113 326.15 171.41C326.15 170.707 326.429 170.033 326.926 169.536C327.423 169.039 328.097 168.76 328.8 168.76H380.35C381.051 168.763 381.723 169.043 382.217 169.54C382.712 170.036 382.99 170.709 382.99 171.41C382.99 172.111 382.712 172.784 382.217 173.28C381.723 173.777 381.051 174.057 380.35 174.06Z" fill="#FF9750"/>
            <path id="Vector 11" opacity="0.5" d="M380.35 186.41H328.8C328.097 186.41 327.423 186.131 326.926 185.634C326.429 185.137 326.15 184.463 326.15 183.76C326.15 183.057 326.429 182.383 326.926 181.886C327.423 181.389 328.097 181.11 328.8 181.11H380.35C381.051 181.113 381.723 181.393 382.217 181.89C382.712 182.386 382.99 183.059 382.99 183.76C382.99 184.461 382.712 185.134 382.217 185.63C381.723 186.127 381.051 186.407 380.35 186.41Z" fill="#FF9750"/>
            <path id="Vector 12" opacity="0.5" d="M201.93 230H163.79C163.148 230 162.533 229.745 162.079 229.291C161.625 228.837 161.37 228.222 161.37 227.58C161.369 227.261 161.43 226.946 161.551 226.651C161.672 226.356 161.85 226.088 162.075 225.862C162.3 225.637 162.567 225.457 162.862 225.335C163.156 225.213 163.471 225.15 163.79 225.15H201.93C202.574 225.15 203.193 225.406 203.648 225.862C204.104 226.317 204.36 226.936 204.36 227.58C204.36 227.899 204.297 228.214 204.175 228.508C204.053 228.803 203.873 229.07 203.648 229.295C203.422 229.52 203.154 229.698 202.859 229.819C202.564 229.94 202.249 230.001 201.93 230Z" fill="#FF9750"/>
            <path id="Vector 13" opacity="0.5" d="M187.53 240.52H163.79C163.471 240.52 163.156 240.457 162.862 240.335C162.567 240.213 162.3 240.033 162.075 239.808C161.85 239.582 161.672 239.314 161.551 239.019C161.43 238.724 161.369 238.409 161.37 238.09C161.37 237.448 161.625 236.833 162.079 236.379C162.533 235.925 163.148 235.67 163.79 235.67H187.53C187.849 235.669 188.164 235.73 188.459 235.851C188.754 235.972 189.022 236.15 189.248 236.375C189.473 236.6 189.653 236.867 189.775 237.162C189.897 237.456 189.96 237.771 189.96 238.09C189.96 238.734 189.704 239.353 189.248 239.808C188.793 240.264 188.174 240.52 187.53 240.52Z" fill="#FF6224"/>
            <path id="Vector 14" opacity="0.5" d="M187.53 251.83H163.79C163.471 251.83 163.156 251.767 162.862 251.645C162.567 251.523 162.3 251.343 162.075 251.118C161.85 250.892 161.672 250.624 161.551 250.329C161.43 250.034 161.369 249.719 161.37 249.4C161.37 248.758 161.625 248.143 162.079 247.689C162.533 247.235 163.148 246.98 163.79 246.98H187.53C187.852 246.973 188.172 247.031 188.471 247.15C188.771 247.268 189.044 247.445 189.274 247.671C189.504 247.896 189.686 248.165 189.811 248.462C189.936 248.759 190 249.078 190 249.4C190 249.722 189.936 250.042 189.811 250.339C189.687 250.637 189.504 250.906 189.274 251.133C189.044 251.359 188.772 251.537 188.472 251.657C188.173 251.776 187.852 251.835 187.53 251.83Z" fill="#FF6224"/>
            <path id="Vector 15" d="M306.31 441.28C304.71 441.86 303.11 442.423 301.51 442.97L300.4 441.59L292.52 431.8L281.14 417.64L279.73 415.89L267.57 400.77L266.71 399.7L261 392.58L246.95 375.11V375.06L243.86 371.23L224.41 347.05L206.93 325.31L203.18 320.65C202.817 320.151 202.661 319.532 202.743 318.921C202.825 318.309 203.139 317.753 203.62 317.367C204.101 316.981 204.712 316.795 205.327 316.848C205.941 316.901 206.512 317.188 206.92 317.65L213.09 325.32L229.31 345.48L246.94 367.4L250.02 371.24L251.34 372.88L263.68 388.22L268.89 394.69L273.41 400.32L283.95 413.42L287.36 417.65L296.31 428.79L304.19 438.58L306.31 441.28Z" fill="#E03C03"/>
            <path id="Vector 16" d="M290.65 320.65L286.9 325.31L284.64 328.12L281.26 332.33L264.86 352.72L264 353.8L250 371.23L246.93 375.06L246.82 375.18L228.7 397.72L226.86 400L223.75 403.86L212.64 417.66L201.26 431.8L198.54 435.18L195.46 439L193.39 441.57L191.68 443.69L186.39 450.27L185.39 450.07C185 449.99 184.62 449.92 184.25 449.83L183.42 449.65L181.09 449.13L182.91 446.87L184.79 444.53L189.6 438.53L192.32 435.14L195.42 431.3L197.42 428.74L206.42 417.6L219.84 401L220.95 399.63L222.13 398.16L236.78 380L243.78 371.27L246.86 367.43L258.86 352.43L259.57 351.54L279.75 326.45L280.67 325.32L283.24 322.12L286.83 317.65C287.029 317.404 287.274 317.199 287.552 317.048C287.83 316.896 288.136 316.801 288.45 316.768C288.765 316.734 289.084 316.763 289.387 316.853C289.691 316.942 289.974 317.091 290.22 317.29C290.469 317.482 290.678 317.721 290.835 317.994C290.992 318.267 291.093 318.568 291.133 318.881C291.173 319.193 291.151 319.51 291.068 319.813C290.985 320.117 290.843 320.401 290.65 320.65Z" fill="#FF6224"/>
            <path id="Vector 17" d="M201.26 438.57L213.76 454.1C211.53 453.94 209.31 453.73 207.09 453.5L197.51 441.59L196.22 440L195.46 439L192.36 435.16L189.64 431.78L182.54 422.95L177.59 416.79L169.59 406.84L147 378.75L104 325.31L100.25 320.65C100.053 320.404 99.9064 320.121 99.8187 319.818C99.7309 319.515 99.7037 319.198 99.7385 318.885C99.7733 318.571 99.8695 318.268 100.022 317.992C100.174 317.716 100.379 317.472 100.625 317.275C100.871 317.078 101.154 316.931 101.457 316.844C101.76 316.756 102.077 316.729 102.39 316.764C102.704 316.798 103.007 316.895 103.283 317.047C103.559 317.199 103.803 317.404 104 317.65L110.16 325.32L151.16 376.32L173.79 404.46L176.04 407.25L183.5 416.55H183.56L184.4 417.6L193.4 428.74L195.47 431.3L198.55 435.14L199.96 436.9L201.26 438.57Z" fill="#FF6224"/>
            <path id="Vector 18" d="M135.2 325.31H48.4799C46.8462 325.31 45.2794 324.661 44.1242 323.506C42.9689 322.351 42.3199 320.784 42.3199 319.15C42.3226 317.518 42.9728 315.954 44.1277 314.801C45.2826 313.648 46.8479 313 48.4799 313H135.2C136.834 313 138.4 313.649 139.556 314.804C140.711 315.959 141.36 317.526 141.36 319.16C141.357 320.792 140.707 322.356 139.552 323.509C138.397 324.662 136.832 325.31 135.2 325.31Z" fill="#FF9750"/>
            <path id="Vector 19" d="M384.7 325.31H136.86C136.05 325.311 135.248 325.153 134.5 324.844C133.751 324.535 133.071 324.081 132.498 323.509C131.925 322.937 131.47 322.258 131.16 321.51C130.85 320.762 130.69 319.96 130.69 319.15C130.69 318.34 130.85 317.538 131.16 316.79C131.47 316.042 131.925 315.363 132.498 314.791C133.071 314.219 133.751 313.765 134.5 313.456C135.248 313.147 136.05 312.989 136.86 312.99H384.7V325.31Z" fill="#FF6224"/>
            <path id="Vector 20" d="M202.18 435.18C202.18 436.511 201.785 437.812 201.046 438.919C200.306 440.026 199.255 440.888 198.025 441.398C196.796 441.907 195.443 442.04 194.137 441.781C192.832 441.521 191.632 440.88 190.691 439.939C189.75 438.998 189.109 437.798 188.849 436.493C188.59 435.187 188.723 433.834 189.232 432.605C189.742 431.375 190.604 430.324 191.711 429.584C192.818 428.845 194.119 428.45 195.45 428.45C197.235 428.45 198.947 429.159 200.209 430.421C201.471 431.683 202.18 433.395 202.18 435.18Z" fill="#E03C03"/>
            <path id="Vector 21" d="M305.06 435.18C305.06 436.511 304.665 437.812 303.926 438.919C303.186 440.026 302.135 440.888 300.905 441.398C299.676 441.907 298.323 442.04 297.017 441.781C295.712 441.521 294.512 440.88 293.571 439.939C292.63 438.998 291.989 437.798 291.729 436.493C291.47 435.187 291.603 433.834 292.112 432.605C292.622 431.375 293.484 430.324 294.591 429.584C295.698 428.845 296.999 428.45 298.33 428.45C299.214 428.45 300.089 428.624 300.905 428.962C301.722 429.3 302.464 429.796 303.089 430.421C303.714 431.046 304.209 431.788 304.548 432.605C304.886 433.421 305.06 434.296 305.06 435.18Z" fill="#FFC947"/>
            <path id="Vector 22" d="M233 410.59C233 410.59 229.5 413.32 224 417.64C218.3 422.16 210.44 428.39 202.13 435.13L200 436.94L196.27 439.94L194 441.77C193.22 442.4 192.43 443.05 191.64 443.71C189.49 445.48 187.36 447.25 185.27 449L184.27 449.85L183.44 449.67L181.11 449.15C166.178 445.712 151.651 440.708 137.77 434.22C142.28 427.43 145.85 422.47 147.58 420.88C150.58 418.09 159.64 412.57 169.58 406.88L173.81 404.47C188.13 396.36 202.74 388.62 202.74 388.62L207.6 392.15L216.45 398.59L217.68 399.46L219.83 401.03L223.74 403.86L229.93 408.37L233 410.59Z" fill="#F45721"/>
            <path id="Vector 23" d="M299.51 192.81C298.83 194.35 298.07 195.95 297.2 197.59C292.53 206.5 295.98 215.43 290.66 217.7C290.315 217.847 289.957 217.961 289.59 218.04C282.72 219.56 266.92 210.43 266.23 205.86C265.54 201.29 271.1 193.47 266.23 192.52C261.36 191.57 258.73 199.77 258.73 199.77C254.73 200.18 253.29 193.47 246.73 193.47C245.812 193.475 244.899 193.592 244.01 193.82C241.219 194.625 238.643 196.043 236.47 197.97C235.76 198.566 235.091 199.211 234.47 199.9C232.706 198.668 231.273 197.019 230.3 195.1C229.326 193.181 228.842 191.051 228.89 188.9C229.36 177.34 233.62 168.9 243.89 167.19C245.03 154.34 255.61 147.48 269.74 147.04C282.14 146.66 283.99 157.8 284.28 160.57C284.17 158.51 283.59 151.71 280.64 147.04C286.85 146.77 292.31 151.2 290.89 165.62C292.31 161.33 297.32 158.62 301.16 161.76C297.6 161.76 294.16 167.76 294.16 167.76C297.021 169.764 299.41 172.368 301.16 175.39C303.56 179.47 302.67 185.52 299.51 192.81Z" fill="#382424"/>
            <path id="Vector 24" d="M290.66 217.7L290.5 219.82L289.95 227.32C289.95 227.32 278.54 237.09 272.06 227.32C272.02 227.252 271.973 227.188 271.92 227.13C269.92 224.13 268.1 223.13 266.45 222.91C262.88 222.48 259.99 225.98 257.01 222.19C248.48 211.37 245.09 198.84 244.01 193.82C244.899 193.592 245.812 193.475 246.73 193.47C253.3 193.47 254.73 200.18 258.73 199.77C258.73 199.77 261.36 191.58 266.23 192.52C271.1 193.46 265.54 201.29 266.23 205.86C266.53 207.86 269.85 210.86 274.05 213.34C278.94 216.28 285.05 218.6 288.9 218.15C289.14 218.15 289.36 218.09 289.59 218.04C289.957 217.961 290.315 217.847 290.66 217.7Z" fill="#FFD0C5"/>
            <g id="Vector 25" style="mix-blend-mode:overlay" opacity="0.25">
               <g id="Vector_2" style="mix-blend-mode:overlay" opacity="0.25">
                  <path d="M292.44 231.67C287.29 235.18 277.87 235.75 277.87 235.75L270.16 234.62C270.16 234.62 266.93 229.94 268.44 227.32C268.997 226.552 269.672 225.877 270.44 225.32C273.201 223.151 276.165 221.252 279.29 219.65C282.84 217.8 286.52 216.34 289.16 216.18C295.68 215.77 297.58 228.14 292.44 231.67Z" fill="black"/>
               </g>
            </g>
            <path id="Vector 26" d="M290.92 356.7C279.44 358.91 255.15 352.15 243.53 346.92C240.1 345.38 237.76 343.97 237.2 342.98C234.97 339.05 237.2 336.04 242.75 323.57C243.37 322.163 244.037 320.633 244.75 318.98C248.5 310.15 248.52 291.31 248.5 275.08C248.5 261.18 248.39 249.19 250.6 247.08C255.4 242.46 279.31 227.34 279.31 227.34L284.07 252.16C284.07 252.16 286.77 264.76 289.61 281.16C294.81 311.46 300.55 354.84 290.92 356.7Z" fill="#B70F5B"/>
            <path id="Vector 27" d="M298.91 367.75C298.91 368.89 287.49 395.54 277.91 399.36C276.445 399.863 274.924 400.182 273.38 400.31C271.72 400.52 269.77 400.67 267.59 400.77L266.02 400.82C254.86 401.24 238.83 400.6 226.88 399.98L220.97 399.64L217.71 399.44C213.31 399.17 210.56 398.97 210.56 398.97L183.61 416.59L182 417.64L182.56 422.97L184.85 444.55L185.33 449L185.45 450.09C185.06 450.01 184.68 449.94 184.31 449.85L183.48 449.67L181.15 449.15C166.218 445.712 151.691 440.708 137.81 434.22L135.96 433.35C131.96 412.7 130.55 394.57 135.53 387.93C137.7 385.04 141.73 381.93 147 378.75C148.33 377.93 149.74 377.13 151.21 376.31C171.92 364.94 205.95 353.1 224.38 347.05C226.18 346.48 227.82 345.94 229.28 345.47C234.28 343.89 237.22 342.98 237.22 342.98C239.714 344.534 242.345 345.857 245.08 346.93C245.69 347.18 246.29 347.42 246.92 347.65C247.55 347.88 248.37 348.19 249.11 348.45L250.38 348.88L251.24 349.16C252.18 349.46 253.12 349.76 254.08 350.04C255.31 350.39 256.54 350.73 257.77 351.04C258.397 351.213 259.027 351.373 259.66 351.52C261.41 351.96 263.14 352.36 264.87 352.72L266.42 353.05C266.94 353.16 267.42 353.27 267.97 353.36C268.52 353.45 269.06 353.58 269.59 353.68C270.42 353.83 271.24 353.99 272.04 354.12L273.04 354.3C273.67 354.42 274.3 354.52 274.91 354.62L276.71 354.91L277.48 355.02C277.73 355.02 277.98 355.11 278.23 355.14L279.69 355.36C280.17 355.42 280.63 355.48 281.09 355.56L282.41 355.73C282.97 355.82 283.5 355.88 284.02 355.94L286.02 356.18C286.89 356.29 287.66 356.37 288.31 356.43C288.76 356.49 289.17 356.53 289.51 356.56H289.83H290.35H290.6H290.95C290.95 356.56 298.91 366.59 298.91 367.75Z" fill="#FF6224"/>
            <path id="Vector 28" d="M243.56 308.08C239.97 313.08 233.56 320.71 228.25 319.94L227.6 319.83C217.5 318.05 158.11 303.16 155.3 302.6C152.49 302.04 132.46 301.85 133.6 299.75C134.74 297.65 146.16 290.99 149.21 291.15C152.26 291.31 164.21 294.79 176.21 294.41C188.21 294.03 219.64 294.41 219.64 294.41L221.16 291.78L223.41 287.9C222.82 299.54 236.85 309 243.56 308.08Z" fill="#FFD0C5"/>
            <g id="Vector 29" style="mix-blend-mode:overlay" opacity="0.15">
               <g id="Vector_3" style="mix-blend-mode:overlay" opacity="0.15">
                  <path d="M298.91 367.75C298.91 368.89 287.49 395.54 277.91 399.36C276.445 399.863 274.924 400.182 273.38 400.31C271.72 400.52 269.77 400.67 267.59 400.77L266.02 400.82C254.86 401.24 238.83 400.6 226.88 399.98L220.97 399.64L217.71 399.44C213.31 399.17 210.56 398.97 210.56 398.97L183.61 416.59L182 417.64L182.56 422.97L184.85 444.55L185.33 449L185.45 450.09C185.06 450.01 184.68 449.94 184.31 449.85L183.48 449.67C183.31 448.76 183.15 447.83 182.97 446.89C181.06 436.44 178.97 425.03 177.61 416.81C176.89 412.61 176.35 409.23 176.09 407.24C175.998 406.647 175.937 406.05 175.91 405.45C175.91 403.95 189.85 399.07 207.63 392.13C216.8 388.56 226.98 384.44 236.8 379.96C240.21 378.4 243.56 376.81 246.8 375.18L246.94 375.11C248.407 374.37 249.86 373.623 251.3 372.87C261.3 367.56 270.03 361.93 275.53 356.21C275.95 355.79 276.35 355.35 276.72 354.92L277.49 355.03C277.74 355.03 277.99 355.12 278.24 355.15L279.7 355.37L281.1 355.57L282.42 355.74C282.98 355.83 283.51 355.89 284.03 355.95L286.03 356.19C286.9 356.3 287.67 356.38 288.32 356.44C288.77 356.5 289.18 356.53 289.52 356.57H289.84H290.36H290.61H290.96C290.96 356.57 298.91 366.59 298.91 367.75Z" fill="black"/>
               </g>
            </g>
            <g id="Vector 30" style="mix-blend-mode:overlay" opacity="0.75">
               <g id="Vector_4" style="mix-blend-mode:overlay" opacity="0.75">
                  <path d="M261.29 299.55C256.29 306.55 248.36 315.49 242.75 323.55C243.37 322.143 244.037 320.613 244.75 318.96C248.5 310.13 248.52 291.29 248.5 275.06L265.61 263.74C265.61 263.74 269.29 288.22 261.29 299.55Z" fill="black"/>
               </g>
            </g>
            <path id="Vector 31" d="M246.69 305.92C245.95 306.59 245.2 307.26 244.44 307.92C244.156 308.022 243.86 308.086 243.56 308.11C236.85 309.06 222.82 299.57 223.45 287.93C223.8 286.199 224.425 284.534 225.3 283C231.04 271.43 248.3 245.67 251.48 246.86C251.48 246.86 262.57 248.57 265.59 263.72C268.41 278 258.23 295.23 246.69 305.92Z" fill="#B70F5B"/>
            <g id="Vector 32" style="mix-blend-mode:overlay" opacity="0.5">
               <g id="Vector_5" style="mix-blend-mode:overlay" opacity="0.5">
                  <path d="M286 356.19C283.56 355.9 280.37 355.48 276.73 354.92C267.28 353.45 254.85 350.92 245.07 346.92C253.7 346.62 272.15 340.92 274.38 298.7C275.426 306.946 276.969 315.12 279 323.18C281.885 334.059 284.221 345.076 286 356.19Z" fill="black"/>
               </g>
            </g>
            <g id="Vector 33" style="mix-blend-mode:overlay" opacity="0.25">
               <g id="Vector_6" style="mix-blend-mode:overlay" opacity="0.25">
                  <path d="M281.43 216.86C280.672 217.728 279.971 218.643 279.33 219.6C276.205 221.202 273.241 223.101 270.48 225.27C269.485 224.015 268.06 223.174 266.48 222.91L274.08 213.34C276.409 214.751 278.871 215.93 281.43 216.86Z" fill="black"/>
               </g>
            </g>
            <g id="Vector 34" style="mix-blend-mode:overlay" opacity="0.25">
               <g id="Vector_7" style="mix-blend-mode:overlay" opacity="0.25">
                  <path d="M243.56 308.08C239.97 313.08 233.56 320.71 228.25 319.94L227.6 319.83C221.06 310.37 220.82 297.98 221.2 291.78L223.45 287.9C222.82 299.54 236.85 309 243.56 308.08Z" fill="black"/>
               </g>
            </g>
            <g id="Vector 35" style="mix-blend-mode:overlay" opacity="0.25">
               <g id="Vector_8" style="mix-blend-mode:overlay" opacity="0.25">
                  <path d="M299.51 192.81C298.83 194.35 298.07 195.95 297.2 197.59C294.91 201.96 294.59 206.32 294.2 209.93C293.454 209.348 292.673 208.814 291.86 208.33C287.94 210.584 284.417 213.466 281.43 216.86C274.43 214.36 266.73 209.01 266.25 205.86C265.56 201.29 271.12 193.47 266.25 192.52C261.38 191.57 258.75 199.77 258.75 199.77C254.75 200.18 253.31 193.47 246.75 193.47C245.832 193.475 244.919 193.592 244.03 193.82C241.239 194.625 238.663 196.043 236.49 197.97C236.49 197.97 243.9 187.57 255.49 189.67C255.49 189.67 253.79 186.43 245.97 186.81C262.35 181.48 272.82 183.58 277.87 189.48C282 194.3 291.65 200.26 299.51 192.81Z" fill="black"/>
               </g>
            </g>
            <path id="Vector 36" d="M332.82 417.65H275.67C275.67 417.65 321 404.31 321 314.41C321 313.26 321 312.12 321 310.98C320.53 250.9 307.69 217.77 291.87 208.33C298.17 204.713 305.006 202.121 312.12 200.65C316.279 199.728 320.49 199.06 324.73 198.65C363.86 194.65 395.12 210 398.84 227.36C402.56 244.72 379.66 417.65 332.82 417.65Z" fill="#FF6224"/>
            <path id="Vector 37" d="M321 314.41C321 404.31 275.67 417.65 275.67 417.65H182L185.89 414.87L210.54 399L260.06 395.57C262.72 384.57 269.96 384.16 281.01 383C287.44 382.35 288.06 371.49 286.11 357.15C284.339 345.72 281.969 334.391 279.01 323.21C276.969 315.151 275.416 306.976 274.36 298.73C273.22 289.975 272.626 281.158 272.58 272.33C272.455 256.598 273.997 240.897 277.18 225.49C277.4 224.36 277.64 223.27 277.88 222.22C277.88 222.22 277.88 222.14 277.88 222.11C278.802 220.219 279.984 218.465 281.39 216.9C284.377 213.506 287.9 210.624 291.82 208.37C292.633 208.854 293.414 209.388 294.16 209.97C308.89 221.19 320.5 253.97 320.95 311.02C321 312.12 321 313.26 321 314.41Z" fill="#FF9750"/>
            <path id="Vector 38" d="M275.67 450.07C271.4 450.97 267.07 451.74 262.67 452.37V417.64H275.67V450.07Z" fill="#FF6224"/>
            <g id="Vector 39" style="mix-blend-mode:overlay" opacity="0.15">
               <g id="Vector_9" style="mix-blend-mode:overlay" opacity="0.15">
                  <path d="M275.67 417.65V442.65C271.501 444.799 267.171 446.621 262.72 448.1V417.65H275.67Z" fill="black"/>
               </g>
            </g>
            <g id="Vector 40" style="mix-blend-mode:overlay" opacity="0.15">
               <g id="Vector_10" style="mix-blend-mode:overlay" opacity="0.15">
                  <path d="M293.58 378.79C290.53 388.31 271.5 386.61 269.2 393.65C264.3 408.59 261.58 402.02 242.75 403.93C231.97 405.02 224.15 411.93 219.44 417.65H182L185.89 414.87L210.54 399L260.06 395.57C262.72 384.57 269.96 384.16 281.01 383C287.44 382.35 288.06 371.49 286.11 357.15C284.339 345.72 281.969 334.391 279.01 323.21C276.969 315.151 275.416 306.976 274.36 298.73C273.22 289.975 272.626 281.158 272.58 272.33C279.9 310.49 295.84 371.74 293.58 378.79Z" fill="black"/>
               </g>
            </g>
            <g id="Vector 41" style="mix-blend-mode:overlay" opacity="0.15">
               <g id="Vector_11" style="mix-blend-mode:overlay" opacity="0.15">
                  <path d="M321 314.41C321 313.26 321 312.12 321 310.98C320.53 250.9 307.69 217.77 291.87 208.33C298.17 204.713 305.006 202.121 312.12 200.65C309.5 204.42 306.78 210.07 308.06 216.12C310.35 226.81 336.26 267.94 326.35 333.84C319.2 381.39 321.58 406.12 329.05 417.65H275.67C275.67 417.65 321 404.31 321 314.41Z" fill="black"/>
               </g>
            </g>
         </g>
         <g id="icon 3 thivin" class="translate-from-top-FloatInverse">
            <path id="Vector 42" class="glow" d="M289.08 72.43H290.08V69H289.29C284.64 69 281.03 71.49 281.03 77.4C281.03 79.4 281.23 81.22 281.41 83.19C281.644 85.0414 281.778 86.9041 281.81 88.77C281.81 90.95 280.95 93.37 277.34 93.37V96.66C280.95 96.66 281.81 99.22 281.81 101.33C281.774 103.216 281.641 105.098 281.41 106.97C281.23 108.89 281.03 110.86 281.03 112.83C281.03 119.06 284.9 121.23 289.24 121.23H290.08V117.82H289.17C286.17 117.82 285.17 115.82 285.17 112.82C285.197 111.123 285.333 109.429 285.58 107.75C285.7 106.11 285.9 104.46 285.9 102.82C285.96 97.64 284.19 95.82 281.36 95.01V94.9C284.19 94.11 285.96 92.34 285.9 87.21C285.9 85.63 285.7 84.06 285.58 82.34C285.33 80.6846 285.193 79.014 285.17 77.34C285.21 74.4 286.33 72.43 289.08 72.43Z" fill="#FF9750"/>
            <path id="Vector 43" class="glow" d="M351.44 88.78C351.44 86.89 351.64 85.04 351.82 83.2C352.064 81.2791 352.201 79.3461 352.23 77.41C352.23 71.5 348.61 69.01 343.94 69.01H343.15V72.43H344.15C346.91 72.76 348.04 74.43 348.04 77.36C348.04 79.13 347.84 80.77 347.71 82.36C347.483 83.9743 347.35 85.6003 347.31 87.23C347.23 92.36 349.02 94.13 351.83 94.92V95C349.02 95.86 347.23 97.63 347.31 102.81C347.344 104.46 347.478 106.106 347.71 107.74C347.84 109.38 348.04 111.03 348.04 112.81C348.04 115.75 347.04 117.47 344.09 117.81H343.16V121.22H344C348.35 121.22 352.22 119.05 352.22 112.82C352.19 110.861 352.053 108.904 351.81 106.96C351.63 105.07 351.43 103.15 351.43 101.32C351.43 99.21 352.29 96.65 355.9 96.65V93.38C352.3 93.38 351.44 91 351.44 88.78Z" fill="#FF9750"/>
            <path id="Vector 44" class="glow" d="M317.62 71.25H315.63V75.23H317.62V71.25Z" fill="#FFBC8F"/>
            <path id="Vector 45" class="glow"  d="M337.51 91.15H333.53V93.14H337.51V91.15Z" fill="#FFBC8F"/>
            <path id="Vector 46"  class="glow" d="M330.684 76.6734L327.87 79.4877L329.284 80.9019L332.098 78.0876L330.684 76.6734Z" fill="#FFBC8F"/>
            <path id="Vector 47"  class="glow" d="M299.71 91.15H295.73V93.14H299.71V91.15Z" fill="#FFBC8F"/>
            <path id="Vector 48"  class="glow" d="M302.56 76.6673L301.146 78.0815L303.96 80.8958L305.374 79.4816L302.56 76.6673Z" fill="#FFBC8F"/>
            <path id="Vector 49" class="glow"  d="M312.64 84.18C311.844 84.18 311.081 84.4961 310.519 85.0587C309.956 85.6213 309.64 86.3844 309.64 87.18C309.64 87.18 309.64 87.25 309.64 87.28C310.828 87.049 312.059 87.2513 313.11 87.85L312.11 89.57C311.563 89.2979 310.947 89.1991 310.342 89.2868C309.738 89.3745 309.175 89.6446 308.728 90.0609C308.281 90.4773 307.972 91.02 307.842 91.6167C307.712 92.2133 307.767 92.8355 308 93.4C308.177 93.7722 308.429 94.1039 308.74 94.3745C309.051 94.645 309.414 94.8486 309.808 94.9724C310.201 95.0963 310.615 95.1378 311.025 95.0944C311.435 95.0509 311.832 94.9235 312.19 94.72L313.19 96.44C312.433 96.8772 311.574 97.1082 310.7 97.11C310.365 97.1115 310.03 97.0814 309.7 97.02C309.7 97.02 309.7 97.08 309.7 97.11C309.7 97.9057 310.016 98.6687 310.579 99.2313C311.141 99.7939 311.904 100.11 312.7 100.11C313.496 100.11 314.259 99.7939 314.821 99.2313C315.384 98.6687 315.7 97.9057 315.7 97.11V87.17C315.702 86.9231 315.668 86.6773 315.6 86.44C315.433 85.7849 315.05 85.2053 314.513 84.7951C313.976 84.3849 313.316 84.1682 312.64 84.18Z" fill="#FFBC8F"/>
            <path id="Vector 50" class="glow"  d="M311.75 115C312.006 116.1 312.626 117.081 313.511 117.783C314.395 118.485 315.491 118.867 316.62 118.867C317.749 118.867 318.845 118.485 319.729 117.783C320.614 117.081 321.234 116.1 321.49 115H311.75Z" fill="#FFBC8F"/>
            <path id="Vector 51"  class="glow" d="M323.58 112C323.58 111.735 323.475 111.48 323.287 111.293C323.1 111.105 322.845 111 322.58 111H310.65C310.385 111 310.13 111.105 309.943 111.293C309.755 111.48 309.65 111.735 309.65 112C309.65 112.265 309.755 112.52 309.943 112.707C310.13 112.895 310.385 113 310.65 113H322.59C322.853 112.997 323.105 112.891 323.291 112.704C323.476 112.516 323.58 112.263 323.58 112Z" fill="#FFBC8F"/>
            <path id="Vector 52"  class="glow"  d="M325 82.31C323.566 81.0906 321.885 80.1971 320.072 79.6913C318.259 79.1854 316.358 79.0792 314.5 79.38C312.334 79.7214 310.291 80.6133 308.568 81.9703C306.845 83.3273 305.5 85.1039 304.66 87.13C303.58 89.8711 303.419 92.8889 304.202 95.7293C304.984 98.5697 306.668 101.079 309 102.88C309.831 103.532 310.504 104.364 310.968 105.313C311.432 106.262 311.676 107.304 311.68 108.36V109.05H321.62V108.36C321.611 107.312 321.844 106.276 322.3 105.333C322.756 104.389 323.423 103.564 324.25 102.92C325.899 101.646 327.236 100.014 328.16 98.1456C329.084 96.2776 329.569 94.2238 329.58 92.14C329.578 90.2669 329.167 88.4169 328.376 86.7191C327.585 85.0212 326.433 83.5165 325 82.31ZM325.55 97.11C325.536 98.1468 325.201 99.1538 324.59 99.9915C323.979 100.829 323.123 101.456 322.139 101.786C321.156 102.115 320.095 102.131 319.103 101.831C318.11 101.531 317.236 100.929 316.6 100.11C315.914 100.98 314.958 101.597 313.883 101.864C312.808 102.132 311.675 102.035 310.661 101.589C309.647 101.142 308.81 100.372 308.281 99.3984C307.753 98.4249 307.562 97.3034 307.74 96.21C307.211 95.8355 306.761 95.3603 306.416 94.8117C306.07 94.263 305.837 93.6517 305.728 93.0126C305.619 92.3736 305.638 91.7194 305.782 91.0875C305.927 90.4556 306.194 89.8584 306.57 89.33C306.89 88.8698 307.29 88.4703 307.75 88.15C307.682 87.8414 307.648 87.5261 307.65 87.21C307.663 86.1732 307.999 85.1662 308.61 84.3285C309.221 83.4908 310.077 82.8638 311.06 82.5342C312.044 82.2047 313.105 82.189 314.097 82.4892C315.09 82.7894 315.964 83.3908 316.6 84.21C317.287 83.3389 318.243 82.7208 319.32 82.4531C320.396 82.1853 321.531 82.283 322.546 82.7308C323.56 83.1786 324.397 83.9511 324.925 84.9267C325.452 85.9023 325.641 87.0257 325.46 88.12C325.991 88.493 326.442 88.967 326.79 89.515C327.137 90.0629 327.372 90.6739 327.483 91.313C327.593 91.9522 327.577 92.6068 327.434 93.2395C327.291 93.8722 327.024 94.4704 326.65 95C326.33 95.4602 325.93 95.8597 325.47 96.18C325.542 96.4846 325.575 96.797 325.57 97.11H325.55Z" fill="#FFBC8F"/>
            <path id="Vector 53" class="glow" d="M323.89 89.47C323.455 89.25 322.971 89.1429 322.483 89.1586C321.996 89.1743 321.52 89.3124 321.1 89.56L320.1 87.84C321.151 87.2404 322.382 87.0381 323.57 87.27C323.57 87.27 323.57 87.2 323.57 87.17C323.543 86.4607 323.264 85.7842 322.785 85.2606C322.306 84.737 321.657 84.4003 320.952 84.3103C320.248 84.2204 319.535 84.383 318.94 84.7692C318.344 85.1555 317.905 85.7404 317.7 86.42C317.634 86.6644 317.604 86.917 317.61 87.17V97.11C317.61 97.9056 317.926 98.6687 318.489 99.2313C319.051 99.7939 319.814 100.11 320.61 100.11C321.406 100.11 322.169 99.7939 322.731 99.2313C323.294 98.6687 323.61 97.9056 323.61 97.11C323.615 97.0802 323.615 97.0498 323.61 97.02C322.422 97.2564 321.189 97.0539 320.14 96.45L321.14 94.73C321.558 94.9724 322.03 95.1075 322.514 95.1232C322.997 95.1389 323.477 95.0347 323.91 94.82C324.614 94.4781 325.156 93.8748 325.421 93.1388C325.687 92.4028 325.654 91.5922 325.33 90.88C325.043 90.2603 324.548 89.7612 323.93 89.47H323.89Z" fill="#FFBC8F"/>
         </g>

         <g id="Orbit thivin">
            <path id="Vector 55" d="M 63.2 360.2 C 41 385.5 33.398 406.965 40 417 C 48.8816 430.5 69.5 430.76 123.6658 396.294 C 297 286 463.153 86.2975 427.04 44.8949 C 418.846 35.5 395 36.5 363.5 56" stroke="#E03C58" stroke-width="4"/>
         </g>
         <g id="orbitball thivin">
            <path id="Vector 54" d="M443.5 87.2C454.269 87.2 463 78.6486 463 68.1C463 57.5514 454.269 49 443.5 49C432.73 49 424 57.5514 424 68.1C424 78.6486 432.73 87.2 443.5 87.2Z" fill="url(#paint0_linear)">
               <animateMotion dur="4s" repeatCount="indefinite"
      path="
m -386.8 302.2 c -22.2 25.3 -29.802 46.765 -23.2 56.8 c 8.8816 13.5 29.5 13.76 83.6658 -20.706 c 173.3342 -110.294 339.4872 -309.9965 303.3742 -351.3991 c -8.194 -9.3949 -32.04 -8.3949 -63.54 11.1051         "  />
            </path>
         </g>
         <g id="icon 2 thivin" class="translate-from-top-Float">
            <path id="Vector 56" d="M262.37 52.14H207.09C204.362 52.14 202.15 54.3517 202.15 57.08V98.19C202.15 100.918 204.362 103.13 207.09 103.13H262.37C265.098 103.13 267.31 100.918 267.31 98.19V57.08C267.31 54.3517 265.098 52.14 262.37 52.14Z" fill="#FF6224"/>
            <path id="Vector 57" d="M222.29 64.64H222.85V62.64H222.4C219.74 62.64 217.67 64.06 217.67 67.44C217.67 68.61 217.79 69.63 217.89 70.76C218.027 71.8181 218.104 72.8831 218.12 73.95C218.167 74.3009 218.134 74.6579 218.024 74.9942C217.913 75.3305 217.727 75.6373 217.481 75.8914C217.234 76.1456 216.933 76.3405 216.601 76.4615C216.268 76.5825 215.912 76.6265 215.56 76.59V78.47C215.913 78.4404 216.269 78.4901 216.6 78.6154C216.932 78.7408 217.231 78.9386 217.477 79.1945C217.722 79.4504 217.907 79.7579 218.018 80.0945C218.13 80.4311 218.164 80.7883 218.12 81.14C218.102 82.22 218.025 83.2983 217.89 84.37C217.79 85.47 217.67 86.59 217.67 87.72C217.67 91.28 219.89 92.53 222.37 92.53H222.85V90.53H222.33C220.64 90.53 220.07 89.36 220.07 87.68C220.089 86.7096 220.166 85.7412 220.3 84.78C220.38 83.84 220.49 82.9 220.49 81.96C220.49 78.96 219.49 77.96 217.89 77.49V77.5C219.51 77.05 220.52 76.04 220.49 73.1C220.49 72.2 220.38 71.3 220.3 70.31C220.163 69.3658 220.087 68.4139 220.07 67.46C220.07 65.77 220.71 64.64 222.29 64.64Z" fill="#FF9750"/>
            <path id="Vector 58" d="M251.34 74C251.34 72.92 251.46 71.86 251.56 70.81C251.698 69.7084 251.774 68.6001 251.79 67.49C251.79 64.11 249.72 62.69 247.05 62.69H246.6V64.69H247.16C248.74 64.88 249.39 65.82 249.39 67.51C249.39 68.51 249.27 69.51 249.2 70.36C249.084 71.2691 249.017 72.1837 249 73.1C249 76.04 250 77.1 251.59 77.5V77.58C249.98 78.07 248.96 79.08 249 82.05C249.022 82.9937 249.099 83.9353 249.23 84.87C249.3 85.81 249.42 86.75 249.42 87.77C249.42 89.45 248.86 90.44 247.16 90.62H246.63V92.62H247.12C249.61 92.62 251.82 91.37 251.82 87.81C251.804 86.69 251.727 85.5717 251.59 84.46C251.49 83.37 251.37 82.28 251.37 81.23C251.326 80.8783 251.36 80.5211 251.472 80.1845C251.583 79.8479 251.768 79.5404 252.013 79.2845C252.259 79.0286 252.558 78.8308 252.89 78.7054C253.221 78.5801 253.577 78.5304 253.93 78.56V76.64C253.575 76.6814 253.216 76.6412 252.88 76.5223C252.543 76.4035 252.238 76.2093 251.988 75.9545C251.738 75.6998 251.55 75.3912 251.438 75.0524C251.325 74.7136 251.292 74.3537 251.34 74Z" fill="#FF9750"/>
            <path id="Vector 59" d="M227.33 87.26C228.435 87.26 229.33 86.3646 229.33 85.26C229.33 84.1554 228.435 83.26 227.33 83.26C226.225 83.26 225.33 84.1554 225.33 85.26C225.33 86.3646 226.225 87.26 227.33 87.26Z" fill="#FFBC8F"/>
            <path id="Vector 60" d="M234.73 87.26C235.835 87.26 236.73 86.3646 236.73 85.26C236.73 84.1554 235.835 83.26 234.73 83.26C233.625 83.26 232.73 84.1554 232.73 85.26C232.73 86.3646 233.625 87.26 234.73 87.26Z" fill="#FFBC8F"/>
            <path id="Vector 61" d="M242.13 87.26C243.235 87.26 244.13 86.3646 244.13 85.26C244.13 84.1554 243.235 83.26 242.13 83.26C241.025 83.26 240.13 84.1554 240.13 85.26C240.13 86.3646 241.025 87.26 242.13 87.26Z" fill="#FFBC8F"/>
         </g>
         <g id="icon 1 thivin" class="translate-from-top-Float">
            <path id="Vector 62" d="M102.22 62H46.94C44.2117 62 42 64.2117 42 66.94V108.05C42 110.778 44.2117 112.99 46.94 112.99H102.22C104.948 112.99 107.16 110.778 107.16 108.05V66.94C107.16 64.2117 104.948 62 102.22 62Z" fill="#B70F5B"/>
            <path id="Vector 63" d="M59.13 82.17L61.13 83.7L59.29 87.22C58.37 88.85 59.95 90.43 60.95 90.98C62.2189 91.4866 63.5889 91.6887 64.95 91.57L67.52 87.34L69.52 88.4L66.13 82.11L59.13 82.17ZM59.42 90.8L63.61 98.55C64.46 99.62 66.05 99.88 67.7 99.84H72.12V92.5L63.73 92.44C62.934 92.515 62.1314 92.4061 61.3841 92.1217C60.6368 91.8374 59.9649 91.3852 59.42 90.8ZM85.82 76.51L83.53 77.51L81.34 74.19C80.34 72.6 78.22 73.19 77.25 73.83C76.1992 74.6846 75.3635 75.7738 74.81 77.01L77.26 81.32L75.38 82.52L82.52 82.6L85.82 76.51ZM78.13 72.58L69.32 72.49C67.97 72.71 66.98 73.97 66.21 75.43L64.07 79.31L70.52 82.86L74.64 75.55C74.9575 74.8221 75.4369 74.1762 76.0417 73.6615C76.6465 73.1469 77.3607 72.777 78.13 72.58ZM78.52 102.49L78.78 100.02L82.78 99.72C84.64 99.64 85.15 97.46 85.08 96.31C84.8432 94.9777 84.295 93.7202 83.48 92.64H78.48L78.34 90.43L74.81 96.63L78.52 102.49ZM85.68 97.68L90.03 90.01C90.5 88.73 89.87 87.24 88.96 85.87L86.62 82.11L80.39 86L84.79 93.15C85.2779 93.7852 85.6121 94.5247 85.7665 95.3106C85.9209 96.0965 85.8913 96.9074 85.68 97.68Z" fill="white"/>
         </g>
         <g id="3_people_thivin" class="translate-from-top-FloatInverse">
            <path id="Vector 72" d="M188.04 12H120.94C118.212 12 116 14.2117 116 16.94V58.05C116 60.7783 118.212 62.99 120.94 62.99H188.04C190.768 62.99 192.98 60.7783 192.98 58.05V16.94C192.98 14.2117 190.768 12 188.04 12Z" fill="#FF9750"/>
            <path id="Vector 73" d="M155.27 39.02C156.69 39.12 158.46 38.8 160.2 39.33C162.081 39.8621 163.737 40.992 164.919 42.549C166.101 44.106 166.743 46.0054 166.75 47.96C166.75 50.03 166.75 52.1 166.75 54.17C166.792 54.5131 166.708 54.8599 166.513 55.1452C166.318 55.4306 166.025 55.6349 165.69 55.72C163.394 56.5939 160.988 57.1458 158.54 57.36C153.638 57.7156 148.712 57.163 144.01 55.73C143.832 55.7046 143.661 55.6436 143.507 55.5508C143.353 55.4579 143.22 55.3351 143.114 55.1895C143.009 55.044 142.934 54.8787 142.894 54.7036C142.853 54.5284 142.849 54.347 142.88 54.17C142.88 52.1 142.88 50.02 142.88 47.95C142.88 45.5631 143.828 43.2739 145.516 41.586C147.204 39.8982 149.493 38.95 151.88 38.95L155.27 39.02Z" fill="#B70F5B" stroke="#FF9750" stroke-miterlimit="10"/>
            <path id="Vector 74" d="M142.02 31.87C143.13 31.87 144.25 31.87 145.36 31.87C146.04 31.87 146.43 32.07 146.5 32.82C146.684 34.4311 147.354 35.9481 148.42 37.17C148.9 37.73 148.89 38.01 148.16 38.32C143.55 40.25 141.54 43.88 141.43 48.73C141.43 50.28 141.32 50.38 139.77 50.18C137.029 49.8645 134.322 49.3057 131.68 48.51C131.12 48.33 130.68 48.14 130.68 47.44C130.596 44.772 130.657 42.1015 130.86 39.44C131.173 37.4148 132.177 35.5606 133.704 34.1931C135.23 32.8256 137.183 32.0293 139.23 31.94C140.15 31.94 141.07 31.94 141.99 31.94L142.02 31.87Z" fill="#B70F5B" stroke="#FF9750" stroke-miterlimit="10"/>
            <path id="Vector 75" d="M178.26 43.9C178.26 44.9 178.26 45.97 178.26 47C178.302 47.3431 178.218 47.6899 178.023 47.9752C177.828 48.2606 177.535 48.465 177.2 48.55C174.725 49.4834 172.128 50.0559 169.49 50.25C168.49 50.33 168.17 50.05 168.17 49.01C168.289 46.7755 167.754 44.5548 166.63 42.62C165.482 40.6918 163.722 39.2028 161.63 38.39C160.73 38.04 160.7 37.71 161.3 37.02C162.309 35.8535 162.947 34.4117 163.13 32.88C163.2 32.41 163.23 31.88 163.85 31.88C166.42 31.93 169.02 31.49 171.53 32.16C173.475 32.6739 175.192 33.8249 176.407 35.4291C177.621 37.0333 178.263 38.9982 178.23 41.01C178.28 41.98 178.26 42.94 178.26 43.9Z" fill="#B70F5B" stroke="#FF9750" stroke-miterlimit="10"/>
            <path id="Vector 76" d="M154.82 38.71C153.439 38.6942 152.094 38.2703 150.953 37.4916C149.812 36.7129 148.928 35.6142 148.41 34.3338C147.893 33.0534 147.765 31.6485 148.044 30.296C148.323 28.9434 148.996 27.7036 149.978 26.7327C150.961 25.7617 152.208 25.1029 153.564 24.8392C154.919 24.5755 156.322 24.7188 157.597 25.2508C158.871 25.7829 159.96 26.6801 160.726 27.8294C161.491 28.9788 161.9 30.329 161.9 31.71C161.876 33.573 161.12 35.3518 159.795 36.6618C158.47 37.9717 156.683 38.7075 154.82 38.71Z" fill="#B70F5B" stroke="#FF9750" stroke-miterlimit="10"/>
            <path id="Vector 77" d="M142.85 31.57C140.973 31.597 139.161 30.884 137.806 29.5851C136.451 28.2863 135.662 26.5062 135.61 24.63C135.46 21.02 138.32 17.96 142.24 17.54C143.98 17.4361 145.697 17.9776 147.062 19.0606C148.427 20.1437 149.345 21.6923 149.64 23.41C149.758 23.8353 149.749 24.2855 149.616 24.7062C149.483 25.1269 149.231 25.4999 148.89 25.78C147.907 26.55 147.224 27.6396 146.96 28.86C146.62 30.81 145.24 31.21 143.69 31.51C143.412 31.5487 143.131 31.5687 142.85 31.57Z" fill="#B70F5B" stroke="#FF9750" stroke-miterlimit="10"/>
            <path id="Vector 78" d="M166.3 31.62C165.73 31.53 165.16 31.45 164.6 31.34C164.201 31.3033 163.827 31.1301 163.541 30.8495C163.255 30.5689 163.074 30.1982 163.03 29.8C162.644 27.9332 161.574 26.2782 160.03 25.16C159.712 24.9485 159.472 24.6376 159.349 24.2758C159.226 23.914 159.226 23.5217 159.35 23.16C159.672 21.4331 160.627 19.8885 162.027 18.8278C163.428 17.7671 165.173 17.2666 166.923 17.4241C168.673 17.5816 170.301 18.3857 171.489 19.6793C172.678 20.973 173.341 22.6633 173.35 24.42C173.353 26.3046 172.616 28.1151 171.297 29.4617C169.979 30.8082 168.184 31.5833 166.3 31.62Z" fill="#B70F5B" stroke="#FF9750" stroke-miterlimit="10"/>
         </g>
         <g id="question_thivin" >
            <path id="Vector 79" d="M81.33 127.5H214.33C214.876 127.5 215.4 127.717 215.787 128.103C216.173 128.49 216.39 129.014 216.39 129.56V133.77H79.28V129.56C79.28 129.015 79.4956 128.493 79.8798 128.107C80.264 127.721 80.7854 127.503 81.33 127.5Z" fill="white"/>
            <path id="Vector 80"  d="M215.2 132.54V201.82C215.2 202.323 215.101 202.821 214.908 203.286C214.716 203.75 214.434 204.173 214.078 204.528C213.723 204.884 213.3 205.166 212.836 205.358C212.371 205.551 211.873 205.65 211.37 205.65H97.24L79.24 223.65V204.65C78.8509 204.293 78.5406 203.858 78.3288 203.375C78.1171 202.891 78.0085 202.368 78.01 201.84V132.54H215.2Z" fill="#B70F5B"/>
            <path id="Vector 81" class="bluranim" d="M209.84 130.63C209.84 130.828 209.781 131.021 209.671 131.186C209.562 131.35 209.405 131.478 209.223 131.554C209.04 131.63 208.839 131.649 208.645 131.611C208.451 131.572 208.273 131.477 208.133 131.337C207.993 131.197 207.898 131.019 207.859 130.825C207.821 130.631 207.84 130.43 207.916 130.247C207.992 130.065 208.12 129.908 208.284 129.799C208.449 129.689 208.642 129.63 208.84 129.63C209.105 129.63 209.36 129.735 209.547 129.923C209.735 130.11 209.84 130.365 209.84 130.63Z" fill="#FF6224"/>
            <path id="Vector 82"  class="bluranim"  d="M203.21 130.63C203.21 130.828 203.151 131.021 203.041 131.186C202.932 131.35 202.775 131.478 202.593 131.554C202.41 131.63 202.209 131.649 202.015 131.611C201.821 131.572 201.643 131.477 201.503 131.337C201.363 131.197 201.268 131.019 201.229 130.825C201.191 130.631 201.21 130.43 201.286 130.247C201.362 130.065 201.49 129.908 201.654 129.799C201.819 129.689 202.012 129.63 202.21 129.63C202.475 129.63 202.73 129.735 202.917 129.923C203.105 130.11 203.21 130.365 203.21 130.63Z" fill="#FF6224"/>
            <path id="Vector 83" class="bluranim" d="M196.58 130.63C196.58 130.828 196.521 131.021 196.411 131.186C196.302 131.35 196.145 131.478 195.963 131.554C195.78 131.63 195.579 131.649 195.385 131.611C195.191 131.572 195.013 131.477 194.873 131.337C194.733 131.197 194.638 131.019 194.599 130.825C194.561 130.631 194.58 130.43 194.656 130.247C194.732 130.065 194.86 129.908 195.024 129.799C195.189 129.689 195.382 129.63 195.58 129.63C195.845 129.63 196.1 129.735 196.287 129.923C196.475 130.11 196.58 130.365 196.58 130.63Z" fill="#FF6224"/>
            <path id="Vector 84" class="bluranim" d="M162.54 143.65H86.3899C86.2152 143.65 86.0423 143.616 85.8809 143.549C85.7196 143.482 85.5729 143.384 85.4494 143.26C85.3259 143.137 85.228 142.99 85.1611 142.829C85.0943 142.668 85.0599 142.495 85.0599 142.32C85.0599 142.146 85.0944 141.973 85.1613 141.813C85.2283 141.652 85.3264 141.506 85.45 141.383C85.5737 141.26 85.7204 141.163 85.8817 141.098C86.043 141.032 86.2157 140.999 86.3899 141H162.54C162.891 141 163.228 141.139 163.477 141.386C163.726 141.633 163.867 141.969 163.87 142.32C163.867 142.672 163.726 143.009 163.478 143.258C163.229 143.506 162.892 143.647 162.54 143.65Z" fill="#FF9750"/>
            <path id="Vector 85" class="bluranim" d="M162.54 152.08H86.39C86.2158 152.081 86.0431 152.048 85.8818 151.982C85.7205 151.917 85.5738 151.82 85.4501 151.697C85.3265 151.574 85.2284 151.428 85.1614 151.267C85.0944 151.107 85.06 150.934 85.06 150.76C85.0586 150.585 85.0921 150.411 85.1585 150.249C85.2249 150.087 85.3228 149.94 85.4466 149.817C85.5703 149.693 85.7175 149.595 85.8794 149.529C86.0414 149.462 86.2149 149.429 86.39 149.43H162.54C162.893 149.43 163.231 149.57 163.48 149.82C163.73 150.069 163.87 150.407 163.87 150.76C163.867 151.111 163.726 151.447 163.477 151.694C163.228 151.941 162.891 152.08 162.54 152.08Z" fill="#FF9750"/>
            <path id="Vector 86"  class="bluranim"  d="M126.21 160.52H86.3899C86.0372 160.52 85.6989 160.38 85.4494 160.13C85.2 159.881 85.0599 159.543 85.0599 159.19C85.0599 159.016 85.0944 158.843 85.1613 158.683C85.2283 158.522 85.3264 158.376 85.45 158.253C85.5737 158.13 85.7204 158.033 85.8817 157.968C86.043 157.902 86.2157 157.869 86.3899 157.87H126.21C126.561 157.87 126.898 158.009 127.147 158.256C127.396 158.503 127.537 158.839 127.54 159.19C127.537 159.542 127.396 159.879 127.148 160.128C126.899 160.376 126.562 160.517 126.21 160.52Z" fill="#FF9750"/>
            <path id="Vector 87"  class="bluranim" d="M162.54 177.39H86.3899C86.0372 177.39 85.6989 177.25 85.4494 177C85.2 176.751 85.0599 176.413 85.0599 176.06C85.0599 175.886 85.0944 175.713 85.1613 175.553C85.2283 175.392 85.3264 175.246 85.45 175.123C85.5737 175 85.7204 174.903 85.8817 174.838C86.043 174.772 86.2157 174.739 86.3899 174.74H162.54C162.891 174.74 163.228 174.879 163.477 175.126C163.726 175.373 163.867 175.709 163.87 176.06C163.867 176.412 163.726 176.749 163.478 176.998C163.229 177.246 162.892 177.387 162.54 177.39Z" fill="#FF6224"/>
            <path id="Vector 88" d="M126.21 185.82H86.39C86.2158 185.821 86.0431 185.788 85.8818 185.722C85.7205 185.657 85.5738 185.56 85.4501 185.437C85.3265 185.314 85.2284 185.168 85.1614 185.007C85.0944 184.847 85.06 184.674 85.06 184.5C85.0586 184.325 85.0921 184.151 85.1585 183.989C85.2249 183.827 85.3228 183.68 85.4466 183.557C85.5703 183.433 85.7175 183.335 85.8794 183.269C86.0414 183.202 86.2149 183.169 86.39 183.17H126.21C126.563 183.17 126.901 183.31 127.15 183.56C127.4 183.809 127.54 184.147 127.54 184.5C127.537 184.851 127.396 185.187 127.147 185.434C126.898 185.681 126.561 185.82 126.21 185.82Z" fill="#FF6224"/>
            <path id="Vector 89"  class="bluranim" d="M126.21 194.26H86.3899C86.0372 194.26 85.6989 194.12 85.4494 193.87C85.2 193.621 85.0599 193.283 85.0599 192.93C85.0599 192.756 85.0944 192.583 85.1613 192.423C85.2283 192.262 85.3264 192.116 85.45 191.993C85.5737 191.87 85.7204 191.773 85.8817 191.708C86.043 191.642 86.2157 191.609 86.3899 191.61H126.21C126.561 191.61 126.898 191.749 127.147 191.996C127.396 192.243 127.537 192.579 127.54 192.93C127.537 193.282 127.396 193.619 127.148 193.868C126.899 194.116 126.562 194.257 126.21 194.26Z" fill="#FF9750"/>
            <path id="Vector 90"  class="bluranim" d="M162.54 160.52H133.92C133.569 160.517 133.233 160.376 132.986 160.127C132.739 159.878 132.6 159.541 132.6 159.19C132.6 158.84 132.739 158.504 132.987 158.257C133.234 158.009 133.57 157.87 133.92 157.87H162.54C162.891 157.87 163.228 158.009 163.477 158.256C163.726 158.503 163.867 158.839 163.87 159.19C163.867 159.542 163.726 159.879 163.478 160.128C163.229 160.376 162.892 160.517 162.54 160.52Z" fill="#FF6224"/>
            <path id="Vector 91" opacity="0.18" d="M207.81 176.74C207.812 180.358 206.741 183.896 204.732 186.905C202.723 189.914 199.866 192.26 196.524 193.646C193.181 195.031 189.503 195.394 185.954 194.689C182.405 193.984 179.146 192.241 176.587 189.683C174.029 187.124 172.286 183.865 171.581 180.316C170.876 176.767 171.239 173.089 172.624 169.746C174.01 166.404 176.356 163.547 179.365 161.538C182.374 159.529 185.912 158.458 189.53 158.46C194.378 158.46 199.028 160.386 202.456 163.814C205.884 167.242 207.81 171.892 207.81 176.74Z" fill="#FF6224"/>
            <path id="Vector 92" class="bluranim"  d="M180.51 172.12C180.495 170.636 180.694 169.157 181.1 167.73C181.462 166.432 182.088 165.224 182.94 164.18C183.797 163.147 184.878 162.323 186.1 161.77C187.522 161.154 189.061 160.854 190.61 160.89C192.11 160.89 193.08 160.54 193.53 159.82C194.031 158.867 194.263 157.795 194.2 156.72C194.192 156.306 194.145 155.895 194.06 155.49C193.969 155.026 193.818 154.575 193.61 154.15C193.392 153.729 193.081 153.363 192.7 153.08C192.257 152.784 191.732 152.637 191.2 152.66H175.75C175.677 152.67 175.602 152.663 175.532 152.639C175.462 152.615 175.398 152.576 175.346 152.524C175.294 152.471 175.254 152.408 175.231 152.338C175.207 152.268 175.2 152.193 175.21 152.12V146.24C175.2 146.167 175.207 146.093 175.23 146.023C175.254 145.953 175.294 145.89 175.346 145.839C175.399 145.787 175.463 145.749 175.533 145.726C175.603 145.704 175.677 145.698 175.75 145.71H192.91C194.31 145.673 195.693 146.018 196.91 146.71C198.017 147.377 198.971 148.27 199.71 149.33C200.475 150.435 201.037 151.668 201.37 152.97C201.723 154.294 201.901 155.659 201.9 157.03C202.049 159.891 201.274 162.724 199.69 165.11C198.21 167.11 195.793 168.11 192.44 168.11C191.712 168.091 190.986 168.172 190.28 168.35C189.793 168.466 189.354 168.727 189.02 169.1C188.724 169.462 188.521 169.891 188.43 170.35C188.314 170.933 188.26 171.526 188.27 172.12V174.79C188.282 174.863 188.276 174.937 188.254 175.007C188.231 175.077 188.193 175.141 188.141 175.194C188.09 175.246 188.027 175.286 187.957 175.31C187.887 175.333 187.813 175.34 187.74 175.33H181C180.927 175.34 180.853 175.333 180.783 175.31C180.713 175.286 180.65 175.246 180.599 175.194C180.547 175.141 180.508 175.077 180.486 175.007C180.464 174.937 180.458 174.863 180.47 174.79L180.51 172.12Z" fill="#FFBC8F"/>
            <path id="Vector 93" class="bluranim"  d="M187.73 178.55H181.04C180.747 178.55 180.51 178.787 180.51 179.08V185.29C180.51 185.583 180.747 185.82 181.04 185.82H187.73C188.023 185.82 188.26 185.583 188.26 185.29V179.08C188.26 178.787 188.023 178.55 187.73 178.55Z" fill="#FFBC8F"/>
         </g>
         <g id="lowerball_thivin">
            <path id="Vector 94" d="M417.53 439.13C446.564 439.13 470.1 415.594 470.1 386.56C470.1 357.526 446.564 333.99 417.53 333.99C388.496 333.99 364.96 357.526 364.96 386.56C364.96 415.594 388.496 439.13 417.53 439.13Z" fill="url(#paint2_linear)"/>
         </g>
      </g>
   </g>
   <defs>
      <linearGradient id="paint0_linear" x1="612907" y1="35391.5" x2="613948" y2="36735.7" gradientUnits="userSpaceOnUse">
         <stop stop-color="#D23274"/>
         <stop offset="1" stop-color="#F24A37"/>
      </linearGradient>
      <linearGradient id="paint20_linear" x1="21.16" y1="235.51" x2="459.63" y2="235.51" gradientUnits="userSpaceOnUse">
         <stop stop-color="#D23274"/>
         <stop offset="1" stop-color="#F24A37"/>
      </linearGradient>
      <linearGradient id="paint1_linear" x1="35" y1="101096" x2="192271" y2="101096" gradientUnits="userSpaceOnUse">
         <stop stop-color="#D23274"/>
         <stop offset="1" stop-color="#F24A37"/>
      </linearGradient>
      <linearGradient id="paint2_linear" x1="1.02104e+06" y1="70095.6" x2="1.02786e+06" y2="78726.4" gradientUnits="userSpaceOnUse">
         <stop stop-color="#D23274"/>
         <stop offset="1" stop-color="#F24A37"/>
      </linearGradient>
   </defs>
</svg>