<svg width="470" height="472" viewBox="0 0 470 472" fill="none" xmlns="http://www.w3.org/2000/svg">
<style>
	.translateLeft{
		animation: translate-left 4s ease-in-out infinite;
	}

	@keyframes translate-left{
		0%  { transform: translate(-2.3vw,0vw);  }
		50% { transform: translate(1.6vw,0vw);  }
		100% {  transform: translate(-2.3vw,0vw);  }

	}

	.translateTop{
		animation: translate-top 4s ease-in-out  infinite;
	}

	@keyframes translate-top{
		0%  { transform: translate(0vw,-3vh);  }
		50% { transform: translate(0vw,3vh);  }
		100%{  transform: translate(0vw,-3vh);  }

	}

	.translateTop2{
		animation: translate-top2 4s ease-in-out  infinite;
	}

	@keyframes translate-top2{
		0%  { transform: translate(0vw,-0.6vh);  }
		50% { transform: translate(0vw,3vh);  }
		100%{  transform: translate(0vw,-0.6vh);  }

	}

	.rotation
	{	
		transform-origin: 48.7% 39%;
		animation: rotater 3s linear infinite;
	}


	@keyframes rotater{
		0%  { transform: rotate(0deg);  }
		100% { transform: rotate(360deg);  }

	}

	.linemove
	{	
		stroke: black;
		stroke-dasharray: 100;
		stroke-dashoffset: 200;

		animation: linemover 5s linear infinite;
		
	}

	@keyframes linemover{
		0% {  stroke-dashoffset: 200; }
		100% { stroke-dashoffset: 0; }


	}

	.glowbrainasda
	{
		stroke: #333333;
		stroke-width: 0.6px;
		stroke-opacity: 0.5;
		box-shadow: 0;
		animation: glowbrainr 4s ease-in-out infinite;
	}

	@keyframes glowbrainr{
		0%  {  stroke-opacity: 0 ; stroke-width: 0px;}
		50% {  fill: #DB4C67; box-shadow: 0 2px 4px 0 rgba(0, 0, 0, 0.3), 0 6px 20px 0 rgba(0, 0, 0, 0.5);}
		100%{  stroke-opacity: 0 ; stroke-width: 0px;}

	}

	.glowbrain_i
	{
		fill: #FF9750;
		animation: glowbrainr_1 4s ease-in-out infinite;
	}

	@keyframes glowbrainr_1{
		0%  {  fill: #FF9750}
		50% {  fill: #DB4C67;}
		100%{  fill: #FF9750}

	}

	.tickk
	{
		stroke-dasharray: 100;
		stroke-dashoffset: 100;
		stroke: #E21033;
        animation: ticker 4s ease forwards infinite;
        fill: #E21033;
        stroke-width:0px;
	}
	@keyframes ticker{
		0% {  stroke-dashoffset: 100; fill: none;stroke-width:1px;}
		100%{ fill: #E21033;stroke-dashoffset: 0;stroke-width:0px;}


	}

</style>
<g id="3_Art 1" clip-path="url(#clip0)">
<g id="Art BG">
<path id="Vector" d="M449.6 236.8C449.6 245.9 449.1 254.9 448 264C447.4 268.5 446.7 272.9 445.9 277.3C445.8 277.9 445.7 278.6 445.5 279.2C444.9 282.5 444.1 285.7 443.4 288.9C439.8 303.8 434.5 318.2 427.9 332C423.5 341.2 418.4 350 412.7 358.5C412.2 359.3 411.7 360 411.2 360.8C410.7 361.6 410.1 362.4 409.5 363.2C405.9 368.3 402.1 373.2 398.1 378L398 378.1C398 378.1 398 378.1 398 378.2C397.2 379.2 396.4 380.1 395.6 381C395.5 381.1 395.5 381.2 395.4 381.3C394.6 382.3 393.7 383.2 392.8 384.2C390.6 386.7 388.3 389 386 391.4C383.7 393.8 381.6 395.8 379.3 397.9C377.4 399.7 375.5 401.4 373.5 403.1L373.4 403.2L371 405.2C367.8 407.9 364.4 410.5 361 413.1L360.8 413.3C357.4 415.8 354 418.2 350.4 420.5C348.1 422 345.9 423.4 343.5 424.8L342.4 425.5C340.1 426.9 337.7 428.2 335.4 429.5C326 434.6 316.3 439.1 306.3 442.8C304.7 443.4 303.1 443.9 301.5 444.5C293 447.4 284.4 449.8 275.7 451.6C273.7 452 271.8 452.4 269.8 452.7C268.6 452.9 267.5 453.1 266.3 453.3C265.1 453.5 263.9 453.7 262.8 453.8C260.9 454.1 259 454.3 257.1 454.6L253.9 455C246.2 455.8 238.4 456.2 230.6 456.2C226 456.2 221.4 456.1 216.9 455.8C215.9 455.8 214.9 455.7 213.9 455.6L213.1 455.5C211.3 455.4 209.5 455.2 207.7 455H207.2L204.6 454.7C198.5 454 192.5 453 186.5 451.8L185.5 451.6L184.4 451.4L183.6 451.2L181.3 450.7C166.4 447.3 151.8 442.3 137.9 435.8L136 434.9C132.2 433.1 128.4 431.1 124.7 429.1C124 428.7 123.3 428.3 122.6 427.9C115.9 424.1 109.3 419.9 103 415.4C98 411.9 93.2 408.2 88.6 404.3C82.2 398.9 76.1 393 70.3 386.9L68.6 385C65.8 382 63.1 378.8 60.5 375.6C59 373.7 57.4 371.8 56 369.8C54.5 367.8 53 365.8 51.6 363.8C48.1 358.8 44.8 353.7 41.7 348.5C41 347.3 40.3 346.1 39.6 344.9C38.5 343 37.5 341.1 36.4 339.1L35.5 337.3C34 334.3 32.5 331.3 31.1 328.3C29.7 325.3 28.2 321.9 26.9 318.6C25.8 315.9 24.8 313.1 23.8 310.3C-0.100012 242.7 10.6 167.6 52.3 109.3C56.4 103.6 60.7 98.1 65.4 92.8C67.2 90.8 69 88.8 70.8 86.8C74.1 83.3 77.5 80 80.9 76.7C82.9 74.8 84.9 73 87 71.2C92.3 66.6 97.8 62.3 103.5 58.3C112.8 51.7 122.6 45.8 132.8 40.7C137.1 38.5 141.6 36.5 146.1 34.6L148 33.8C148.4 33.6 148.8 33.5 149.2 33.3C150.9 32.6 152.7 31.9 154.5 31.3C156.1 30.7 157.7 30.1 159.4 29.6C160 29.4 160.7 29.2 161.3 29C163 28.4 164.7 27.9 166.5 27.3L167.1 27.1L169.2 26.5C171.2 25.9 173.1 25.4 175.1 24.9L176.3 24.6C177.9 24.2 179.6 23.8 181.3 23.4C183.8 22.8 186.3 22.3 188.9 21.8C191.9 21.2 195 20.7 198.1 20.2C208.9 18.6 219.8 17.8 230.7 17.8C314.8 17.8 391.6 65.9 428.2 141.7C429.2 143.7 430.1 145.7 431 147.8C432 150.1 433.1 152.5 434 154.9C434.1 155.2 434.3 155.5 434.4 155.8C435 157.2 435.5 158.6 436 160C436 160.1 436.1 160.1 436.1 160.2C436.9 162.2 437.6 164.2 438.2 166.3C439.4 169.8 440.5 173.3 441.5 176.9C443 182.2 441.5 177 441.5 177C442.3 179.8 443 182.6 443.7 185.4C446.7 197.8 448.6 210.5 449.4 223.3C449.5 227.5 449.6 232.2 449.6 236.8Z" fill="url(#paint0_linear)"/>
<path id="Vector_2" d="M267.1 315.3C267.1 315.3 264.8 338.7 262.1 366.7C262 367.3 262 368 261.9 368.6C261.5 373.1 261 377.8 260.6 382.5C260.4 384.6 260.2 386.8 260 388.9C259.6 393.1 259.2 397.4 258.8 401.5C258.5 404.9 258.1 408.3 257.8 411.6C257.3 416.3 256.9 420.9 256.5 425.2C256.4 426.6 256.2 427.9 256.1 429.2C255 440.3 254.2 449.4 253.7 454.7C246 455.5 238.2 455.9 230.4 455.9C225.8 455.9 221.2 455.8 216.7 455.5C215.7 455.5 214.7 455.4 213.7 455.3L212.9 455.2C211.1 455.1 209.3 454.9 207.5 454.7H207L204.4 454.4L206.5 429.2L206.8 425.2L209.9 388.9L210.5 382.5L211.6 369.4L212 364.3L212.3 360.5L212.7 355.4L213 352L213.4 346.9L215.4 322.8L215.9 316.8L219.1 316.7L229.3 316.4H231.7L250.8 315.9L267.1 315.3Z" fill="#FF6224"/>
<path id="Vector_3" d="M256.9 454.5C257 452.7 257.3 450.2 257.5 447.1C257.6 445.6 257.8 444 257.9 442.3C258.2 439 258.5 435.3 258.9 431.3C259 430.7 259 430 259.1 429.4C259.2 428.8 259.2 428.1 259.3 427.4C259.4 426.7 259.4 426.1 259.5 425.4C259.8 421.8 260.2 417.9 260.6 413.9C261 409.9 261.4 405.7 261.8 401.4C262.2 397.4 262.6 393.3 263 389.1C263.2 387 263.4 384.8 263.6 382.7C266.6 351.5 269.6 320.9 270.3 314.2C270.4 313.3 270.4 312.9 270.4 312.9H269.7L250.3 313.4L231.2 313.9L228.8 314L219.4 314.2L219.2 316.7L218.7 322.8L216.7 346.9L216.3 352L216 355.4L215.6 360.5L215.3 364.3L214.9 369.4L213.8 382.5L213.2 388.9L211.1 413.7L210.4 422.6L210.2 425.2L209.8 429.2L209.5 433.1L208.8 441.3L208 450.6L207.7 454.2C207.7 454.2 207.7 454.4 207.6 454.7C209.4 454.9 211.2 455.1 213 455.2L213.8 455.3C214.8 455.4 215.8 455.4 216.8 455.5C221.3 455.8 225.9 455.9 230.5 455.9C238.3 455.9 246 455.5 253.8 454.7L256.9 454.5Z" fill="#FF9750"/>
<path id="Vector_4" d="M91.8 240.3L120.6 355.8L124.5 371.6L137.9 425.3H386.5L337.2 240.3H91.8Z" fill="#FF9750"/>
<path id="Vector_5" d="M91.8 240.3L90 240.9C88.8 241.3 88.1 242.6 88.4 243.8L132.6 429.2L137.9 425.2L91.8 240.3Z" fill="#FF6224"/>
<path id="Vector_6" d="M132.6 429.3H379.7L386.5 425.3H137.9L132.6 429.3Z" fill="#FF6224"/>
<path id="Vector_7" d="M374.5 391.2L334.1 242.8H91.4V240.3H337.2L377.4 390.9L374.5 391.2Z" fill="#F1A34F"/>
<path id="Vector_8" d="M91.8 240.3H337.2L377 389H127.6L91.8 240.3Z" fill="#B70F5B"/>
<path id="Vector_9" d="M267.592 412.704C269.819 410.251 269.204 406.065 266.219 403.355C263.233 400.645 259.008 400.438 256.781 402.892C254.553 405.345 255.168 409.531 258.154 412.241C261.139 414.951 265.365 415.158 267.592 412.704Z" fill="#840243"/>
<path id="Vector_10" d="M365.5 382.6H135.7L109.7 278.9L107.7 271L106 264.2L102 248.3H328.4L332.8 264.2L334.7 271L336.9 278.9L365.5 382.6Z" fill="#FFF2EB"/>
<path id="Vector_11" d="M332.8 264.2H106L102 248.3H328.4L332.8 264.2Z" fill="#FF6224"/>
<path id="Vector_12" d="M112.9 253.5C112.1 253.5 111.4 254.1 111.3 254.9C111.3 255.1 111.3 255.3 111.4 255.5C111.7 256.6 112.7 257.4 113.9 257.5C114.7 257.5 115.4 256.9 115.5 256.1C115.5 255.9 115.5 255.7 115.4 255.5C115 254.4 114 253.6 112.9 253.5Z" fill="#E9F3FE"/>
<path id="Vector_13" d="M119.5 253.5C118.7 253.4 118 254.1 117.9 254.9C117.9 255.1 117.9 255.3 118 255.5C118.3 256.6 119.3 257.4 120.5 257.5C121.3 257.5 122 256.9 122.1 256.1C122.1 255.9 122.1 255.7 122 255.5C121.6 254.4 120.6 253.6 119.5 253.5Z" fill="#E9F3FE"/>
<path id="Vector_14" d="M129.1 255.5C128.8 254.4 127.8 253.6 126.6 253.5C125.8 253.4 125.1 254.1 125 254.9C125 255.1 125 255.3 125.1 255.5C125.4 256.6 126.4 257.4 127.6 257.5C128.4 257.5 129.1 256.9 129.2 256.1C129.2 255.9 129.1 255.7 129.1 255.5Z" fill="#E9F3FE"/>
<path id="Vector_15" d="M326.3 306.9C326.9 306.9 327.3 306.5 327.4 306C327.4 305.8 327.4 305.7 327.3 305.5C327.1 304.7 326.4 304.2 325.6 304.1H301.2C300.6 304.1 300.2 304.5 300.1 305C300.1 305.2 300.1 305.3 300.2 305.4C300.4 306.2 301.1 306.7 301.9 306.8H326.3V306.9Z" fill="#FF6224"/>
<path id="Vector_16" opacity="0.75" d="M323.3 287.4C323.1 286.6 322.4 286.1 321.6 286H297.1C296.5 286 296.1 286.4 296 286.9C296 287.1 296 287.2 296.1 287.3C296.3 288.1 297 288.6 297.8 288.7H322.2C322.8 288.7 323.2 288.3 323.3 287.8C323.4 287.7 323.3 287.6 323.3 287.4Z" fill="#E21033"/>
<path id="Vector_17" d="M327.6 312.2C328.2 312.2 328.7 311.7 328.7 311.2C328.7 311.1 328.7 311 328.6 310.9C328.4 310.1 327.7 309.6 326.9 309.5H302.5C301.9 309.5 301.5 309.9 301.4 310.4C301.4 310.6 301.4 310.7 301.5 310.8C301.7 311.6 302.4 312.1 303.2 312.2H327.6V312.2Z" fill="#FF6224"/>
<path id="Vector_18" d="M329.9 316C329.7 315.2 329 314.7 328.2 314.6H303.8C303.2 314.6 302.8 315 302.7 315.5C302.7 315.7 302.7 315.8 302.8 315.9C303 316.7 303.7 317.2 304.5 317.3H329C329.6 317.3 330 316.9 330.1 316.4C330 316.3 330 316.1 329.9 316Z" fill="#FF6224"/>
<path id="Vector_19" d="M333.7 335.7C334.3 335.7 334.7 335.3 334.8 334.8C334.8 334.6 334.8 334.5 334.7 334.3C334.5 333.5 333.8 333 333 332.9H308.6C308 332.9 307.6 333.3 307.5 333.8C307.5 334 307.5 334.1 307.6 334.2C307.8 335 308.5 335.5 309.3 335.6L333.7 335.7Z" fill="#FF9750"/>
<path id="Vector_20" d="M335 341C335.6 341 336 340.6 336.1 340.1C336.1 339.9 336.1 339.8 336 339.6C335.8 338.8 335.1 338.3 334.3 338.2H309.9C309.3 338.2 308.9 338.6 308.8 339.1C308.8 339.3 308.8 339.4 308.9 339.5C309.1 340.3 309.8 340.8 310.6 340.9H335V341Z" fill="#FF9750"/>
<path id="Vector_21" d="M337.4 344.8C337.2 344 336.5 343.5 335.7 343.4H311.3C310.7 343.4 310.3 343.8 310.2 344.3C310.2 344.5 310.2 344.6 310.3 344.7C310.5 345.5 311.2 346 312 346.1H336.4C337 346.1 337.5 345.6 337.5 345.1C337.4 345 337.4 344.9 337.4 344.8Z" fill="#FF9750"/>
<path id="Vector_22" d="M322.3 281.6L320.6 274.8C320.2 273.5 319.1 272.6 317.7 272.5H121.7C120.7 272.5 119.9 273.2 119.9 274.1C119.9 274.3 119.9 274.5 120 274.7L121.7 281.5C122.1 282.8 123.2 283.7 124.5 283.8H320.5C321.5 283.8 322.3 283.1 322.3 282.1C322.3 282.1 322.3 281.8 322.3 281.6Z" fill="#FF9750"/>
<path id="Vector_23" d="M260.6 272.5L263.5 283.9H124.6C123.3 283.8 122.1 282.9 121.8 281.6L120.1 274.8C119.8 273.9 120.3 272.9 121.2 272.6C121.4 272.5 121.6 272.5 121.8 272.5H260.6V272.5Z" fill="#B70F5B"/>
<path id="Vector_24" opacity="0.75" d="M285.6 276.1L285.8 277H288L286.9 280.8H288L289.1 276.9L288.9 276.1H285.6Z" fill="#E21033"/>
<path id="Vector_25" opacity="0.75" d="M294.1 278.4C293.9 277.1 292.8 276.1 291.5 276C290.3 276 289.7 277 290 278.4C290.2 279.7 291.3 280.7 292.6 280.8C293.9 280.8 294.5 279.8 294.1 278.4ZM292.5 279.9C291.9 279.9 291.3 279.3 291.1 278.4C290.9 277.5 291.1 276.9 291.7 276.9C292.3 276.9 292.9 277.5 293.1 278.4C293.3 279.3 293.1 279.9 292.5 279.9Z" fill="#E21033"/>
<path id="Vector_26" opacity="0.75" d="M300.2 279.6C300 278.9 299.5 278.5 298.8 278.4C298.3 278.4 297.9 278.7 297.9 279.2C297.9 279.3 297.9 279.5 298 279.6C298.1 280.3 298.7 280.7 299.4 280.8C300 280.8 300.4 280.3 300.2 279.6ZM299.2 280.2C298.9 280.2 298.7 279.9 298.6 279.6C298.5 279.3 298.6 279 298.9 279C299.2 279 299.4 279.3 299.5 279.6C299.6 279.9 299.5 280.2 299.2 280.2Z" fill="#E21033"/>
<path id="Vector_27" opacity="0.75" d="M298.1 276.1L295.9 280.8H296.6L298.9 276.1H298.1Z" fill="#E21033"/>
<path id="Vector_28" opacity="0.75" d="M296.8 277.3C296.6 276.6 296.1 276.2 295.4 276.1C294.9 276.1 294.5 276.4 294.5 276.9C294.5 277 294.5 277.2 294.6 277.3C294.7 278 295.3 278.5 296 278.5C296.5 278.5 296.9 278.2 296.9 277.7C296.8 277.5 296.8 277.4 296.8 277.3ZM295.8 277.8C295.5 277.8 295.3 277.5 295.2 277.2C295.1 276.9 295.2 276.6 295.5 276.6C295.8 276.6 296 276.9 296.1 277.2C296.2 277.5 296.1 277.8 295.8 277.8Z" fill="#E21033"/>
<path id="Vector_29" d="M255.8 352C256.9 352 257.8 351.1 257.8 350C257.8 349.8 257.8 349.6 257.7 349.4C257.3 347.9 256 346.9 254.5 346.8H140.3C139.2 346.7 138.3 347.6 138.3 348.6C138.3 348.9 138.3 349.1 138.4 349.3C138.8 350.8 140.1 351.8 141.6 351.9H255.8V352Z" fill="#FF9750"/>
<path id="Vector_30" d="M258 360.6C259.1 360.7 260 359.8 260 358.8C260 358.5 260 358.3 259.9 358.1C259.5 356.6 258.2 355.6 256.7 355.5H142.4C141.3 355.5 140.4 356.4 140.4 357.5C140.4 357.7 140.4 357.9 140.5 358.1C140.9 359.6 142.2 360.6 143.7 360.7H258V360.6Z" fill="#FF9750"/>
<path id="Vector_31" d="M262.1 366.9C261.7 365.4 260.4 364.4 258.9 364.3H144.6C143.5 364.3 142.6 365.2 142.6 366.3C142.6 366.5 142.6 366.7 142.7 366.9C143.1 368.4 144.4 369.4 145.9 369.5H260.2C261.3 369.5 262.2 368.6 262.2 367.5C262.2 367.3 262.2 367.1 262.1 366.9Z" fill="#FF9750"/>
<path id="Vector_32" d="M211 319.5C211.5 321.3 213.1 322.6 215 322.7H227.7C229 322.8 230.2 321.7 230.3 320.4C230.3 320.1 230.3 319.8 230.2 319.5L224 294.8C223.5 293 221.9 291.7 220 291.6H207.2C205.9 291.5 204.7 292.6 204.6 293.9C204.6 294.2 204.6 294.5 204.7 294.8L211 319.5Z" fill="#FF9750"/>
<path id="Vector_33" d="M232.6 319.5C233.1 321.3 234.7 322.6 236.6 322.7H249.4C250.7 322.8 251.9 321.7 252 320.4C252 320.1 252 319.8 251.9 319.5L245.7 294.8C245.2 293 243.6 291.7 241.7 291.6H229C227.7 291.5 226.5 292.6 226.4 293.9C226.4 294.2 226.4 294.5 226.5 294.8L232.6 319.5Z" fill="#FF9750"/>
<path id="Vector_34" d="M282.2 107.8C282.3 107.2 282.4 106.6 282.5 106C283.6 101.8 287 98.7 291.2 98C291.6 97.9 292 97.7 292.2 97.3C294 94.1 297.1 91.8 300.7 91C302.2 90.6 303.7 90.5 305.2 90.7C308.5 91 311.6 92.5 313.9 94.9C315.6 96.7 316.8 98.9 317.3 101.4C317.3 101.6 317.4 101.6 317.6 101.6C318.7 101.7 319.8 102 320.8 102.5C323.4 103.8 325.3 106.3 325.7 109.2C325.7 109.4 325.8 109.6 325.8 109.8V111.4V111.6C325.7 112.9 325.2 114.2 324.5 115.4C322.9 118.2 319.8 119.8 316.6 119.8C308.8 119.8 300.9 119.8 293.1 119.8C292.7 119.8 292.2 119.8 291.8 119.7C287.2 119.1 283.5 115.7 282.5 111.2C282.4 110.7 282.3 110.2 282.3 109.8L282.2 107.8ZM304.9 116H315.9C316.3 116 316.8 116 317.2 116C320.2 115.8 322.4 113.1 322.2 110.2C322.2 110.1 322.2 110 322.2 109.8C322 108.6 321.5 107.5 320.6 106.6C319.5 105.6 318.1 105.1 316.7 105.1H314.5C314.2 105.1 314.2 105.1 314.2 104.8C314.2 104.2 314.2 103.5 314.1 102.9C313.4 97.8 308.9 94.1 303.8 94.3C302.7 94.3 301.6 94.6 300.6 95C297.8 96.1 295.7 98.4 294.8 101.3C294.8 101.5 294.6 101.6 294.5 101.6C293.8 101.6 293.1 101.6 292.4 101.7C288.5 102.3 285.8 105.8 286.3 109.7C286.5 111.4 287.2 112.9 288.4 114C289.8 115.4 291.7 116.1 293.7 116.1L304.9 116Z" fill="#FF9750"/>
<path id="Vector_35" d="M202 159.2H257.3C260 159.2 262.2 161.4 262.2 164.1V205.2C262.2 207.9 260 210.1 257.3 210.1H202C199.3 210.1 197.1 207.9 197.1 205.2V164.1C197 161.4 199.3 159.2 202 159.2Z" fill="#FF9750"/>
<path id="Vector_36" d="M85.9 184.6H87.9" stroke="#FF9750" stroke-width="2" stroke-miterlimit="10"/>
<path id="Vector_37" d="M195 184.6H197" stroke="#FF9750" stroke-width="2" stroke-miterlimit="10"/>
</g>
<g id="tick" class="tickk">
<path id="Vector_38" class="tickk" opacity="0.75" d="M291.8 310.7C290.2 304.1 283.4 298.6 276.7 298.6C273.7 298.5 270.9 299.8 269 302.1C267.1 304.6 266.6 307.9 267.5 310.9C269.1 317.5 275.9 323 282.6 323C285.6 323.1 288.4 321.8 290.3 319.5C292.1 316.9 292.7 313.7 291.8 310.7ZM289.5 318.9C287.8 321 285.2 322.1 282.6 322C276.4 322 270 316.9 268.5 310.7C267.7 308 268.2 305 269.9 302.7C271.6 300.6 274.2 299.5 276.8 299.6C283.1 299.6 289.4 304.7 290.9 310.9C291.7 313.6 291.1 316.6 289.5 318.9Z" />
<path id="Vector_39" class="tickk" opacity="0.75" d="M293.6 333.3C293.3 333 292.9 333.1 292.6 333.4C292.6 333.5 292.5 333.5 292.5 333.6L287.4 343.1L283.2 340.2C282.8 339.9 282.3 340 282 340.3C281.9 340.5 281.8 340.7 281.9 340.8C282 341 282.1 341.2 282.3 341.3L287.3 344.7C287.5 344.9 287.8 344.9 288 344.9C288.2 344.9 288.4 344.8 288.6 344.7L294.2 334.6C294.3 334.4 294.3 334.1 294.2 333.8C294 333.7 293.9 333.5 293.6 333.3Z" fill="#E21033"/>
<path id="Vector_40" class="tickk" opacity="0.75" d="M300.9 339.4C299.3 332.8 292.5 327.3 285.8 327.3C282.8 327.2 280 328.5 278.1 330.8C276.2 333.3 275.7 336.6 276.6 339.6C278.2 346.2 285 351.7 291.7 351.7C294.7 351.8 297.5 350.5 299.4 348.2C301.2 345.7 301.8 342.5 300.9 339.4ZM298.6 347.6C296.9 349.7 294.3 350.8 291.7 350.7C285.5 350.7 279.1 345.6 277.6 339.4C276.8 336.7 277.3 333.7 279 331.4C280.7 329.3 283.3 328.2 285.9 328.3C292.2 328.3 298.5 333.4 300 339.6C300.8 342.4 300.2 345.3 298.6 347.6Z" fill="#E21033"/>
<path id="Vector_41" class="tickk" opacity="0.75" d="M284.5 304.5C284.2 304.2 283.8 304.3 283.5 304.6C283.5 304.7 283.4 304.7 283.4 304.8L278.2 314.3L273.9 311.4C273.5 311.1 273 311.2 272.7 311.5C272.6 311.7 272.5 311.9 272.6 312.1C272.7 312.3 272.8 312.5 273 312.6L278 316C278.2 316.2 278.5 316.2 278.7 316.2C278.9 316.2 279.1 316.1 279.3 315.9L285 306C285.1 305.8 285.1 305.5 285 305.2C284.9 305 284.8 304.7 284.5 304.5Z" fill="#E21033"/>
</g>
<g id="runlines" class="linemove">
<path id="Vector_42" d="M305.2 90.6V58.9H361.2" stroke="#FF9750" stroke-width="2" stroke-miterlimit="10" stroke-dasharray="4 4"/>
<path id="Vector_43" d="M282.2 107.8H244.8V18.1" stroke="#FF9750" stroke-width="2" stroke-miterlimit="10" stroke-dasharray="4 4"/>
<path id="Vector_44" d="M262.2 185H304.4V116" stroke="#FF9750" stroke-width="2" stroke-miterlimit="10" stroke-dasharray="4 4"/>
<path id="Vector_45" d="M91.8 184.6H193.1" stroke="#FF9750" stroke-width="2" stroke-miterlimit="10" stroke-dasharray="3.97 3.97"/>
<path id="Vector_46" d="M85.9 184.6V150.5H28.8" stroke="#FF9750" stroke-width="2" stroke-miterlimit="10" stroke-dasharray="4 4"/>
</g>
<g id="gear" class="rotation">
<path id="Vector_47" d="M243.8 181.7H241.8C241.5 180.6 241 179.5 240.4 178.5L242 176.9C242.6 176.3 242.6 175.3 242 174.7L239.8 172.5C239.2 171.9 238.2 171.9 237.6 172.5L235.9 174.2C235 173.7 233.9 173.3 232.9 173V170.5C232.9 169.7 232.2 169 231.4 169H228.3C227.5 169 226.8 169.7 226.8 170.5V173.1C225.8 173.4 224.8 173.7 223.9 174.2L222 172.3C221.4 171.7 220.4 171.7 219.8 172.3L217.6 174.5C217 175.1 217 176.1 217.6 176.7L219.3 178.4C218.7 179.3 218.3 180.3 217.9 181.3H215.5C214.6 181.3 214 182 214 182.8V185.9C214 186.7 214.7 187.4 215.5 187.4H217.6C217.8 188.6 218.2 189.7 218.8 190.7L217.4 192.1C217.1 192.4 216.9 192.9 217 193.4C217 193.7 217.2 194 217.4 194.3L219.6 196.5C220.2 197.1 221.2 197.1 221.8 196.5L223 195.2C224 195.9 225.2 196.4 226.4 196.7V198.4C226.4 199.3 227.1 200 228 200H231.1C232 200 232.6 199.3 232.6 198.5V196.9C233.8 196.6 235 196.1 236.1 195.5L237.3 196.7C237.9 197.3 238.9 197.3 239.5 196.7L241.7 194.5C242.3 193.9 242.3 192.9 241.7 192.3L240.5 191.1C241.1 190 241.6 188.9 241.9 187.7H243.8C244.7 187.7 245.3 187 245.3 186.2V183.1C245.3 182.4 244.6 181.7 243.8 181.7ZM237.5 186.7C236.7 191 232.5 193.9 228.1 193.1C223.8 192.3 220.9 188.1 221.7 183.7C222.5 179.3 226.7 176.5 231.1 177.3C231.5 177.4 232 177.5 232.4 177.7C236.1 179 238.3 182.8 237.5 186.7Z" fill="white"/>
</g>
<g id="Crane Top 2" class="translateTop">
<path id="Vector_48" d="M366.3 119.6L368.6 210.4L308.6 223L307.5 240.4L393.1 231.1L400.3 116.6L366.3 119.6Z" fill="#FF9750"/>
<path id="Vector_49" d="M308.3 227.6L376 216.1L382.3 117.6L366.3 119.6L368.6 210.4L308.6 223L308.3 227.6Z" fill="#FF6224"/>
<path id="Vector_50" d="M376.6 241.3C387.867 241.3 397 232.167 397 220.9C397 209.633 387.867 200.5 376.6 200.5C365.333 200.5 356.2 209.633 356.2 220.9C356.2 232.167 365.333 241.3 376.6 241.3Z" fill="#840243"/>
<path id="Vector_51" d="M379.8 241.1C391.067 241.1 400.2 231.967 400.2 220.7C400.2 209.433 391.067 200.3 379.8 200.3C368.533 200.3 359.4 209.433 359.4 220.7C359.4 231.967 368.533 241.1 379.8 241.1Z" fill="#B70F5B"/>
<path id="Vector_52" d="M379.8 229.2C384.494 229.2 388.3 225.394 388.3 220.7C388.3 216.006 384.494 212.2 379.8 212.2C375.106 212.2 371.3 216.006 371.3 220.7C371.3 225.394 375.106 229.2 379.8 229.2Z" fill="white"/>
<path id="Vector_53" d="M282.3 219.9C283.2 219.1 284 218.4 284.9 217.7C285.8 217 286.7 216.2 287.6 215.6C289.4 214.2 291.2 212.8 293.1 211.5C293.6 211.2 294.2 211.1 294.7 211.3L295 211.4C300.5 213.7 305.8 216.1 311.1 218.7C312 219.1 312.6 220 312.7 221V221.2C313 224.7 313.3 228.2 313.5 231.7C313.7 235.2 313.8 238.7 313.9 242.2V242.4C313.9 243.3 313.5 244.1 312.7 244.5C309.2 246.7 305.7 248.8 302.1 250.9L301.8 251.1C301.3 251.4 300.7 251.4 300.2 251.2C297.7 250.1 295.3 249.1 292.9 247.9C290.5 246.7 288 245.6 285.7 244.3C288.4 244.7 291 245.1 293.7 245.7C296.3 246.2 299 246.8 301.6 247.4L299.7 247.7C302.8 245.1 306.1 242.6 309.3 240.1L308.1 242.4C307.7 238.9 307.4 235.4 307.2 231.9C307 228.4 306.8 224.9 306.7 221.4L308.3 223.8C303.2 220.9 298.2 217.9 293.2 214.7H295.2C293.1 215.7 291 216.6 288.8 217.5C287.7 218 286.6 218.4 285.6 218.8C284.6 219.2 283.4 219.5 282.3 219.9Z" fill="#840243"/>
<path id="Vector_54" d="M292 222.4C292 220.6 290.5 219.2 288.8 219.2L284.1 219.3H283L263.2 219.5C261.4 219.5 260 221 260 222.7L260.2 241.9C260.2 243.7 261.7 245.1 263.4 245L286.4 244.7H288.5H289C290.8 244.7 292.2 243.2 292.1 241.5L292 222.4ZM288.2 226L277.8 232.6C276.8 233.3 275.4 233.3 274.4 232.6L263.9 226.2C263.3 225.8 263.1 225 263.4 224.3C263.8 223.7 264.6 223.5 265.3 223.9L276.1 230.5L286.7 223.7C287.3 223.3 288.2 223.5 288.6 224.1C288.7 224.3 288.8 224.6 288.8 224.8C288.8 225.3 288.6 225.7 288.2 226Z" fill="white"/>
<path id="Vector_55" d="M288.8 224.9C288.8 225.4 288.6 225.8 288.2 226L277.8 232.6C276.8 233.3 275.4 233.3 274.4 232.6L263.9 226.2C263.3 225.8 263.1 225 263.4 224.3C263.8 223.7 264.6 223.5 265.3 223.9L276.1 230.5L286.7 223.7C287.3 223.3 288.2 223.5 288.6 224.1C288.8 224.3 288.8 224.6 288.8 224.9Z" fill="#FF9750"/>
</g>
<g id="Crane left" class="translateLeft">
<path id="Vector_56" d="M49.2 302.4L134.1 305.1L140.7 321.3L49.3 328.6L49.2 302.4Z" fill="#FF9750"/>
<path id="Vector_57" d="M49.2 302.4L134.1 305.1L135.8 309.4L49.3 312.6L49.2 302.4Z" fill="#FF6224"/>
<path id="Vector_58" d="M158.1 324.7C157.5 325.2 156.9 325.8 156.3 326.3C155.7 326.8 155.1 327.3 154.4 327.8C153.1 328.8 151.8 329.7 150.5 330.6C150.1 330.8 149.7 330.9 149.3 330.7L149 330.6C146.6 329.7 144.3 328.7 142 327.8C139.7 326.9 137.4 325.8 135.1 324.7C134.3 324.3 133.8 323.6 133.7 322.7V322.6L133.2 317.8C133.1 316.2 132.9 314.6 132.8 313C132.6 309.8 132.4 306.6 132.2 303.5V303.3C132.2 302.5 132.5 301.8 133.1 301.3C136 299.1 139 297 142.1 295L142.4 294.8C142.8 294.5 143.3 294.5 143.8 294.7C145.6 295.4 147.4 296.2 149.1 297C150.8 297.8 152.6 298.7 154.3 299.6C152.3 299.5 150.4 299.3 148.5 299.1C146.6 298.9 144.7 298.6 142.8 298.2L144.5 297.9C141.9 300.4 139.1 302.9 136.4 305.3L137.3 303.1C137.7 306.3 138 309.4 138.3 312.6C138.5 314.2 138.6 315.8 138.7 317.4L139 322.2L137.6 320.1C139.8 321.3 142 322.5 144.2 323.8C146.4 325.1 148.6 326.3 150.7 327.7H149.2C150.7 327.1 152.2 326.6 153.7 326.1C154.5 325.8 155.2 325.6 156 325.4C156.8 325.2 157.3 324.9 158.1 324.7Z" fill="#840243"/>
<path id="Vector_59" d="M182.4 323.6H149.5C148.2 323.6 147 322.7 146.7 321.3L143.7 302.5C143.5 301.5 144.2 300.5 145.2 300.3C145.4 300.3 145.5 300.3 145.7 300.3L177.9 300.1C179.2 300.1 180.4 301.1 180.7 302.4L184.4 321.4C184.6 322.4 184 323.4 182.9 323.6C182.8 323.6 182.6 323.6 182.4 323.6Z" fill="#FF6224"/>
<path id="Vector_60" d="M166.1 306.8L166.7 305.1L167.4 306.5L168.4 306.2L166.8 303.1L163.7 304.1L164.2 305.1L165.6 304.7L165 306.4C163.8 309.3 160.9 311.2 157.8 311.1H155.4L155.6 312.1H158C161.5 312.2 164.8 310.1 166.1 306.8Z" fill="#FFF2EB"/>
<path id="Vector_61" d="M172.3 319.5L170.4 309.7H166.5L168.3 319.5H167.2L165.9 313H162L163.2 319.5H162.2L161.4 315H157.4L158.2 319.5H156.9L157.1 320.5L173.8 320.4L173.6 319.4L172.3 319.5Z" fill="#FFF2EB"/>
</g>
<g id="Crane Top 1" class="translateTop2">
<path id="Vector_62"  d="M141.8 112.9H135.9C135 112.9 134.3 112.2 134.3 111.3V80.7C134.3 79.9 134.9 79.3 135.6 79.1L175.6 72.4H188.6L229.4 79.6C230.2 79.7 230.7 80.4 230.7 81.2V111.4C230.7 112.3 230 113 229.1 113H223.1C222.2 113 221.5 112.3 221.5 111.4V84.9L182.2 80.8L143.3 84.9V111.4C143.3 112.2 142.6 112.9 141.8 112.9Z" fill="#840243"/>
<path id="Vector_63" d="M137.4 112.9H131.5C130.6 112.9 129.9 112.2 129.9 111.3V80.7C129.9 79.9 130.5 79.3 131.2 79.1L171.3 72.4H184.3L225.1 79.6C225.9 79.7 226.4 80.4 226.4 81.2V111.4C226.4 112.3 225.7 113 224.8 113H218.7C217.8 113 217.1 112.3 217.1 111.4V84.9L177.8 80.8L138.9 84.9V111.4C138.9 112.2 138.2 112.9 137.4 112.9Z" fill="#B70F5B"/>
<path id="Vector_64"  d="M188.6 21.6L186.5 46.6L184.3 72.4H171.3L168.8 46.6L166.9 27L169 26.4C171 25.8 172.9 25.3 174.9 24.8L176.1 24.5C177.7 24.1 179.4 23.7 181.1 23.3C181.7 23.2 182.3 23 182.9 22.9C184.7 22.4 186.7 22 188.6 21.6Z" fill="#FF9750"/>
<path id="Vector_65" d="M188.6 21.6L186.5 46.6L184.3 72.4H179.8L180.5 46.6L181.1 23.2C181.7 23.1 182.3 22.9 182.9 22.8C184.7 22.4 186.7 22 188.6 21.6Z" fill="#FF6224"/>
<path id="Vector_66" class="glowbrain_i" d="M148.8 87H210.5C214 87 216.8 89.8 216.8 93.3V137.5C216.8 141 214 143.8 210.5 143.8H148.8C145.3 143.8 142.5 141 142.5 137.5V93.3C142.5 89.8 145.3 87 148.8 87Z" fill="#FF9750"/>
<path id="brain2" class="glowbrain" d="M178.6 118.3V98.9C177.7 98.2 176.6 97.8 175.5 97.8C173.3 97.8 171.4 99.2 170.7 101.3C170.1 102.8 170.4 104.6 171.6 105.8C172 106.2 172 106.8 171.6 107.2C171.2 107.6 170.6 107.6 170.2 107.2C168.9 105.9 168.3 104.1 168.4 102.3C167.1 102.7 166 103.6 165.3 104.7C164 106.6 163.9 109.1 165 111.1C162.2 112.8 161.3 116.5 163 119.3C163.4 119.9 163.9 120.5 164.5 120.9C163.7 124 165.5 127.1 168.5 128.1C168.3 126.3 168.9 124.4 170.2 123.1C170.6 122.7 171.3 122.7 171.7 123.1C172.1 123.5 172.1 124.2 171.7 124.6C170.9 125.4 170.5 126.4 170.5 127.5C170.5 128.2 170.7 128.9 170.9 129.5C171.7 131.4 173.6 132.7 175.6 132.8C176.7 132.8 177.8 132.4 178.7 131.7V120.3C176.5 120.1 174.4 119 172.9 117.3C171.9 118 170.7 118.3 169.5 118.3C168.9 118.3 168.5 117.9 168.5 117.3C168.5 116.7 168.9 116.3 169.5 116.3C171.8 116.3 173.6 114.5 173.6 112.2C173.6 111.6 174.1 111.2 174.6 111.2C175.2 111.2 175.6 111.7 175.6 112.2C175.6 113.5 175.2 114.8 174.3 115.9C175.4 117.2 176.9 118.1 178.6 118.3Z" fill="white"/>
<path id="brain1" class="glowbrain" d="M197.1 116.4C197.1 114.3 196 112.3 194.2 111.2C195.9 108.3 194.9 104.6 191.9 102.9C191.6 102.7 191.2 102.5 190.8 102.4C191 104.2 190.4 106 189 107.3C188.6 107.7 187.9 107.7 187.6 107.3C187.2 106.9 187.2 106.2 187.6 105.9C188.8 104.7 189.1 102.9 188.5 101.4C187.8 99.3 185.9 97.9 183.7 97.9C182.6 97.9 181.5 98.3 180.6 99V118.4C182.3 118.2 183.8 117.4 184.9 116.1C184.1 115 183.7 113.7 183.6 112.4C183.6 111.8 184.1 111.4 184.6 111.4C185.2 111.4 185.6 111.9 185.6 112.4C185.6 114.7 187.4 116.5 189.7 116.5C190.3 116.5 190.7 116.9 190.7 117.5C190.7 118.1 190.3 118.5 189.7 118.5C188.5 118.5 187.3 118.2 186.3 117.5C184.8 119.2 182.7 120.3 180.4 120.5V131.9C181.3 132.6 182.4 133 183.5 133C185.6 133 187.5 131.7 188.2 129.7C188.4 129.1 188.5 128.4 188.6 127.7C188.6 126.6 188.2 125.6 187.4 124.8C187 124.4 187 123.8 187.4 123.4C187.8 123 188.4 123 188.8 123.4C190.1 124.7 190.8 126.6 190.5 128.4C193.5 127.4 195.3 124.3 194.5 121.2C196.3 119.9 197.1 118.2 197.1 116.4Z" fill="white"/>
</g>
<g id="Man">
<path id="Vector_67" d="M422.5 299C422.5 299 411.7 304.4 408.8 310.6C405.9 316.8 397.5 328.1 397.9 334.7C398.3 341.3 408.9 336.1 408.9 336.1L423.5 306.9L422.5 299Z" fill="#B70F5B"/>
<path id="Vector_68" d="M439 462.3V453.4H452.9C453.3 453.4 453.6 453.1 453.6 452.7V451.3C453.6 450.9 453.3 450.6 452.9 450.6H439V400.3C439 398.9 437.9 397.7 436.4 397.7H433.6C432.2 397.7 431 398.8 431 400.3V450.6H417.1C416.7 450.6 416.4 450.9 416.4 451.3V452.7C416.4 453.1 416.7 453.4 417.1 453.4H431V462.3C420.9 463.1 412.9 466.7 410.6 471.4H459.3C457.1 466.6 449.1 463 439 462.3Z" fill="#FF6224"/>
<path id="Vector_69" d="M437.8 391.4C436.1 394.2 434.3 396.9 432.2 399.4C426.1 407.1 419.4 413.5 418.2 419.5C417.9 420.8 417.6 422.1 417.1 423.4C416.6 424.8 416 426.2 415.3 427.7C412.3 433.9 408.8 439.8 404.9 445.4C398.2 455.4 391.9 463.7 391.9 463.7L380.3 463.2C380.8 462 385.8 448.3 392.6 431.5L401.1 410.5C401.5 409.6 401.9 408.6 402.2 407.7L404.7 401.4L416.1 373.1C416.1 373.1 441.5 363.5 444.1 369.7C446.4 374.8 444.6 379.8 437.8 391.4Z" fill="#F45721"/>
<path id="shoe" d="M391.7 461.6C391.7 461.6 391.1 471.2 389.3 471.3C389 471.3 368.2 471.3 368.2 471.3C368.4 469.4 369.9 468 371.8 467.8C375.2 467.2 380.9 464.8 383 460.3C385 455.6 391.7 461.6 391.7 461.6Z" fill="#382424"/>
<path id="Vector_70" d="M418.5 434.3C418.5 434.3 426.6 439.5 425.8 441.2C425.7 441.4 421.3 449.4 421.3 449.4L415.6 459.5C415.6 459.5 413.2 458.1 414.3 454.8C415.4 451.5 416.1 445.4 413.2 441.4C410 437.2 418.5 434.3 418.5 434.3Z" fill="#382424"/>
<path id="Vector_71" d="M407.8 368.4C407.8 368.4 375.8 388.3 372.2 401.7C368.6 415.1 414.5 443.4 414.5 443.4C414.5 443.4 419.5 439 420.4 435.7C420.4 435.7 399.7 410.8 395.2 405.3C392.4 401.9 436.1 393.5 441.4 385.2C446.7 376.9 444.8 369.9 444.8 369.9L407.8 368.4Z" fill="#FF6224"/>
<path id="Vector_72" d="M402.5 394H467.6C468.9 394 470 395.1 470 396.4V409.4C470 410.7 468.9 411.8 467.6 411.8H402.5C401.2 411.8 400.1 410.7 400.1 409.4V396.4C400.1 395 401.2 394 402.5 394Z" fill="#FF9750"/>
<path id="Vector_73" d="M437.7 298.3C437.7 298.3 425.1 305.4 417.4 303.4C418.7 301.7 420.4 300.2 422.3 299C422.1 298.3 422 297.6 421.9 296.9C421.5 295 421.2 293 421 291L426.8 285.8L430.7 286.6C430.8 287 430.9 287.4 431 287.7C431.9 292 434.3 295.7 437.7 298.3Z" fill="#FFD0C5"/>
<path id="Vector_74" d="M445.8 335C444.7 349.7 446.1 372 444.9 375.9C443.8 379.2 431.6 377.3 426.8 376.2C425 375.8 422.8 375.2 420.6 374.5C414.3 372.5 407.5 369.8 406.7 367.7C406.7 367.6 406.7 367.5 406.6 367.5V367.4C406.6 367.2 406.6 366.9 406.6 366.7C406.8 365.7 407.8 364.5 407.9 361.9C408 359 408 355.6 408.1 351.9C408.1 351.5 408.1 351 408.2 350.6V350.2C408.3 346.1 408.5 341.8 408.8 337.5C409 334.8 409.2 332.1 409.4 329.6C409.7 324.2 410.5 318.8 411.7 313.5C413.1 308.5 416 304 420 300.7L422.3 298.7C425.2 299.2 428.1 298.9 430.7 297.6C433.7 296.2 434.7 295.2 435.2 295.6C442.1 300.7 447.1 317.1 445.8 335Z" fill="#B70F5B"/>
<path id="Vector_75" opacity="0.5" d="M420.5 374.5C414.2 372.5 407.4 369.8 406.6 367.7C406.6 367.6 406.6 367.5 406.5 367.5V367.4C406.5 367.2 406.5 366.9 406.5 366.7C406.7 365.7 407.7 364.5 407.8 361.9C407.9 359 407.9 355.6 408 351.9C408 351.5 408 351 408.1 350.6V350.2L437.2 312.9C437.3 312.8 433.3 358.5 420.5 374.5Z" fill="black"/>
<path id="Vector_76" d="M431 287.8C430.1 290 427.6 295.1 421.9 296.9C421.5 295 421.2 293 421 291L426.8 285.8L430.7 286.6C430.8 287.1 430.9 287.4 431 287.8Z" fill="#D68D5D"/>
<path id="Vector_77" d="M418.7 291C418.7 291 431.2 292.4 432 284.6C432.8 276.8 434.9 271.7 426.9 270.5C418.9 269.3 417.1 272.1 416.2 274.6C415.3 277.1 415.5 290.4 418.7 291Z" fill="#FFD0C5"/>
<path id="Vector_78" d="M431.9 285.2C431.2 278.9 426 274.1 419.7 273.8C411.9 273.1 416.3 266.4 417.1 265.3C417.1 265.3 423.1 266.1 429.2 267.1C442 269.2 433.1 283.5 431.9 285.2Z" fill="#382424"/>
<path id="Vector_79" d="M409 330.6C409.3 330.1 409.8 329.8 410.4 329.7C411.2 329.6 412.7 329.8 413.4 331.9C414.1 334 413.5 336.1 412.5 336.6C411.5 337.1 408.2 338.6 408.7 337C409.2 335.4 409 330.6 409 330.6Z" fill="#FFD0C5"/>
<path id="Vector_80" d="M422.6 314L409.3 338.1L409.2 329.6C408.5 328.7 407.6 327.9 406.4 327.6C405 327.3 403.6 327.3 402.2 327.5C402.2 327.5 397.7 349.4 405 350.1C418.6 351.5 438.7 321 437.1 312.9C435.5 304.8 428.6 303.9 422.6 314Z" fill="#B70F5B"/>
<path id="Vector_81" d="M402.7 327.4C402.3 327 402.1 326.4 402.2 325.8C402.3 325 402.8 323.6 405 323.4C407.2 323.2 409.1 324.3 409.3 325.3C409.5 326.3 410.3 329.9 408.9 329.1C407.5 328.3 402.7 327.4 402.7 327.4Z" fill="#FFD0C5"/>
<path id="Vector_82" d="M405.3 334.8C405.3 334.8 404.9 339.1 408.3 337.2C411.7 335.3 412.1 335.4 412.2 332.9C412.3 330.4 412.2 329.1 408.8 330.2C406.7 330.8 405.4 332.7 405.3 334.8Z" fill="#FFD0C5"/>
</g>
<g id="Fixed Items">
<path id="Vector_83" d="M68.9 125.9C100.767 125.9 126.6 100.067 126.6 68.2C126.6 36.3332 100.767 10.5 68.9 10.5C37.0332 10.5 11.2 36.3332 11.2 68.2C11.2 100.067 37.0332 125.9 68.9 125.9Z" fill="url(#paint1_linear)"/>
<path id="Vector_84" d="M194.8 20.5L188.9 46.6H166.6L162 28.5C163.4 28 164.8 27.6 166.2 27.1L166.8 26.9L168.9 26.3C170.9 25.7 172.8 25.2 174.8 24.7L176 24.4C177.6 24 179.3 23.6 181 23.2C181.6 23.1 182.2 22.9 182.8 22.8C184.7 22.4 186.6 22 188.6 21.6C190.6 21.2 192.7 20.8 194.8 20.5Z" fill="#FF9750"/>
<path id="Vector_85" d="M194.8 20.5L188.9 46.6H181.2L182.9 22.8C184.8 22.4 186.7 22 188.7 21.6C190.7 21.2 192.7 20.8 194.8 20.5Z" fill="#FF6224"/>
<path id="Vector_86" d="M410.4 111.6L404.4 143.6H377.5L375.9 118.8V118.5L372.7 70C386.9 82.1 399.6 96.2 410.4 111.6Z" fill="#FF9750"/>
<path id="Vector_87" d="M377.4 143.6H361.3L347.8 51.8H348C356.6 57.2 364.7 63.3 372.4 69.9L375.6 118.4V118.7L377.4 143.6Z" fill="#FF6224"/>
<path id="Vector_88" d="M55.3 296.6V311.3L49.3 311.5H49.2L24.5 312.4C24.2 311.6 23.9 310.8 23.6 310C21.6 304.3 19.8 298.5 18.3 292.6V291.6L55.3 296.6Z" fill="#FF6224"/>
<path id="Vector_89" d="M55.3 311.3V332.6L34.5 335.4C33.3 333 32.1 330.5 31 328C29.5 324.8 28.1 321.6 26.8 318.3C24.8 313.4 26.8 318.3 26.8 318.3C26 316.3 25.3 314.4 24.5 312.4L49.2 311.5H49.3L55.3 311.3Z" fill="#FF9750"/>
<path id="Vector_90" d="M58.3 296.6H55.3V332.6H58.3V296.6Z" fill="#FF6224"/>
<path id="Vector_91" d="M188.8 46.6H166.6V47.9H188.8V46.6Z" fill="#FF6224"/>
<path id="Vector_92" d="M404.1 143.6H361.3V147.3H404.1V143.6Z" fill="#FF6224"/>
</g>
</g>
<defs>
<linearGradient id="paint0_linear" x1="75.3576" y1="391.867" x2="385.443" y2="81.7823" gradientUnits="userSpaceOnUse">
<stop stop-color="#D22674"/>
<stop offset="1" stop-color="#F25437"/>
</linearGradient>
<linearGradient id="paint1_linear" x1="33.7221" y1="103.423" x2="115.582" y2="21.5532" gradientUnits="userSpaceOnUse">
<stop stop-color="#D22674"/>
<stop offset="1" stop-color="#F25437"/>
</linearGradient>
<clipPath id="clip0">
<rect width="470" height="471.3" fill="white"/>
</clipPath>
</defs>
</svg>
