
<svg width="120" height="120" viewBox="0 0 120 120" fill="none" xmlns="http://www.w3.org/2000/svg">
	<style>
		.linemove
	{	
		stroke-dasharray: 100;
		stroke-dashoffset: 100;
		     -webkit-perspective: 1000;
                                -webkit-backface-visibility: hidden;

		animation: linemover 5s linear infinite;
		
	}

	@keyframes linemover{
		0% {  stroke-dashoffset: 100; }
		100% { stroke-dashoffset: 0; }
	}

	.translateup
		{
			animation: translateupr 4s ease-in-out infinite;
			     -webkit-perspective: 1000;
                                -webkit-backface-visibility: hidden;
		}
	   @keyframes translateupr
	   {
	      0%    { transform : translateY(1.5vh); }
	      50%   {transform : translateY(-4vh);}
	      100%  {transform : translateY(1.5vh); }    
	   }

	   .translatedown
		{
			animation: translatedownr 4s ease-in-out infinite;
			     -webkit-perspective: 1000;
                                -webkit-backface-visibility: hidden;
		}
	   @keyframes translatedownr
	   {
	      0%    { transform : translateY(-2.5vh); }
	      50%   {transform : translateY(2vh);}
	      100%  {transform : translateY(-2.5vh); }    
	   }
	</style>
<g id="Layer 1" filter="url(#filter0_d)">
<path id="Vector" d="M115 0H5C2.23858 0 0 2.23858 0 5V115C0 117.761 2.23858 120 5 120H115C117.761 120 120 117.761 120 115V5C120 2.23858 117.761 0 115 0Z" fill="url(#paint0_linear)"/>
<path id="Vector_2" d="M22.98 85.6L23 51" stroke="white" stroke-width="2" stroke-miterlimit="10"/>
<path id="Vector_3" d="M97.02 85.6L97 54" stroke="white" stroke-width="2" stroke-miterlimit="10"/>
<path id="Vector_4" d="M60 86V28" stroke="#B70F5B" stroke-width="2" stroke-miterlimit="10"/>
<g id="linemove" class="linemove">
<path d="M0 93H60H120" fill="#FF9750"/>
<path d="M0 93H60H120" stroke="white" stroke-width="2" stroke-miterlimit="10" stroke-dasharray="2 2"/>
</g>
<g id="circles">
<path id="Vector_5" d="M22.98 100.4C27.0669 100.4 30.38 97.0869 30.38 93C30.38 88.9131 27.0669 85.6 22.98 85.6C18.8931 85.6 15.58 88.9131 15.58 93C15.58 97.0869 18.8931 100.4 22.98 100.4Z" fill="#B70F5B" stroke="#FF9750" stroke-width="2" stroke-miterlimit="10"/>
<path id="Vector_6" d="M60 100.4C64.0869 100.4 67.4 97.0869 67.4 93C67.4 88.9131 64.0869 85.6 60 85.6C55.9131 85.6 52.6 88.9131 52.6 93C52.6 97.0869 55.9131 100.4 60 100.4Z" fill="#B70F5B" stroke="#FF9750" stroke-width="2" stroke-miterlimit="10"/>
<path id="Vector_7" d="M97.02 100.4C101.107 100.4 104.42 97.0869 104.42 93C104.42 88.9131 101.107 85.6 97.02 85.6C92.9331 85.6 89.62 88.9131 89.62 93C89.62 97.0869 92.9331 100.4 97.02 100.4Z" fill="#B70F5B" stroke="#FF9750" stroke-width="2" stroke-miterlimit="10"/>
</g>
<path id="cloudleft" class="translateup" d="M114.11 63.74V65.58C113.932 66.8454 113.425 68.0419 112.64 69.05C112.015 69.8879 111.204 70.5684 110.27 71.0371C109.336 71.5059 108.305 71.75 107.26 71.75C99.32 71.75 91.37 71.75 83.43 71.75C81.6887 71.7148 80.0217 71.0382 78.7486 69.8498C77.4754 68.6614 76.6857 67.0449 76.5308 65.3102C76.376 63.5755 76.8668 61.8447 77.9093 60.4495C78.9518 59.0544 80.4725 58.0931 82.18 57.75C82.6693 57.6452 83.1702 57.6049 83.67 57.63C83.7663 57.6455 83.8649 57.6242 83.9464 57.5706C84.0278 57.5169 84.0862 57.4346 84.11 57.34C84.5762 56.1784 85.3454 55.1631 86.3373 54.3998C87.3293 53.6365 88.5077 53.1531 89.75 53C90.303 52.91 90.8669 52.91 91.42 53C91.5477 53.0343 91.6834 53.0232 91.8038 52.9685C91.9242 52.9137 92.0219 52.8188 92.08 52.7C92.8224 51.4532 93.8526 50.4022 95.0843 49.635C96.316 48.8678 97.7135 48.4066 99.16 48.29C101.207 48.0885 103.264 48.5671 105.012 49.6516C106.759 50.7361 108.101 52.3663 108.83 54.29C109.256 55.3718 109.464 56.5275 109.44 57.69C109.44 57.89 109.44 58.04 109.67 58.13C110.83 58.5772 111.85 59.3251 112.625 60.297C113.4 61.2689 113.902 62.4297 114.08 63.66L114.11 63.74Z" fill="#FF9750"/>
<path id="cloudmain" class="translatedown" d="M83.55 32.83V35.08C83.3383 36.6315 82.717 38.0985 81.75 39.33C80.9863 40.3548 79.9936 41.1869 78.8511 41.7598C77.7086 42.3328 76.4481 42.6308 75.17 42.63C65.45 42.63 55.72 42.63 46 42.63C43.874 42.5775 41.8417 41.7446 40.2903 40.29C38.739 38.8354 37.7771 36.8608 37.588 34.7426C37.3989 32.6244 37.9959 30.5107 39.265 28.8043C40.5342 27.0979 42.3869 25.9182 44.47 25.49C45.0675 25.3607 45.6794 25.3103 46.29 25.34C46.4074 25.3589 46.5276 25.3335 46.6273 25.2689C46.7271 25.2042 46.7993 25.1048 46.83 24.99C47.3915 23.5594 48.329 22.307 49.5436 21.3653C50.7582 20.4235 52.2046 19.8274 53.73 19.64C54.4089 19.53 55.1011 19.53 55.78 19.64C55.937 19.68 56.1029 19.6651 56.2502 19.5978C56.3976 19.5305 56.5174 19.4148 56.59 19.27C57.4994 17.7456 58.7597 16.4603 60.2659 15.521C61.7722 14.5818 63.4809 14.0158 65.25 13.87C67.7621 13.6245 70.2849 14.216 72.4261 15.5525C74.5674 16.8889 76.207 18.8954 77.09 21.26C77.6066 22.5851 77.8613 23.9979 77.84 25.42C77.84 25.66 77.84 25.85 78.12 25.96C79.5379 26.5108 80.7845 27.4275 81.7331 28.6167C82.6816 29.8059 83.2982 31.2251 83.52 32.73L83.55 32.83Z" fill="white"/>
<path id="cloudleft_2" class="translateup" d="M41.77 58.16V60C41.5921 61.2654 41.0852 62.4619 40.3 63.47C39.6754 64.3079 38.8638 64.9884 37.9297 65.4571C36.9957 65.9259 35.9651 66.17 34.92 66.17C26.98 66.17 19.03 66.17 11.09 66.17C9.34874 66.1348 7.68175 65.4582 6.40859 64.2698C5.13544 63.0814 4.34572 61.4649 4.19084 59.7302C4.03595 57.9955 4.5268 56.2647 5.56928 54.8695C6.61177 53.4744 8.13252 52.5131 9.83999 52.17C10.3293 52.0652 10.8302 52.0249 11.33 52.05C11.4263 52.0655 11.5249 52.0442 11.6064 51.9906C11.6878 51.9369 11.7462 51.8546 11.77 51.76C12.2319 50.5928 12.9992 49.5713 13.9914 48.8025C14.9837 48.0337 16.1644 47.5458 17.41 47.39C17.963 47.3 18.527 47.3 19.08 47.39C19.2077 47.4243 19.3434 47.4132 19.4638 47.3585C19.5842 47.3037 19.6819 47.2088 19.74 47.09C20.4824 45.8432 21.5126 44.7922 22.7443 44.025C23.976 43.2578 25.3735 42.7966 26.82 42.68C28.8671 42.4785 30.9237 42.9571 32.6716 44.0416C34.4195 45.1261 35.7615 46.7563 36.49 48.68C36.9162 49.7618 37.1235 50.9175 37.1 52.08C37.1 52.28 37.1 52.43 37.33 52.52C38.4899 52.9672 39.5098 53.7151 40.2848 54.687C41.0599 55.6589 41.5621 56.8197 41.74 58.05L41.77 58.16Z" fill="#FF9750"/>
</g>
<defs>
<filter id="filter0_d" x="-4" y="0" width="128" height="128" filterUnits="userSpaceOnUse" color-interpolation-filters="sRGB">
<feFlood flood-opacity="0" result="BackgroundImageFix"/>
<feColorMatrix in="SourceAlpha" type="matrix" values="0 0 0 0 0 0 0 0 0 0 0 0 0 0 0 0 0 0 127 0"/>
<feOffset dy="4"/>
<feGaussianBlur stdDeviation="2"/>
<feColorMatrix type="matrix" values="0 0 0 0 0 0 0 0 0 0 0 0 0 0 0 0 0 0 0.25 0"/>
<feBlend mode="normal" in2="BackgroundImageFix" result="effect1_dropShadow"/>
<feBlend mode="normal" in="SourceGraphic" in2="effect1_dropShadow" result="shape"/>
</filter>
<linearGradient id="paint0_linear" x1="0" y1="60" x2="120" y2="60" gradientUnits="userSpaceOnUse">
<stop stop-color="#D23274"/>
<stop offset="1" stop-color="#F24A37"/>
</linearGradient>
</defs>
</svg>
