
<svg width="112" height="112" viewBox="0 0 112 112" fill="none" xmlns="http://www.w3.org/2000/svg">
	<style>
		.rocketup
		{
			animation: rockerupr 4s ease infinite;
		}
	   @keyframes rockerupr
	   {
	      0%    { transform : translateY(0vh); opacity:0.90;}
	      25%   {transform : translateY(-3vh); opacity:01;}
	      100%  {transform : translateY(0vh); opacity:90;}    
	   }

	   .rocketflamer
	   {
	   	animation: rocketflamerr 4s ease infinite;
	   }

	   @keyframes rocketflamerr
	   {
	      0%    { transform : translateY(2vhvh); opacity:1;}
	      10%    { transform : translateY(0vh); opacity:1;}
	      15%    { transform : translateY(0vh); opacity:1;}
	      25%   {transform : translateY(0vh); opacity:01;}
	      35%   {transform : translateY(0vh); opacity:0.2;}
	      45%   {transform : translateY(0vh); opacity:01;}
	      55%   {transform : translateY(0vh); opacity:0.2;}
	      65%   {transform : translateY(0vh); opacity:01;}
	      75%   {transform : translateY(0vh); opacity:0.2;}
	      85%   {transform : translateY(0vh); opacity:01;}
	      100%   {transform : translateY(-2vh); opacity:0.2;}


   
	   }

	            .orbitt
   {  
      stroke-dasharray: 400;
      stroke-dashoffset: 400;

      animation: orbittr 5s ease-in-out infinite;
      
   }

   @keyframes orbittr{
      0% {  stroke-dashoffset: 400; }
      100% { stroke-dashoffset: 0; }
   }


	</style>
<g id="Layer 2">
<g id="Layer 1">
<path id="centercircle" d="M55.7 83.07C70.816 83.07 83.07 70.816 83.07 55.7C83.07 40.584 70.816 28.33 55.7 28.33C40.584 28.33 28.33 40.584 28.33 55.7C28.33 70.816 40.584 83.07 55.7 83.07Z" fill="url(#paint0_linear)"/>
<g id="rocket" class="rocketup">
<path id="Vector" d="M66.75 57.56L64.05 54.42C64.05 54.42 64.05 54.35 64.05 54.32C64.3143 51.6061 64.0563 48.8668 63.29 46.25C62.0862 42.6859 59.9733 39.4975 57.16 37C56.7595 36.6388 56.2393 36.4389 55.7 36.4389C55.1607 36.4389 54.6405 36.6388 54.24 37C51.4154 39.4856 49.2916 42.6679 48.08 46.23C47.3124 48.8465 47.0577 51.5868 47.33 54.3C47.33 54.3 47.33 54.37 47.33 54.4L44.64 57.54C44.4226 57.7924 44.2662 58.0914 44.183 58.414C44.0997 58.7365 44.0919 59.0739 44.16 59.4L45.16 64.4C45.211 64.6465 45.3228 64.8763 45.4853 65.0685C45.6478 65.2608 45.8557 65.4094 46.0902 65.5008C46.3247 65.5922 46.5783 65.6235 46.8281 65.592C47.0778 65.5604 47.3156 65.4669 47.52 65.32L50.36 63.25C50.36 63.3 50.44 63.36 50.47 63.42C50.6759 63.6985 50.9442 63.9249 51.2532 64.0812C51.5623 64.2374 51.9037 64.3192 52.25 64.32H59.08C59.368 64.322 59.6535 64.2665 59.9196 64.1566C60.1858 64.0466 60.4274 63.8846 60.63 63.68C60.7119 63.5981 60.7887 63.5113 60.86 63.42L60.98 63.25L63.81 65.32C64.0156 65.4685 64.2553 65.5629 64.507 65.5943C64.7586 65.6258 65.0142 65.5933 65.25 65.5C65.4451 65.4288 65.6225 65.3162 65.77 65.17C65.9771 64.9575 66.1193 64.6904 66.18 64.4L67.18 59.4C67.2474 59.0805 67.2438 58.7501 67.1695 58.4322C67.0952 58.1143 66.952 57.8165 66.75 57.56V57.56ZM58.16 50.5C57.6728 50.9903 57.051 51.3249 56.3734 51.4613C55.6958 51.5978 54.9929 51.5299 54.3539 51.2664C53.7149 51.0029 53.1686 50.5556 52.7841 49.9812C52.3997 49.4068 52.1944 48.7312 52.1944 48.04C52.1944 47.3488 52.3997 46.6732 52.7841 46.0988C53.1686 45.5244 53.7149 45.0771 54.3539 44.8136C54.9929 44.5501 55.6958 44.4822 56.3734 44.6187C57.051 44.7551 57.6728 45.0897 58.16 45.58C58.4815 45.9011 58.7356 46.2833 58.9073 46.704C59.0791 47.1248 59.165 47.5756 59.16 48.03C59.1665 48.9532 58.8069 49.8413 58.16 50.5V50.5Z" fill="white"/>
<path id="Vector_2" d="M58.16 45.58C57.836 45.2595 57.4519 45.0062 57.0298 44.8346C56.6076 44.663 56.1557 44.5765 55.7 44.58C55.0064 44.5782 54.3279 44.783 53.7513 45.1685C53.1746 45.554 52.7259 46.1025 52.4623 46.7441C52.1988 47.3858 52.1325 48.0914 52.2718 48.7709C52.4111 49.4504 52.7497 50.073 53.2444 50.5592C53.7392 51.0453 54.3675 51.3731 55.0494 51.5006C55.7312 51.628 56.4355 51.5494 57.0725 51.2748C57.7094 51.0002 58.2501 50.542 58.6255 49.9587C59.0009 49.3754 59.1939 48.6935 59.18 48C59.1784 47.5492 59.0874 47.1033 58.9123 46.6879C58.7372 46.2725 58.4815 45.8959 58.16 45.58ZM55.7 50.5C55.3719 50.5041 55.0464 50.4421 54.7429 50.3175C54.4394 50.193 54.1641 50.0085 53.9335 49.7751C53.703 49.5417 53.5218 49.2642 53.4009 48.9592C53.28 48.6542 53.2219 48.328 53.23 48C53.2381 47.6781 53.3104 47.361 53.4426 47.0674C53.5748 46.7737 53.7643 46.5095 54 46.29C54.2286 46.0581 54.501 45.8742 54.8015 45.7488C55.102 45.6235 55.4244 45.5593 55.75 45.56C56.3896 45.5779 56.9978 45.8413 57.4484 46.2956C57.899 46.7499 58.1574 47.3602 58.17 48C58.174 48.3269 58.113 48.6513 57.9907 48.9544C57.8683 49.2576 57.687 49.5334 57.4572 49.766C57.2275 49.9985 56.9539 50.1832 56.6522 50.3092C56.3506 50.4352 56.0269 50.5 55.7 50.5V50.5Z" fill="url(#paint1_linear)"/>
</g>
<g id="rocketflame" class="rocketflamer">
<path id="Vector_3" d="M52.79 71.19C52.9343 71.0283 53.0097 70.8165 53 70.6V66.8C52.9776 66.5969 52.881 66.4091 52.7288 66.2728C52.5766 66.1364 52.3794 66.061 52.175 66.061C51.9706 66.061 51.7734 66.1364 51.6212 66.2728C51.469 66.4091 51.3724 66.5969 51.35 66.8V70.6C51.35 70.8201 51.4374 71.0312 51.5931 71.1869C51.7487 71.3426 51.9599 71.43 52.18 71.43C52.2928 71.4347 52.4053 71.4158 52.5104 71.3745C52.6154 71.3331 52.7107 71.2703 52.79 71.19V71.19Z" fill="white"/>
<path id="Vector_4" d="M55.7 66C55.4816 66 55.272 66.0861 55.1166 66.2396C54.9612 66.3931 54.8726 66.6016 54.87 66.82V74.13C54.8572 74.246 54.869 74.3633 54.9046 74.4744C54.9403 74.5855 54.9989 74.6879 55.0768 74.7748C55.1546 74.8617 55.2499 74.9312 55.3564 74.9788C55.463 75.0264 55.5783 75.051 55.695 75.051C55.8117 75.051 55.927 75.0264 56.0335 74.9788C56.1401 74.9312 56.2354 74.8617 56.3132 74.7748C56.3911 74.6879 56.4497 74.5855 56.4853 74.4744C56.521 74.3633 56.5328 74.246 56.52 74.13V66.8C56.5148 66.586 56.4261 66.3825 56.2729 66.2331C56.1196 66.0836 55.914 65.9999 55.7 66V66Z" fill="white"/>
<path id="Vector_5" d="M58.36 66.8V70.6C58.36 70.8184 58.446 71.028 58.5995 71.1834C58.753 71.3388 58.9616 71.4274 59.18 71.43C59.2878 71.4306 59.3946 71.4097 59.4942 71.3685C59.5938 71.3273 59.6841 71.2666 59.76 71.19C59.9143 71.0325 60.0005 70.8206 60 70.6V66.8C59.9776 66.5969 59.881 66.4091 59.7288 66.2728C59.5766 66.1364 59.3794 66.061 59.175 66.061C58.9706 66.061 58.7734 66.1364 58.6212 66.2728C58.469 66.4091 58.3724 66.5969 58.35 66.8H58.36Z" fill="white"/>
</g>
<path id="orbit" d="M55.7 103.7C82.2097 103.7 103.7 82.2097 103.7 55.7C103.7 29.1903 82.2097 7.7 55.7 7.7C29.1903 7.7 7.7 29.1903 7.7 55.7C7.7 82.2097 29.1903 103.7 55.7 103.7Z" stroke="#FFE9E9" stroke-width="15.39" stroke-linecap="round" stroke-linejoin="round"/>
<path id="orbitpath" class="orbitt"  d="M55.7 103.7C45.3294 103.698 35.2382 100.338 26.937 94.1219C18.6357 87.9059 12.5709 79.1685 9.6504 69.2176C6.72986 59.2667 7.11066 48.6376 10.7358 38.9212C14.3609 29.2048 21.0354 20.9238 29.7602 15.3177C38.485 9.71166 48.7908 7.08205 59.1349 7.82251C69.4791 8.56298 79.3052 12.6337 87.1425 19.4253C94.9798 26.217 100.407 35.3642 102.611 45.4979C104.815 55.6316 103.678 66.2066 99.37 75.64" stroke="url(#paint2_linear)" stroke-width="15.39" stroke-linecap="round" stroke-linejoin="round"/>
</g>
</g>
<defs>
<linearGradient id="paint0_linear" x1="28.33" y1="55.7" x2="83.06" y2="55.7" gradientUnits="userSpaceOnUse">
<stop stop-color="#D23274"/>
<stop offset="1" stop-color="#F24A37"/>
</linearGradient>
<linearGradient id="paint1_linear" x1="416.627" y1="379.903" x2="465.277" y2="379.903" gradientUnits="userSpaceOnUse">
<stop stop-color="#D23274"/>
<stop offset="1" stop-color="#F24A37"/>
</linearGradient>
<linearGradient id="paint2_linear" x1="15.25" y1="94.01" x2="94.01" y2="15.25" gradientUnits="userSpaceOnUse">
<stop stop-color="#F26B1F"/>
<stop offset="1" stop-color="#D23274"/>
</linearGradient>
</defs>
</svg>
