<svg width="112" height="112" viewBox="0 0 112 112" fill="none" xmlns="http://www.w3.org/2000/svg">
	<style>
		.fill
		{
			animation: filer 3s ease-in-out infinite;
		}
		   @keyframes filer
   {
      0%    { fill-opacity: 0.4;}
      100%  {fill-opacity: 1;}    
   }

         .orbitt
   {  
      stroke-dasharray: 400;
      stroke-dashoffset: 400;

      animation: orbittr 5s ease-in-out infinite;
      
   }

   @keyframes orbittr{
      0% {  stroke-dashoffset: 400; }
      100% { stroke-dashoffset: 0; }
   }

	</style>
<g id="Layer 1">
<path id="orbit" class="oribitt" d="M55.7 103.7C82.2097 103.7 103.7 82.2097 103.7 55.7C103.7 29.1903 82.2097 7.7 55.7 7.7C29.1903 7.7 7.70001 29.1903 7.70001 55.7C7.70001 82.2097 29.1903 103.7 55.7 103.7Z" stroke="#FFE9E9" stroke-width="15.39" stroke-linecap="round" stroke-linejoin="round"/>
<path id="centercircle" d="M55.7 83.07C70.8161 83.07 83.07 70.816 83.07 55.7C83.07 40.584 70.8161 28.33 55.7 28.33C40.584 28.33 28.33 40.584 28.33 55.7C28.33 70.816 40.584 83.07 55.7 83.07Z" fill="url(#paint0_linear)"/>
<path id="infinity" class="fill" d="M67.92 47.29C66.224 46.6134 64.3603 46.478 62.5843 46.9023C60.8083 47.3266 59.207 48.2899 58 49.66L57.08 50.66L59.84 54L61.13 52.44C61.5612 51.9417 62.0939 51.5413 62.6923 51.2653C63.2907 50.9894 63.9411 50.8444 64.6 50.84C65.7387 50.8758 66.8345 51.2832 67.72 52C68.2712 52.455 68.7149 53.0263 69.0196 53.6728C69.3242 54.3194 69.4822 55.0253 69.4822 55.74C69.4822 56.4547 69.3242 57.1606 69.0196 57.8072C68.7149 58.4537 68.2712 59.025 67.72 59.48C66.821 60.1607 65.7276 60.5357 64.6 60.55C63.9407 60.5475 63.2897 60.4034 62.691 60.1273C62.0923 59.8513 61.56 59.4498 61.13 58.95L53.39 49.7C52.1698 48.3521 50.57 47.4054 48.8013 46.9845C47.0325 46.5636 45.1778 46.6883 43.4813 47.3421C41.7848 47.9959 40.3261 49.1482 39.2973 50.6473C38.2685 52.1464 37.7178 53.9219 37.7178 55.74C37.7178 57.5581 38.2685 59.3336 39.2973 60.8327C40.3261 62.3318 41.7848 63.4841 43.4813 64.1379C45.1778 64.7917 47.0325 64.9164 48.8013 64.4955C50.57 64.0746 52.1698 63.1279 53.39 61.78L54.32 60.78L51.55 57.43L50.26 58.99C49.8309 59.4908 49.2987 59.893 48.6998 60.1692C48.101 60.4453 47.4495 60.5889 46.79 60.59C45.6655 60.5756 44.5753 60.2006 43.68 59.52C43.1273 59.066 42.6821 58.4951 42.3764 57.8484C42.0707 57.2017 41.9121 56.4953 41.9121 55.78C41.9121 55.0647 42.0707 54.3583 42.3764 53.7116C42.6821 53.0649 43.1273 52.494 43.68 52.04C44.572 51.352 45.6636 50.973 46.79 50.96C47.4491 50.9638 48.0997 51.1085 48.6982 51.3844C49.2967 51.6604 49.8292 52.0612 50.26 52.56L58 61.74C58.9139 62.7419 60.0424 63.5242 61.3012 64.0287C62.5599 64.5331 63.9164 64.7466 65.2692 64.6532C66.6221 64.5598 67.9363 64.1618 69.1138 63.4891C70.2912 62.8164 71.3015 61.8863 72.069 60.7683C72.8365 59.6504 73.3414 58.3734 73.5461 57.0328C73.7507 55.6923 73.6498 54.3228 73.2508 53.0268C72.8519 51.7307 72.1652 50.5416 71.2421 49.5482C70.319 48.5548 69.1834 47.7828 67.92 47.29V47.29Z" fill="white"/>
<g id="centerdrop" class="fill">
<path id="Vector" d="M46.79 53C46.4276 52.9865 46.0662 53.0465 45.7275 53.1762C45.3888 53.306 45.0799 53.5029 44.8193 53.7551C44.5587 54.0073 44.3518 54.3096 44.211 54.6438C44.0702 54.9781 43.9984 55.3373 44 55.7C43.9881 56.1 44.0727 56.497 44.2468 56.8573C44.4209 57.2176 44.6793 57.5307 45 57.77C45.526 58.1649 46.1624 58.3852 46.82 58.4C47.181 58.3994 47.5375 58.3194 47.8642 58.1656C48.1908 58.0118 48.4796 57.7879 48.71 57.51L50.21 55.7L48.71 53.88C48.4754 53.6 48.1814 53.3757 47.8493 53.2235C47.5171 53.0712 47.1553 52.9949 46.79 53V53Z" fill="white"/>
<path id="Vector_2" d="M64.6 58.4C64.9608 58.4107 65.32 58.3488 65.6563 58.2178C65.9927 58.0868 66.2992 57.8894 66.5577 57.6375C66.8161 57.3856 67.0212 57.0842 67.1608 56.7513C67.3004 56.4185 67.3715 56.0609 67.37 55.7C67.3836 55.2983 67.2997 54.8994 67.1255 54.5371C66.9514 54.1749 66.6922 53.8603 66.37 53.62C65.8566 53.2384 65.2393 53.0222 64.6 53C64.2392 53.0019 63.8832 53.0826 63.5567 53.2363C63.2303 53.39 62.9413 53.6131 62.71 53.89L61.21 55.71L62.71 57.52C62.9413 57.7969 63.2303 58.02 63.5567 58.1737C63.8832 58.3274 64.2392 58.4081 64.6 58.41V58.4Z" fill="white"/>
</g>
<path id="orbitpath" class="orbitt" d="M55.7 103.7C44.3462 103.7 33.3602 99.6747 24.6934 92.3402C16.0266 85.0057 10.2404 74.8365 8.36247 63.6391C6.48459 52.4417 8.63668 40.9412 14.4364 31.1805C20.2362 21.4198 29.3081 14.031 40.0406 10.3267C50.7731 6.62231 62.4712 6.84227 73.0568 10.9475C83.6424 15.0527 92.4301 22.7773 97.8589 32.7491C103.288 42.7209 105.006 54.2942 102.708 65.4131C100.411 76.532 94.2464 86.4765 85.31 93.48" stroke="url(#paint1_linear)" stroke-width="15.39" stroke-linecap="round" stroke-linejoin="round"/>
</g>
<defs>
<linearGradient id="paint0_linear" x1="28.33" y1="55.7" x2="83.06" y2="55.7" gradientUnits="userSpaceOnUse">
<stop stop-color="#D23274"/>
<stop offset="1" stop-color="#F24A37"/>
</linearGradient>
<linearGradient id="paint1_linear" x1="16.31" y1="95.08" x2="95.08" y2="16.31" gradientUnits="userSpaceOnUse">
<stop stop-color="#F26B1F"/>
<stop offset="1" stop-color="#D23274"/>
</linearGradient>
</defs>
</svg>