
<svg width="120" height="120" viewBox="0 0 120 120" fill="none" xmlns="http://www.w3.org/2000/svg">
	<style >
		.glow
		{
			animation: glower 4s ease-in-out infinite;
		}

		 @keyframes glower
	   {
	      0%    { fill: white;}
	      50%   {fill: #F5954F;}
	      100%  {fill: white;}    
	   }

	   .glowinv
		{
			animation: glowerinv 4s ease-in-out infinite;
		}

		 @keyframes glowerinv
	   {
	      0%    { fill: #F5954F;}
	      50%   {fill: #ffffff;}
	      100%  {fill: #F5954F;}    
	   }
	</style>
<g id="Layer 1">
<path id="Vector" d="M115 0H5C2.23858 0 0 2.23858 0 5V115C0 117.761 2.23858 120 5 120H115C117.761 120 120 117.761 120 115V5C120 2.23858 117.761 0 115 0Z" fill="url(#paint0_linear)"/>
<path id="Vector_2" class="glowinv" d="M46.62 46.62H73.38V73.39H46.62V46.62Z" fill="white"/>
<path id="brainleft" class="glow" d="M30.63 62.16C29.2073 62.1163 27.7903 62.3589 26.4631 62.8732C25.1358 63.3875 23.9254 64.1631 22.9036 65.1541C21.8818 66.145 21.0694 67.3311 20.5147 68.6419C19.9599 69.9527 19.674 71.3616 19.674 72.785C19.674 74.2084 19.9599 75.6173 20.5147 76.9281C21.0694 78.2389 21.8818 79.425 22.9036 80.4159C23.9254 81.4069 25.1358 82.1825 26.4631 82.6968C27.7903 83.2111 29.2073 83.4536 30.63 83.41C30.7771 83.41 30.9227 83.439 31.0586 83.4952C31.1945 83.5515 31.318 83.634 31.422 83.738C31.526 83.842 31.6085 83.9655 31.6648 84.1014C31.721 84.2373 31.75 84.3829 31.75 84.53C31.7551 84.675 31.7312 84.8196 31.6797 84.9552C31.6282 85.0909 31.5501 85.2149 31.45 85.32C31.2425 85.528 30.9637 85.6496 30.67 85.66C29.9761 85.6605 29.2834 85.6003 28.6 85.48V88.35C28.6 90.3815 29.407 92.3299 30.8436 93.7664C32.2801 95.203 34.2284 96.01 36.26 96.01C38.2916 96.01 40.2399 95.203 41.6764 93.7664C43.113 92.3299 43.92 90.3815 43.92 88.35C43.9463 88.0725 44.0752 87.8148 44.2814 87.6272C44.4875 87.4396 44.7563 87.3357 45.035 87.3357C45.3138 87.3357 45.5825 87.4396 45.7887 87.6272C45.9949 87.8148 46.1237 88.0725 46.15 88.35C46.156 89.6807 45.8935 90.999 45.378 92.2259C44.8625 93.4527 44.1047 94.5629 43.15 95.49C44.283 96.4111 45.654 96.9921 47.1039 97.1653C48.5538 97.3386 50.0231 97.0971 51.3413 96.4689C52.6594 95.8407 53.7724 94.8516 54.551 93.6163C55.3296 92.381 55.7419 90.9502 55.74 89.49V78H46.54C45.3527 77.9974 44.2147 77.5245 43.3751 76.6849C42.5355 75.8453 42.0627 74.7073 42.06 73.52V46.55C42.06 45.3609 42.5317 44.2204 43.3716 43.3786C44.2114 42.5369 45.3509 42.0626 46.54 42.06H55.7V29C55.6909 28.0502 55.4652 27.1151 55.0399 26.2658C54.6147 25.4165 54.0012 24.6755 53.2462 24.0993C52.4912 23.523 51.6146 23.1267 50.6832 22.9406C49.7518 22.7544 48.7902 22.7834 47.8717 23.0252C46.9532 23.267 46.1021 23.7152 45.3831 24.3358C44.6641 24.9564 44.0962 25.733 43.7228 26.6063C43.3494 27.4796 43.1802 28.4266 43.2283 29.3752C43.2763 30.3238 43.5403 31.2489 44 32.08C44.34 32.29 44.68 32.51 45 32.76C45.2387 32.9377 45.397 33.2029 45.4402 33.4974C45.4833 33.7918 45.4077 34.0913 45.23 34.33C45.0523 34.5687 44.7871 34.727 44.4926 34.7701C44.1982 34.8133 43.8987 34.7377 43.66 34.56C41.6933 33.131 39.2962 32.4192 36.8683 32.5434C34.4404 32.6676 32.1285 33.6203 30.3179 35.2426C28.5073 36.8649 27.3075 39.0587 26.9184 41.4585C26.5294 43.8582 26.9747 46.3188 28.18 48.43C28.2536 48.5574 28.3013 48.698 28.3205 48.8438C28.3397 48.9897 28.33 49.1378 28.2919 49.2799C28.2538 49.422 28.1881 49.5552 28.0986 49.6719C28.009 49.7885 27.8974 49.8865 27.77 49.96C27.6426 50.0335 27.502 50.0813 27.3562 50.1005C27.2103 50.1197 27.0622 50.1099 26.9201 50.0719C26.778 50.0338 26.6448 49.9681 26.5281 49.8786C26.4115 49.789 26.3135 49.6774 26.24 49.55C26.1 49.33 25.98 49.09 25.86 48.86C24.8865 49.285 24.0181 49.9184 23.3161 50.7155C22.6141 51.5127 22.0955 52.4542 21.7971 53.4736C21.4986 54.493 21.4274 55.5655 21.5886 56.6154C21.7498 57.6653 22.1395 58.6671 22.73 59.55C23.2144 60.2873 23.8315 60.9282 24.55 61.44C26.4184 60.4335 28.5078 59.9077 30.63 59.91C30.9271 59.91 31.2119 60.028 31.422 60.238C31.632 60.4481 31.75 60.7329 31.75 61.03C31.75 61.327 31.632 61.6119 31.422 61.822C31.2119 62.032 30.9271 62.15 30.63 62.15V62.16ZM49.91 81C49.91 80.7029 50.028 80.4181 50.2381 80.208C50.4481 79.998 50.733 79.88 51.03 79.88C51.3271 79.88 51.6119 79.998 51.822 80.208C52.032 80.4181 52.15 80.7029 52.15 81V84.28C52.15 84.577 52.032 84.8619 51.822 85.072C51.6119 85.282 51.3271 85.4 51.03 85.4C50.733 85.4 50.4481 85.282 50.2381 85.072C50.028 84.8619 49.91 84.577 49.91 84.28V81ZM49.91 35.67C49.91 35.3729 50.028 35.0881 50.2381 34.878C50.4481 34.668 50.733 34.55 51.03 34.55C51.3271 34.55 51.6119 34.668 51.822 34.878C52.032 35.0881 52.15 35.3729 52.15 35.67V39C52.15 39.297 52.032 39.5819 51.822 39.792C51.6119 40.002 51.3271 40.12 51.03 40.12C50.733 40.12 50.4481 40.002 50.2381 39.792C50.028 39.5819 49.91 39.297 49.91 39V35.67ZM35.7 49.91H39C39.2971 49.91 39.5819 50.028 39.792 50.238C40.002 50.4481 40.12 50.7329 40.12 51.03C40.12 51.327 40.002 51.6119 39.792 51.822C39.5819 52.032 39.2971 52.15 39 52.15H35.7C35.403 52.15 35.1181 52.032 34.908 51.822C34.698 51.6119 34.58 51.327 34.58 51.03C34.58 50.7329 34.698 50.4481 34.908 50.238C35.1181 50.028 35.403 49.91 35.7 49.91ZM35.7 67.91H39C39.2971 67.91 39.5819 68.028 39.792 68.238C40.002 68.4481 40.12 68.7329 40.12 69.03C40.12 69.327 40.002 69.6119 39.792 69.822C39.5819 70.032 39.2971 70.15 39 70.15H35.7C35.403 70.15 35.1181 70.032 34.908 69.822C34.698 69.6119 34.58 69.327 34.58 69.03C34.58 68.7329 34.698 68.4481 34.908 68.238C35.1181 68.028 35.403 67.91 35.7 67.91Z" fill="#FF9750"/>
<path id="brainright" class="glow" d="M89.38 59.91C91.4992 59.9064 93.5857 60.4323 95.45 61.44C96.4967 60.6934 97.3267 59.6825 97.8553 58.5105C98.3839 57.3385 98.5923 56.0472 98.4591 54.7684C98.326 53.4896 97.856 52.269 97.0973 51.2311C96.3385 50.1931 95.3181 49.3749 94.14 48.86C94.0287 49.0962 93.9052 49.3265 93.77 49.55C93.6793 49.7382 93.5374 49.897 93.3605 50.0081C93.1836 50.1193 92.9789 50.1782 92.77 50.1782C92.5611 50.1782 92.3564 50.1193 92.1795 50.0081C92.0026 49.897 91.8607 49.7382 91.77 49.55C91.6698 49.3786 91.617 49.1836 91.617 48.985C91.617 48.7864 91.6698 48.5914 91.77 48.42C92.9574 46.312 93.3901 43.862 92.9968 41.4748C92.6034 39.0876 91.4075 36.906 89.6066 35.2904C87.8056 33.6748 85.5074 32.7219 83.0917 32.5891C80.6759 32.4563 78.2872 33.1516 76.32 34.56C76.2031 34.6618 76.0664 34.7382 75.9185 34.7845C75.7705 34.8307 75.6146 34.8457 75.4606 34.8286C75.3065 34.8115 75.1577 34.7626 75.0236 34.685C74.8894 34.6074 74.7728 34.5028 74.6812 34.3778C74.5895 34.2528 74.5248 34.1102 74.4911 33.9589C74.4574 33.8076 74.4555 33.651 74.4855 33.4989C74.5154 33.3469 74.5766 33.2027 74.6652 33.0755C74.7538 32.9483 74.8678 32.8409 75 32.76C75.3209 32.5156 75.6548 32.2887 76 32.08C76.4673 31.2476 76.7376 30.3192 76.7904 29.366C76.8431 28.4129 76.6769 27.4603 76.3043 26.5814C75.9317 25.7025 75.3628 24.9206 74.6411 24.2957C73.9194 23.6708 73.0642 23.2196 72.141 22.9766C71.2179 22.7335 70.2513 22.7052 69.3155 22.8938C68.3797 23.0823 67.4995 23.4827 66.7425 24.0643C65.9855 24.6458 65.3717 25.393 64.9483 26.2486C64.5249 27.1042 64.3031 28.0454 64.3 29V42.06H73.46C74.0538 42.0534 74.6431 42.1646 75.1936 42.3873C75.7441 42.61 76.245 42.9397 76.6673 43.3573C77.0895 43.7749 77.4247 44.2721 77.6535 44.8201C77.8823 45.3682 78 45.9561 78 46.55V73.47C78.0053 74.0672 77.8915 74.6595 77.6651 75.2122C77.4387 75.7649 77.1044 76.2668 76.6816 76.6887C76.2588 77.1105 75.7561 77.4438 75.2029 77.669C74.6497 77.8941 74.0572 78.0067 73.46 78H64.3V89.53C64.3021 90.9885 64.7168 92.4167 65.4961 93.6495C66.2755 94.8823 67.3878 95.8695 68.7044 96.497C70.0211 97.1245 71.4884 97.3666 72.9369 97.1955C74.3853 97.0244 75.7558 96.447 76.89 95.53C75.9339 94.604 75.1752 93.494 74.6596 92.2669C74.144 91.0398 73.8822 89.721 73.89 88.39C73.89 88.093 74.008 87.8081 74.218 87.598C74.4281 87.388 74.7129 87.27 75.01 87.27C75.307 87.27 75.5919 87.388 75.8019 87.598C76.012 87.8081 76.13 88.093 76.13 88.39C76.0928 89.4185 76.2633 90.444 76.6312 91.4052C76.9992 92.3664 77.5571 93.2436 78.2716 93.9844C78.9861 94.7252 79.8425 95.3144 80.7898 95.7169C81.7371 96.1193 82.7558 96.3267 83.785 96.3267C84.8142 96.3267 85.8329 96.1193 86.7802 95.7169C87.7274 95.3144 88.5839 94.7252 89.2984 93.9844C90.0129 93.2436 90.5708 92.3664 90.9387 91.4052C91.3067 90.444 91.4772 89.4185 91.44 88.39V85.48C90.7565 85.5994 90.0639 85.6597 89.37 85.66C89.223 85.66 89.0775 85.6309 88.9419 85.5742C88.8063 85.5176 88.6833 85.4346 88.58 85.33C88.4285 85.1685 88.3273 84.9664 88.2887 84.7484C88.2502 84.5304 88.276 84.3058 88.3629 84.1022C88.4499 83.8986 88.5943 83.7247 88.7784 83.6017C88.9626 83.4788 89.1786 83.4122 89.4 83.41C90.8227 83.4537 92.2397 83.2111 93.5669 82.6968C94.8941 82.1825 96.1046 81.4069 97.1264 80.4159C98.1482 79.425 98.9606 78.2389 99.5153 76.9281C100.07 75.6173 100.356 74.2084 100.356 72.785C100.356 71.3616 100.07 69.9527 99.5153 68.6419C98.9606 67.3311 98.1482 66.145 97.1264 65.1541C96.1046 64.1631 94.8941 63.3875 93.5669 62.8732C92.2397 62.3589 90.8227 62.1163 89.4 62.16C89.1199 62.1336 88.8598 62.0036 88.6704 61.7956C88.4811 61.5875 88.3762 61.3163 88.3762 61.035C88.3762 60.7537 88.4811 60.4825 88.6704 60.2744C88.8598 60.0664 89.1199 59.9364 89.4 59.91H89.38ZM70.1 39C70.0735 39.2801 69.9436 39.5402 69.7355 39.7295C69.5275 39.9189 69.2563 40.0238 68.975 40.0238C68.6937 40.0238 68.4225 39.9189 68.2144 39.7295C68.0064 39.5402 67.8764 39.2801 67.85 39V35.7C67.8764 35.4199 68.0064 35.1598 68.2144 34.9705C68.4225 34.7811 68.6937 34.6762 68.975 34.6762C69.2563 34.6762 69.5275 34.7811 69.7355 34.9705C69.9436 35.1598 70.0735 35.4199 70.1 35.7V39ZM70.1 84.33C70.0735 84.6101 69.9436 84.8702 69.7355 85.0595C69.5275 85.2489 69.2563 85.3538 68.975 85.3538C68.6937 85.3538 68.4225 85.2489 68.2144 85.0595C68.0064 84.8702 67.8764 84.6101 67.85 84.33V81C67.8764 80.7199 68.0064 80.4598 68.2144 80.2705C68.4225 80.0811 68.6937 79.9762 68.975 79.9762C69.2563 79.9762 69.5275 80.0811 69.7355 80.2705C69.9436 80.4598 70.0735 80.7199 70.1 81V84.33ZM84.3 70.1H81C80.7029 70.1 80.4181 69.982 80.208 69.772C79.998 69.5619 79.88 69.277 79.88 68.98C79.88 68.683 79.998 68.3981 80.208 68.188C80.4181 67.978 80.7029 67.86 81 67.86H84.3C84.597 67.86 84.8819 67.978 85.0919 68.188C85.302 68.3981 85.42 68.683 85.42 68.98C85.42 69.277 85.302 69.5619 85.0919 69.772C84.8819 69.982 84.597 70.1 84.3 70.1V70.1ZM84.3 52.15H81C80.7029 52.15 80.4181 52.032 80.208 51.822C79.998 51.6119 79.88 51.327 79.88 51.03C79.88 50.733 79.998 50.4481 80.208 50.238C80.4181 50.028 80.7029 49.91 81 49.91H84.3C84.597 49.91 84.8819 50.028 85.0919 50.238C85.302 50.4481 85.42 50.733 85.42 51.03C85.42 51.327 85.302 51.6119 85.0919 51.822C84.8819 52.032 84.597 52.15 84.3 52.15V52.15Z" fill="#FF9750"/>
<path id="Vector_3" d="M85.92 52.15V49.91H78.42V44.22C78.4173 43.5216 78.138 42.8526 77.6432 42.3597C77.1484 41.8668 76.4784 41.59 75.78 41.59H70.1V34.59H67.85V41.59H52.15V34.59H49.91V41.59H44.22C43.5233 41.5926 42.8559 41.8706 42.3632 42.3632C41.8706 42.8559 41.5926 43.5233 41.59 44.22V49.91H33.86V52.15H41.59V67.86H33.86V70.1H41.59V75.79C41.59 76.4875 41.8671 77.1565 42.3603 77.6497C42.8535 78.1429 43.5225 78.42 44.22 78.42H49.91V85.82H52.15V78.42H67.85V85.82H70.1V78.42H75.78C76.4784 78.42 77.1484 78.1432 77.6432 77.6503C78.138 77.1574 78.4173 76.4884 78.42 75.79V70.1H85.92V67.86H78.42V52.15H85.92ZM73.07 72C73.06 72.2806 72.9441 72.547 72.7456 72.7456C72.547 72.9441 72.2806 73.0601 72 73.07H48C47.7194 73.0601 47.4529 72.9441 47.2544 72.7456C47.0558 72.547 46.9399 72.2806 46.93 72V48C46.9424 47.7211 47.0594 47.4572 47.2577 47.2607C47.456 47.0643 47.721 46.9498 48 46.94H72C72.2917 46.94 72.5715 47.0559 72.7778 47.2622C72.9841 47.4685 73.1 47.7483 73.1 48.04L73.07 72Z" fill="#B70F5B"/>
<g id="processor">
<path id="Vector_4" d="M58.63 53.37H52.82V59.18H58.63V53.37Z" fill="#B70F5B"/>
<path id="Vector_5" d="M66.96 53.37H61.15V59.18H66.96V53.37Z" fill="#B70F5B"/>
<path id="Vector_6" d="M58.63 61.22H52.82V67.03H58.63V61.22Z" fill="#B70F5B"/>
<path id="Vector_7" d="M66.96 61.22H61.15V67.03H66.96V61.22Z" fill="#B70F5B"/>
</g>
</g>
<defs>
<linearGradient id="paint0_linear" x1="0" y1="60" x2="120" y2="60" gradientUnits="userSpaceOnUse">
<stop stop-color="#D23274"/>
<stop offset="1" stop-color="#F24A37"/>
</linearGradient>
</defs>
</svg>
