
<svg width="120" height="120" viewBox="0 0 120 120" fill="none" xmlns="http://www.w3.org/2000/svg">
	<style >
	.rotate
	{
		animation: rotater 3s linear infinite;
		transform-origin: 53.5% 56%;
	}
	@keyframes rotater
	   {
	      0%    { transform : rotate(0deg); }
	      100%   {transform : rotate(360deg);} 
	   }
	   .personup
		{
			animation: personupr 4s ease infinite;
		}
	   @keyframes personupr
	   {
	      0%    { transform : translateY(0vh); }
	      50%   {transform : translateY(-3vh); }
	      100%  {transform : translateY(0vh); }    
	   }

	   .rotatearrowr
	   {
	   		animation: rotatearrowr 4s ease-in-out infinite;
	   		transform-origin: center center; 
	   }

	    @keyframes rotatearrowr
	   {
	      0%    { transform : rotate(0deg); }
	      50%   {transform : rotate(40deg); }
	      100%  {transform : rotate(0deg); }    
	   }

	   
	</style>
<g id="Layer 1">
<path id="Vector" d="M115 0H5C2.23858 0 0 2.23858 0 5V115C0 117.761 2.23858 120 5 120H115C117.761 120 120 117.761 120 115V5C120 2.23858 117.761 0 115 0Z" fill="url(#paint0_linear)"/>
<g id="gear" class="rotate">
<path id="Vector_2" d="M94.6 61.18H90.2C89.5297 58.7786 88.5195 56.4854 87.2 54.37L90.63 51C91.2462 50.375 91.5916 49.5327 91.5916 48.655C91.5916 47.7773 91.2462 46.935 90.63 46.31L85.83 41.51C85.2025 40.8871 84.3542 40.5376 83.47 40.5376C82.5858 40.5376 81.7375 40.8871 81.11 41.51L77.5 45.1C75.4821 43.958 73.3239 43.084 71.08 42.5V37.07C71.08 36.1895 70.7302 35.345 70.1076 34.7224C69.485 34.0998 68.6405 33.75 67.76 33.75H61C60.1212 33.7526 59.2793 34.1036 58.6589 34.7259C58.0384 35.3483 57.69 36.1912 57.69 37.07V42.57C55.5158 43.1267 53.422 43.9602 51.46 45.05L47.46 41.05C46.835 40.4338 45.9927 40.0884 45.115 40.0884C44.2373 40.0884 43.395 40.4338 42.77 41.05L38 45.86C37.3808 46.4854 37.0334 47.3299 37.0334 48.21C37.0334 49.0901 37.3808 49.9346 38 50.56L41.7 54.25C40.4496 56.223 39.4708 58.3555 38.79 60.59H33.57C33.131 60.5887 32.6961 60.6742 32.2903 60.8416C31.8844 61.0089 31.5157 61.2549 31.2053 61.5653C30.8949 61.8757 30.6489 62.2445 30.4816 62.6503C30.3142 63.0561 30.2287 63.491 30.23 63.93V70.72C30.2431 71.5962 30.6012 72.4319 31.2264 73.0459C31.8516 73.6599 32.6937 74.0027 33.57 74H38.1C38.601 76.481 39.46 78.8761 40.65 81.11L37.54 84.2C37.1741 84.5721 36.8997 85.0242 36.7383 85.5205C36.5769 86.0168 36.533 86.5438 36.61 87.06C36.7121 87.7609 37.0384 88.4099 37.54 88.91L42.34 93.71C42.9688 94.3305 43.8166 94.6783 44.7 94.6783C45.5834 94.6783 46.4312 94.3305 47.06 93.71L49.74 91C51.9997 92.4716 54.4718 93.5879 57.07 94.31V98.08C57.0726 98.965 57.4254 99.813 58.0512 100.439C58.677 101.065 59.525 101.417 60.41 101.42H67.2C68.0814 101.415 68.9248 101.06 69.5453 100.434C70.1657 99.808 70.5127 98.9614 70.51 98.08V94.58C73.1931 93.946 75.7631 92.9038 78.13 91.49L80.71 94.09C81.0179 94.4017 81.3846 94.6492 81.7888 94.8181C82.1931 94.9871 82.6269 95.074 83.065 95.074C83.5031 95.074 83.9369 94.9871 84.3412 94.8181C84.7454 94.6492 85.1121 94.4017 85.42 94.09L90.22 89.31C90.8405 88.6812 91.1883 87.8334 91.1883 86.95C91.1883 86.0666 90.8405 85.2188 90.22 84.59L87.56 82C88.8922 79.7023 89.8731 77.2181 90.47 74.63H94.6C95.0373 74.6313 95.4706 74.5465 95.8751 74.3803C96.2796 74.2142 96.6474 73.97 96.9576 73.6617C97.2677 73.3535 97.5141 72.9871 97.6827 72.5836C97.8512 72.1801 97.9387 71.7473 97.94 71.31V64.49C97.9347 63.6086 97.5802 62.7652 96.9541 62.1447C96.328 61.5243 95.4814 61.1773 94.6 61.18Z" fill="#B70F5B"/>
<path id="Vector_3" d="M100.59 59.92H95.33C94.5234 57.0477 93.3148 54.3039 91.74 51.77L95.84 47.69C96.5759 46.9418 96.9883 45.9344 96.9883 44.885C96.9883 43.8356 96.5759 42.8282 95.84 42.08L90.09 36.33C89.341 35.588 88.3293 35.1718 87.275 35.1718C86.2207 35.1718 85.209 35.588 84.46 36.33L80.14 40.68C77.7227 39.316 75.1374 38.2739 72.45 37.58V31.07C72.45 30.0091 72.0286 28.9917 71.2784 28.2416C70.5283 27.4914 69.5108 27.07 68.45 27.07H60.36C59.2991 27.07 58.2817 27.4914 57.5316 28.2416C56.7814 28.9917 56.36 30.0091 56.36 31.07V37.66C53.7602 38.3326 51.2591 39.3411 48.92 40.66L44.14 35.89C43.3918 35.1541 42.3844 34.7417 41.335 34.7417C40.2855 34.7417 39.2781 35.1541 38.53 35.89L32.81 41.6C32.0741 42.3482 31.6616 43.3556 31.6616 44.405C31.6616 45.4544 32.0741 46.4618 32.81 47.21L37.24 51.63C35.7481 53.9907 34.5778 56.5398 33.76 59.21H27.58C26.5191 59.21 25.5017 59.6314 24.7516 60.3816C24.0014 61.1317 23.58 62.1491 23.58 63.21V71.33C23.58 72.3909 24.0014 73.4083 24.7516 74.1584C25.5017 74.9086 26.5191 75.33 27.58 75.33H33C33.584 78.2934 34.5945 81.1565 36 83.83L32.28 87.53C31.8394 87.975 31.5094 88.5171 31.3167 89.1129C31.1239 89.7086 31.0736 90.3413 31.17 90.96C31.2883 91.7983 31.6782 92.5746 32.28 93.17L38.02 98.92C38.7694 99.665 39.7832 100.083 40.84 100.083C41.8967 100.083 42.9105 99.665 43.66 98.92L46.87 95.68C49.5702 97.4565 52.5283 98.8057 55.64 99.68V104.19C55.64 105.251 56.0614 106.268 56.8116 107.018C57.5617 107.769 58.5791 108.19 59.64 108.19H67.76C68.8209 108.19 69.8383 107.769 70.5884 107.018C71.3386 106.268 71.76 105.251 71.76 104.19V99.93C74.972 99.1724 78.048 97.9244 80.88 96.23L84 99.33C84.7494 100.075 85.7632 100.493 86.82 100.493C87.8767 100.493 88.8905 100.075 89.64 99.33L95.39 93.62C96.135 92.8706 96.5532 91.8568 96.5532 90.8C96.5532 89.7433 96.135 88.7295 95.39 87.98L92.2 84.79C93.7822 82.0486 94.9451 79.0858 95.65 76H100.59C101.651 76 102.668 75.5786 103.418 74.8284C104.169 74.0783 104.59 73.0609 104.59 72V63.88C104.579 62.8261 104.153 61.8189 103.404 61.0774C102.655 60.3359 101.644 59.92 100.59 59.92Z" fill="#FF9750"/>
<path id="Vector_4" d="M93.69 61.37H89.42C88.7622 59.0404 87.7792 56.8151 86.5 54.76L89.83 51.46C90.4303 50.855 90.7671 50.0373 90.7671 49.185C90.7671 48.3327 90.4303 47.515 89.83 46.91L85.17 42.25C84.8657 41.9311 84.4993 41.6779 84.0934 41.5059C83.6876 41.3339 83.2508 41.2468 82.81 41.25C81.9724 41.2877 81.1812 41.6457 80.6 42.25L77.1 45.77C75.1405 44.6604 73.0421 43.8164 70.86 43.26V38C70.86 37.1477 70.5221 36.3302 69.9204 35.7266C69.3187 35.1231 68.5023 34.7826 67.65 34.78H61.06C60.2068 34.7826 59.3893 35.1227 58.786 35.726C58.1827 36.3293 57.8426 37.1468 57.84 38V43.33C55.7465 43.8729 53.7304 44.6794 51.84 45.73L47.97 41.86C47.3625 41.2645 46.5457 40.931 45.695 40.931C44.8443 40.931 44.0275 41.2645 43.42 41.86L38.76 46.52C38.1639 47.1292 37.8301 47.9477 37.8301 48.8C37.8301 49.6523 38.1639 50.4708 38.76 51.08L42.35 54.66C41.1449 56.5755 40.1936 58.6395 39.52 60.8H34.52C33.6624 60.792 32.8366 61.1243 32.2236 61.7242C31.6107 62.324 31.2606 63.1424 31.25 64V70.58C31.2526 71.4349 31.5941 72.2539 32.1996 72.8575C32.805 73.4611 33.6251 73.8 34.48 73.8H38.88C39.3684 76.2015 40.2038 78.5192 41.36 80.68L38.36 83.68C38.0027 84.0405 37.7351 84.4799 37.5788 84.9628C37.4225 85.4457 37.3818 85.9585 37.46 86.46C37.5586 87.1383 37.8744 87.7663 38.36 88.25L43 93C43.6084 93.6015 44.4294 93.9389 45.285 93.9389C46.1406 93.9389 46.9616 93.6015 47.57 93L50.17 90.37C52.3613 91.7983 54.7594 92.881 57.28 93.58V97.2C57.2826 98.0585 57.6248 98.8811 58.2319 99.4881C58.8389 100.095 59.6615 100.437 60.52 100.44H67.11C67.5329 100.437 67.9511 100.351 68.3407 100.187C68.7304 100.023 69.0839 99.7836 69.381 99.4828C69.6782 99.1819 69.9132 98.8254 70.0726 98.4338C70.232 98.0421 70.3126 97.6229 70.31 97.2V93.81C72.916 93.1956 75.4119 92.1838 77.71 90.81L80.2 93.33C80.4993 93.6314 80.8553 93.8707 81.2475 94.034C81.6396 94.1972 82.0602 94.2813 82.485 94.2813C82.9098 94.2813 83.3304 94.1972 83.7225 94.034C84.1147 93.8707 84.4707 93.6314 84.77 93.33L89.44 88.69C90.0368 88.0791 90.3708 87.259 90.3708 86.405C90.3708 85.551 90.0368 84.7309 89.44 84.12L86.85 81.54C88.1478 79.3127 89.1019 76.9022 89.68 74.39H93.68C94.534 74.39 95.353 74.0508 95.9569 73.4469C96.5608 72.843 96.9 72.024 96.9 71.17V64.59C96.9013 64.1676 96.8193 63.7491 96.6585 63.3585C96.4978 62.9679 96.2616 62.6129 95.9634 62.3137C95.6651 62.0146 95.3108 61.7772 94.9207 61.6153C94.5306 61.4534 94.1124 61.37 93.69 61.37ZM64.08 87C60.5714 87 57.1415 85.9596 54.2242 84.0103C51.3069 82.061 49.0331 79.2904 47.6904 76.0488C46.3477 72.8072 45.9964 69.2403 46.6809 65.7991C47.3654 62.3579 49.0549 59.1969 51.5359 56.7159C54.0169 54.2349 57.1779 52.5454 60.6191 51.8609C64.0603 51.1764 67.6272 51.5277 70.8688 52.8704C74.1104 54.2131 76.881 56.4869 78.8303 59.4042C80.7796 62.3215 81.82 65.7514 81.82 69.26C81.8213 71.59 81.3634 73.8975 80.4723 76.0504C79.5812 78.2033 78.2746 80.1594 76.627 81.807C74.9794 83.4546 73.0233 84.7612 70.8704 85.6523C68.7175 86.5434 66.41 87.0013 64.08 87Z" fill="#B70F5B"/>
</g>
<path id="Vector_5" d="M83.14 71.37C82.4612 74.7618 80.8746 77.9058 78.5492 80.4667C76.2239 83.0276 73.2471 84.9093 69.9362 85.9111C66.6254 86.9129 63.1047 86.9974 59.7497 86.1553C56.3947 85.3133 53.3311 83.5764 50.8857 81.13C48.4403 78.6835 46.7048 75.6191 45.8643 72.2637C45.0237 68.9083 45.1097 65.3877 46.113 62.0773C47.1163 58.7669 48.9993 55.7909 51.5612 53.4667C54.1231 51.1425 57.2678 49.5573 60.66 48.88C63.7428 48.277 66.9266 48.4412 69.9311 49.3582C72.9355 50.2752 75.6684 51.9168 77.8891 54.1385C80.1098 56.3602 81.7502 59.0939 82.6659 62.0987C83.5815 65.1035 83.7444 68.2874 83.14 71.37Z" fill="#FF9750"/>
<g id="arrow" class="rotatearrowr">
<path id="Vector_6" d="M15.18 65.92H12.18C12.2145 53.6976 16.4306 41.8551 24.1276 32.3607C31.8247 22.8663 42.539 16.2918 54.49 13.73L55.11 16.66C43.8313 19.0798 33.72 25.2858 26.4562 34.2469C19.1924 43.208 15.2133 54.3847 15.18 65.92V65.92Z" fill="white"/>
<path id="Vector_7" d="M53.58 23.11L65.51 14.09L51.73 8.25999L53.58 23.11Z" fill="white"/>
</g>
<g id="person" class="personup">
<path id="Vector_8" d="M64.65 71.3C67.66 71.3 70.1 68.8599 70.1 65.85C70.1 62.84 67.66 60.4 64.65 60.4C61.6401 60.4 59.2 62.84 59.2 65.85C59.2 68.8599 61.6401 71.3 64.65 71.3Z" fill="white"/>
<path id="Vector_9" d="M75.15 82.7C74.5007 83.3015 73.8015 83.8468 73.06 84.33C71.06 85.68 68.5 86.09 65.95 86.42H65.84C65.62 86.42 65.4 86.44 65.18 86.48C64.72 86.48 64.24 86.54 63.77 86.54H63.61C63.34 86.54 63.06 86.54 62.79 86.54C60.5804 86.4069 58.4205 85.8286 56.44 84.84C55.6741 84.4625 54.9415 84.0209 54.25 83.52V83.38C54.2579 80.626 55.3568 77.9874 57.3061 76.0419C59.2553 74.0964 61.896 73.0026 64.65 73C70 73 74.58 77.49 75.15 82.7Z" fill="white"/>
</g>
</g>
<defs>
<linearGradient id="paint0_linear" x1="0" y1="60" x2="120" y2="60" gradientUnits="userSpaceOnUse">
<stop stop-color="#D23274"/>
<stop offset="1" stop-color="#F24A37"/>
</linearGradient>
</defs>
</svg>
