
<svg width="470" height="470" viewBox="0 0 470 470" fill="none" xmlns="http://www.w3.org/2000/svg">
			<style>

	.float {
      	animation: floatAnim2 4s ease-in-out infinite;
      }
		@keyframes floatAnim2 {
	      0% { transform: translate(0vh,0vh); }
	      50% { transform: translate(0vh,1.9vh); }
	      100% { transform: translate(0vh,0vh); }
      }

      .leaf
      {
      	animation: leafer 3.4s ease-in-out infinite;
      	transform-origin: 70% 70%;
      }

      		@keyframes leafer {
	      0% { transform: rotate(-3deg); }
	      50% { transform: rotate(7deg); }
	      100% { transform: rotate(-3deg); }
      }


      .leaf-inv
      {
      	animation: leafer_inv 4.2s ease-in-out infinite;
      	transform-origin: 90% 70%;
      }

      		@keyframes leafer_inv {
	      0% { transform: rotate(0deg); }
	      50% { transform: rotate(-4deg); }
	      100% { transform: rotate(0deg); }
      }
	</style>
<g id="8_Art">
<g id="Art BG">
<path id="Vector" d="M460 235C460.003 244.32 459.432 253.631 458.29 262.88C457.71 267.493 457 272.057 456.16 276.57C456.03 277.24 455.92 277.91 455.77 278.57C455.103 281.903 454.38 285.22 453.6 288.52C449.862 303.785 444.533 318.617 437.7 332.77C433.151 342.201 427.945 351.3 422.12 360C421.61 360.77 421.12 361.54 420.55 362.31C419.98 363.08 419.42 363.95 418.82 364.77C415.14 369.99 411.243 375.037 407.13 379.91C407.106 379.948 407.075 379.982 407.04 380.01C407.03 380.035 407.012 380.056 406.99 380.07C406.18 381.07 405.35 382.01 404.49 382.98L404.25 383.26C403.39 384.26 402.51 385.26 401.61 386.26C399.34 388.78 397 391.26 394.61 393.62C392.22 395.98 390.06 398.12 387.71 400.28C385.71 402.09 383.79 403.86 381.77 405.59C381.722 405.621 381.679 405.658 381.64 405.7C380.84 406.39 380.03 407.07 379.22 407.75C375.887 410.55 372.467 413.243 368.96 415.83L368.72 415.99C368.29 416.31 367.85 416.64 367.41 416.99C365.51 418.4 363.57 419.76 361.62 421.07C360.45 421.89 359.27 422.68 358.09 423.45C356.71 424.357 355.317 425.247 353.91 426.12C352.97 426.72 352.01 427.3 351.06 427.88L349.93 428.56C348.54 429.38 347.16 430.19 345.76 430.97C344.76 431.55 343.76 432.12 342.71 432.67C333.095 437.945 323.1 442.497 312.81 446.29C311.16 446.89 309.52 447.46 307.87 448.03C299.19 450.996 290.337 453.427 281.36 455.31C279.36 455.73 277.36 456.13 275.29 456.49C274.1 456.71 272.9 456.91 271.7 457.11C270.5 457.31 269.28 457.5 268.06 457.67C266.12 457.96 264.16 458.23 262.2 458.45L258.88 458.83C250.946 459.645 242.975 460.035 235 460C230.273 460 225.58 459.853 220.92 459.56C219.92 459.51 218.85 459.44 217.82 459.36L217.03 459.3C215.19 459.147 213.357 458.977 211.53 458.79H210.97L208.27 458.49C202 457.75 195.83 456.75 189.72 455.49L188.72 455.28L187.55 455.04L186.71 454.85L184.32 454.32C168.997 450.789 154.088 445.654 139.84 439L137.94 438.1C134 436.213 130.127 434.213 126.32 432.1C125.6 431.7 124.9 431.29 124.18 430.9C121.44 429.34 118.733 427.723 116.06 426.05C111.96 423.503 107.96 420.837 104.06 418.05C99.0266 414.43 94.1533 410.617 89.44 406.61C82.849 401.022 76.5885 395.055 70.69 388.74L68.92 386.84C66.07 383.72 63.31 380.51 60.64 377.24C59.05 375.24 57.5 373.33 55.97 371.34C54.45 369.34 52.9433 367.287 51.45 365.18C47.8166 360.04 44.4 354.773 41.2 349.38C40.4666 348.16 39.7566 346.93 39.07 345.69C37.95 343.69 36.87 341.75 35.8 339.74C35.49 339.15 35.19 338.54 34.88 337.94C33.31 334.89 31.8 331.81 30.37 328.67C28.94 325.53 27.42 322.06 26.07 318.67C24.93 315.86 23.87 313 22.84 310.13C10.7789 275.942 7.14007 239.349 12.232 203.455C17.3239 167.562 30.9963 133.425 52.09 103.94C56.29 98.08 60.7533 92.4467 65.48 87.04C67.3 85 69.14 82.93 71 80.92C74.3333 77.36 77.8 73.9133 81.4 70.58C83.4 68.65 85.56 66.75 87.7 64.89C93.12 60.2233 98.76 55.7967 104.62 51.61C114.133 44.8336 124.164 38.8151 134.62 33.61C139.08 31.3767 143.627 29.2967 148.26 27.37C148.91 27.09 149.58 26.83 150.26 26.56C150.67 26.39 151.08 26.22 151.5 26.07C153.29 25.35 155.07 24.66 156.89 23.98C158.53 23.38 160.2 22.78 161.89 22.22C162.53 21.98 163.19 21.77 163.89 21.56C165.643 20.96 167.413 20.3933 169.2 19.86L169.82 19.67L171.95 19.02C173.95 18.44 175.95 17.89 178.03 17.35L179.27 17.03C180.96 16.6 182.67 16.18 184.37 15.79C186.94 15.2 189.52 14.65 192.13 14.15C195.25 13.54 198.39 13.01 201.56 12.54C212.629 10.8736 223.806 10.0246 235 10C277.328 9.98839 318.801 21.917 354.655 44.4157C390.509 66.9143 419.289 99.0704 437.69 137.19C438.69 139.24 439.64 141.31 440.57 143.41C441.64 145.81 442.69 148.24 443.67 150.69C443.79 151.01 443.93 151.32 444.05 151.64C444.64 153.05 445.18 154.48 445.71 155.93C445.746 155.99 445.776 156.054 445.8 156.12V156.12C446.567 158.18 447.3 160.257 448 162.35C449.233 165.917 450.37 169.527 451.41 173.18C451.41 173.18 451.41 173.24 451.41 173.27C452.23 176.12 452.98 178.99 453.68 181.88C456.756 194.625 458.71 207.614 459.52 220.7C459.84 225.447 460 230.213 460 235Z" fill="url(#paint0_linear)"/>
<path id="Vector_2" d="M169.5 400.41C169.5 400.41 125.89 355.41 36.59 340.88C36.59 340.88 64.28 403.14 124.85 426H208.62L169.5 400.41Z" fill="url(#paint1_linear)"/>
<path id="Vector_3" d="M167.77 427.87C167.533 427.873 167.303 427.791 167.12 427.64C131.94 399.06 58.28 357.43 57.54 357C57.4183 356.937 57.311 356.849 57.2247 356.742C57.1384 356.635 57.075 356.512 57.0384 356.38C57.0018 356.248 56.9928 356.109 57.012 355.973C57.0312 355.837 57.0782 355.707 57.15 355.59C57.2125 355.467 57.2997 355.359 57.406 355.272C57.5123 355.185 57.6354 355.12 57.7678 355.083C57.9001 355.045 58.0388 355.035 58.1751 355.054C58.3114 355.072 58.4424 355.119 58.56 355.19C59.3 355.61 133.12 397.33 168.43 426.02C168.54 426.103 168.632 426.207 168.7 426.327C168.768 426.447 168.81 426.58 168.824 426.717C168.838 426.854 168.824 426.993 168.782 427.124C168.74 427.255 168.671 427.377 168.58 427.48C168.482 427.6 168.358 427.698 168.218 427.765C168.078 427.833 167.925 427.868 167.77 427.87V427.87Z" fill="#FF9750"/>
<path id="Vector_4" d="M300.74 437.41C300.74 437.41 362.74 304.73 451.57 266.41C451.57 266.41 433.26 384.28 332.23 438.34L300.74 437.41Z" fill="url(#paint2_linear)"/>
<path id="Vector_5" d="M322.32 436.53C322.5 436.516 322.675 436.461 322.831 436.369C322.987 436.277 323.12 436.151 323.22 436C323.85 435 386.9 339.39 430.22 297.75C430.331 297.644 430.42 297.516 430.482 297.376C430.544 297.235 430.577 297.083 430.58 296.93C430.584 296.776 430.556 296.623 430.501 296.48C430.445 296.337 430.361 296.206 430.255 296.095C430.149 295.984 430.021 295.895 429.881 295.833C429.74 295.771 429.588 295.738 429.435 295.735C429.281 295.731 429.128 295.759 428.985 295.814C428.842 295.87 428.711 295.954 428.6 296.06C385.04 337.88 321.84 433.75 321.21 434.71C321.124 434.838 321.064 434.983 321.034 435.134C321.004 435.286 321.004 435.442 321.035 435.594C321.066 435.745 321.126 435.889 321.213 436.017C321.299 436.146 321.411 436.255 321.54 436.34C321.773 436.485 322.046 436.551 322.32 436.53Z" fill="#FF9750"/>
<g id="Leavesright" class="leaf">
<path id="Vector_6" d="M394.26 241.48C394.26 241.48 383.13 361.2 289.18 438.2L258 440.42C258 440.42 294.67 293.88 394.26 241.48Z" fill="url(#paint3_linear)"/>
<path id="Vector_7" d="M276 440.33C276.211 440.32 276.415 440.254 276.591 440.138C276.767 440.022 276.908 439.86 277 439.67C324.28 342.84 373.4 273.3 373.89 272.61C374.058 272.356 374.121 272.047 374.065 271.748C374.009 271.449 373.838 271.184 373.59 271.008C373.342 270.833 373.034 270.761 372.734 270.808C372.433 270.855 372.163 271.017 371.98 271.26C371.49 271.95 322.26 341.64 274.9 438.64C274.832 438.778 274.792 438.929 274.782 439.083C274.772 439.237 274.793 439.391 274.843 439.537C274.893 439.683 274.972 439.818 275.074 439.933C275.177 440.049 275.301 440.143 275.44 440.21C275.615 440.293 275.807 440.335 276 440.33V440.33Z" fill="#FF9750"/>
</g>
<g id="LeavesLeft" class="leaf-inv">
<path id="Vector_8" d="M132.81 258.5C132.81 258.5 150.12 363.72 238 426H265.69C265.69 426 224.19 298.65 132.81 258.5Z" fill="url(#paint4_linear)"/>
<path id="Vector_9" d="M249.81 427.06C249.627 427.064 249.446 427.018 249.287 426.926C249.128 426.834 248.998 426.701 248.91 426.54C201 343.81 153.26 285.35 152.78 284.77C152.693 284.665 152.628 284.544 152.588 284.414C152.548 284.283 152.535 284.147 152.548 284.011C152.561 283.875 152.6 283.744 152.664 283.623C152.728 283.503 152.815 283.397 152.92 283.31C153.025 283.223 153.146 283.158 153.276 283.118C153.407 283.078 153.543 283.065 153.679 283.078C153.815 283.091 153.946 283.13 154.067 283.194C154.187 283.258 154.293 283.345 154.38 283.45C154.86 284.04 202.76 342.63 250.7 425.5C250.774 425.617 250.823 425.747 250.844 425.884C250.864 426.02 250.857 426.16 250.821 426.293C250.785 426.427 250.722 426.551 250.636 426.659C250.55 426.767 250.442 426.856 250.32 426.92C250.166 427.012 249.99 427.06 249.81 427.06Z" fill="#FFAA70"/>
<path id="Vector_10" d="M227.77 426C227.77 426 164.66 312.49 83.66 284.11C83.66 284.11 107.2 387.26 199.96 428.79L227.77 426Z" fill="url(#paint5_linear)"/>
<path id="Vector_11" d="M188.531 401.891C188.371 401.896 188.212 401.862 188.068 401.793C187.923 401.723 187.798 401.62 187.701 401.491C187.081 400.671 125.341 319.971 84.3715 285.831C84.2671 285.744 84.1809 285.637 84.1179 285.516C84.0548 285.396 84.0162 285.264 84.0041 285.128C83.992 284.993 84.0068 284.856 84.0475 284.726C84.0882 284.596 84.1541 284.476 84.2415 284.371C84.3288 284.267 84.4358 284.181 84.5565 284.118C84.6771 284.055 84.809 284.016 84.9445 284.004C85.0801 283.992 85.2167 284.007 85.3466 284.047C85.4765 284.088 85.5971 284.154 85.7015 284.241C126.851 318.531 188.701 399.411 189.351 400.241C189.439 400.347 189.503 400.47 189.541 400.602C189.579 400.734 189.589 400.872 189.572 401.008C189.554 401.144 189.508 401.275 189.438 401.392C189.367 401.51 189.273 401.612 189.161 401.691C188.978 401.824 188.757 401.894 188.531 401.891V401.891Z" fill="#DAA581"/>
</g>
<path id="Vector_12" d="M367.41 416.89C365.51 418.3 363.57 419.66 361.62 420.97C360.45 421.79 359.27 422.58 358.09 423.35C356.71 424.257 355.317 425.147 353.91 426.02C352.97 426.62 352.01 427.2 351.06 427.78L349.93 428.46C348.54 429.28 347.16 430.09 345.76 430.87H305.19C305.19 430.87 294.8 352.12 310.72 322.27C310.72 322.27 317.26 321.79 326.33 321.7H326.49C346.22 321.51 377.8 323.27 380.65 336.04C384.17 351.91 369.71 388.76 367.41 416.89Z" fill="#FF6224"/>
<path id="Vector_13" d="M361.62 421C360.45 421.82 359.27 422.61 358.09 423.38C356.71 424.287 355.317 425.177 353.91 426.05C352.97 426.65 352.01 427.23 351.06 427.81L349.93 428.49C348.54 429.31 347.16 430.12 345.76 430.9H299.65C299.65 430.9 289.26 352.15 305.19 322.3C305.19 322.3 314.5 321.61 326.33 321.73H326.49C346.09 321.95 372.49 324.44 375.1 336.07C378.81 352.69 362.72 392.43 361.62 421Z" fill="url(#paint6_linear)"/>
<path id="Vector_14" d="M284 251.36C265.67 237.14 248.46 244.68 242.29 263.93C236.53 281.93 243.91 320.56 271.29 313.82C299.57 306.82 301.93 298.2 301.72 285.61C301.51 278.94 299.81 272.403 296.743 266.476C293.677 260.549 289.323 255.384 284 251.36V251.36Z" fill="#382424"/>
<path id="Vector_15" d="M293.48 308.39L319.67 318.17C319.67 318.17 312.34 371.38 311.67 391.7C311 412.02 321.31 429.64 321.31 429.64H252.81C252.81 429.64 243.38 374.31 245.27 354.83C247.16 335.35 260.14 315.16 260.77 314.68C261.4 314.2 277.11 310.63 277.11 310.63L293.48 308.39Z" fill="#FF6224"/>
<path id="Vector_16" d="M247.4 373.89C247.4 373.89 244.77 398.61 243.68 399.89C242.59 401.17 202.37 420.83 202.37 420.83L260.81 424.83L247.4 373.89Z" fill="#840243"/>
<path id="Vector_17" d="M260.81 314.68C254.32 314.82 252.55 325.43 251.03 333.32C249.51 341.21 260.81 314.68 260.81 314.68Z" fill="#D54A41"/>
<path id="Vector_18" d="M271.91 356.71C275.47 343.93 294.61 308.35 294.61 308.35L319.67 318.17C319.67 318.17 313.93 359.87 312.17 383.53L302.65 429.64H271.91C271.91 429.64 268.35 369.49 271.91 356.71Z" fill="#B70F5B"/>
<path id="Vector_19" d="M307.29 407.19L279.04 400.7L281.34 424.79L307.29 407.19Z" fill="#840243"/>
<path id="Vector_20" d="M293.16 413.9C297.77 407.66 302.28 400.8 297.89 386.46C293.5 372.12 293.07 367 294.61 354C296.15 341 303.13 320.27 316.74 319.65C316.74 319.65 317.19 324.19 317.92 331.44C315.71 348.56 312.14 377.82 311.71 391.71C311.09 412.02 321.35 429.65 321.35 429.65L265.63 430.88C265.63 430.88 288.55 420.14 293.16 413.9Z" fill="#840243"/>
<path id="Vector_21" d="M245.31 354.83C247.2 335.35 260.18 315.16 260.81 314.68C261.2 314.37 267.35 312.9 271.99 311.82C270.62 315.04 256.23 349.33 256.83 363.46C257.46 378.29 256.83 429.64 256.83 429.64H252.83C252.83 429.64 243.42 374.31 245.31 354.83Z" fill="#B70F5B"/>
<path id="Vector_22" d="M153.75 426.74H274.75C274.742 424.688 273.923 422.722 272.471 421.272C271.019 419.822 269.052 419.005 267 419H153.75V426.74Z" fill="#B70F5B"/>
<path id="Vector_23" d="M153.61 426.74H218.24L190.79 366.35C190.398 365.488 189.766 364.757 188.97 364.244C188.174 363.732 187.247 363.46 186.3 363.46H127.84C127.518 363.46 127.201 363.541 126.918 363.695C126.635 363.849 126.395 364.071 126.221 364.342C126.046 364.612 125.941 364.922 125.917 365.243C125.892 365.564 125.948 365.886 126.08 366.18L153.61 426.74Z" fill="#B70F5B"/>
<path id="Vector_24" d="M127.84 363.46H181.2C182.148 363.459 183.077 363.731 183.875 364.243C184.673 364.756 185.306 365.487 185.7 366.35L213.15 426.74H153.61L126.08 366.18C125.948 365.886 125.892 365.564 125.917 365.243C125.941 364.922 126.046 364.612 126.221 364.342C126.395 364.071 126.635 363.849 126.918 363.695C127.201 363.541 127.518 363.46 127.84 363.46Z" fill="#840243"/>
<path id="Vector_25" d="M158.45 397.08C160.71 401.77 164.38 404.68 166.65 403.59C168.92 402.5 168.92 397.81 166.65 393.12C164.38 388.43 160.72 385.52 158.45 386.61C156.18 387.7 156.18 392.39 158.45 397.08Z" fill="#FF9750"/>
<path id="Vector_26" d="M281.92 275.45C281.92 275.45 287.41 303.45 293.48 308.39C299.55 313.33 279.48 337 272.57 330.93C265.66 324.86 272.09 311.57 272.09 311.57C272.09 311.57 275.85 309.26 269.49 294.52C263.13 279.78 280.25 268.8 280.25 268.8L281.92 275.45Z" fill="#FFD0C5"/>
<path id="Vector_27" d="M280.25 268.8L281.92 275.45C281.92 275.45 282.68 279.35 283.92 284.45C281.54 295.52 277.11 302.72 273.14 307.3C273.02 304.75 272.14 300.73 269.45 294.48C263.13 279.78 280.25 268.8 280.25 268.8Z" fill="#F4CAC1"/>
<path id="Vector_28" d="M247.2 286.12C250.89 296.3 259.9 304.46 265.63 302.58C274.98 299.5 281.79 292.19 280.18 276.02C278.29 257.02 263.64 254.81 255.04 257.24C246.44 259.67 243.11 274.86 247.2 286.12Z" fill="#FFD0C5"/>
<path id="Vector_29" d="M294.61 308.35L303.46 311.82L289.51 329.69L293.51 336.81C283.898 344.977 277.303 356.132 274.78 368.49C272.144 381.22 270.84 394.19 270.89 407.19C270.89 407.19 269.82 364.81 271.89 356.71C276 341 294.61 308.35 294.61 308.35Z" fill="#840243"/>
<path id="Vector_30" d="M272 311.82C272 311.82 261 340.16 259.21 348.14C257.42 356.12 257.1 395.14 257.1 395.14C257.1 395.14 252.02 361.14 253.49 351.14C254.96 341.14 257 331.92 257 331.92L263.7 326.97C263.7 326.97 264.97 313.49 265.7 313.31L272 311.82Z" fill="#840243"/>
<path id="Vector_31" d="M278.43 415.75C256.96 409.24 259.56 405.99 251.75 409.67C243.94 413.35 234.15 415.86 238.75 417.05C243.35 418.24 250.25 414.45 250.25 414.45C250.25 414.45 249.17 420.3 253.07 422.04C256.97 423.78 274.31 424.4 283.98 421.7C293.65 419 278.43 415.75 278.43 415.75Z" fill="#FFD0C5"/>
<path id="Vector_32" d="M279 414.74H274.72L276.86 426.88C276.86 426.88 285.28 425.63 284.65 424.79C284.02 423.95 279 414.74 279 414.74Z" fill="#840243"/>
<path id="Vector_33" d="M319.67 318.17C328.05 332.83 330.67 340.83 337.54 368.27C344.41 395.71 347.12 408.2 339.54 411.81C333.3 414.81 287.87 428.42 282.36 426.74C279.84 426.88 275.99 413.9 275.99 413.9L317.34 395.47C317.34 395.47 305.34 366.89 303.34 348.12C301.34 329.35 310.46 318.17 315.07 318.17H319.67Z" fill="#B70F5B"/>
<path id="Vector_34" d="M276.25 277.29C278.25 283.64 277.41 284.94 280.25 285.53C283.09 286.12 285.61 283.35 286.44 279.44C287.27 275.53 285.67 271.89 282.86 271.3C280.05 270.71 275 273.49 276.25 277.29Z" fill="#F4CAC1"/>
<path id="Vector_35" d="M243.33 265.73C254.33 285.21 276.07 282.35 289.33 275.64C300.12 270.18 258.55 249.48 258.55 249.48L243.33 265.73Z" fill="#382424"/>
<path id="Vector_36" d="M279 249.48C283.06 237.23 299.71 240.12 307.25 256.48C314.79 272.84 303.25 283.68 296.25 279.69C289.25 275.7 279 249.48 279 249.48Z" fill="#382424"/>
<path id="Vector_37" d="M353.91 426C352.97 426.6 352.01 427.18 351.06 427.76L349.93 428.44C347.55 429.85 345.14 431.23 342.71 432.55C333.095 437.825 323.1 442.377 312.81 446.17C311.16 446.77 309.52 447.34 307.87 447.91C299.19 450.876 290.337 453.307 281.36 455.19C279.36 455.61 277.36 456.01 275.29 456.37C274.1 456.59 272.9 456.79 271.7 456.99C270.5 457.19 269.28 457.38 268.06 457.55C266.12 457.84 264.16 458.11 262.2 458.33L258.88 458.71C250.949 459.565 242.977 459.995 235 460C230.273 460 225.58 459.853 220.92 459.56C219.92 459.51 218.85 459.44 217.82 459.36L217.03 459.3C215.19 459.147 213.357 458.977 211.53 458.79H210.97L208.27 458.49C202 457.75 195.83 456.75 189.72 455.49L188.72 455.28L187.55 455.04L186.71 454.85L184.32 454.32C168.997 450.789 154.088 445.654 139.84 439L137.94 438.1C134 436.213 130.127 434.213 126.32 432.1C125.6 431.7 124.9 431.29 124.18 430.9C121.44 429.34 118.733 427.723 116.06 426.05L353.91 426Z" fill="#FF6224"/>
</g>
<g id="Ball">
<path id="Vector_38" d="M407.43 459.99C436.464 459.99 460 436.454 460 407.42C460 378.386 436.464 354.85 407.43 354.85C378.396 354.85 354.86 378.386 354.86 407.42C354.86 436.454 378.396 459.99 407.43 459.99Z" fill="url(#paint7_linear)"/>
</g>
<g id="Mail" class="float">
<path id="Vector_39" d="M352.58 87V207.18C352.58 210.363 351.316 213.415 349.065 215.665C346.815 217.916 343.763 219.18 340.58 219.18H140.29C137.107 219.18 134.055 217.916 131.805 215.665C129.554 213.415 128.29 210.363 128.29 207.18V87C128.281 85.0632 128.748 83.1539 129.65 81.44C130.666 79.4969 132.195 77.8693 134.071 76.734C135.946 75.5987 138.097 74.9989 140.29 75H340.56C342.813 74.9927 345.023 75.6238 346.932 76.8202C348.842 78.0165 350.373 79.7292 351.35 81.76C352.164 83.3866 352.585 85.1812 352.58 87V87Z" fill="url(#paint8_linear)"/>
<path id="Vector_40" d="M349.72 81.7601L238.8 157.76L128 81.4601C129.015 79.5102 130.546 77.8766 132.425 76.7374C134.305 75.5982 136.462 74.9972 138.66 75.0001H338.93C341.183 74.9928 343.393 75.6239 345.302 76.8202C347.212 78.0166 348.743 79.7293 349.72 81.7601V81.7601Z" fill="#FF813E"/>
<path id="Vector_41" opacity="0.45" d="M258.09 169.64H145.29C144.141 169.64 143.21 170.571 143.21 171.72V172.92C143.21 174.069 144.141 175 145.29 175H258.09C259.239 175 260.17 174.069 260.17 172.92V171.72C260.17 170.571 259.239 169.64 258.09 169.64Z" fill="#840243"/>
<path id="Vector_42" opacity="0.45" d="M199.61 184.96H145.29C144.141 184.96 143.21 185.891 143.21 187.04V188.24C143.21 189.389 144.141 190.32 145.29 190.32H199.61C200.759 190.32 201.69 189.389 201.69 188.24V187.04C201.69 185.891 200.759 184.96 199.61 184.96Z" fill="#840243"/>
<path id="Vector_43" opacity="0.45" d="M199.61 198.6H145.29C144.141 198.6 143.21 199.531 143.21 200.68V201.88C143.21 203.029 144.141 203.96 145.29 203.96H199.61C200.759 203.96 201.69 203.029 201.69 201.88V200.68C201.69 199.531 200.759 198.6 199.61 198.6Z" fill="#840243"/>
</g>
</g>
<defs>
<linearGradient id="paint0_linear" x1="75.9" y1="394.1" x2="394.1" y2="75.9" gradientUnits="userSpaceOnUse">
<stop stop-color="#D22674"/>
<stop offset="1" stop-color="#F25437"/>
</linearGradient>
<linearGradient id="paint1_linear" x1="36.59" y1="383.44" x2="208.62" y2="383.44" gradientUnits="userSpaceOnUse">
<stop stop-color="#FF9750"/>
<stop offset="1" stop-color="#FF6224"/>
</linearGradient>
<linearGradient id="paint2_linear" x1="66307.5" y1="39480.5" x2="41862.7" y2="41202.7" gradientUnits="userSpaceOnUse">
<stop stop-color="#FF9750"/>
<stop offset="1" stop-color="#FF6224"/>
</linearGradient>
<linearGradient id="paint3_linear" x1="52913.9" y1="44082.7" x2="32544.5" y2="45517.8" gradientUnits="userSpaceOnUse">
<stop stop-color="#FF9750"/>
<stop offset="1" stop-color="#FF6224"/>
</linearGradient>
<linearGradient id="paint4_linear" x1="17780.6" y1="57587" x2="35443" y2="57587" gradientUnits="userSpaceOnUse">
<stop stop-color="#FF9750"/>
<stop offset="1" stop-color="#FF6224"/>
</linearGradient>
<linearGradient id="paint5_linear" x1="12139.9" y1="51855.3" x2="32907.6" y2="51855.3" gradientUnits="userSpaceOnUse">
<stop stop-color="#FF9750"/>
<stop offset="1" stop-color="#FF6224"/>
</linearGradient>
<linearGradient id="paint6_linear" x1="26951.6" y1="35444" x2="26951.6" y2="47365.8" gradientUnits="userSpaceOnUse">
<stop stop-color="#FF9750"/>
<stop offset="1" stop-color="#FF6224"/>
</linearGradient>
<linearGradient id="paint7_linear" x1="313.545" y1="443.383" x2="387.537" y2="369.388" gradientUnits="userSpaceOnUse">
<stop stop-color="#D23274"/>
<stop offset="1" stop-color="#F24A37"/>
</linearGradient>
<linearGradient id="paint8_linear" x1="54054.4" y1="31679.3" x2="54054.4" y2="10888.5" gradientUnits="userSpaceOnUse">
<stop stop-color="#FF9750"/>
<stop offset="1" stop-color="#FF6224"/>
</linearGradient>
</defs>
</svg>
