<svg preserveAspectRatio="none"  xmlns="http://www.w3.org/2000/svg" xmlns:xlink="http://www.w3.org/1999/xlink" viewBox="0 0 320 571"><defs><style>.cls-1{fill:url(#linear-gradient);}.cls-2{fill:#fff;opacity:0.05;}</style><linearGradient id="linear-gradient" y1="285.5" x2="320" y2="285.5" gradientUnits="userSpaceOnUse"><stop offset="0" stop-color="#d23274"/><stop offset="1" stop-color="#f24a37"/></linearGradient></defs><title>m_1_BG</title><g id="Layer_2" data-name="Layer 2"><g id="Layer_1-2" data-name="Layer 1"><path class="cls-1" d="M320,0V562q-63.15,7.17-127.93,8.67-9.24.21-18.52.29-6.63.08-13.27.07-5.46,0-10.9,0c-3.2,0-6.4-.06-9.59-.1l-8.38-.14c-2.74-.06-5.48-.12-8.22-.2l-6.27-.17q-22-.65-43.84-2Q36.28,566.15,0,562V0Z"/><path class="cls-2" d="M320,2.82V468.7A284.09,284.09,0,0,1,0,472V0H315.9Q318,1.4,320,2.82Z"/><path class="cls-2" d="M320,110.72V360.8A205,205,0,0,1,0,366.9V104.62a205,205,0,0,1,320,6.1Z"/></g></g></svg>