<svg width="240" height="129" viewBox="0 0 240 129" fill="none" xmlns="http://www.w3.org/2000/svg">
<g id="m_6_Devops_with_Arrow 1" filter="url(#filter0_dd)">
<g id="Group">
<g id="Group_2">
<g id="Group_3">
<path id="Vector" d="M180.1 6C156.2 6 136.8 22.3 118.6 40.3C101.8 22.7 84.1 6.1 59.9 6.1C32.5 6.1 10.1 30.9 10.1 64.4C10.1 91.9 32.7 105.8 60.1 105.8V105.7C82.2 105.6 100.7 90.5 118.1 73.6C134.8 90.4 154.3 105.8 180.5 105.8L180.4 91.1L190.7 103.2C218.2 103.2 230 83.3 230 64.3C229.9 30.8 207.4 6 180.1 6ZM60.2 82.3C45.5 82.2 33.4 70.6 33.4 56C33.4 41.4 45.3 29.5 59.9 29.5C74.9 29.5 88.2 42.1 102 56.7C87.6 70.6 73.8 82.1 60.2 82.3ZM180.1 82.4C162.6 82.3 148.5 71.2 134.6 57.2C149.6 42.5 164.9 29.4 180.1 29.4C194.8 29.4 206.6 41.3 206.6 55.9C206.6 70.5 194.8 82.4 180.1 82.4Z" fill="url(#paint0_linear)"/>
</g>
</g>
<path id="Vector_2" d="M180.3 14.4C156.4 14.4 137 30.8 118.6 48.8C101.8 31.2 84.1 14.5 59.8 14.5C32.8 14.9 11.1 36.6 10.7 63.6C10.3 91.1 32.3 113.7 59.8 114.1V113.9L59.9 114C82.1 114 100.6 99 118.1 82C134.7 98.8 154.1 114.1 180.2 114.1C207.2 113.7 229 92 229.4 64.9C229.8 37.4 207.8 14.8 180.3 14.4ZM59.8 90.7C45 90.8 33.3 78.9 33.3 64.3C33.3 49.7 45.2 37.8 59.8 37.8C74.8 37.8 88.2 50.5 102 65.1C87.4 79.2 73.6 90.7 59.8 90.7ZM180.1 90.8C162.5 90.8 148.4 79.6 134.5 65.6C149.5 50.9 164.9 37.8 180.1 37.8C194.8 37.8 206.6 49.7 206.6 64.3C206.6 78.9 194.8 90.8 180.1 90.8Z" fill="url(#paint1_linear)"/>
</g>
<g id="Group_4">
<g id="Group_5">
<path id="Vector_3" d="M180.6 105.8C148.3 105.8 126.2 82.4 106.9 61.8C91.4 45.2 76.7 29.5 60 29.5C45.4 29.5 33.5 41.4 33.5 56C33.5 70.6 45.7 82.3 60.3 82.3L60.2 105.8C32.8 105.8 10.2 91.9 10.2 64.4C10.2 30.9 32.6 6.1 60 6.1C86.8 6.1 105.6 26.3 123.9 45.8C141.5 64.6 158.2 82.4 180.4 82.4L180.6 105.8Z" fill="url(#paint2_linear)"/>
<path id="Vector_4" d="M180.2 114.1C147.9 114.1 126 90.7 106.7 70.1C91.2 53.5 76.5 37.8 59.8 37.8C45.2 37.8 33.3 49.7 33.3 64.3C33.3 78.9 45.1 90.8 59.8 90.8V114.1C32.3 113.7 10.3 91.1 10.7 63.6C11.1 36.6 32.8 14.9 59.8 14.5C86.6 14.5 105.4 34.7 123.7 54.2C141.4 73 158 90.8 180.2 90.8L190.7 103.2L180.2 114.1Z" fill="url(#paint3_linear)"/>
<path id="Vector_5" d="M190.7 103.2L180.2 90.8V82.4C194.8 82.4 206.7 70.5 206.7 55.9C206.7 41.3 194.9 29.4 180.2 29.4C162.5 29.4 144.5 47.3 127.2 64.7C107 84.9 86 105.7 59.9 105.7V82.3C76.4 82.3 93.1 65.7 110.8 48.1C131.4 27.4 152.9 6 180.2 6C207.5 6 230 30.8 230 64.3C230 83.3 218.2 103.2 190.7 103.2Z" fill="url(#paint4_linear)"/>
<path id="Vector_6" d="M180.2 114.1L190.7 103.2L180.2 90.8C194.8 90.8 206.7 78.9 206.7 64.3C206.7 49.7 194.9 37.8 180.2 37.8C162.5 37.8 144.5 55.7 127.2 73C107 93.2 86 114 59.9 114L49.9 102.9L59.9 90.7C76.4 90.7 93.1 74.1 110.8 56.5C131.5 35.8 153 14.4 180.3 14.4C207.8 14.8 229.8 37.4 229.4 64.9C229 92 207.2 113.7 180.2 114.1Z" fill="url(#paint5_linear)"/>
</g>
</g>
</g>
<defs>
<filter id="filter0_dd" x="-2" y="0" width="250" height="139" filterUnits="userSpaceOnUse" color-interpolation-filters="sRGB">
<feFlood flood-opacity="0" result="BackgroundImageFix"/>
<feColorMatrix in="SourceAlpha" type="matrix" values="0 0 0 0 0 0 0 0 0 0 0 0 0 0 0 0 0 0 127 0"/>
<feOffset dx="4" dy="6"/>
<feGaussianBlur stdDeviation="2"/>
<feColorMatrix type="matrix" values="0 0 0 0 0 0 0 0 0 0 0 0 0 0 0 0 0 0 0.15 0"/>
<feBlend mode="normal" in2="BackgroundImageFix" result="effect1_dropShadow"/>
<feColorMatrix in="SourceAlpha" type="matrix" values="0 0 0 0 0 0 0 0 0 0 0 0 0 0 0 0 0 0 127 0"/>
<feOffset dx="2" dy="4"/>
<feGaussianBlur stdDeviation="2"/>
<feColorMatrix type="matrix" values="0 0 0 0 0 0 0 0 0 0 0 0 0 0 0 0 0 0 0.25 0"/>
<feBlend mode="normal" in2="effect1_dropShadow" result="effect2_dropShadow"/>
<feBlend mode="normal" in="SourceGraphic" in2="effect2_dropShadow" result="shape"/>
</filter>
<linearGradient id="paint0_linear" x1="120.1" y1="105.8" x2="120.1" y2="6" gradientUnits="userSpaceOnUse">
<stop stop-color="#D23274"/>
<stop offset="1" stop-color="#F24A37"/>
</linearGradient>
<linearGradient id="paint1_linear" x1="10.6446" y1="64.25" x2="229.355" y2="64.25" gradientUnits="userSpaceOnUse">
<stop stop-color="#D23274"/>
<stop offset="1" stop-color="#F24A37"/>
</linearGradient>
<linearGradient id="paint2_linear" x1="95.4" y1="105.8" x2="95.4" y2="6.1" gradientUnits="userSpaceOnUse">
<stop stop-color="#D23274"/>
<stop offset="1" stop-color="#F24A37"/>
</linearGradient>
<linearGradient id="paint3_linear" x1="10.04" y1="64.3" x2="190.74" y2="64.3" gradientUnits="userSpaceOnUse">
<stop stop-color="#D23274"/>
<stop offset="1" stop-color="#F24A37"/>
</linearGradient>
<linearGradient id="paint4_linear" x1="144.95" y1="105.7" x2="144.95" y2="6" gradientUnits="userSpaceOnUse">
<stop stop-color="#D23274"/>
<stop offset="1" stop-color="#F24A37"/>
</linearGradient>
<linearGradient id="paint5_linear" x1="49.9" y1="64.25" x2="230.06" y2="64.25" gradientUnits="userSpaceOnUse">
<stop stop-color="#D23274"/>
<stop offset="1" stop-color="#F24A37"/>
</linearGradient>
</defs>
</svg>
