

<svg width="472" height="357" viewBox="0 0 472 357" fill="none" xmlns="http://www.w3.org/2000/svg">

  <style>
             .orbitt
   {  
      stroke-dasharray: 600;
      stroke-dashoffset: 600;
      stroke:white;
      fill: none;
      transform-origin: center;
      transform-box: fill;

      animation: orbittr 2s ease-in-out forwards infinite;
      
   }

   @keyframes orbittr{
      0% {  stroke-dashoffset: 600; opacity: 0.2; transform: scale(1); }                
      50% { stroke-dashoffset: 0; opacity: 01; transform: scale(1.15);}
      100% { stroke-dashoffset: 0; opacity: 0.1;  transform: scale(1);}




   }


   .glower
   {
        animation: gloww 2s ease-in-out infinite;
        stroke-width: 0px;
        stroke: none;
        transform-origin: center;
        transform-box: fill;
   }

     @keyframes gloww{
      0% {  fill-opacity: 0.2;  transform: scale(1); }
      50%{       fill-opacity: 1;    transform: scale(1.15);     }
      100% {  fill-opacity: 0.2; transform: scale(1);  }

   }


</style>

<g id="Mianlayer">
<g id="Orbit" class="orbitt">
<path id="Vector" d="M153 179C153 147.837 158.268 117.95 167.645 95.915C177.021 73.8794 189.739 61.5 203 61.5C216.261 61.5 228.979 73.8794 238.355 95.915C247.732 117.95 253 147.837 253 179C253 210.163 247.732 240.05 238.355 262.085C228.979 284.121 216.261 296.5 203 296.5C189.739 296.5 177.021 284.121 167.645 262.085C158.268 240.05 153 210.163 153 179Z" stroke="url(#paint0_linear)" stroke-width="7" stroke-miterlimit="10" stroke-dasharray="548 550"/>
<path id="Vector_2" d="M167.643 214.355C145.608 192.32 128.2 167.462 119.249 145.25C110.298 123.039 110.537 105.292 119.914 95.9157C129.291 86.5389 147.037 86.2997 169.249 95.2507C191.46 104.202 216.318 121.61 238.353 143.645C260.389 165.68 277.797 190.538 286.748 212.75C295.698 234.961 295.459 252.707 286.083 262.084C276.706 271.461 258.96 271.7 236.748 262.749C214.536 253.798 189.679 236.39 167.643 214.355Z" stroke="url(#paint1_linear)" stroke-width="7" stroke-miterlimit="10" stroke-dasharray="548 550"/>
<path id="Vector_3" d="M119.914 262.084C110.537 252.707 110.298 234.961 119.249 212.75C128.2 190.538 145.608 165.68 167.643 143.645C189.679 121.61 214.536 104.202 236.748 95.2507C258.96 86.2997 276.706 86.5389 286.083 95.9157C295.459 105.292 295.698 123.039 286.748 145.25C277.797 167.462 260.389 192.32 238.353 214.355C216.318 236.39 191.46 253.798 169.249 262.749C147.037 271.7 129.291 271.461 119.914 262.084" stroke="url(#paint2_linear)" stroke-width="7" stroke-miterlimit="10" stroke-dasharray="548 550"/>
<path id="Vector_4" d="M85.5 179C85.5 165.739 97.8794 153.021 119.915 143.645C141.95 134.268 171.837 129 203 129C234.163 129 264.05 134.268 286.085 143.645C308.121 153.021 320.5 165.739 320.5 179C320.5 192.261 308.121 204.979 286.085 214.355C264.05 223.732 234.163 229 203 229C171.837 229 141.95 223.732 119.915 214.355C97.8794 204.979 85.5 192.261 85.5 179" stroke="url(#paint3_linear)" stroke-width="7" stroke-miterlimit="10" stroke-dasharray="548 550"/>
</g>
<path id="db" class="glower" d="M203 149.6C190.6 149.6 177.2 152.7 177.2 159.4V198.5C177.2 205.3 190.6 208.4 203 208.4H203.3C206.9 208.4 210.6 208.1 214.2 207.5C223.5 206 228.9 202.7 228.9 198.5V159.4C228.9 152.7 215.4 149.6 203 149.6ZM221.8 198.5C221.4 199.1 218.7 200.8 212.8 201.7C209.5 202.2 206.2 202.5 203 202.4C191.2 202.4 185 199.6 184.2 198.4V192.4C189.5 194.3 196.3 195.2 203 195.2C209.7 195.2 216.6 194.3 221.8 192.4V198.5ZM184.2 166.5C189.5 168.4 196.3 169.3 203 169.3C209.7 169.3 216.6 168.4 221.8 166.5V172.4C220.9 173.6 214.8 176.4 203 176.4C191.2 176.4 185 173.6 184.2 172.4V166.5ZM184.2 185.4V179.5C189.5 181.4 196.3 182.3 203 182.3C209.7 182.3 216.6 181.4 221.8 179.5V185.4C220.9 186.6 214.7 189.4 203 189.4C191.3 189.4 185 186.5 184.2 185.4ZM203 155.6C214.5 155.6 220.8 158.3 221.7 159.5C220.8 160.7 214.5 163.4 203 163.4C191.5 163.4 185.2 160.7 184.3 159.5C185.2 158.2 191.5 155.6 203 155.6Z" fill="url(#paint4_linear)"/>
<g id="balls" class="glower">
<path id="Vector_5" d="M131.3 242.9C131.3 241.15 131.995 239.471 133.233 238.233C134.471 236.995 136.15 236.3 137.9 236.3C139.65 236.3 141.329 236.995 142.567 238.233C143.805 239.471 144.5 241.15 144.5 242.9C144.5 244.65 143.805 246.329 142.567 247.567C141.329 248.805 139.65 249.5 137.9 249.5C136.15 249.5 134.471 248.805 133.233 247.567C131.995 246.329 131.3 244.65 131.3 242.9" fill="url(#paint5_linear)"/>
<path id="Vector_6" d="M261.5 242.9C261.5 242.033 261.671 241.175 262.002 240.374C262.334 239.574 262.82 238.846 263.433 238.233C264.046 237.62 264.774 237.134 265.574 236.802C266.375 236.471 267.233 236.3 268.1 236.3C268.967 236.3 269.825 236.471 270.626 236.802C271.426 237.134 272.154 237.62 272.767 238.233C273.38 238.846 273.866 239.574 274.198 240.374C274.529 241.175 274.7 242.033 274.7 242.9C274.7 243.767 274.529 244.625 274.198 245.426C273.866 246.226 273.38 246.954 272.767 247.567C272.154 248.18 271.426 248.666 270.626 248.998C269.825 249.329 268.967 249.5 268.1 249.5C267.233 249.5 266.375 249.329 265.574 248.998C264.774 248.666 264.046 248.18 263.433 247.567C262.82 246.954 262.334 246.226 262.002 245.426C261.671 244.625 261.5 243.767 261.5 242.9" fill="url(#paint6_linear)"/>
<path id="Vector_7" d="M131.4 115.1C131.4 114.246 131.568 113.401 131.895 112.613C132.221 111.824 132.7 111.107 133.304 110.504C133.907 109.9 134.624 109.421 135.413 109.095C136.201 108.768 137.046 108.6 137.9 108.6C138.754 108.6 139.599 108.768 140.387 109.095C141.176 109.421 141.893 109.9 142.496 110.504C143.1 111.107 143.579 111.824 143.905 112.613C144.232 113.401 144.4 114.246 144.4 115.1C144.4 115.954 144.232 116.799 143.905 117.587C143.579 118.376 143.1 119.093 142.496 119.696C141.893 120.3 141.176 120.779 140.387 121.105C139.599 121.432 138.754 121.6 137.9 121.6C137.046 121.6 136.201 121.432 135.413 121.105C134.624 120.779 133.907 120.3 133.304 119.696C132.7 119.093 132.221 118.376 131.895 117.587C131.568 116.799 131.4 115.954 131.4 115.1Z" fill="url(#paint7_linear)"/>
<path id="Vector_8" d="M261.5 115.1C261.5 114.233 261.671 113.375 262.002 112.574C262.334 111.774 262.82 111.046 263.433 110.433C264.046 109.82 264.774 109.334 265.574 109.002C266.375 108.671 267.233 108.5 268.1 108.5C268.967 108.5 269.825 108.671 270.626 109.002C271.426 109.334 272.154 109.82 272.767 110.433C273.38 111.046 273.866 111.774 274.198 112.574C274.529 113.375 274.7 114.233 274.7 115.1C274.7 115.967 274.529 116.825 274.198 117.626C273.866 118.426 273.38 119.154 272.767 119.767C272.154 120.38 271.426 120.866 270.626 121.198C269.825 121.529 268.967 121.7 268.1 121.7C267.233 121.7 266.375 121.529 265.574 121.198C264.774 120.866 264.046 120.38 263.433 119.767C262.82 119.154 262.334 118.426 262.002 117.626C261.671 116.825 261.5 115.967 261.5 115.1" fill="url(#paint8_linear)"/>
</g>

 <path id="pathText">
    <animate attributeName="d" from="m0,110 h0" to="m0,110 h1100" dur="2s" begin="0s" repeatCount="indefinite"/>
  </path>
<text id="texter" fill="url(#paint8_linear)" x="1" y="357" font-family="'Quicksand', sans-serif" font-size="36" font-weight="500" letter-spacing="0em">
  Go Codeless in Automation ! </text>
<path id="." d="M68.105 0.999C68.089 0.999 68.0767 0.994667 68.068 0.986C68.06 0.977333 68.056 0.964667 68.056 0.948V0.929C68.056 0.913 68.06 0.900667 68.068 0.892C68.0767 0.883333 68.089 0.879 68.105 0.879H68.115C68.1317 0.879 68.144 0.883333 68.152 0.892C68.1607 0.900667 68.165 0.913 68.165 0.929V0.948C68.165 0.982 68.1483 0.999 68.115 0.999H68.105Z" fill="black"/>
</g>
<defs>
<linearGradient id="paint0_linear" x1="149.5" y1="179" x2="256.5" y2="179" gradientUnits="userSpaceOnUse">
<stop stop-color="#D23274"/>
<stop offset="1" stop-color="#F24A37"/>
</linearGradient>
<linearGradient id="paint1_linear" x1="136.66" y1="245.339" x2="269.337" y2="112.661" gradientUnits="userSpaceOnUse">
<stop stop-color="#D23274"/>
<stop offset="1" stop-color="#F24A37"/>
</linearGradient>
<linearGradient id="paint2_linear" x1="136.66" y1="245.339" x2="269.337" y2="112.661" gradientUnits="userSpaceOnUse">
<stop stop-color="#D23274"/>
<stop offset="1" stop-color="#F24A37"/>
</linearGradient>
<linearGradient id="paint3_linear" x1="82" y1="179" x2="324" y2="179" gradientUnits="userSpaceOnUse">
<stop stop-color="#D23274"/>
<stop offset="1" stop-color="#F24A37"/>
</linearGradient>
<linearGradient id="paint4_linear" x1="177.15" y1="179" x2="228.85" y2="179" gradientUnits="userSpaceOnUse">
<stop stop-color="#D23274"/>
<stop offset="1" stop-color="#F24A37"/>
</linearGradient>
<linearGradient id="paint5_linear" x1="131.37" y1="242.9" x2="144.47" y2="242.9" gradientUnits="userSpaceOnUse">
<stop stop-color="#D23274"/>
<stop offset="1" stop-color="#F24A37"/>
</linearGradient>
<linearGradient id="paint6_linear" x1="261.53" y1="242.9" x2="274.63" y2="242.9" gradientUnits="userSpaceOnUse">
<stop stop-color="#D23274"/>
<stop offset="1" stop-color="#F24A37"/>
</linearGradient>
<linearGradient id="paint7_linear" x1="131.37" y1="115.1" x2="144.47" y2="115.1" gradientUnits="userSpaceOnUse">
<stop stop-color="#D23274"/>
<stop offset="1" stop-color="#F24A37"/>
</linearGradient>
<linearGradient id="paint8_linear" x1="261.53" y1="115.1" x2="274.63" y2="115.1" gradientUnits="userSpaceOnUse">
<stop stop-color="#D23274"/>
<stop offset="1" stop-color="#F24A37"/>
</linearGradient>
</defs>
</svg>
