<svg xmlns="http://www.w3.org/2000/svg" xmlns:xlink="http://www.w3.org/1999/xlink" viewBox="0 0 32 32"><defs><style>.cls-1{fill:url(#linear-gradient);}.cls-2{fill:url(#linear-gradient-2);}.cls-3{fill:url(#linear-gradient-3);}.cls-4{fill:url(#linear-gradient-5);}.cls-5{fill:url(#linear-gradient-6);}.cls-6{fill:url(#linear-gradient-7);}.cls-7{fill:url(#linear-gradient-8);}.cls-8{fill:url(#linear-gradient-9);}</style><linearGradient id="linear-gradient" x1="11.21" y1="20.79" x2="20.79" y2="11.21" gradientUnits="userSpaceOnUse"><stop offset="0" stop-color="#d23274"/><stop offset="1" stop-color="#f24a37"/></linearGradient><linearGradient id="linear-gradient-2" x1="4.69" y1="27.31" x2="27.31" y2="4.69" xlink:href="#linear-gradient"/><linearGradient id="linear-gradient-3" x1="7.31" y1="24.69" x2="24.69" y2="7.31" xlink:href="#linear-gradient"/><linearGradient id="linear-gradient-5" x1="12.76" y1="19.24" x2="19.24" y2="12.76" xlink:href="#linear-gradient"/><linearGradient id="linear-gradient-6" x1="6.51" y1="25.33" x2="7.77" y2="24.07" xlink:href="#linear-gradient"/><linearGradient id="linear-gradient-7" x1="24.23" y1="25.33" x2="25.49" y2="24.07" xlink:href="#linear-gradient"/><linearGradient id="linear-gradient-8" x1="6.51" y1="7.93" x2="7.77" y2="6.67" xlink:href="#linear-gradient"/><linearGradient id="linear-gradient-9" x1="24.23" y1="7.93" x2="25.49" y2="6.67" xlink:href="#linear-gradient"/></defs><title>32px</title><g id="Layer_2" data-name="Layer 2"><g id="Layer_1-2" data-name="Layer 1"><path class="cls-1" d="M7.45,4.6a8.7,8.7,0,0,1,2.6.47,18.22,18.22,0,0,1,3.17,1.41,31.91,31.91,0,0,1,6.94,5.36,34.44,34.44,0,0,1,3.93,4.66,22.74,22.74,0,0,1,2.47,4.44,10.08,10.08,0,0,1,.84,3.62,2.53,2.53,0,0,1-2.85,2.84,8.7,8.7,0,0,1-2.6-.47,18.22,18.22,0,0,1-3.17-1.41,31.91,31.91,0,0,1-6.94-5.36A34.44,34.44,0,0,1,7.91,15.5a22.74,22.74,0,0,1-2.47-4.44A10.08,10.08,0,0,1,4.6,7.44a2.86,2.86,0,0,1,.72-2.12A2.87,2.87,0,0,1,7.45,4.6h0m0-.89a3.73,3.73,0,0,0-2.76,1C2,7.33,5,14.55,11.21,20.79c4.68,4.69,9.9,7.5,13.34,7.5a3.73,3.73,0,0,0,2.76-1c2.65-2.64-.27-9.86-6.52-16.1-4.68-4.69-9.9-7.5-13.34-7.5Z"/><path class="cls-2" d="M24.55,3.71V4.6a2.87,2.87,0,0,1,2.13.72,2.86,2.86,0,0,1,.72,2.12,10.08,10.08,0,0,1-.84,3.62,22.74,22.74,0,0,1-2.47,4.44,34.44,34.44,0,0,1-3.93,4.66,31.91,31.91,0,0,1-6.94,5.36,18.22,18.22,0,0,1-3.17,1.41,8.7,8.7,0,0,1-2.6.47,2.87,2.87,0,0,1-2.13-.72,2.86,2.86,0,0,1-.72-2.12,10.08,10.08,0,0,1,.84-3.62A22.74,22.74,0,0,1,7.91,16.5a34.44,34.44,0,0,1,3.93-4.66,31.91,31.91,0,0,1,6.94-5.36A18.22,18.22,0,0,1,22,5.07a8.7,8.7,0,0,1,2.6-.47V3.71m0,0c-3.44,0-8.66,2.81-13.34,7.5C5,17.45,2,24.67,4.69,27.31a3.73,3.73,0,0,0,2.76,1c3.44,0,8.66-2.81,13.34-7.5C27,14.55,30,7.33,27.31,4.69a3.73,3.73,0,0,0-2.76-1Z"/><path class="cls-3" d="M16,10.11a34.91,34.91,0,0,1,6.07.52A22.93,22.93,0,0,1,27,12a10.09,10.09,0,0,1,3.14,2,2.91,2.91,0,0,1,1,2,2.91,2.91,0,0,1-1,2A10.09,10.09,0,0,1,27,20a22.93,22.93,0,0,1-4.9,1.4,34.91,34.91,0,0,1-6.07.52,34.91,34.91,0,0,1-6.07-.52A22.93,22.93,0,0,1,5,20a10.09,10.09,0,0,1-3.14-2,2.91,2.91,0,0,1-1-2,2.91,2.91,0,0,1,1-2A10.09,10.09,0,0,1,5,12a22.93,22.93,0,0,1,4.9-1.4A34.91,34.91,0,0,1,16,10.11m0-.89c-8.84,0-16,3-16,6.78s7.16,6.78,16,6.78,16-3,16-6.78S24.84,9.22,16,9.22Z"/><path class="cls-3" d="M16,.89a2.91,2.91,0,0,1,2,1A10.09,10.09,0,0,1,20,5a22.93,22.93,0,0,1,1.4,4.9A34.91,34.91,0,0,1,21.89,16a34.91,34.91,0,0,1-.52,6.07A22.93,22.93,0,0,1,20,27a10.09,10.09,0,0,1-2,3.14,2.91,2.91,0,0,1-2,1,2.91,2.91,0,0,1-2-1A10.09,10.09,0,0,1,12,27a22.93,22.93,0,0,1-1.4-4.9,35.69,35.69,0,0,1,0-12.14A22.93,22.93,0,0,1,12,5a10.09,10.09,0,0,1,2-3.14,2.91,2.91,0,0,1,2-1M16,0C12.26,0,9.22,7.16,9.22,16s3,16,6.78,16,6.78-7.16,6.78-16S19.74,0,16,0Z"/><path class="cls-4" d="M16,12c-1.69,0-3.52.41-3.52,1.34v5.32c0,.92,1.83,1.34,3.51,1.34h0a9.22,9.22,0,0,0,1.48-.11c1.27-.21,2-.66,2-1.23V13.34C19.52,12.41,17.69,12,16,12Zm2.57,6.65a2.25,2.25,0,0,1-1.23.44,8.54,8.54,0,0,1-1.34.1,4.29,4.29,0,0,1-2.57-.54v-.81a7.89,7.89,0,0,0,2.57.38,7.89,7.89,0,0,0,2.57-.38Zm-5.14-4.36a7.88,7.88,0,0,0,2.57.39,7.88,7.88,0,0,0,2.57-.39v.81a4.35,4.35,0,0,1-2.57.54,4.35,4.35,0,0,1-2.57-.54Zm0,2.58v-.81a7.63,7.63,0,0,0,2.57.39,7.63,7.63,0,0,0,2.57-.39v.81a4.29,4.29,0,0,1-2.57.54A4.29,4.29,0,0,1,13.43,16.87ZM16,12.81a4.24,4.24,0,0,1,2.55.53,4.32,4.32,0,0,1-2.55.53,4.31,4.31,0,0,1-2.54-.53A4.22,4.22,0,0,1,16,12.81Z"/><circle class="cls-5" cx="7.14" cy="24.7" r="0.89"/><circle class="cls-6" cx="24.86" cy="24.7" r="0.89"/><circle class="cls-7" cx="7.14" cy="7.3" r="0.89"/><circle class="cls-8" cx="24.86" cy="7.3" r="0.89"/></g></g></svg>